M48
METRIC,LZ,000.000
;FILE_FORMAT=3:3
;TYPE=PLATED
;Layer: PTH_Through
;EasyEDA v6.4.31, 2022-02-12 11:49:02
;e007ce868bfc41669b98f304f8b66a95,955daf9958a1483280a48a3f8fd5623a,10
;Gerber Generator version 0.2
;Holesize 1 = 0.701 mm
T01C0.701
;Holesize 2 = 0.901 mm
T02C0.901
;Holesize 3 = 0.915 mm
T03C0.915
;Holesize 4 = 1.001 mm
T04C1.001
;Holesize 5 = 1.016 mm
T05C1.016
%
G05
G90
T01
X042590Y056642G85X042596Y056642
X044590Y056642G85X044596Y056642
X046590Y056642G85X046596Y056642
X048590Y056642G85X048596Y056642
X057830Y071120G85X057836Y071120
X059830Y071120G85X059836Y071120
X061830Y071120G85X061836Y071120
X063830Y071120G85X063836Y071120
X042590Y070866G85X042596Y070866
X044590Y070866G85X044596Y070866
X046590Y070866G85X046596Y070866
X048590Y070866G85X048596Y070866
X057957Y056642G85X057963Y056642
X059957Y056642G85X059963Y056642
X061957Y056642G85X061963Y056642
X063957Y056642G85X063963Y056642
X057830Y091440G85X057836Y091440
X059830Y091440G85X059836Y091440
X061830Y091440G85X061836Y091440
X063830Y091440G85X063836Y091440
X042590Y081026G85X042596Y081026
X044590Y081026G85X044596Y081026
X046590Y081026G85X046596Y081026
X048590Y081026G85X048596Y081026
X057830Y081280G85X057836Y081280
X059830Y081280G85X059836Y081280
X061830Y081280G85X061836Y081280
X063830Y081280G85X063836Y081280
X042590Y091440G85X042596Y091440
X044590Y091440G85X044596Y091440
X046590Y091440G85X046596Y091440
X048590Y091440G85X048596Y091440
T02
X029613Y069596
X029569Y072136
X021463Y069469
X021463Y072009
T03
X070993Y095631
X073533Y095631
X070993Y093091
X073533Y093091
X070993Y090551
X073533Y090551
X070993Y088011
X073533Y088011
X070993Y085471
X073533Y085471
X070993Y082931
X073533Y082931
X070993Y080391
X073533Y080391
X070993Y077851
X073533Y077851
X070993Y075311
X073533Y075311
X070993Y072771
X073533Y072771
X070993Y070231
X073533Y070231
X070993Y067691
X073533Y067691
X070993Y065151
X073533Y065151
X070993Y062611
X073533Y062611
X070993Y060071
X073533Y060071
X070993Y057531
X073533Y057531
X070993Y054991
X073533Y054991
X070993Y052451
X073533Y052451
X070993Y049911
X073533Y049911
X010033Y095631
X012573Y095631
X010033Y093091
X012573Y093091
X010033Y090551
X012573Y090551
X010033Y088011
X012573Y088011
X010033Y085471
X012573Y085471
X010033Y082931
X012573Y082931
X010033Y080391
X012573Y080391
X010033Y077851
X012573Y077851
X010033Y075311
X012573Y075311
X010033Y072771
X012573Y072771
X010033Y070231
X012573Y070231
X010033Y067691
X012573Y067691
X010033Y065151
X012573Y065151
X010033Y062611
X012573Y062611
X010033Y060071
X012573Y060071
X010033Y057531
X012573Y057531
X010033Y054991
X012573Y054991
X010033Y052451
X012573Y052451
X010033Y049911
X012573Y049911
X036957Y102997
X036957Y097917
X045085Y098044
X045085Y103124
X062738Y107061
X062738Y112141
X021463Y052428
X021463Y065428
X056134Y115974
X056134Y102974
X029591Y052428
X029591Y065428
T04
X020828Y110617
X018288Y110617
X018288Y103378
X020828Y103378
T05
X024765Y090043
X024765Y087503
X024765Y084963
X024765Y082423
X024765Y079883
X024765Y077343
M30
