M48
METRIC,LZ,000.000
;FILE_FORMAT=3:3
;TYPE=PLATED
;Layer: PTH_Through
;EasyEDA v6.4.31, 2022-02-12 21:58:38
;11df6e3db19843adbe4402e5d5cbdb9a,955daf9958a1483280a48a3f8fd5623a,10
;Gerber Generator version 0.2
;Holesize 1 = 0.305 mm
T01C0.305
;Holesize 2 = 0.306 mm
T02C0.306
;Holesize 3 = 0.701 mm
T03C0.701
;Holesize 4 = 0.901 mm
T04C0.901
;Holesize 5 = 0.915 mm
T05C0.915
;Holesize 6 = 1.001 mm
T06C1.001
;Holesize 7 = 1.101 mm
T07C1.101
%
G05
G90
T01
X068587Y052451
X068621Y049911
X067564Y093091
X067564Y090551
X055931Y087773
T02
X068580Y079883
X068497Y077851
X068531Y075311
X068648Y065151
X068614Y067691
X068580Y070231
X068546Y072771
X015240Y054991
X015240Y052451
X015240Y049911
X008128Y052451
X008128Y049911
X008128Y091821
X009906Y098602
X012573Y098552
X015271Y077851
X029845Y091821
X029852Y089785
X042164Y061976
X033077Y087773
T03
X051816Y091776G85X051816Y091770
X051816Y089776G85X051816Y089770
X051816Y087776G85X051816Y087770
X051816Y085776G85X051816Y085770
X061849Y091776G85X061849Y091770
X061849Y089776G85X061849Y089770
X061849Y087776G85X061849Y087770
X061849Y085776G85X061849Y085770
X061341Y053131G85X061341Y053137
X061341Y055131G85X061341Y055137
X061341Y057131G85X061341Y057137
X061341Y059131G85X061341Y059137
X025527Y091776G85X025527Y091770
X025527Y089776G85X025527Y089770
X025527Y087776G85X025527Y087770
X025527Y085776G85X025527Y085770
X042164Y091776G85X042164Y091770
X042164Y089776G85X042164Y089770
X042164Y087776G85X042164Y087770
X042164Y085776G85X042164Y085770
T04
X022098Y066040
X019558Y066040
X055880Y111125
X055880Y113665
X021971Y051203
X019431Y051159
X022098Y058420
X019558Y058420
T05
X037361Y051181
X024361Y051181
X037361Y058420
X024361Y058420
X063119Y115974
X063119Y102974
X055880Y095735
X055880Y108735
X037488Y066040
X024488Y066040
X070993Y095631
X073533Y095631
X070993Y093091
X073533Y093091
X070993Y090551
X073533Y090551
X070993Y088011
X073533Y088011
X070993Y085471
X073533Y085471
X070993Y082931
X073533Y082931
X070993Y080391
X073533Y080391
X070993Y077851
X073533Y077851
X070993Y075311
X073533Y075311
X070993Y072771
X073533Y072771
X070993Y070231
X073533Y070231
X070993Y067691
X073533Y067691
X070993Y065151
X073533Y065151
X070993Y062611
X073533Y062611
X070993Y060071
X073533Y060071
X070993Y057531
X073533Y057531
X070993Y054991
X073533Y054991
X070993Y052451
X073533Y052451
X070993Y049911
X073533Y049911
X010033Y095631
X012573Y095631
X010033Y093091
X012573Y093091
X010033Y090551
X012573Y090551
X010033Y088011
X012573Y088011
X010033Y085471
X012573Y085471
X010033Y082931
X012573Y082931
X010033Y080391
X012573Y080391
X010033Y077851
X012573Y077851
X010033Y075311
X012573Y075311
X010033Y072771
X012573Y072771
X010033Y070231
X012573Y070231
X010033Y067691
X012573Y067691
X010033Y065151
X012573Y065151
X010033Y062611
X012573Y062611
X010033Y060071
X012573Y060071
X010033Y057531
X012573Y057531
X010033Y054991
X012573Y054991
X010033Y052451
X012573Y052451
X010033Y049911
X012573Y049911
X030480Y112014
X030480Y106934
X039878Y102997
X044958Y102997
T06
X018669Y112014
X016129Y112014
X016129Y104775
X018669Y104775
T07
X045974Y072136
X048514Y072136
X045974Y069596
X048514Y069596
X045974Y067056
X048514Y067056
X045974Y064516
X048514Y064516
X045974Y061976
X048514Y061976
X045974Y059436
X048514Y059436
M30
