G04 Layer: TopSilkscreenLayer*
G04 EasyEDA v6.4.31, 2022-02-12 11:49:02*
G04 e007ce868bfc41669b98f304f8b66a95,955daf9958a1483280a48a3f8fd5623a,10*
G04 Gerber Generator version 0.2*
G04 Scale: 100 percent, Rotated: No, Reflected: No *
G04 Dimensions in millimeters *
G04 leading zeros omitted , absolute positions ,4 integer and 5 decimal *
%FSLAX45Y45*%
%MOMM*%

%ADD10C,0.2540*%
%ADD20C,0.1270*%
%ADD21C,0.2500*%
%ADD22C,0.2032*%
%ADD23C,0.1524*%

%LPD*%
G36*
X1573022Y10387076D02*
G01*
X1573022Y10342626D01*
X1531620Y10342626D01*
X1531620Y10330180D01*
X1573022Y10330180D01*
X1573022Y10285476D01*
X1586484Y10285476D01*
X1586484Y10330180D01*
X1627886Y10330180D01*
X1627886Y10342626D01*
X1586484Y10342626D01*
X1586484Y10387076D01*
G37*
G36*
X1054608Y11147044D02*
G01*
X1102360Y10998200D01*
X1121664Y10998200D01*
X1169162Y11147044D01*
X1152144Y11147044D01*
X1114602Y11022126D01*
X1112520Y11015726D01*
X1111758Y11015726D01*
X1104341Y11040211D01*
X1097280Y11064748D01*
X1072134Y11147044D01*
G37*
G36*
X1189990Y11147044D02*
G01*
X1189990Y11133582D01*
X1230630Y11133582D01*
X1239113Y11133226D01*
X1246530Y11132210D01*
X1252829Y11130432D01*
X1257960Y11127892D01*
X1261973Y11124438D01*
X1264869Y11120069D01*
X1266647Y11114786D01*
X1267206Y11108436D01*
X1266698Y11102898D01*
X1265123Y11097920D01*
X1262430Y11093602D01*
X1258519Y11089944D01*
X1253337Y11086998D01*
X1246835Y11084814D01*
X1238961Y11083493D01*
X1229614Y11083036D01*
X1207008Y11083036D01*
X1207008Y11133582D01*
X1189990Y11133582D01*
X1189990Y11070082D01*
X1233678Y11070082D01*
X1240231Y11069878D01*
X1246276Y11069370D01*
X1251762Y11068456D01*
X1256741Y11067135D01*
X1261211Y11065459D01*
X1265072Y11063376D01*
X1268374Y11060938D01*
X1271117Y11058042D01*
X1273302Y11054740D01*
X1274826Y11051082D01*
X1275791Y11046917D01*
X1276096Y11042396D01*
X1275791Y11037316D01*
X1274775Y11032693D01*
X1273200Y11028578D01*
X1270965Y11024920D01*
X1268171Y11021771D01*
X1264818Y11019028D01*
X1260856Y11016742D01*
X1256436Y11014913D01*
X1251458Y11013440D01*
X1245971Y11012474D01*
X1240078Y11011865D01*
X1233678Y11011662D01*
X1207008Y11011662D01*
X1207008Y11070082D01*
X1189990Y11070082D01*
X1189990Y10998200D01*
X1236472Y10998200D01*
X1242568Y10998352D01*
X1248460Y10998860D01*
X1253998Y10999724D01*
X1259281Y11000892D01*
X1264259Y11002416D01*
X1268831Y11004296D01*
X1273098Y11006531D01*
X1277010Y11009071D01*
X1280515Y11011966D01*
X1283614Y11015167D01*
X1286306Y11018723D01*
X1288491Y11022634D01*
X1290269Y11026851D01*
X1291539Y11031474D01*
X1292352Y11036350D01*
X1292606Y11041634D01*
X1292047Y11048847D01*
X1290370Y11055299D01*
X1287678Y11060938D01*
X1284122Y11065814D01*
X1279652Y11069929D01*
X1274368Y11073231D01*
X1268425Y11075720D01*
X1261872Y11077448D01*
X1261872Y11078210D01*
X1266901Y11080394D01*
X1271320Y11083239D01*
X1275130Y11086642D01*
X1278280Y11090605D01*
X1280718Y11095075D01*
X1282496Y11099901D01*
X1283614Y11105032D01*
X1283970Y11110468D01*
X1283563Y11116614D01*
X1282293Y11122152D01*
X1280261Y11127130D01*
X1277518Y11131448D01*
X1274064Y11135258D01*
X1269898Y11138458D01*
X1265123Y11141151D01*
X1259789Y11143335D01*
X1253845Y11144961D01*
X1247444Y11146129D01*
X1240536Y11146840D01*
X1233170Y11147044D01*
G37*
G36*
X1353566Y11147044D02*
G01*
X1323311Y11058398D01*
X1339088Y11058398D01*
X1354785Y11107369D01*
X1362202Y11132820D01*
X1362964Y11132820D01*
X1374292Y11095024D01*
X1378458Y11082528D01*
X1386078Y11058398D01*
X1323311Y11058398D01*
X1302766Y10998200D01*
X1319784Y10998200D01*
X1335024Y11045190D01*
X1390396Y11045190D01*
X1405128Y10998200D01*
X1423162Y10998200D01*
X1372108Y11147044D01*
G37*
G36*
X1418590Y11147044D02*
G01*
X1418590Y11132820D01*
X1464056Y11132820D01*
X1464056Y10998200D01*
X1481074Y10998200D01*
X1481074Y11132820D01*
X1526540Y11132820D01*
X1526540Y11147044D01*
G37*
G36*
X1539240Y11147044D02*
G01*
X1539240Y11132820D01*
X1584706Y11132820D01*
X1584706Y10998200D01*
X1601724Y10998200D01*
X1601724Y11132820D01*
X1647189Y11132820D01*
X1647189Y11147044D01*
G37*
G36*
X2365502Y11124184D02*
G01*
X2359660Y11123980D01*
X2354021Y11123320D01*
X2348585Y11122253D01*
X2343353Y11120780D01*
X2338324Y11118850D01*
X2333548Y11116564D01*
X2328976Y11113922D01*
X2324709Y11110823D01*
X2320696Y11107420D01*
X2316937Y11103610D01*
X2313533Y11099444D01*
X2310384Y11094923D01*
X2307590Y11090097D01*
X2305100Y11084915D01*
X2302967Y11079378D01*
X2301189Y11073587D01*
X2299766Y11067440D01*
X2298750Y11060988D01*
X2298141Y11054232D01*
X2297938Y11047222D01*
X2298141Y11040110D01*
X2298750Y11033353D01*
X2299716Y11026851D01*
X2301087Y11020704D01*
X2302814Y11014862D01*
X2304897Y11009325D01*
X2307336Y11004143D01*
X2310079Y10999266D01*
X2313127Y10994796D01*
X2316530Y10990630D01*
X2320188Y10986871D01*
X2324100Y10983468D01*
X2328316Y10980420D01*
X2332786Y10977778D01*
X2337460Y10975492D01*
X2342438Y10973612D01*
X2347569Y10972190D01*
X2352954Y10971123D01*
X2358491Y10970463D01*
X2364232Y10970260D01*
X2371496Y10970564D01*
X2378354Y10971530D01*
X2384856Y10973054D01*
X2390851Y10975035D01*
X2396388Y10977524D01*
X2401417Y10980420D01*
X2405837Y10983722D01*
X2409698Y10987278D01*
X2409698Y11049000D01*
X2361692Y11049000D01*
X2361692Y11035030D01*
X2394204Y11035030D01*
X2394204Y10994390D01*
X2388768Y10990478D01*
X2381859Y10987481D01*
X2374036Y10985652D01*
X2365756Y10984992D01*
X2359863Y10985296D01*
X2354326Y10986109D01*
X2349093Y10987481D01*
X2344267Y10989360D01*
X2339746Y10991748D01*
X2335580Y10994644D01*
X2331821Y10997996D01*
X2328367Y11001857D01*
X2325370Y11006124D01*
X2322677Y11010849D01*
X2320442Y11015980D01*
X2318562Y11021517D01*
X2317089Y11027460D01*
X2316073Y11033760D01*
X2315413Y11040465D01*
X2315210Y11047476D01*
X2315464Y11054486D01*
X2316124Y11061141D01*
X2317242Y11067440D01*
X2318766Y11073333D01*
X2320747Y11078870D01*
X2323084Y11083950D01*
X2325827Y11088624D01*
X2328976Y11092840D01*
X2332431Y11096650D01*
X2336241Y11099952D01*
X2340406Y11102797D01*
X2344877Y11105184D01*
X2349703Y11107013D01*
X2354783Y11108385D01*
X2360117Y11109198D01*
X2365756Y11109452D01*
X2376373Y11108334D01*
X2385212Y11105286D01*
X2392476Y11100765D01*
X2398522Y11095228D01*
X2407920Y11106150D01*
X2404465Y11109401D01*
X2400554Y11112601D01*
X2396134Y11115649D01*
X2391206Y11118392D01*
X2385669Y11120729D01*
X2379573Y11122558D01*
X2372868Y11123777D01*
G37*
G36*
X2445766Y11121644D02*
G01*
X2445766Y10972800D01*
X2461514Y10972800D01*
X2461463Y11060125D01*
X2460802Y11077244D01*
X2459482Y11099546D01*
X2460498Y11099546D01*
X2476754Y11069066D01*
X2532634Y10972800D01*
X2550160Y10972800D01*
X2550160Y11121644D01*
X2534158Y11121644D01*
X2534208Y11035385D01*
X2535275Y11011916D01*
X2536444Y10994644D01*
X2535428Y10994644D01*
X2519172Y11025124D01*
X2463038Y11121644D01*
G37*
G36*
X2591562Y11121644D02*
G01*
X2591562Y11107674D01*
X2626868Y11107674D01*
X2633421Y11107420D01*
X2639517Y11106658D01*
X2645206Y11105388D01*
X2650439Y11103660D01*
X2655265Y11101425D01*
X2659684Y11098733D01*
X2663647Y11095583D01*
X2667203Y11091976D01*
X2670302Y11087912D01*
X2672994Y11083442D01*
X2675280Y11078514D01*
X2677160Y11073180D01*
X2678582Y11067389D01*
X2679649Y11061242D01*
X2680258Y11054689D01*
X2680462Y11047730D01*
X2680258Y11040821D01*
X2679649Y11034217D01*
X2678582Y11028019D01*
X2677160Y11022177D01*
X2675280Y11016742D01*
X2672994Y11011712D01*
X2670302Y11007090D01*
X2667203Y11002924D01*
X2663647Y10999165D01*
X2659684Y10995914D01*
X2655265Y10993069D01*
X2650439Y10990783D01*
X2645206Y10988903D01*
X2639517Y10987582D01*
X2633421Y10986770D01*
X2626868Y10986516D01*
X2608580Y10986516D01*
X2608580Y11107674D01*
X2591562Y11107674D01*
X2591562Y10972800D01*
X2628900Y10972800D01*
X2635504Y10973003D01*
X2641752Y10973612D01*
X2647696Y10974679D01*
X2653334Y10976102D01*
X2658618Y10977930D01*
X2663596Y10980166D01*
X2668219Y10982756D01*
X2672537Y10985703D01*
X2676550Y10989056D01*
X2680157Y10992764D01*
X2683459Y10996777D01*
X2686456Y11001146D01*
X2689098Y11005870D01*
X2691384Y11010950D01*
X2693314Y11016284D01*
X2694889Y11021974D01*
X2696108Y11027968D01*
X2697022Y11034268D01*
X2697530Y11040872D01*
X2697734Y11047730D01*
X2697530Y11054588D01*
X2697022Y11061141D01*
X2696108Y11067440D01*
X2694889Y11073384D01*
X2693263Y11078972D01*
X2691333Y11084306D01*
X2689047Y11089284D01*
X2686405Y11093958D01*
X2683408Y11098225D01*
X2680106Y11102238D01*
X2676398Y11105845D01*
X2672384Y11109096D01*
X2668016Y11111992D01*
X2663342Y11114532D01*
X2658313Y11116665D01*
X2652928Y11118443D01*
X2647238Y11119815D01*
X2641193Y11120831D01*
X2634843Y11121440D01*
X2628138Y11121644D01*
G37*
G36*
X4186174Y5198872D02*
G01*
X4186174Y5182108D01*
X4321352Y5182108D01*
X4321352Y5156200D01*
X4320946Y5147665D01*
X4319879Y5140198D01*
X4317949Y5133797D01*
X4315104Y5128463D01*
X4311345Y5124297D01*
X4306519Y5121300D01*
X4300677Y5119471D01*
X4293666Y5118862D01*
X4286707Y5119471D01*
X4280662Y5121300D01*
X4275632Y5124297D01*
X4271467Y5128463D01*
X4268266Y5133797D01*
X4265980Y5140198D01*
X4264609Y5147665D01*
X4264202Y5156200D01*
X4264202Y5182108D01*
X4250486Y5182108D01*
X4250486Y5154168D01*
X4186174Y5117084D01*
X4186174Y5098288D01*
X4251960Y5136642D01*
X4253382Y5131511D01*
X4255109Y5126786D01*
X4257243Y5122367D01*
X4259732Y5118303D01*
X4262628Y5114696D01*
X4265879Y5111445D01*
X4269486Y5108702D01*
X4273550Y5106365D01*
X4277969Y5104536D01*
X4282795Y5103215D01*
X4288028Y5102352D01*
X4293666Y5102098D01*
X4300880Y5102555D01*
X4307281Y5103774D01*
X4312970Y5105857D01*
X4317898Y5108702D01*
X4322165Y5112207D01*
X4325772Y5116423D01*
X4328718Y5121249D01*
X4331106Y5126685D01*
X4332884Y5132628D01*
X4334103Y5139131D01*
X4334814Y5146040D01*
X4335068Y5153406D01*
X4335068Y5198872D01*
G37*
G36*
X4186174Y5089398D02*
G01*
X4186174Y5071872D01*
X4233214Y5046522D01*
X4251706Y5037328D01*
X4251706Y5036312D01*
X4186174Y5000752D01*
X4186174Y4982210D01*
X4262170Y5025898D01*
X4335068Y4985004D01*
X4335068Y5002530D01*
X4290517Y5026202D01*
X4274058Y5034280D01*
X4274058Y5035296D01*
X4285488Y5041341D01*
X4295394Y5046980D01*
X4335068Y5068062D01*
X4335068Y5086858D01*
X4262932Y5045964D01*
G37*
G36*
X4536694Y5200396D02*
G01*
X4536694Y5155184D01*
X4402074Y5155184D01*
X4402074Y5138166D01*
X4536694Y5138166D01*
X4536694Y5092700D01*
X4550968Y5092700D01*
X4550968Y5200396D01*
G37*
G36*
X4402074Y5087112D02*
G01*
X4402074Y5069586D01*
X4443476Y5046980D01*
X4467606Y5034788D01*
X4467606Y5034026D01*
X4443476Y5021072D01*
X4402074Y4998212D01*
X4402074Y4979924D01*
X4478070Y5023612D01*
X4550968Y4982718D01*
X4550968Y5000244D01*
X4506417Y5023866D01*
X4489958Y5031740D01*
X4489958Y5032756D01*
X4501388Y5039004D01*
X4511294Y5044694D01*
X4550968Y5065776D01*
X4550968Y5084572D01*
X4478832Y5043678D01*
G37*
G36*
X4741468Y5206492D02*
G01*
X4592574Y5158740D01*
X4592574Y5139436D01*
X4741468Y5091938D01*
X4741468Y5108956D01*
X4616551Y5146497D01*
X4610150Y5148580D01*
X4610150Y5149342D01*
X4622698Y5153253D01*
X4652721Y5161991D01*
X4741468Y5188966D01*
G37*
G36*
X4667046Y5082032D02*
G01*
X4659934Y5081828D01*
X4653127Y5081219D01*
X4646676Y5080254D01*
X4640478Y5078933D01*
X4634636Y5077206D01*
X4629099Y5075174D01*
X4623917Y5072786D01*
X4619091Y5070094D01*
X4614570Y5067096D01*
X4610455Y5063845D01*
X4606645Y5060289D01*
X4603242Y5056479D01*
X4600194Y5052415D01*
X4597552Y5048097D01*
X4595317Y5043576D01*
X4593437Y5038801D01*
X4591964Y5033873D01*
X4590897Y5028742D01*
X4590288Y5023459D01*
X4590084Y5018024D01*
X4590389Y5011013D01*
X4591456Y5004409D01*
X4593183Y4998262D01*
X4595571Y4992471D01*
X4598619Y4987036D01*
X4602276Y4982006D01*
X4606544Y4977231D01*
X4611420Y4972812D01*
X4621834Y4981956D01*
X4617923Y4985715D01*
X4614519Y4989626D01*
X4611624Y4993640D01*
X4609185Y4997907D01*
X4607306Y5002326D01*
X4605934Y5007051D01*
X4605070Y5011978D01*
X4604816Y5017262D01*
X4605070Y5022596D01*
X4605883Y5027676D01*
X4607255Y5032502D01*
X4609185Y5037023D01*
X4611573Y5041239D01*
X4614468Y5045151D01*
X4617821Y5048707D01*
X4621631Y5051958D01*
X4625949Y5054854D01*
X4630674Y5057444D01*
X4635804Y5059629D01*
X4641342Y5061458D01*
X4647285Y5062880D01*
X4653584Y5063896D01*
X4660239Y5064556D01*
X4667300Y5064760D01*
X4674311Y5064556D01*
X4680966Y5063896D01*
X4687214Y5062829D01*
X4693158Y5061305D01*
X4698644Y5059426D01*
X4703724Y5057190D01*
X4708398Y5054549D01*
X4712665Y5051602D01*
X4716424Y5048250D01*
X4719777Y5044592D01*
X4722622Y5040630D01*
X4724958Y5036362D01*
X4726838Y5031790D01*
X4728159Y5026964D01*
X4728972Y5021834D01*
X4729226Y5016500D01*
X4728210Y5007305D01*
X4725263Y4999126D01*
X4720793Y4991963D01*
X4715052Y4985766D01*
X4725924Y4976368D01*
X4729429Y4979822D01*
X4732731Y4983784D01*
X4735779Y4988204D01*
X4738471Y4993030D01*
X4740757Y4998313D01*
X4742484Y5004054D01*
X4743602Y5010200D01*
X4743958Y5016754D01*
X4743754Y5022291D01*
X4743094Y5027726D01*
X4742027Y5032959D01*
X4740554Y5037988D01*
X4738674Y5042814D01*
X4736388Y5047437D01*
X4733696Y5051806D01*
X4730648Y5055971D01*
X4727194Y5059883D01*
X4723434Y5063490D01*
X4719269Y5066842D01*
X4714748Y5069890D01*
X4709871Y5072634D01*
X4704689Y5075021D01*
X4699203Y5077104D01*
X4693361Y5078831D01*
X4687214Y5080203D01*
X4680762Y5081219D01*
X4674057Y5081828D01*
G37*
G36*
X4667046Y4959350D02*
G01*
X4659934Y4959146D01*
X4653127Y4958537D01*
X4646676Y4957572D01*
X4640478Y4956251D01*
X4634636Y4954524D01*
X4629099Y4952492D01*
X4623917Y4950104D01*
X4619091Y4947412D01*
X4614570Y4944414D01*
X4610455Y4941163D01*
X4606645Y4937607D01*
X4603242Y4933797D01*
X4600194Y4929733D01*
X4597552Y4925415D01*
X4595317Y4920894D01*
X4593437Y4916119D01*
X4591964Y4911191D01*
X4590897Y4906060D01*
X4590288Y4900777D01*
X4590084Y4895342D01*
X4590389Y4888331D01*
X4591456Y4881727D01*
X4593183Y4875530D01*
X4595571Y4869738D01*
X4598619Y4864303D01*
X4602276Y4859172D01*
X4606544Y4854397D01*
X4611420Y4849876D01*
X4621834Y4859274D01*
X4617923Y4863033D01*
X4614519Y4866944D01*
X4611624Y4870958D01*
X4609185Y4875225D01*
X4607306Y4879644D01*
X4605934Y4884369D01*
X4605070Y4889296D01*
X4604816Y4894580D01*
X4605070Y4899914D01*
X4605883Y4904994D01*
X4607255Y4909820D01*
X4609185Y4914341D01*
X4611573Y4918557D01*
X4614468Y4922469D01*
X4617821Y4926025D01*
X4621631Y4929276D01*
X4625949Y4932172D01*
X4630674Y4934762D01*
X4635804Y4936947D01*
X4641342Y4938776D01*
X4647285Y4940198D01*
X4653584Y4941214D01*
X4660239Y4941874D01*
X4667300Y4942078D01*
X4674311Y4941874D01*
X4680966Y4941214D01*
X4687214Y4940147D01*
X4693158Y4938623D01*
X4698644Y4936744D01*
X4703724Y4934508D01*
X4708398Y4931867D01*
X4712665Y4928920D01*
X4716424Y4925568D01*
X4719777Y4921910D01*
X4722622Y4917948D01*
X4724958Y4913680D01*
X4726838Y4909108D01*
X4728159Y4904282D01*
X4728972Y4899152D01*
X4729226Y4893818D01*
X4728210Y4884623D01*
X4725263Y4876444D01*
X4720793Y4869281D01*
X4715052Y4863084D01*
X4725924Y4853686D01*
X4729429Y4857089D01*
X4732731Y4861001D01*
X4735779Y4865370D01*
X4738471Y4870246D01*
X4740757Y4875580D01*
X4742484Y4881321D01*
X4743602Y4887518D01*
X4743958Y4894072D01*
X4743754Y4899609D01*
X4743094Y4905044D01*
X4742027Y4910277D01*
X4740554Y4915306D01*
X4738674Y4920132D01*
X4736388Y4924755D01*
X4733696Y4929124D01*
X4730648Y4933289D01*
X4727194Y4937201D01*
X4723434Y4940808D01*
X4719269Y4944160D01*
X4714748Y4947208D01*
X4709871Y4949952D01*
X4704689Y4952339D01*
X4699203Y4954422D01*
X4693361Y4956149D01*
X4687214Y4957521D01*
X4680762Y4958537D01*
X4674057Y4959146D01*
G37*
G36*
X4882946Y5220462D02*
G01*
X4875834Y5220258D01*
X4869027Y5219649D01*
X4862576Y5218684D01*
X4856378Y5217312D01*
X4850536Y5215585D01*
X4844999Y5213502D01*
X4839817Y5211064D01*
X4834991Y5208320D01*
X4830470Y5205272D01*
X4826355Y5201869D01*
X4822545Y5198211D01*
X4819142Y5194300D01*
X4816094Y5190083D01*
X4813452Y5185613D01*
X4811217Y5180939D01*
X4809337Y5175961D01*
X4807864Y5170830D01*
X4806797Y5165445D01*
X4806188Y5159908D01*
X4805984Y5154168D01*
X4806289Y5146903D01*
X4807204Y5140045D01*
X4808728Y5133543D01*
X4810760Y5127548D01*
X4813249Y5122011D01*
X4816144Y5116982D01*
X4819396Y5112562D01*
X4823002Y5108702D01*
X4884674Y5108702D01*
X4884674Y5156708D01*
X4870754Y5156708D01*
X4870754Y5124196D01*
X4830114Y5124196D01*
X4826152Y5129631D01*
X4823206Y5136540D01*
X4821326Y5144363D01*
X4820716Y5152644D01*
X4820970Y5158536D01*
X4821783Y5164074D01*
X4823155Y5169306D01*
X4825085Y5174132D01*
X4827473Y5178653D01*
X4830368Y5182819D01*
X4833721Y5186578D01*
X4837531Y5190032D01*
X4841849Y5193030D01*
X4846574Y5195722D01*
X4851704Y5197957D01*
X4857242Y5199837D01*
X4863185Y5201310D01*
X4869484Y5202326D01*
X4876139Y5202986D01*
X4883200Y5203190D01*
X4890211Y5202936D01*
X4896866Y5202275D01*
X4903114Y5201158D01*
X4909058Y5199634D01*
X4914544Y5197652D01*
X4919624Y5195316D01*
X4924298Y5192572D01*
X4928565Y5189423D01*
X4932324Y5185968D01*
X4935677Y5182158D01*
X4938522Y5177993D01*
X4940858Y5173522D01*
X4942738Y5168696D01*
X4944059Y5163616D01*
X4944872Y5158282D01*
X4945126Y5152644D01*
X4944059Y5142026D01*
X4941011Y5133238D01*
X4936490Y5125923D01*
X4930952Y5119878D01*
X4941824Y5110480D01*
X4945126Y5113934D01*
X4948326Y5117846D01*
X4951374Y5122265D01*
X4954117Y5127193D01*
X4956454Y5132730D01*
X4958283Y5138826D01*
X4959451Y5145532D01*
X4959858Y5152898D01*
X4959654Y5158740D01*
X4958994Y5164378D01*
X4957927Y5169814D01*
X4956454Y5175046D01*
X4954574Y5180076D01*
X4952288Y5184851D01*
X4949596Y5189423D01*
X4946548Y5193690D01*
X4943094Y5197703D01*
X4939334Y5201462D01*
X4935169Y5204866D01*
X4930648Y5208016D01*
X4925771Y5210810D01*
X4920589Y5213299D01*
X4915103Y5215432D01*
X4909261Y5217210D01*
X4903114Y5218633D01*
X4896662Y5219649D01*
X4889957Y5220258D01*
G37*
G36*
X4808474Y5072634D02*
G01*
X4808474Y5056886D01*
X4895799Y5056936D01*
X4935270Y5058918D01*
X4935270Y5057902D01*
X4904740Y5041646D01*
X4808474Y4985766D01*
X4808474Y4968240D01*
X4957368Y4968240D01*
X4957368Y4984242D01*
X4871059Y4984191D01*
X4847640Y4983124D01*
X4830368Y4981956D01*
X4830368Y4982972D01*
X4860848Y4999228D01*
X4957368Y5055362D01*
X4957368Y5072634D01*
G37*
G36*
X4808474Y4926838D02*
G01*
X4808474Y4909820D01*
X4943398Y4909820D01*
X4943398Y4891532D01*
X4943094Y4884978D01*
X4942382Y4878882D01*
X4941112Y4873193D01*
X4939385Y4867960D01*
X4937150Y4863134D01*
X4934458Y4858715D01*
X4931308Y4854752D01*
X4927701Y4851196D01*
X4923637Y4848098D01*
X4919116Y4845405D01*
X4914239Y4843119D01*
X4908854Y4841240D01*
X4903114Y4839817D01*
X4896967Y4838750D01*
X4890363Y4838141D01*
X4883454Y4837938D01*
X4876495Y4838141D01*
X4869942Y4838750D01*
X4863744Y4839817D01*
X4857902Y4841240D01*
X4852466Y4843119D01*
X4847437Y4845405D01*
X4842814Y4848098D01*
X4838649Y4851196D01*
X4834890Y4854752D01*
X4831588Y4858715D01*
X4828794Y4863134D01*
X4826457Y4867960D01*
X4824628Y4873193D01*
X4823307Y4878882D01*
X4822494Y4884978D01*
X4822190Y4891532D01*
X4822190Y4909820D01*
X4808474Y4909820D01*
X4808474Y4889500D01*
X4808728Y4882896D01*
X4809337Y4876647D01*
X4810353Y4870704D01*
X4811826Y4865065D01*
X4813655Y4859782D01*
X4815840Y4854803D01*
X4818430Y4850180D01*
X4821428Y4845862D01*
X4824730Y4841849D01*
X4828438Y4838242D01*
X4832502Y4834940D01*
X4836871Y4831943D01*
X4841595Y4829302D01*
X4846624Y4827016D01*
X4852009Y4825085D01*
X4857699Y4823510D01*
X4863693Y4822291D01*
X4869992Y4821377D01*
X4876546Y4820869D01*
X4883454Y4820666D01*
X4890312Y4820869D01*
X4896866Y4821377D01*
X4903114Y4822291D01*
X4909058Y4823510D01*
X4914696Y4825136D01*
X4919980Y4827066D01*
X4925009Y4829352D01*
X4929632Y4831994D01*
X4933950Y4834991D01*
X4937912Y4838293D01*
X4941519Y4842002D01*
X4944770Y4846015D01*
X4947666Y4850384D01*
X4950206Y4855057D01*
X4952390Y4860086D01*
X4954168Y4865471D01*
X4955540Y4871161D01*
X4956556Y4877206D01*
X4957165Y4883556D01*
X4957368Y4890262D01*
X4957368Y4926838D01*
G37*
G36*
X6399022Y6630162D02*
G01*
X6391910Y6629958D01*
X6385153Y6629349D01*
X6378651Y6628384D01*
X6372504Y6627012D01*
X6366662Y6625285D01*
X6361125Y6623202D01*
X6355943Y6620764D01*
X6351066Y6618020D01*
X6346596Y6614972D01*
X6342430Y6611569D01*
X6338671Y6607911D01*
X6335268Y6604000D01*
X6332220Y6599783D01*
X6329578Y6595313D01*
X6327292Y6590639D01*
X6325412Y6585661D01*
X6323990Y6580530D01*
X6322923Y6575145D01*
X6322263Y6569608D01*
X6322060Y6563868D01*
X6322364Y6556603D01*
X6323330Y6549745D01*
X6324854Y6543243D01*
X6326835Y6537248D01*
X6329324Y6531711D01*
X6332220Y6526682D01*
X6335522Y6522262D01*
X6339078Y6518402D01*
X6400800Y6518402D01*
X6400800Y6566408D01*
X6386830Y6566408D01*
X6386830Y6533896D01*
X6346190Y6533896D01*
X6342278Y6539331D01*
X6339281Y6546240D01*
X6337452Y6554063D01*
X6336792Y6562344D01*
X6337096Y6568236D01*
X6337909Y6573774D01*
X6339281Y6579006D01*
X6341160Y6583832D01*
X6343548Y6588353D01*
X6346444Y6592519D01*
X6349796Y6596278D01*
X6353657Y6599732D01*
X6357924Y6602730D01*
X6362649Y6605422D01*
X6367780Y6607657D01*
X6373317Y6609537D01*
X6379260Y6611010D01*
X6385560Y6612026D01*
X6392265Y6612686D01*
X6399276Y6612890D01*
X6406286Y6612636D01*
X6412941Y6611975D01*
X6419240Y6610858D01*
X6425133Y6609334D01*
X6430670Y6607352D01*
X6435750Y6605016D01*
X6440424Y6602272D01*
X6444640Y6599123D01*
X6448450Y6595668D01*
X6451752Y6591858D01*
X6454597Y6587693D01*
X6456984Y6583222D01*
X6458813Y6578396D01*
X6460185Y6573316D01*
X6460998Y6567982D01*
X6461252Y6562344D01*
X6460134Y6551726D01*
X6457086Y6542938D01*
X6452565Y6535623D01*
X6447028Y6529578D01*
X6457950Y6520180D01*
X6461201Y6523634D01*
X6464401Y6527546D01*
X6467449Y6531965D01*
X6470192Y6536893D01*
X6472529Y6542430D01*
X6474358Y6548526D01*
X6475577Y6555231D01*
X6475984Y6562598D01*
X6475780Y6568440D01*
X6475120Y6574078D01*
X6474053Y6579514D01*
X6472580Y6584746D01*
X6470650Y6589775D01*
X6468364Y6594551D01*
X6465722Y6599123D01*
X6462623Y6603390D01*
X6459220Y6607403D01*
X6455410Y6611162D01*
X6451244Y6614566D01*
X6446723Y6617716D01*
X6441897Y6620509D01*
X6436715Y6622999D01*
X6431178Y6625132D01*
X6425387Y6626910D01*
X6419240Y6628333D01*
X6412788Y6629349D01*
X6406032Y6629958D01*
G37*
G36*
X6324600Y6482334D02*
G01*
X6324600Y6466586D01*
X6411925Y6466636D01*
X6429044Y6467297D01*
X6451346Y6468618D01*
X6451346Y6467602D01*
X6420866Y6451346D01*
X6324600Y6395466D01*
X6324600Y6377940D01*
X6473444Y6377940D01*
X6473444Y6393942D01*
X6387185Y6393891D01*
X6363716Y6392824D01*
X6346444Y6391656D01*
X6346444Y6392672D01*
X6376924Y6408928D01*
X6473444Y6465062D01*
X6473444Y6482334D01*
G37*
G36*
X6324600Y6336538D02*
G01*
X6324600Y6319520D01*
X6459474Y6319520D01*
X6459474Y6301232D01*
X6459220Y6294678D01*
X6458458Y6288582D01*
X6457188Y6282893D01*
X6455460Y6277660D01*
X6453225Y6272834D01*
X6450533Y6268415D01*
X6447383Y6264452D01*
X6443776Y6260896D01*
X6439712Y6257798D01*
X6435242Y6255105D01*
X6430314Y6252819D01*
X6424980Y6250940D01*
X6419189Y6249517D01*
X6413042Y6248450D01*
X6406489Y6247841D01*
X6399530Y6247638D01*
X6392621Y6247841D01*
X6386017Y6248450D01*
X6379819Y6249517D01*
X6373977Y6250940D01*
X6368542Y6252819D01*
X6363512Y6255105D01*
X6358890Y6257798D01*
X6354724Y6260896D01*
X6350965Y6264452D01*
X6347714Y6268415D01*
X6344869Y6272834D01*
X6342583Y6277660D01*
X6340703Y6282893D01*
X6339382Y6288582D01*
X6338570Y6294678D01*
X6338316Y6301232D01*
X6338316Y6319520D01*
X6324600Y6319520D01*
X6324600Y6299200D01*
X6324803Y6292596D01*
X6325412Y6286347D01*
X6326479Y6280404D01*
X6327902Y6274765D01*
X6329730Y6269482D01*
X6331966Y6264503D01*
X6334556Y6259880D01*
X6337503Y6255562D01*
X6340856Y6251549D01*
X6344513Y6247942D01*
X6348577Y6244640D01*
X6352946Y6241643D01*
X6357670Y6239002D01*
X6362750Y6236716D01*
X6368084Y6234785D01*
X6373774Y6233210D01*
X6379768Y6231991D01*
X6386068Y6231077D01*
X6392672Y6230569D01*
X6399530Y6230366D01*
X6406388Y6230569D01*
X6412941Y6231077D01*
X6419240Y6231991D01*
X6425184Y6233210D01*
X6430772Y6234836D01*
X6436106Y6236766D01*
X6441084Y6239052D01*
X6445758Y6241694D01*
X6450025Y6244691D01*
X6453987Y6247993D01*
X6457645Y6251702D01*
X6460896Y6255715D01*
X6463792Y6260084D01*
X6466332Y6264757D01*
X6468465Y6269786D01*
X6470243Y6275171D01*
X6471615Y6280861D01*
X6472631Y6286906D01*
X6473240Y6293256D01*
X6473444Y6299962D01*
X6473444Y6336538D01*
G37*
G36*
X6257544Y6628892D02*
G01*
X6108700Y6581140D01*
X6108700Y6561836D01*
X6257544Y6514338D01*
X6257544Y6531356D01*
X6132626Y6568897D01*
X6126226Y6570980D01*
X6126226Y6571742D01*
X6150711Y6579158D01*
X6175248Y6586220D01*
X6257544Y6611366D01*
G37*
G36*
X6183122Y6504431D02*
G01*
X6176010Y6504228D01*
X6169253Y6503619D01*
X6162751Y6502654D01*
X6156604Y6501333D01*
X6150762Y6499606D01*
X6145225Y6497574D01*
X6140043Y6495186D01*
X6135166Y6492494D01*
X6130696Y6489496D01*
X6126530Y6486245D01*
X6122771Y6482689D01*
X6119368Y6478879D01*
X6116320Y6474815D01*
X6113678Y6470497D01*
X6111392Y6465976D01*
X6109512Y6461201D01*
X6108090Y6456273D01*
X6107023Y6451142D01*
X6106363Y6445859D01*
X6106160Y6440424D01*
X6106515Y6433413D01*
X6107582Y6426809D01*
X6109309Y6420662D01*
X6111697Y6414871D01*
X6114694Y6409436D01*
X6118352Y6404406D01*
X6122619Y6399631D01*
X6127496Y6395212D01*
X6137910Y6404356D01*
X6134049Y6408115D01*
X6130645Y6412026D01*
X6127750Y6416040D01*
X6125311Y6420307D01*
X6123381Y6424726D01*
X6122009Y6429451D01*
X6121196Y6434378D01*
X6120892Y6439662D01*
X6121196Y6444996D01*
X6122009Y6450076D01*
X6123381Y6454902D01*
X6125260Y6459423D01*
X6127648Y6463639D01*
X6130544Y6467551D01*
X6133896Y6471107D01*
X6137757Y6474358D01*
X6142024Y6477254D01*
X6146749Y6479844D01*
X6151880Y6482029D01*
X6157417Y6483858D01*
X6163360Y6485280D01*
X6169660Y6486296D01*
X6176365Y6486956D01*
X6183376Y6487160D01*
X6190386Y6486956D01*
X6197041Y6486296D01*
X6203340Y6485229D01*
X6209233Y6483705D01*
X6214770Y6481826D01*
X6219850Y6479590D01*
X6224524Y6476949D01*
X6228740Y6474002D01*
X6232550Y6470650D01*
X6235852Y6466992D01*
X6238697Y6463030D01*
X6241084Y6458762D01*
X6242913Y6454190D01*
X6244285Y6449364D01*
X6245098Y6444234D01*
X6245352Y6438900D01*
X6244285Y6429705D01*
X6241389Y6421526D01*
X6236868Y6414363D01*
X6231128Y6408166D01*
X6242050Y6398768D01*
X6245504Y6402222D01*
X6248857Y6406184D01*
X6251905Y6410604D01*
X6254597Y6415430D01*
X6256832Y6420713D01*
X6258610Y6426454D01*
X6259677Y6432600D01*
X6260084Y6439154D01*
X6259880Y6444691D01*
X6259220Y6450126D01*
X6258153Y6455359D01*
X6256680Y6460388D01*
X6254750Y6465214D01*
X6252464Y6469837D01*
X6249822Y6474206D01*
X6246723Y6478371D01*
X6243320Y6482283D01*
X6239510Y6485890D01*
X6235344Y6489242D01*
X6230823Y6492290D01*
X6225997Y6495034D01*
X6220815Y6497421D01*
X6215278Y6499504D01*
X6209487Y6501231D01*
X6203340Y6502603D01*
X6196888Y6503619D01*
X6190132Y6504228D01*
G37*
G36*
X6183122Y6381750D02*
G01*
X6176010Y6381546D01*
X6169253Y6380937D01*
X6162751Y6379972D01*
X6156604Y6378651D01*
X6150762Y6376924D01*
X6145225Y6374892D01*
X6140043Y6372504D01*
X6135166Y6369812D01*
X6130696Y6366814D01*
X6126530Y6363563D01*
X6122771Y6360007D01*
X6119368Y6356197D01*
X6116320Y6352133D01*
X6113678Y6347815D01*
X6111392Y6343294D01*
X6109512Y6338519D01*
X6108090Y6333591D01*
X6107023Y6328460D01*
X6106363Y6323177D01*
X6106160Y6317742D01*
X6106515Y6310731D01*
X6107582Y6304127D01*
X6109309Y6297930D01*
X6111697Y6292138D01*
X6114694Y6286703D01*
X6118352Y6281572D01*
X6122619Y6276797D01*
X6127496Y6272276D01*
X6137910Y6281674D01*
X6134049Y6285433D01*
X6130645Y6289344D01*
X6127750Y6293358D01*
X6125311Y6297625D01*
X6123381Y6302044D01*
X6122009Y6306769D01*
X6121196Y6311696D01*
X6120892Y6316980D01*
X6121196Y6322314D01*
X6122009Y6327394D01*
X6123381Y6332220D01*
X6125260Y6336741D01*
X6127648Y6340957D01*
X6130544Y6344869D01*
X6133896Y6348425D01*
X6137757Y6351676D01*
X6142024Y6354572D01*
X6146749Y6357162D01*
X6151880Y6359347D01*
X6157417Y6361176D01*
X6163360Y6362598D01*
X6169660Y6363614D01*
X6176365Y6364274D01*
X6183376Y6364478D01*
X6190386Y6364274D01*
X6197041Y6363614D01*
X6203340Y6362547D01*
X6209233Y6361023D01*
X6214770Y6359144D01*
X6219850Y6356908D01*
X6224524Y6354267D01*
X6228740Y6351320D01*
X6232550Y6347968D01*
X6235852Y6344310D01*
X6238697Y6340348D01*
X6241084Y6336080D01*
X6242913Y6331508D01*
X6244285Y6326682D01*
X6245098Y6321552D01*
X6245352Y6316218D01*
X6244285Y6307023D01*
X6241389Y6298844D01*
X6236868Y6291681D01*
X6231128Y6285484D01*
X6242050Y6276086D01*
X6245504Y6279489D01*
X6248857Y6283401D01*
X6251905Y6287770D01*
X6254597Y6292646D01*
X6256832Y6297980D01*
X6258610Y6303721D01*
X6259677Y6309918D01*
X6260084Y6316472D01*
X6259880Y6322009D01*
X6259220Y6327444D01*
X6258153Y6332677D01*
X6256680Y6337706D01*
X6254750Y6342532D01*
X6252464Y6347155D01*
X6249822Y6351524D01*
X6246723Y6355689D01*
X6243320Y6359601D01*
X6239510Y6363208D01*
X6235344Y6366560D01*
X6230823Y6369608D01*
X6225997Y6372352D01*
X6220815Y6374739D01*
X6215278Y6376822D01*
X6209487Y6378549D01*
X6203340Y6379921D01*
X6196888Y6380937D01*
X6190132Y6381546D01*
G37*
G36*
X5937758Y6632448D02*
G01*
X5932881Y6627368D01*
X5928512Y6621881D01*
X5924753Y6615988D01*
X5921552Y6609689D01*
X5919012Y6602984D01*
X5917184Y6595922D01*
X5916066Y6588455D01*
X5915660Y6580631D01*
X5916015Y6573266D01*
X5917133Y6566357D01*
X5918860Y6560007D01*
X5921248Y6554165D01*
X5924245Y6548932D01*
X5927750Y6544309D01*
X5931712Y6540296D01*
X5936132Y6536994D01*
X5940958Y6534353D01*
X5946140Y6532422D01*
X5951575Y6531254D01*
X5957316Y6530848D01*
X5965037Y6531457D01*
X5971794Y6533235D01*
X5977636Y6536080D01*
X5982665Y6539839D01*
X5986983Y6544360D01*
X5990742Y6549593D01*
X5994044Y6555384D01*
X5996940Y6561581D01*
X6008014Y6587540D01*
X6012484Y6596075D01*
X6015228Y6599885D01*
X6018428Y6603187D01*
X6022238Y6605778D01*
X6026708Y6607454D01*
X6031992Y6608064D01*
X6036970Y6607505D01*
X6041440Y6605981D01*
X6045352Y6603441D01*
X6048654Y6600037D01*
X6051296Y6595872D01*
X6053226Y6590893D01*
X6054445Y6585305D01*
X6054852Y6579108D01*
X6054598Y6573926D01*
X6053836Y6569049D01*
X6052616Y6564426D01*
X6050991Y6560058D01*
X6048908Y6555943D01*
X6046470Y6552031D01*
X6043726Y6548323D01*
X6040628Y6544818D01*
X6051296Y6535928D01*
X6055156Y6539992D01*
X6058662Y6544462D01*
X6061760Y6549390D01*
X6064453Y6554673D01*
X6066586Y6560312D01*
X6068212Y6566306D01*
X6069228Y6572554D01*
X6069584Y6579108D01*
X6069228Y6585559D01*
X6068263Y6591706D01*
X6066688Y6597446D01*
X6064554Y6602780D01*
X6061811Y6607657D01*
X6058611Y6612026D01*
X6054953Y6615836D01*
X6050838Y6619036D01*
X6046317Y6621627D01*
X6041440Y6623507D01*
X6036259Y6624675D01*
X6030722Y6625081D01*
X6023152Y6624370D01*
X6016548Y6622288D01*
X6010859Y6619138D01*
X6005982Y6615125D01*
X6001816Y6610451D01*
X5998311Y6605371D01*
X5995365Y6600088D01*
X5992876Y6594856D01*
X5981141Y6568084D01*
X5978753Y6563309D01*
X5976213Y6558991D01*
X5973368Y6555231D01*
X5970066Y6552133D01*
X5966206Y6549847D01*
X5961583Y6548374D01*
X5956046Y6547866D01*
X5950559Y6548424D01*
X5945632Y6550152D01*
X5941212Y6552895D01*
X5937504Y6556654D01*
X5934506Y6561328D01*
X5932271Y6566916D01*
X5930849Y6573367D01*
X5930392Y6580631D01*
X5930747Y6586474D01*
X5931712Y6592265D01*
X5933338Y6597853D01*
X5935522Y6603288D01*
X5938215Y6608470D01*
X5941415Y6613398D01*
X5945124Y6618020D01*
X5949188Y6622288D01*
G37*
G36*
X5918200Y6501130D02*
G01*
X5918200Y6484112D01*
X6053074Y6484112D01*
X6053074Y6465824D01*
X6052820Y6459270D01*
X6052058Y6453174D01*
X6050788Y6447485D01*
X6049060Y6442252D01*
X6046825Y6437426D01*
X6044133Y6433007D01*
X6040983Y6429044D01*
X6037376Y6425488D01*
X6033312Y6422390D01*
X6028842Y6419697D01*
X6023914Y6417411D01*
X6018580Y6415532D01*
X6012789Y6414109D01*
X6006642Y6413042D01*
X6000089Y6412433D01*
X5993130Y6412230D01*
X5986221Y6412433D01*
X5979617Y6413042D01*
X5973419Y6414109D01*
X5967577Y6415532D01*
X5962142Y6417411D01*
X5957112Y6419697D01*
X5952490Y6422390D01*
X5948324Y6425488D01*
X5944565Y6429044D01*
X5941314Y6433007D01*
X5938469Y6437426D01*
X5936183Y6442252D01*
X5934303Y6447485D01*
X5932982Y6453174D01*
X5932170Y6459270D01*
X5931916Y6465824D01*
X5931916Y6484112D01*
X5918200Y6484112D01*
X5918200Y6463792D01*
X5918403Y6457188D01*
X5919012Y6450939D01*
X5920079Y6444996D01*
X5921502Y6439357D01*
X5923330Y6434074D01*
X5925566Y6429095D01*
X5928156Y6424472D01*
X5931103Y6420154D01*
X5934456Y6416141D01*
X5938113Y6412534D01*
X5942177Y6409232D01*
X5946546Y6406235D01*
X5951270Y6403594D01*
X5956350Y6401308D01*
X5961684Y6399377D01*
X5967374Y6397802D01*
X5973368Y6396583D01*
X5979668Y6395669D01*
X5986272Y6395161D01*
X5993130Y6394958D01*
X5999988Y6395161D01*
X6006541Y6395669D01*
X6012840Y6396583D01*
X6018784Y6397802D01*
X6024372Y6399377D01*
X6029706Y6401358D01*
X6034684Y6403644D01*
X6039358Y6406286D01*
X6043625Y6409283D01*
X6047587Y6412636D01*
X6051245Y6416294D01*
X6054496Y6420307D01*
X6057392Y6424676D01*
X6059932Y6429349D01*
X6062065Y6434378D01*
X6063843Y6439763D01*
X6065215Y6445453D01*
X6066231Y6451498D01*
X6066840Y6457848D01*
X6067044Y6464554D01*
X6067044Y6501130D01*
G37*
G36*
X5918200Y6384290D02*
G01*
X5918200Y6367272D01*
X5965190Y6352032D01*
X5965190Y6347968D01*
X5978398Y6347968D01*
X6027369Y6332270D01*
X6052820Y6324854D01*
X6052820Y6324092D01*
X6015024Y6312763D01*
X6002528Y6308598D01*
X5978398Y6300978D01*
X5978398Y6347968D01*
X5965190Y6347968D01*
X5965190Y6296660D01*
X5918200Y6281928D01*
X5918200Y6263894D01*
X6067044Y6314948D01*
X6067044Y6333490D01*
G37*
G36*
X5734558Y6632448D02*
G01*
X5729681Y6627368D01*
X5725312Y6621881D01*
X5721553Y6615988D01*
X5718352Y6609689D01*
X5715812Y6602984D01*
X5713984Y6595922D01*
X5712866Y6588455D01*
X5712460Y6580631D01*
X5712815Y6573266D01*
X5713933Y6566357D01*
X5715660Y6560007D01*
X5718048Y6554165D01*
X5721045Y6548932D01*
X5724550Y6544309D01*
X5728512Y6540296D01*
X5732932Y6536994D01*
X5737758Y6534353D01*
X5742940Y6532422D01*
X5748375Y6531254D01*
X5754116Y6530848D01*
X5761837Y6531457D01*
X5768594Y6533235D01*
X5774436Y6536080D01*
X5779465Y6539839D01*
X5783783Y6544360D01*
X5787542Y6549593D01*
X5790844Y6555384D01*
X5793740Y6561581D01*
X5804814Y6587540D01*
X5809284Y6596075D01*
X5812028Y6599885D01*
X5815228Y6603187D01*
X5819038Y6605778D01*
X5823508Y6607454D01*
X5828792Y6608064D01*
X5833770Y6607505D01*
X5838240Y6605981D01*
X5842152Y6603441D01*
X5845454Y6600037D01*
X5848096Y6595872D01*
X5850026Y6590893D01*
X5851245Y6585305D01*
X5851652Y6579108D01*
X5851398Y6573926D01*
X5850636Y6569049D01*
X5849416Y6564426D01*
X5847791Y6560058D01*
X5845708Y6555943D01*
X5843270Y6552031D01*
X5840526Y6548323D01*
X5837428Y6544818D01*
X5848096Y6535928D01*
X5851956Y6539992D01*
X5855462Y6544462D01*
X5858560Y6549390D01*
X5861253Y6554673D01*
X5863386Y6560312D01*
X5865012Y6566306D01*
X5866028Y6572554D01*
X5866384Y6579108D01*
X5866028Y6585559D01*
X5865063Y6591706D01*
X5863488Y6597446D01*
X5861354Y6602780D01*
X5858611Y6607657D01*
X5855411Y6612026D01*
X5851753Y6615836D01*
X5847638Y6619036D01*
X5843117Y6621627D01*
X5838240Y6623507D01*
X5833059Y6624675D01*
X5827522Y6625081D01*
X5819952Y6624370D01*
X5813348Y6622288D01*
X5807659Y6619138D01*
X5802782Y6615125D01*
X5798616Y6610451D01*
X5795111Y6605371D01*
X5792165Y6600088D01*
X5789676Y6594856D01*
X5777941Y6568084D01*
X5775553Y6563309D01*
X5773013Y6558991D01*
X5770168Y6555231D01*
X5766866Y6552133D01*
X5763006Y6549847D01*
X5758383Y6548374D01*
X5752846Y6547866D01*
X5747359Y6548424D01*
X5742432Y6550152D01*
X5738012Y6552895D01*
X5734304Y6556654D01*
X5731306Y6561328D01*
X5729071Y6566916D01*
X5727649Y6573367D01*
X5727192Y6580631D01*
X5727547Y6586474D01*
X5728512Y6592265D01*
X5730138Y6597853D01*
X5732322Y6603288D01*
X5735015Y6608470D01*
X5738215Y6613398D01*
X5741924Y6618020D01*
X5745988Y6622288D01*
G37*
G36*
X5789422Y6509766D02*
G01*
X5782310Y6509562D01*
X5775553Y6508953D01*
X5769051Y6507988D01*
X5762904Y6506667D01*
X5757062Y6504940D01*
X5751525Y6502907D01*
X5746343Y6500520D01*
X5741466Y6497828D01*
X5736996Y6494830D01*
X5732830Y6491579D01*
X5729071Y6488023D01*
X5725668Y6484213D01*
X5722620Y6480149D01*
X5719978Y6475831D01*
X5717692Y6471310D01*
X5715812Y6466535D01*
X5714390Y6461607D01*
X5713323Y6456476D01*
X5712663Y6451193D01*
X5712460Y6445758D01*
X5712815Y6438747D01*
X5713882Y6432143D01*
X5715609Y6425996D01*
X5717997Y6420205D01*
X5720994Y6414770D01*
X5724652Y6409740D01*
X5728919Y6404965D01*
X5733796Y6400546D01*
X5744210Y6409944D01*
X5740349Y6413652D01*
X5736945Y6417462D01*
X5734050Y6421475D01*
X5731611Y6425641D01*
X5729681Y6430111D01*
X5728309Y6434785D01*
X5727496Y6439712D01*
X5727192Y6444996D01*
X5727496Y6450330D01*
X5728309Y6455410D01*
X5729681Y6460236D01*
X5731560Y6464757D01*
X5733948Y6468973D01*
X5736844Y6472885D01*
X5740196Y6476441D01*
X5744057Y6479692D01*
X5748324Y6482588D01*
X5753049Y6485178D01*
X5758180Y6487363D01*
X5763717Y6489192D01*
X5769660Y6490614D01*
X5775960Y6491630D01*
X5782665Y6492290D01*
X5789676Y6492494D01*
X5796686Y6492290D01*
X5803341Y6491630D01*
X5809640Y6490563D01*
X5815533Y6489039D01*
X5821070Y6487210D01*
X5826150Y6484924D01*
X5830824Y6482334D01*
X5835040Y6479336D01*
X5838850Y6476034D01*
X5842152Y6472377D01*
X5844997Y6468465D01*
X5847384Y6464198D01*
X5849213Y6459677D01*
X5850585Y6454851D01*
X5851398Y6449822D01*
X5851652Y6444488D01*
X5850585Y6435140D01*
X5847689Y6426911D01*
X5843168Y6419697D01*
X5837428Y6413500D01*
X5848350Y6404102D01*
X5851804Y6407556D01*
X5855157Y6411518D01*
X5858205Y6415938D01*
X5860897Y6420764D01*
X5863132Y6426047D01*
X5864910Y6431788D01*
X5865977Y6437934D01*
X5866384Y6444488D01*
X5866180Y6450025D01*
X5865520Y6455460D01*
X5864453Y6460693D01*
X5862980Y6465722D01*
X5861050Y6470548D01*
X5858764Y6475171D01*
X5856122Y6479540D01*
X5853023Y6483705D01*
X5849620Y6487617D01*
X5845810Y6491224D01*
X5841644Y6494576D01*
X5837123Y6497624D01*
X5832297Y6500368D01*
X5827115Y6502755D01*
X5821578Y6504838D01*
X5815787Y6506565D01*
X5809640Y6507937D01*
X5803188Y6508953D01*
X5796432Y6509562D01*
G37*
G36*
X5715000Y6372352D02*
G01*
X5715000Y6289548D01*
X5729224Y6289548D01*
X5729224Y6355334D01*
X5863844Y6355334D01*
X5863844Y6372352D01*
G37*
G36*
X4887722Y6630162D02*
G01*
X4880610Y6629958D01*
X4873853Y6629349D01*
X4867351Y6628384D01*
X4861204Y6627012D01*
X4855362Y6625285D01*
X4849825Y6623202D01*
X4844643Y6620764D01*
X4839766Y6618020D01*
X4835296Y6614972D01*
X4831130Y6611569D01*
X4827371Y6607911D01*
X4823968Y6604000D01*
X4820920Y6599783D01*
X4818278Y6595313D01*
X4815992Y6590639D01*
X4814112Y6585661D01*
X4812690Y6580530D01*
X4811623Y6575145D01*
X4810963Y6569608D01*
X4810760Y6563868D01*
X4811064Y6556603D01*
X4812030Y6549745D01*
X4813554Y6543243D01*
X4815535Y6537248D01*
X4818024Y6531711D01*
X4820920Y6526682D01*
X4824222Y6522262D01*
X4827778Y6518402D01*
X4889500Y6518402D01*
X4889500Y6566408D01*
X4875530Y6566408D01*
X4875530Y6533896D01*
X4834890Y6533896D01*
X4830978Y6539331D01*
X4827981Y6546240D01*
X4826152Y6554063D01*
X4825492Y6562344D01*
X4825796Y6568236D01*
X4826609Y6573774D01*
X4827981Y6579006D01*
X4829860Y6583832D01*
X4832248Y6588353D01*
X4835144Y6592519D01*
X4838496Y6596278D01*
X4842357Y6599732D01*
X4846624Y6602730D01*
X4851349Y6605422D01*
X4856480Y6607657D01*
X4862017Y6609537D01*
X4867960Y6611010D01*
X4874260Y6612026D01*
X4880965Y6612686D01*
X4887976Y6612890D01*
X4894986Y6612636D01*
X4901641Y6611975D01*
X4907940Y6610858D01*
X4913833Y6609334D01*
X4919370Y6607352D01*
X4924450Y6605016D01*
X4929124Y6602272D01*
X4933340Y6599123D01*
X4937150Y6595668D01*
X4940452Y6591858D01*
X4943297Y6587693D01*
X4945684Y6583222D01*
X4947513Y6578396D01*
X4948885Y6573316D01*
X4949698Y6567982D01*
X4949952Y6562344D01*
X4948834Y6551726D01*
X4945786Y6542938D01*
X4941265Y6535623D01*
X4935728Y6529578D01*
X4946650Y6520180D01*
X4949901Y6523634D01*
X4953101Y6527546D01*
X4956149Y6531965D01*
X4958892Y6536893D01*
X4961229Y6542430D01*
X4963058Y6548526D01*
X4964277Y6555231D01*
X4964684Y6562598D01*
X4964480Y6568440D01*
X4963820Y6574078D01*
X4962753Y6579514D01*
X4961280Y6584746D01*
X4959350Y6589775D01*
X4957064Y6594551D01*
X4954422Y6599123D01*
X4951323Y6603390D01*
X4947920Y6607403D01*
X4944110Y6611162D01*
X4939944Y6614566D01*
X4935423Y6617716D01*
X4930597Y6620509D01*
X4925415Y6622999D01*
X4919878Y6625132D01*
X4914087Y6626910D01*
X4907940Y6628333D01*
X4901488Y6629349D01*
X4894732Y6629958D01*
G37*
G36*
X4813300Y6482334D02*
G01*
X4813300Y6466586D01*
X4900625Y6466636D01*
X4917744Y6467297D01*
X4940046Y6468618D01*
X4940046Y6467602D01*
X4909566Y6451346D01*
X4813300Y6395466D01*
X4813300Y6377940D01*
X4962144Y6377940D01*
X4962144Y6393942D01*
X4875885Y6393891D01*
X4852416Y6392824D01*
X4835144Y6391656D01*
X4835144Y6392672D01*
X4865624Y6408928D01*
X4962144Y6465062D01*
X4962144Y6482334D01*
G37*
G36*
X4813300Y6336538D02*
G01*
X4813300Y6319520D01*
X4948174Y6319520D01*
X4948174Y6301232D01*
X4947920Y6294678D01*
X4947158Y6288582D01*
X4945888Y6282893D01*
X4944160Y6277660D01*
X4941925Y6272834D01*
X4939233Y6268415D01*
X4936083Y6264452D01*
X4932476Y6260896D01*
X4928412Y6257798D01*
X4923942Y6255105D01*
X4919014Y6252819D01*
X4913680Y6250940D01*
X4907889Y6249517D01*
X4901742Y6248450D01*
X4895189Y6247841D01*
X4888230Y6247638D01*
X4881321Y6247841D01*
X4874717Y6248450D01*
X4868519Y6249517D01*
X4862677Y6250940D01*
X4857242Y6252819D01*
X4852212Y6255105D01*
X4847590Y6257798D01*
X4843424Y6260896D01*
X4839665Y6264452D01*
X4836414Y6268415D01*
X4833569Y6272834D01*
X4831283Y6277660D01*
X4829403Y6282893D01*
X4828082Y6288582D01*
X4827270Y6294678D01*
X4827016Y6301232D01*
X4827016Y6319520D01*
X4813300Y6319520D01*
X4813300Y6299200D01*
X4813503Y6292596D01*
X4814112Y6286347D01*
X4815179Y6280404D01*
X4816602Y6274765D01*
X4818430Y6269482D01*
X4820666Y6264503D01*
X4823256Y6259880D01*
X4826203Y6255562D01*
X4829556Y6251549D01*
X4833213Y6247942D01*
X4837277Y6244640D01*
X4841646Y6241643D01*
X4846370Y6239002D01*
X4851450Y6236716D01*
X4856784Y6234785D01*
X4862474Y6233210D01*
X4868468Y6231991D01*
X4874768Y6231077D01*
X4881372Y6230569D01*
X4888230Y6230366D01*
X4895088Y6230569D01*
X4901641Y6231077D01*
X4907940Y6231991D01*
X4913884Y6233210D01*
X4919472Y6234836D01*
X4924806Y6236766D01*
X4929784Y6239052D01*
X4934458Y6241694D01*
X4938725Y6244691D01*
X4942687Y6247993D01*
X4946345Y6251702D01*
X4949596Y6255715D01*
X4952492Y6260084D01*
X4955032Y6264757D01*
X4957165Y6269786D01*
X4958943Y6275171D01*
X4960315Y6280861D01*
X4961331Y6286906D01*
X4961940Y6293256D01*
X4962144Y6299962D01*
X4962144Y6336538D01*
G37*
G36*
X4746244Y6628892D02*
G01*
X4597400Y6581140D01*
X4597400Y6561836D01*
X4746244Y6514338D01*
X4746244Y6531356D01*
X4621326Y6568897D01*
X4614926Y6570980D01*
X4614926Y6571742D01*
X4639411Y6579158D01*
X4663948Y6586220D01*
X4746244Y6611366D01*
G37*
G36*
X4671822Y6504431D02*
G01*
X4664710Y6504228D01*
X4657953Y6503619D01*
X4651451Y6502654D01*
X4645304Y6501333D01*
X4639462Y6499606D01*
X4633925Y6497574D01*
X4628743Y6495186D01*
X4623866Y6492494D01*
X4619396Y6489496D01*
X4615230Y6486245D01*
X4611471Y6482689D01*
X4608068Y6478879D01*
X4605020Y6474815D01*
X4602378Y6470497D01*
X4600092Y6465976D01*
X4598212Y6461201D01*
X4596790Y6456273D01*
X4595723Y6451142D01*
X4595063Y6445859D01*
X4594860Y6440424D01*
X4595215Y6433413D01*
X4596282Y6426809D01*
X4598009Y6420662D01*
X4600397Y6414871D01*
X4603394Y6409436D01*
X4607052Y6404406D01*
X4611319Y6399631D01*
X4616196Y6395212D01*
X4626610Y6404356D01*
X4622749Y6408115D01*
X4619345Y6412026D01*
X4616450Y6416040D01*
X4614011Y6420307D01*
X4612081Y6424726D01*
X4610709Y6429451D01*
X4609896Y6434378D01*
X4609592Y6439662D01*
X4609896Y6444996D01*
X4610709Y6450076D01*
X4612081Y6454902D01*
X4613960Y6459423D01*
X4616348Y6463639D01*
X4619244Y6467551D01*
X4622596Y6471107D01*
X4626457Y6474358D01*
X4630724Y6477254D01*
X4635449Y6479844D01*
X4640580Y6482029D01*
X4646117Y6483858D01*
X4652060Y6485280D01*
X4658360Y6486296D01*
X4665065Y6486956D01*
X4672076Y6487160D01*
X4679086Y6486956D01*
X4685741Y6486296D01*
X4692040Y6485229D01*
X4697933Y6483705D01*
X4703470Y6481826D01*
X4708550Y6479590D01*
X4713224Y6476949D01*
X4717440Y6474002D01*
X4721250Y6470650D01*
X4724552Y6466992D01*
X4727397Y6463030D01*
X4729784Y6458762D01*
X4731613Y6454190D01*
X4732985Y6449364D01*
X4733798Y6444234D01*
X4734052Y6438900D01*
X4732985Y6429705D01*
X4730089Y6421526D01*
X4725568Y6414363D01*
X4719828Y6408166D01*
X4730750Y6398768D01*
X4734204Y6402222D01*
X4737557Y6406184D01*
X4740605Y6410604D01*
X4743297Y6415430D01*
X4745532Y6420713D01*
X4747310Y6426454D01*
X4748377Y6432600D01*
X4748784Y6439154D01*
X4748580Y6444691D01*
X4747920Y6450126D01*
X4746853Y6455359D01*
X4745380Y6460388D01*
X4743450Y6465214D01*
X4741164Y6469837D01*
X4738522Y6474206D01*
X4735423Y6478371D01*
X4732020Y6482283D01*
X4728210Y6485890D01*
X4724044Y6489242D01*
X4719523Y6492290D01*
X4714697Y6495034D01*
X4709515Y6497421D01*
X4703978Y6499504D01*
X4698187Y6501231D01*
X4692040Y6502603D01*
X4685588Y6503619D01*
X4678832Y6504228D01*
G37*
G36*
X4671822Y6381750D02*
G01*
X4664710Y6381546D01*
X4657953Y6380937D01*
X4651451Y6379972D01*
X4645304Y6378651D01*
X4639462Y6376924D01*
X4633925Y6374892D01*
X4628743Y6372504D01*
X4623866Y6369812D01*
X4619396Y6366814D01*
X4615230Y6363563D01*
X4611471Y6360007D01*
X4608068Y6356197D01*
X4605020Y6352133D01*
X4602378Y6347815D01*
X4600092Y6343294D01*
X4598212Y6338519D01*
X4596790Y6333591D01*
X4595723Y6328460D01*
X4595063Y6323177D01*
X4594860Y6317742D01*
X4595215Y6310731D01*
X4596282Y6304127D01*
X4598009Y6297930D01*
X4600397Y6292138D01*
X4603394Y6286703D01*
X4607052Y6281572D01*
X4611319Y6276797D01*
X4616196Y6272276D01*
X4626610Y6281674D01*
X4622749Y6285433D01*
X4619345Y6289344D01*
X4616450Y6293358D01*
X4614011Y6297625D01*
X4612081Y6302044D01*
X4610709Y6306769D01*
X4609896Y6311696D01*
X4609592Y6316980D01*
X4609896Y6322314D01*
X4610709Y6327394D01*
X4612081Y6332220D01*
X4613960Y6336741D01*
X4616348Y6340957D01*
X4619244Y6344869D01*
X4622596Y6348425D01*
X4626457Y6351676D01*
X4630724Y6354572D01*
X4635449Y6357162D01*
X4640580Y6359347D01*
X4646117Y6361176D01*
X4652060Y6362598D01*
X4658360Y6363614D01*
X4665065Y6364274D01*
X4672076Y6364478D01*
X4679086Y6364274D01*
X4685741Y6363614D01*
X4692040Y6362547D01*
X4697933Y6361023D01*
X4703470Y6359144D01*
X4708550Y6356908D01*
X4713224Y6354267D01*
X4717440Y6351320D01*
X4721250Y6347968D01*
X4724552Y6344310D01*
X4727397Y6340348D01*
X4729784Y6336080D01*
X4731613Y6331508D01*
X4732985Y6326682D01*
X4733798Y6321552D01*
X4734052Y6316218D01*
X4732985Y6307023D01*
X4730089Y6298844D01*
X4725568Y6291681D01*
X4719828Y6285484D01*
X4730750Y6276086D01*
X4734204Y6279489D01*
X4737557Y6283401D01*
X4740605Y6287770D01*
X4743297Y6292646D01*
X4745532Y6297980D01*
X4747310Y6303721D01*
X4748377Y6309918D01*
X4748784Y6316472D01*
X4748580Y6322009D01*
X4747920Y6327444D01*
X4746853Y6332677D01*
X4745380Y6337706D01*
X4743450Y6342532D01*
X4741164Y6347155D01*
X4738522Y6351524D01*
X4735423Y6355689D01*
X4732020Y6359601D01*
X4728210Y6363208D01*
X4724044Y6366560D01*
X4719523Y6369608D01*
X4714697Y6372352D01*
X4709515Y6374739D01*
X4703978Y6376822D01*
X4698187Y6378549D01*
X4692040Y6379921D01*
X4685588Y6380937D01*
X4678832Y6381546D01*
G37*
G36*
X4426458Y6632448D02*
G01*
X4421581Y6627368D01*
X4417212Y6621881D01*
X4413453Y6615988D01*
X4410252Y6609689D01*
X4407712Y6602984D01*
X4405884Y6595922D01*
X4404766Y6588455D01*
X4404360Y6580631D01*
X4404715Y6573266D01*
X4405833Y6566357D01*
X4407560Y6560007D01*
X4409948Y6554165D01*
X4412945Y6548932D01*
X4416450Y6544309D01*
X4420412Y6540296D01*
X4424832Y6536994D01*
X4429658Y6534353D01*
X4434840Y6532422D01*
X4440275Y6531254D01*
X4446016Y6530848D01*
X4453737Y6531457D01*
X4460494Y6533235D01*
X4466336Y6536080D01*
X4471365Y6539839D01*
X4475683Y6544360D01*
X4479442Y6549593D01*
X4482744Y6555384D01*
X4485640Y6561581D01*
X4496714Y6587540D01*
X4501184Y6596075D01*
X4503928Y6599885D01*
X4507128Y6603187D01*
X4510938Y6605778D01*
X4515408Y6607454D01*
X4520692Y6608064D01*
X4525670Y6607505D01*
X4530140Y6605981D01*
X4534052Y6603441D01*
X4537354Y6600037D01*
X4539996Y6595872D01*
X4541926Y6590893D01*
X4543145Y6585305D01*
X4543552Y6579108D01*
X4543298Y6573926D01*
X4542536Y6569049D01*
X4541316Y6564426D01*
X4539691Y6560058D01*
X4537608Y6555943D01*
X4535170Y6552031D01*
X4532426Y6548323D01*
X4529328Y6544818D01*
X4539996Y6535928D01*
X4543856Y6539992D01*
X4547362Y6544462D01*
X4550460Y6549390D01*
X4553153Y6554673D01*
X4555286Y6560312D01*
X4556912Y6566306D01*
X4557928Y6572554D01*
X4558284Y6579108D01*
X4557928Y6585559D01*
X4556963Y6591706D01*
X4555388Y6597446D01*
X4553254Y6602780D01*
X4550511Y6607657D01*
X4547311Y6612026D01*
X4543653Y6615836D01*
X4539538Y6619036D01*
X4535017Y6621627D01*
X4530140Y6623507D01*
X4524959Y6624675D01*
X4519422Y6625081D01*
X4511852Y6624370D01*
X4505248Y6622288D01*
X4499559Y6619138D01*
X4494682Y6615125D01*
X4490516Y6610451D01*
X4487011Y6605371D01*
X4484065Y6600088D01*
X4481576Y6594856D01*
X4469841Y6568084D01*
X4467453Y6563309D01*
X4464913Y6558991D01*
X4462068Y6555231D01*
X4458766Y6552133D01*
X4454906Y6549847D01*
X4450283Y6548374D01*
X4444746Y6547866D01*
X4439259Y6548424D01*
X4434332Y6550152D01*
X4429912Y6552895D01*
X4426204Y6556654D01*
X4423206Y6561328D01*
X4420971Y6566916D01*
X4419549Y6573367D01*
X4419092Y6580631D01*
X4419447Y6586474D01*
X4420412Y6592265D01*
X4422038Y6597853D01*
X4424222Y6603288D01*
X4426915Y6608470D01*
X4430115Y6613398D01*
X4433824Y6618020D01*
X4437888Y6622288D01*
G37*
G36*
X4406900Y6501130D02*
G01*
X4406900Y6484112D01*
X4541774Y6484112D01*
X4541774Y6465824D01*
X4541520Y6459270D01*
X4540758Y6453174D01*
X4539488Y6447485D01*
X4537760Y6442252D01*
X4535525Y6437426D01*
X4532833Y6433007D01*
X4529683Y6429044D01*
X4526076Y6425488D01*
X4522012Y6422390D01*
X4517542Y6419697D01*
X4512614Y6417411D01*
X4507280Y6415532D01*
X4501489Y6414109D01*
X4495342Y6413042D01*
X4488789Y6412433D01*
X4481830Y6412230D01*
X4474921Y6412433D01*
X4468317Y6413042D01*
X4462119Y6414109D01*
X4456277Y6415532D01*
X4450842Y6417411D01*
X4445812Y6419697D01*
X4441190Y6422390D01*
X4437024Y6425488D01*
X4433265Y6429044D01*
X4430014Y6433007D01*
X4427169Y6437426D01*
X4424883Y6442252D01*
X4423003Y6447485D01*
X4421682Y6453174D01*
X4420870Y6459270D01*
X4420616Y6465824D01*
X4420616Y6484112D01*
X4406900Y6484112D01*
X4406900Y6463792D01*
X4407103Y6457188D01*
X4407712Y6450939D01*
X4408779Y6444996D01*
X4410202Y6439357D01*
X4412030Y6434074D01*
X4414266Y6429095D01*
X4416856Y6424472D01*
X4419803Y6420154D01*
X4423156Y6416141D01*
X4426813Y6412534D01*
X4430877Y6409232D01*
X4435246Y6406235D01*
X4439970Y6403594D01*
X4445050Y6401308D01*
X4450384Y6399377D01*
X4456074Y6397802D01*
X4462068Y6396583D01*
X4468368Y6395669D01*
X4474972Y6395161D01*
X4481830Y6394958D01*
X4488688Y6395161D01*
X4495241Y6395669D01*
X4501540Y6396583D01*
X4507484Y6397802D01*
X4513072Y6399377D01*
X4518406Y6401358D01*
X4523384Y6403644D01*
X4528058Y6406286D01*
X4532325Y6409283D01*
X4536287Y6412636D01*
X4539945Y6416294D01*
X4543196Y6420307D01*
X4546092Y6424676D01*
X4548632Y6429349D01*
X4550765Y6434378D01*
X4552543Y6439763D01*
X4553915Y6445453D01*
X4554931Y6451498D01*
X4555540Y6457848D01*
X4555744Y6464554D01*
X4555744Y6501130D01*
G37*
G36*
X4406900Y6384290D02*
G01*
X4406900Y6367272D01*
X4453890Y6352032D01*
X4453890Y6347968D01*
X4467098Y6347968D01*
X4516069Y6332270D01*
X4541520Y6324854D01*
X4541520Y6324092D01*
X4503724Y6312763D01*
X4491228Y6308598D01*
X4467098Y6300978D01*
X4467098Y6347968D01*
X4453890Y6347968D01*
X4453890Y6296660D01*
X4406900Y6281928D01*
X4406900Y6263894D01*
X4555744Y6314948D01*
X4555744Y6333490D01*
G37*
G36*
X4223258Y6632448D02*
G01*
X4218381Y6627368D01*
X4214012Y6621881D01*
X4210253Y6615988D01*
X4207052Y6609689D01*
X4204512Y6602984D01*
X4202684Y6595922D01*
X4201566Y6588455D01*
X4201160Y6580631D01*
X4201515Y6573266D01*
X4202633Y6566357D01*
X4204360Y6560007D01*
X4206748Y6554165D01*
X4209745Y6548932D01*
X4213250Y6544309D01*
X4217212Y6540296D01*
X4221632Y6536994D01*
X4226458Y6534353D01*
X4231640Y6532422D01*
X4237075Y6531254D01*
X4242816Y6530848D01*
X4250537Y6531457D01*
X4257294Y6533235D01*
X4263136Y6536080D01*
X4268165Y6539839D01*
X4272483Y6544360D01*
X4276242Y6549593D01*
X4279544Y6555384D01*
X4282440Y6561581D01*
X4293514Y6587540D01*
X4297984Y6596075D01*
X4300728Y6599885D01*
X4303928Y6603187D01*
X4307738Y6605778D01*
X4312208Y6607454D01*
X4317492Y6608064D01*
X4322470Y6607505D01*
X4326940Y6605981D01*
X4330852Y6603441D01*
X4334154Y6600037D01*
X4336796Y6595872D01*
X4338726Y6590893D01*
X4339945Y6585305D01*
X4340352Y6579108D01*
X4340098Y6573926D01*
X4339336Y6569049D01*
X4338116Y6564426D01*
X4336491Y6560058D01*
X4334408Y6555943D01*
X4331970Y6552031D01*
X4329226Y6548323D01*
X4326128Y6544818D01*
X4336796Y6535928D01*
X4340656Y6539992D01*
X4344162Y6544462D01*
X4347260Y6549390D01*
X4349953Y6554673D01*
X4352086Y6560312D01*
X4353712Y6566306D01*
X4354728Y6572554D01*
X4355084Y6579108D01*
X4354728Y6585559D01*
X4353763Y6591706D01*
X4352188Y6597446D01*
X4350054Y6602780D01*
X4347311Y6607657D01*
X4344111Y6612026D01*
X4340453Y6615836D01*
X4336338Y6619036D01*
X4331817Y6621627D01*
X4326940Y6623507D01*
X4321759Y6624675D01*
X4316222Y6625081D01*
X4308652Y6624370D01*
X4302048Y6622288D01*
X4296359Y6619138D01*
X4291482Y6615125D01*
X4287316Y6610451D01*
X4283811Y6605371D01*
X4280865Y6600088D01*
X4278376Y6594856D01*
X4266641Y6568084D01*
X4264253Y6563309D01*
X4261713Y6558991D01*
X4258868Y6555231D01*
X4255566Y6552133D01*
X4251706Y6549847D01*
X4247083Y6548374D01*
X4241546Y6547866D01*
X4236059Y6548424D01*
X4231132Y6550152D01*
X4226712Y6552895D01*
X4223004Y6556654D01*
X4220006Y6561328D01*
X4217771Y6566916D01*
X4216349Y6573367D01*
X4215892Y6580631D01*
X4216247Y6586474D01*
X4217212Y6592265D01*
X4218838Y6597853D01*
X4221022Y6603288D01*
X4223715Y6608470D01*
X4226915Y6613398D01*
X4230624Y6618020D01*
X4234688Y6622288D01*
G37*
G36*
X4278122Y6509766D02*
G01*
X4271010Y6509562D01*
X4264253Y6508953D01*
X4257751Y6507988D01*
X4251604Y6506667D01*
X4245762Y6504940D01*
X4240225Y6502907D01*
X4235043Y6500520D01*
X4230166Y6497828D01*
X4225696Y6494830D01*
X4221530Y6491579D01*
X4217771Y6488023D01*
X4214368Y6484213D01*
X4211320Y6480149D01*
X4208678Y6475831D01*
X4206392Y6471310D01*
X4204512Y6466535D01*
X4203090Y6461607D01*
X4202023Y6456476D01*
X4201363Y6451193D01*
X4201160Y6445758D01*
X4201515Y6438747D01*
X4202582Y6432143D01*
X4204309Y6425996D01*
X4206697Y6420205D01*
X4209694Y6414770D01*
X4213352Y6409740D01*
X4217619Y6404965D01*
X4222496Y6400546D01*
X4232910Y6409944D01*
X4229049Y6413652D01*
X4225645Y6417462D01*
X4222750Y6421475D01*
X4220311Y6425641D01*
X4218381Y6430111D01*
X4217009Y6434785D01*
X4216196Y6439712D01*
X4215892Y6444996D01*
X4216196Y6450330D01*
X4217009Y6455410D01*
X4218381Y6460236D01*
X4220260Y6464757D01*
X4222648Y6468973D01*
X4225544Y6472885D01*
X4228896Y6476441D01*
X4232757Y6479692D01*
X4237024Y6482588D01*
X4241749Y6485178D01*
X4246880Y6487363D01*
X4252417Y6489192D01*
X4258360Y6490614D01*
X4264660Y6491630D01*
X4271365Y6492290D01*
X4278376Y6492494D01*
X4285386Y6492290D01*
X4292041Y6491630D01*
X4298340Y6490563D01*
X4304233Y6489039D01*
X4309770Y6487210D01*
X4314850Y6484924D01*
X4319524Y6482334D01*
X4323740Y6479336D01*
X4327550Y6476034D01*
X4330852Y6472377D01*
X4333697Y6468465D01*
X4336084Y6464198D01*
X4337913Y6459677D01*
X4339285Y6454851D01*
X4340098Y6449822D01*
X4340352Y6444488D01*
X4339285Y6435140D01*
X4336389Y6426911D01*
X4331868Y6419697D01*
X4326128Y6413500D01*
X4337050Y6404102D01*
X4340504Y6407556D01*
X4343857Y6411518D01*
X4346905Y6415938D01*
X4349597Y6420764D01*
X4351832Y6426047D01*
X4353610Y6431788D01*
X4354677Y6437934D01*
X4355084Y6444488D01*
X4354880Y6450025D01*
X4354220Y6455460D01*
X4353153Y6460693D01*
X4351680Y6465722D01*
X4349750Y6470548D01*
X4347464Y6475171D01*
X4344822Y6479540D01*
X4341723Y6483705D01*
X4338320Y6487617D01*
X4334510Y6491224D01*
X4330344Y6494576D01*
X4325823Y6497624D01*
X4320997Y6500368D01*
X4315815Y6502755D01*
X4310278Y6504838D01*
X4304487Y6506565D01*
X4298340Y6507937D01*
X4291888Y6508953D01*
X4285132Y6509562D01*
G37*
G36*
X4203700Y6372352D02*
G01*
X4203700Y6289548D01*
X4217924Y6289548D01*
X4217924Y6355334D01*
X4352544Y6355334D01*
X4352544Y6372352D01*
G37*
G36*
X5715000Y5198872D02*
G01*
X5715000Y5182108D01*
X5850128Y5182108D01*
X5850128Y5156200D01*
X5849772Y5147665D01*
X5848654Y5140198D01*
X5846724Y5133797D01*
X5843879Y5128463D01*
X5840120Y5124297D01*
X5835345Y5121300D01*
X5829452Y5119471D01*
X5822442Y5118862D01*
X5815482Y5119471D01*
X5809488Y5121300D01*
X5804408Y5124297D01*
X5800293Y5128463D01*
X5797092Y5133797D01*
X5794806Y5140198D01*
X5793435Y5147665D01*
X5792978Y5156200D01*
X5792978Y5182108D01*
X5779262Y5182108D01*
X5779262Y5154168D01*
X5715000Y5117084D01*
X5715000Y5098288D01*
X5780786Y5136642D01*
X5782157Y5131511D01*
X5783935Y5126786D01*
X5786069Y5122367D01*
X5788558Y5118303D01*
X5791403Y5114696D01*
X5794654Y5111445D01*
X5798312Y5108702D01*
X5802325Y5106365D01*
X5806744Y5104536D01*
X5811570Y5103215D01*
X5816803Y5102352D01*
X5822442Y5102098D01*
X5829655Y5102555D01*
X5836107Y5103774D01*
X5841746Y5105857D01*
X5846724Y5108702D01*
X5850991Y5112207D01*
X5854547Y5116423D01*
X5857544Y5121249D01*
X5859881Y5126685D01*
X5861659Y5132628D01*
X5862878Y5139131D01*
X5863590Y5146040D01*
X5863844Y5153406D01*
X5863844Y5198872D01*
G37*
G36*
X5715000Y5089398D02*
G01*
X5715000Y5071872D01*
X5761990Y5046522D01*
X5780532Y5037328D01*
X5780532Y5036312D01*
X5715000Y5000752D01*
X5715000Y4982210D01*
X5790946Y5025898D01*
X5863844Y4985004D01*
X5863844Y5002530D01*
X5819292Y5026202D01*
X5802884Y5034280D01*
X5802884Y5035296D01*
X5814314Y5041341D01*
X5824220Y5046980D01*
X5863844Y5068062D01*
X5863844Y5086858D01*
X5791708Y5045964D01*
G37*
G36*
X6065520Y5200396D02*
G01*
X6065520Y5155184D01*
X5930900Y5155184D01*
X5930900Y5138166D01*
X6065520Y5138166D01*
X6065520Y5092700D01*
X6079744Y5092700D01*
X6079744Y5200396D01*
G37*
G36*
X5930900Y5087112D02*
G01*
X5930900Y5069586D01*
X5972302Y5046980D01*
X5996432Y5034788D01*
X5996432Y5034026D01*
X5972302Y5021072D01*
X5930900Y4998212D01*
X5930900Y4979924D01*
X6006846Y5023612D01*
X6079744Y4982718D01*
X6079744Y5000244D01*
X6035192Y5023866D01*
X6018784Y5031740D01*
X6018784Y5032756D01*
X6030214Y5039004D01*
X6040120Y5044694D01*
X6079744Y5065776D01*
X6079744Y5084572D01*
X6007608Y5043678D01*
G37*
G36*
X6270244Y5206492D02*
G01*
X6121400Y5158740D01*
X6121400Y5139436D01*
X6270244Y5091938D01*
X6270244Y5108956D01*
X6145326Y5146497D01*
X6138926Y5148580D01*
X6138926Y5149342D01*
X6163411Y5156758D01*
X6187948Y5163820D01*
X6270244Y5188966D01*
G37*
G36*
X6195822Y5082032D02*
G01*
X6188710Y5081828D01*
X6181953Y5081219D01*
X6175451Y5080254D01*
X6169304Y5078933D01*
X6163462Y5077206D01*
X6157925Y5075174D01*
X6152743Y5072786D01*
X6147866Y5070094D01*
X6143396Y5067096D01*
X6139230Y5063845D01*
X6135471Y5060289D01*
X6132068Y5056479D01*
X6129020Y5052415D01*
X6126378Y5048097D01*
X6124092Y5043576D01*
X6122212Y5038801D01*
X6120790Y5033873D01*
X6119723Y5028742D01*
X6119063Y5023459D01*
X6118860Y5018024D01*
X6119215Y5011013D01*
X6120282Y5004409D01*
X6122009Y4998262D01*
X6124397Y4992471D01*
X6127394Y4987036D01*
X6131052Y4982006D01*
X6135319Y4977231D01*
X6140196Y4972812D01*
X6150610Y4981956D01*
X6146749Y4985715D01*
X6143345Y4989626D01*
X6140450Y4993640D01*
X6138011Y4997907D01*
X6136081Y5002326D01*
X6134709Y5007051D01*
X6133896Y5011978D01*
X6133592Y5017262D01*
X6133896Y5022596D01*
X6134709Y5027676D01*
X6136081Y5032502D01*
X6137960Y5037023D01*
X6140348Y5041239D01*
X6143244Y5045151D01*
X6146596Y5048707D01*
X6150457Y5051958D01*
X6154724Y5054854D01*
X6159449Y5057444D01*
X6164580Y5059629D01*
X6170117Y5061458D01*
X6176060Y5062880D01*
X6182360Y5063896D01*
X6189065Y5064556D01*
X6196076Y5064760D01*
X6203086Y5064556D01*
X6209741Y5063896D01*
X6216040Y5062829D01*
X6221933Y5061305D01*
X6227470Y5059426D01*
X6232550Y5057190D01*
X6237224Y5054549D01*
X6241440Y5051602D01*
X6245250Y5048250D01*
X6248552Y5044592D01*
X6251397Y5040630D01*
X6253784Y5036362D01*
X6255613Y5031790D01*
X6256985Y5026964D01*
X6257798Y5021834D01*
X6258052Y5016500D01*
X6256985Y5007305D01*
X6254089Y4999126D01*
X6249568Y4991963D01*
X6243828Y4985766D01*
X6254750Y4976368D01*
X6258204Y4979822D01*
X6261557Y4983784D01*
X6264605Y4988204D01*
X6267297Y4993030D01*
X6269532Y4998313D01*
X6271310Y5004054D01*
X6272377Y5010200D01*
X6272784Y5016754D01*
X6272580Y5022291D01*
X6271920Y5027726D01*
X6270853Y5032959D01*
X6269380Y5037988D01*
X6267450Y5042814D01*
X6265164Y5047437D01*
X6262522Y5051806D01*
X6259423Y5055971D01*
X6256020Y5059883D01*
X6252210Y5063490D01*
X6248044Y5066842D01*
X6243523Y5069890D01*
X6238697Y5072634D01*
X6233515Y5075021D01*
X6227978Y5077104D01*
X6222187Y5078831D01*
X6216040Y5080203D01*
X6209588Y5081219D01*
X6202832Y5081828D01*
G37*
G36*
X6195822Y4959350D02*
G01*
X6188710Y4959146D01*
X6181953Y4958537D01*
X6175451Y4957572D01*
X6169304Y4956251D01*
X6163462Y4954524D01*
X6157925Y4952492D01*
X6152743Y4950104D01*
X6147866Y4947412D01*
X6143396Y4944414D01*
X6139230Y4941163D01*
X6135471Y4937607D01*
X6132068Y4933797D01*
X6129020Y4929733D01*
X6126378Y4925415D01*
X6124092Y4920894D01*
X6122212Y4916119D01*
X6120790Y4911191D01*
X6119723Y4906060D01*
X6119063Y4900777D01*
X6118860Y4895342D01*
X6119215Y4888331D01*
X6120282Y4881727D01*
X6122009Y4875530D01*
X6124397Y4869738D01*
X6127394Y4864303D01*
X6131052Y4859172D01*
X6135319Y4854397D01*
X6140196Y4849876D01*
X6150610Y4859274D01*
X6146749Y4863033D01*
X6143345Y4866944D01*
X6140450Y4870958D01*
X6138011Y4875225D01*
X6136081Y4879644D01*
X6134709Y4884369D01*
X6133896Y4889296D01*
X6133592Y4894580D01*
X6133896Y4899914D01*
X6134709Y4904994D01*
X6136081Y4909820D01*
X6137960Y4914341D01*
X6140348Y4918557D01*
X6143244Y4922469D01*
X6146596Y4926025D01*
X6150457Y4929276D01*
X6154724Y4932172D01*
X6159449Y4934762D01*
X6164580Y4936947D01*
X6170117Y4938776D01*
X6176060Y4940198D01*
X6182360Y4941214D01*
X6189065Y4941874D01*
X6196076Y4942078D01*
X6203086Y4941874D01*
X6209741Y4941214D01*
X6216040Y4940147D01*
X6221933Y4938623D01*
X6227470Y4936744D01*
X6232550Y4934508D01*
X6237224Y4931867D01*
X6241440Y4928920D01*
X6245250Y4925568D01*
X6248552Y4921910D01*
X6251397Y4917948D01*
X6253784Y4913680D01*
X6255613Y4909108D01*
X6256985Y4904282D01*
X6257798Y4899152D01*
X6258052Y4893818D01*
X6256985Y4884623D01*
X6254089Y4876444D01*
X6249568Y4869281D01*
X6243828Y4863084D01*
X6254750Y4853686D01*
X6258204Y4857089D01*
X6261557Y4861001D01*
X6264605Y4865370D01*
X6267297Y4870246D01*
X6269532Y4875580D01*
X6271310Y4881321D01*
X6272377Y4887518D01*
X6272784Y4894072D01*
X6272580Y4899609D01*
X6271920Y4905044D01*
X6270853Y4910277D01*
X6269380Y4915306D01*
X6267450Y4920132D01*
X6265164Y4924755D01*
X6262522Y4929124D01*
X6259423Y4933289D01*
X6256020Y4937201D01*
X6252210Y4940808D01*
X6248044Y4944160D01*
X6243523Y4947208D01*
X6238697Y4949952D01*
X6233515Y4952339D01*
X6227978Y4954422D01*
X6222187Y4956149D01*
X6216040Y4957521D01*
X6209588Y4958537D01*
X6202832Y4959146D01*
G37*
G36*
X6411722Y5220462D02*
G01*
X6404610Y5220258D01*
X6397853Y5219649D01*
X6391351Y5218684D01*
X6385204Y5217312D01*
X6379362Y5215585D01*
X6373825Y5213502D01*
X6368643Y5211064D01*
X6363766Y5208320D01*
X6359296Y5205272D01*
X6355130Y5201869D01*
X6351371Y5198211D01*
X6347968Y5194300D01*
X6344920Y5190083D01*
X6342278Y5185613D01*
X6339992Y5180939D01*
X6338112Y5175961D01*
X6336690Y5170830D01*
X6335623Y5165445D01*
X6334963Y5159908D01*
X6334760Y5154168D01*
X6335064Y5146903D01*
X6336030Y5140045D01*
X6337554Y5133543D01*
X6339535Y5127548D01*
X6342024Y5122011D01*
X6344920Y5116982D01*
X6348222Y5112562D01*
X6351778Y5108702D01*
X6413500Y5108702D01*
X6413500Y5156708D01*
X6399530Y5156708D01*
X6399530Y5124196D01*
X6358890Y5124196D01*
X6354978Y5129631D01*
X6351981Y5136540D01*
X6350152Y5144363D01*
X6349492Y5152644D01*
X6349796Y5158536D01*
X6350609Y5164074D01*
X6351981Y5169306D01*
X6353860Y5174132D01*
X6356248Y5178653D01*
X6359144Y5182819D01*
X6362496Y5186578D01*
X6366357Y5190032D01*
X6370624Y5193030D01*
X6375349Y5195722D01*
X6380480Y5197957D01*
X6386017Y5199837D01*
X6391960Y5201310D01*
X6398260Y5202326D01*
X6404965Y5202986D01*
X6411976Y5203190D01*
X6418986Y5202936D01*
X6425641Y5202275D01*
X6431940Y5201158D01*
X6437833Y5199634D01*
X6443370Y5197652D01*
X6448450Y5195316D01*
X6453124Y5192572D01*
X6457340Y5189423D01*
X6461150Y5185968D01*
X6464452Y5182158D01*
X6467297Y5177993D01*
X6469684Y5173522D01*
X6471513Y5168696D01*
X6472885Y5163616D01*
X6473698Y5158282D01*
X6473952Y5152644D01*
X6472834Y5142026D01*
X6469786Y5133238D01*
X6465265Y5125923D01*
X6459728Y5119878D01*
X6470650Y5110480D01*
X6473901Y5113934D01*
X6477101Y5117846D01*
X6480149Y5122265D01*
X6482892Y5127193D01*
X6485229Y5132730D01*
X6487058Y5138826D01*
X6488277Y5145532D01*
X6488684Y5152898D01*
X6488480Y5158740D01*
X6487820Y5164378D01*
X6486753Y5169814D01*
X6485280Y5175046D01*
X6483350Y5180076D01*
X6481064Y5184851D01*
X6478422Y5189423D01*
X6475323Y5193690D01*
X6471920Y5197703D01*
X6468110Y5201462D01*
X6463944Y5204866D01*
X6459423Y5208016D01*
X6454597Y5210810D01*
X6449415Y5213299D01*
X6443878Y5215432D01*
X6438087Y5217210D01*
X6431940Y5218633D01*
X6425488Y5219649D01*
X6418732Y5220258D01*
G37*
G36*
X6337300Y5072634D02*
G01*
X6337300Y5056886D01*
X6424625Y5056936D01*
X6441744Y5057597D01*
X6464046Y5058918D01*
X6464046Y5057902D01*
X6433566Y5041646D01*
X6337300Y4985766D01*
X6337300Y4968240D01*
X6486144Y4968240D01*
X6486144Y4984242D01*
X6399885Y4984191D01*
X6376416Y4983124D01*
X6359144Y4981956D01*
X6359144Y4982972D01*
X6389624Y4999228D01*
X6486144Y5055362D01*
X6486144Y5072634D01*
G37*
G36*
X6337300Y4926838D02*
G01*
X6337300Y4909820D01*
X6472174Y4909820D01*
X6472174Y4891532D01*
X6471920Y4884978D01*
X6471158Y4878882D01*
X6469888Y4873193D01*
X6468160Y4867960D01*
X6465925Y4863134D01*
X6463233Y4858715D01*
X6460083Y4854752D01*
X6456476Y4851196D01*
X6452412Y4848098D01*
X6447942Y4845405D01*
X6443014Y4843119D01*
X6437680Y4841240D01*
X6431889Y4839817D01*
X6425742Y4838750D01*
X6419189Y4838141D01*
X6412230Y4837938D01*
X6405321Y4838141D01*
X6398717Y4838750D01*
X6392519Y4839817D01*
X6386677Y4841240D01*
X6381242Y4843119D01*
X6376212Y4845405D01*
X6371590Y4848098D01*
X6367424Y4851196D01*
X6363665Y4854752D01*
X6360414Y4858715D01*
X6357569Y4863134D01*
X6355283Y4867960D01*
X6353403Y4873193D01*
X6352082Y4878882D01*
X6351270Y4884978D01*
X6351016Y4891532D01*
X6351016Y4909820D01*
X6337300Y4909820D01*
X6337300Y4889500D01*
X6337503Y4882896D01*
X6338112Y4876647D01*
X6339179Y4870704D01*
X6340602Y4865065D01*
X6342430Y4859782D01*
X6344666Y4854803D01*
X6347256Y4850180D01*
X6350203Y4845862D01*
X6353556Y4841849D01*
X6357213Y4838242D01*
X6361277Y4834940D01*
X6365646Y4831943D01*
X6370370Y4829302D01*
X6375450Y4827016D01*
X6380784Y4825085D01*
X6386474Y4823510D01*
X6392468Y4822291D01*
X6398768Y4821377D01*
X6405372Y4820869D01*
X6412230Y4820666D01*
X6419088Y4820869D01*
X6425641Y4821377D01*
X6431940Y4822291D01*
X6437884Y4823510D01*
X6443472Y4825136D01*
X6448806Y4827066D01*
X6453784Y4829352D01*
X6458458Y4831994D01*
X6462725Y4834991D01*
X6466687Y4838293D01*
X6470345Y4842002D01*
X6473596Y4846015D01*
X6476492Y4850384D01*
X6479032Y4855057D01*
X6481165Y4860086D01*
X6482943Y4865471D01*
X6484315Y4871161D01*
X6485331Y4877206D01*
X6485940Y4883556D01*
X6486144Y4890262D01*
X6486144Y4926838D01*
G37*
G36*
X2614422Y7392162D02*
G01*
X2607310Y7391958D01*
X2600553Y7391349D01*
X2594051Y7390384D01*
X2587904Y7389012D01*
X2582062Y7387285D01*
X2576525Y7385202D01*
X2571343Y7382764D01*
X2566466Y7380020D01*
X2561996Y7376972D01*
X2557830Y7373569D01*
X2554071Y7369911D01*
X2550668Y7366000D01*
X2547620Y7361783D01*
X2544978Y7357313D01*
X2542692Y7352639D01*
X2540812Y7347661D01*
X2539390Y7342530D01*
X2538323Y7337145D01*
X2537663Y7331608D01*
X2537460Y7325868D01*
X2537764Y7318603D01*
X2538730Y7311745D01*
X2540254Y7305243D01*
X2542235Y7299248D01*
X2544724Y7293711D01*
X2547620Y7288682D01*
X2550922Y7284262D01*
X2554478Y7280402D01*
X2616200Y7280402D01*
X2616200Y7328408D01*
X2602230Y7328408D01*
X2602230Y7295896D01*
X2561590Y7295896D01*
X2557678Y7301331D01*
X2554681Y7308240D01*
X2552852Y7316063D01*
X2552192Y7324344D01*
X2552496Y7330236D01*
X2553309Y7335774D01*
X2554681Y7341006D01*
X2556560Y7345832D01*
X2558948Y7350353D01*
X2561844Y7354519D01*
X2565196Y7358278D01*
X2569057Y7361732D01*
X2573324Y7364730D01*
X2578049Y7367422D01*
X2583180Y7369657D01*
X2588717Y7371537D01*
X2594660Y7373010D01*
X2600960Y7374026D01*
X2607665Y7374686D01*
X2614676Y7374890D01*
X2621686Y7374636D01*
X2628341Y7373975D01*
X2634640Y7372858D01*
X2640533Y7371334D01*
X2646070Y7369352D01*
X2651150Y7367016D01*
X2655824Y7364272D01*
X2660040Y7361123D01*
X2663850Y7357668D01*
X2667152Y7353858D01*
X2669997Y7349693D01*
X2672384Y7345222D01*
X2674213Y7340396D01*
X2675585Y7335316D01*
X2676398Y7329982D01*
X2676652Y7324344D01*
X2675534Y7313726D01*
X2672486Y7304938D01*
X2667965Y7297623D01*
X2662428Y7291578D01*
X2673350Y7282180D01*
X2676601Y7285634D01*
X2679801Y7289546D01*
X2682849Y7293965D01*
X2685592Y7298893D01*
X2687929Y7304430D01*
X2689758Y7310526D01*
X2690977Y7317231D01*
X2691384Y7324598D01*
X2691180Y7330440D01*
X2690520Y7336078D01*
X2689453Y7341514D01*
X2687980Y7346746D01*
X2686050Y7351775D01*
X2683764Y7356551D01*
X2681122Y7361123D01*
X2678023Y7365390D01*
X2674620Y7369403D01*
X2670810Y7373162D01*
X2666644Y7376566D01*
X2662123Y7379716D01*
X2657297Y7382509D01*
X2652115Y7384999D01*
X2646578Y7387132D01*
X2640787Y7388910D01*
X2634640Y7390333D01*
X2628188Y7391349D01*
X2621432Y7391958D01*
G37*
G36*
X2540000Y7244334D02*
G01*
X2540000Y7227570D01*
X2675128Y7227570D01*
X2675128Y7201408D01*
X2674772Y7192975D01*
X2673654Y7185558D01*
X2671724Y7179157D01*
X2668879Y7173925D01*
X2665120Y7169759D01*
X2660345Y7166762D01*
X2654452Y7164933D01*
X2647442Y7164324D01*
X2640482Y7164933D01*
X2634488Y7166762D01*
X2629408Y7169759D01*
X2625293Y7173925D01*
X2622092Y7179157D01*
X2619806Y7185558D01*
X2618435Y7192975D01*
X2617978Y7201408D01*
X2617978Y7227570D01*
X2604262Y7227570D01*
X2604262Y7199630D01*
X2540000Y7162546D01*
X2540000Y7143496D01*
X2605786Y7182103D01*
X2607157Y7176973D01*
X2608935Y7172248D01*
X2611069Y7167829D01*
X2613558Y7163765D01*
X2616403Y7160158D01*
X2619654Y7156907D01*
X2623312Y7154164D01*
X2627325Y7151827D01*
X2631744Y7149998D01*
X2636570Y7148677D01*
X2641803Y7147814D01*
X2647442Y7147559D01*
X2654655Y7148017D01*
X2661107Y7149236D01*
X2666746Y7151319D01*
X2671724Y7154164D01*
X2675991Y7157669D01*
X2679547Y7161885D01*
X2682544Y7166711D01*
X2684881Y7172147D01*
X2686659Y7178090D01*
X2687878Y7184593D01*
X2688590Y7191502D01*
X2688844Y7198868D01*
X2688844Y7244334D01*
G37*
G36*
X2540000Y7117080D02*
G01*
X2540000Y7029958D01*
X2554224Y7029958D01*
X2554224Y7100062D01*
X2611374Y7100062D01*
X2611374Y7042912D01*
X2625598Y7042912D01*
X2625598Y7100062D01*
X2674620Y7100062D01*
X2674620Y7032244D01*
X2688844Y7032244D01*
X2688844Y7117080D01*
G37*
G36*
X2540000Y6998208D02*
G01*
X2540000Y6911340D01*
X2554224Y6911340D01*
X2554224Y6981444D01*
X2611374Y6981444D01*
X2611374Y6924294D01*
X2625598Y6924294D01*
X2625598Y6981444D01*
X2674620Y6981444D01*
X2674620Y6913625D01*
X2688844Y6913625D01*
X2688844Y6998208D01*
G37*
G36*
X2540000Y6879590D02*
G01*
X2540000Y6863842D01*
X2627325Y6863892D01*
X2644444Y6864553D01*
X2666746Y6865874D01*
X2666746Y6864858D01*
X2636266Y6848602D01*
X2540000Y6792722D01*
X2540000Y6775196D01*
X2688844Y6775196D01*
X2688844Y6791198D01*
X2602585Y6791147D01*
X2579116Y6790080D01*
X2561844Y6788912D01*
X2561844Y6789928D01*
X2592324Y6806184D01*
X2688844Y6862318D01*
X2688844Y6879590D01*
G37*
G36*
X1739900Y7243572D02*
G01*
X1739900Y7226808D01*
X1875028Y7226808D01*
X1875028Y7200900D01*
X1874672Y7192365D01*
X1873554Y7184898D01*
X1871624Y7178497D01*
X1868830Y7173163D01*
X1865020Y7168997D01*
X1860245Y7166000D01*
X1854352Y7164171D01*
X1847342Y7163562D01*
X1840382Y7164171D01*
X1834388Y7166000D01*
X1829307Y7168997D01*
X1825193Y7173163D01*
X1821992Y7178497D01*
X1819706Y7184898D01*
X1818335Y7192365D01*
X1817878Y7200900D01*
X1817878Y7226808D01*
X1804162Y7226808D01*
X1804162Y7198868D01*
X1739900Y7161784D01*
X1739900Y7142988D01*
X1805686Y7181342D01*
X1807057Y7176211D01*
X1808835Y7171486D01*
X1810969Y7167067D01*
X1813458Y7163003D01*
X1816303Y7159396D01*
X1819554Y7156145D01*
X1823212Y7153402D01*
X1827225Y7151065D01*
X1831644Y7149236D01*
X1836470Y7147915D01*
X1841703Y7147052D01*
X1847342Y7146798D01*
X1854555Y7147255D01*
X1861007Y7148474D01*
X1866646Y7150557D01*
X1871624Y7153402D01*
X1875891Y7156907D01*
X1879447Y7161123D01*
X1882444Y7165949D01*
X1884781Y7171385D01*
X1886559Y7177328D01*
X1887778Y7183831D01*
X1888489Y7190740D01*
X1888743Y7198106D01*
X1888743Y7243572D01*
G37*
G36*
X1739900Y7116318D02*
G01*
X1739900Y7029196D01*
X1754124Y7029196D01*
X1754124Y7099300D01*
X1811274Y7099300D01*
X1811274Y7042403D01*
X1825498Y7042403D01*
X1825498Y7099300D01*
X1874520Y7099300D01*
X1874520Y7031481D01*
X1888743Y7031481D01*
X1888743Y7116318D01*
G37*
G36*
X1739900Y6997700D02*
G01*
X1739900Y6980681D01*
X1874774Y6980681D01*
X1874774Y6962394D01*
X1874520Y6955840D01*
X1873757Y6949744D01*
X1872488Y6944055D01*
X1870760Y6938822D01*
X1868525Y6933996D01*
X1865833Y6929577D01*
X1862683Y6925614D01*
X1859076Y6922058D01*
X1855012Y6918959D01*
X1850542Y6916267D01*
X1845614Y6913981D01*
X1840280Y6912102D01*
X1834489Y6910679D01*
X1828342Y6909612D01*
X1821789Y6909003D01*
X1814830Y6908800D01*
X1807921Y6909003D01*
X1801317Y6909612D01*
X1795119Y6910679D01*
X1789277Y6912102D01*
X1783842Y6913981D01*
X1778812Y6916267D01*
X1774189Y6918959D01*
X1770024Y6922058D01*
X1766265Y6925614D01*
X1763014Y6929577D01*
X1760169Y6933996D01*
X1757883Y6938822D01*
X1756003Y6944055D01*
X1754682Y6949744D01*
X1753870Y6955840D01*
X1753616Y6962394D01*
X1753616Y6980681D01*
X1739900Y6980681D01*
X1739900Y6960362D01*
X1740103Y6953758D01*
X1740712Y6947509D01*
X1741779Y6941566D01*
X1743202Y6935927D01*
X1745030Y6930644D01*
X1747266Y6925665D01*
X1749856Y6921042D01*
X1752803Y6916724D01*
X1756156Y6912711D01*
X1759864Y6909104D01*
X1763877Y6905802D01*
X1768246Y6902805D01*
X1772970Y6900164D01*
X1778050Y6897878D01*
X1783384Y6895947D01*
X1789074Y6894372D01*
X1795068Y6893153D01*
X1801368Y6892239D01*
X1807972Y6891731D01*
X1814830Y6891528D01*
X1821688Y6891731D01*
X1828241Y6892239D01*
X1834540Y6893153D01*
X1840484Y6894372D01*
X1846072Y6895947D01*
X1851406Y6897928D01*
X1856384Y6900214D01*
X1861057Y6902856D01*
X1865325Y6905853D01*
X1869338Y6909206D01*
X1872945Y6912864D01*
X1876196Y6916877D01*
X1879092Y6921246D01*
X1881632Y6925919D01*
X1883765Y6930948D01*
X1885543Y6936333D01*
X1886915Y6942023D01*
X1887931Y6948068D01*
X1888540Y6954418D01*
X1888743Y6961124D01*
X1888743Y6997700D01*
G37*
G36*
X2667000Y9037066D02*
G01*
X2667000Y8957056D01*
X2680716Y8957056D01*
X2680716Y8987282D01*
X2815844Y8987282D01*
X2815844Y8999728D01*
X2812491Y9005976D01*
X2809697Y9012936D01*
X2807462Y9020860D01*
X2805684Y9029954D01*
X2794762Y9029954D01*
X2794762Y9003792D01*
X2680716Y9003792D01*
X2680716Y9037066D01*
G37*
G36*
X2750312Y7773416D02*
G01*
X2741472Y7773162D01*
X2733243Y7772501D01*
X2725521Y7771333D01*
X2718409Y7769809D01*
X2711856Y7767828D01*
X2705862Y7765491D01*
X2700426Y7762748D01*
X2695549Y7759649D01*
X2691231Y7756245D01*
X2687523Y7752537D01*
X2684373Y7748473D01*
X2681782Y7744155D01*
X2679750Y7739583D01*
X2678328Y7734757D01*
X2677464Y7729677D01*
X2677160Y7724394D01*
X2690368Y7724394D01*
X2690723Y7729118D01*
X2691841Y7733487D01*
X2693619Y7737500D01*
X2696159Y7741208D01*
X2699359Y7744510D01*
X2703220Y7747457D01*
X2707690Y7750048D01*
X2712872Y7752283D01*
X2718663Y7754162D01*
X2725064Y7755636D01*
X2732074Y7756702D01*
X2739644Y7757414D01*
X2744571Y7753553D01*
X2748737Y7749590D01*
X2752140Y7745526D01*
X2754884Y7741513D01*
X2756916Y7737500D01*
X2758338Y7733588D01*
X2759202Y7729778D01*
X2759456Y7726172D01*
X2758846Y7719517D01*
X2756966Y7713776D01*
X2754020Y7708950D01*
X2750007Y7705039D01*
X2745079Y7702042D01*
X2739186Y7699908D01*
X2732532Y7698638D01*
X2725166Y7698231D01*
X2717749Y7698740D01*
X2711043Y7700213D01*
X2705100Y7702550D01*
X2700070Y7705699D01*
X2695956Y7709509D01*
X2692908Y7713980D01*
X2691028Y7718958D01*
X2690368Y7724394D01*
X2677160Y7724394D01*
X2677566Y7718806D01*
X2678734Y7713421D01*
X2680614Y7708290D01*
X2683205Y7703464D01*
X2686507Y7698994D01*
X2690418Y7694980D01*
X2694889Y7691374D01*
X2699969Y7688325D01*
X2705557Y7685836D01*
X2711653Y7684008D01*
X2718206Y7682890D01*
X2725166Y7682484D01*
X2732582Y7682788D01*
X2739390Y7683753D01*
X2745486Y7685328D01*
X2750972Y7687513D01*
X2755849Y7690256D01*
X2760014Y7693558D01*
X2763570Y7697368D01*
X2766466Y7701686D01*
X2768752Y7706512D01*
X2770378Y7711744D01*
X2771343Y7717485D01*
X2771648Y7723631D01*
X2771343Y7728153D01*
X2770378Y7732725D01*
X2768904Y7737246D01*
X2766822Y7741716D01*
X2764231Y7746085D01*
X2761132Y7750302D01*
X2757576Y7754264D01*
X2753614Y7757922D01*
X2762148Y7757566D01*
X2769971Y7756855D01*
X2777134Y7755788D01*
X2783636Y7754366D01*
X2789428Y7752638D01*
X2794660Y7750606D01*
X2799283Y7748320D01*
X2803296Y7745780D01*
X2806801Y7742986D01*
X2809697Y7739938D01*
X2812135Y7736738D01*
X2814066Y7733385D01*
X2815539Y7729829D01*
X2816555Y7726172D01*
X2817164Y7722412D01*
X2817368Y7718552D01*
X2816606Y7711795D01*
X2814320Y7705344D01*
X2810713Y7699502D01*
X2805938Y7694422D01*
X2816352Y7685024D01*
X2819400Y7688224D01*
X2822194Y7691678D01*
X2824683Y7695438D01*
X2826867Y7699451D01*
X2828645Y7703870D01*
X2829966Y7708544D01*
X2830779Y7713624D01*
X2831084Y7719059D01*
X2830931Y7723327D01*
X2830423Y7727492D01*
X2829560Y7731607D01*
X2828340Y7735620D01*
X2826766Y7739532D01*
X2824784Y7743342D01*
X2822397Y7747000D01*
X2819603Y7750505D01*
X2816402Y7753807D01*
X2812796Y7756906D01*
X2808732Y7759801D01*
X2804210Y7762494D01*
X2799232Y7764881D01*
X2793746Y7767066D01*
X2787802Y7768945D01*
X2781350Y7770469D01*
X2774391Y7771739D01*
X2766872Y7772653D01*
X2758897Y7773212D01*
G37*
G36*
X2282698Y10350246D02*
G01*
X2282698Y10337292D01*
X2334006Y10337292D01*
X2334006Y10350246D01*
G37*
D22*
X1263142Y11482578D02*
G01*
X1364742Y11482578D01*
X1309370Y11408663D01*
X1337055Y11408663D01*
X1355344Y11399520D01*
X1364742Y11390376D01*
X1373886Y11362689D01*
X1373886Y11344147D01*
X1364742Y11316462D01*
X1346200Y11297920D01*
X1318513Y11288776D01*
X1290828Y11288776D01*
X1263142Y11297920D01*
X1253744Y11307063D01*
X1244600Y11325605D01*
X1443989Y11334750D02*
G01*
X1434845Y11325605D01*
X1443989Y11316462D01*
X1453387Y11325605D01*
X1443989Y11334750D01*
X1625092Y11482578D02*
G01*
X1532889Y11482578D01*
X1523492Y11399520D01*
X1532889Y11408663D01*
X1560576Y11418062D01*
X1588262Y11418062D01*
X1615947Y11408663D01*
X1634489Y11390376D01*
X1643634Y11362689D01*
X1643634Y11344147D01*
X1634489Y11316462D01*
X1615947Y11297920D01*
X1588262Y11288776D01*
X1560576Y11288776D01*
X1532889Y11297920D01*
X1523492Y11307063D01*
X1514347Y11325605D01*
X1704594Y11418062D02*
G01*
X1759965Y11288776D01*
X1815337Y11418062D02*
G01*
X1759965Y11288776D01*
X1876297Y11371834D02*
G01*
X2042668Y11371834D01*
X2214372Y11482578D02*
G01*
X2122170Y11482578D01*
X2112772Y11399520D01*
X2122170Y11408663D01*
X2149856Y11418062D01*
X2177541Y11418062D01*
X2205227Y11408663D01*
X2223770Y11390376D01*
X2232913Y11362689D01*
X2232913Y11344147D01*
X2223770Y11316462D01*
X2205227Y11297920D01*
X2177541Y11288776D01*
X2149856Y11288776D01*
X2122170Y11297920D01*
X2112772Y11307063D01*
X2103627Y11325605D01*
X2303018Y11334750D02*
G01*
X2293874Y11325605D01*
X2303018Y11316462D01*
X2312415Y11325605D01*
X2303018Y11334750D01*
X2484120Y11482578D02*
G01*
X2391663Y11482578D01*
X2382520Y11399520D01*
X2391663Y11408663D01*
X2419350Y11418062D01*
X2447290Y11418062D01*
X2474975Y11408663D01*
X2493263Y11390376D01*
X2502661Y11362689D01*
X2502661Y11344147D01*
X2493263Y11316462D01*
X2474975Y11297920D01*
X2447290Y11288776D01*
X2419350Y11288776D01*
X2391663Y11297920D01*
X2382520Y11307063D01*
X2373375Y11325605D01*
X2563622Y11418062D02*
G01*
X2618993Y11288776D01*
X2674365Y11418062D02*
G01*
X2618993Y11288776D01*
X7456677Y11755628D02*
G01*
X7447534Y11774170D01*
X7428991Y11792458D01*
X7410450Y11801855D01*
X7382763Y11811000D01*
X7336790Y11811000D01*
X7308850Y11801855D01*
X7290561Y11792458D01*
X7272020Y11774170D01*
X7262875Y11755628D01*
X7262875Y11718544D01*
X7272020Y11700255D01*
X7290561Y11681713D01*
X7308850Y11672570D01*
X7336790Y11663171D01*
X7382763Y11663171D01*
X7410450Y11672570D01*
X7428991Y11681713D01*
X7447534Y11700255D01*
X7456677Y11718544D01*
X7456677Y11755628D01*
X7456677Y11602212D02*
G01*
X7262875Y11602212D01*
X7456677Y11602212D02*
G01*
X7456677Y11519154D01*
X7447534Y11491468D01*
X7438390Y11482070D01*
X7419847Y11472926D01*
X7392161Y11472926D01*
X7373620Y11482070D01*
X7364475Y11491468D01*
X7355077Y11519154D01*
X7355077Y11602212D01*
X7456677Y11411965D02*
G01*
X7262875Y11411965D01*
X7456677Y11411965D02*
G01*
X7456677Y11291824D01*
X7364475Y11411965D02*
G01*
X7364475Y11338052D01*
X7262875Y11411965D02*
G01*
X7262875Y11291824D01*
X7456677Y11230863D02*
G01*
X7262875Y11230863D01*
X7456677Y11230863D02*
G01*
X7262875Y11101578D01*
X7456677Y11101578D02*
G01*
X7262875Y11101578D01*
X7456677Y11040618D02*
G01*
X7262875Y11040618D01*
X7456677Y11040618D02*
G01*
X7456677Y10957560D01*
X7447534Y10929874D01*
X7438390Y10920729D01*
X7419847Y10911331D01*
X7392161Y10911331D01*
X7373620Y10920729D01*
X7364475Y10929874D01*
X7355077Y10957560D01*
X7355077Y11040618D01*
X7456677Y10850371D02*
G01*
X7262875Y10850371D01*
X7456677Y10789412D02*
G01*
X7262875Y10789412D01*
X7262875Y10789412D02*
G01*
X7262875Y10678668D01*
X7456677Y10617708D02*
G01*
X7262875Y10617708D01*
X7262875Y10617708D02*
G01*
X7262875Y10506710D01*
X7392161Y10303510D02*
G01*
X7262875Y10248137D01*
X7392161Y10192765D02*
G01*
X7262875Y10248137D01*
X7419847Y10131805D02*
G01*
X7428991Y10113263D01*
X7456677Y10085578D01*
X7262875Y10085578D01*
X7308850Y10015474D02*
G01*
X7299706Y10024618D01*
X7290561Y10015474D01*
X7299706Y10006329D01*
X7308850Y10015474D01*
X7456677Y9889744D02*
G01*
X7447534Y9917429D01*
X7419847Y9935971D01*
X7373620Y9945370D01*
X7345934Y9945370D01*
X7299706Y9935971D01*
X7272020Y9917429D01*
X7262875Y9889744D01*
X7262875Y9871455D01*
X7272020Y9843770D01*
X7299706Y9825228D01*
X7345934Y9815829D01*
X7373620Y9815829D01*
X7419847Y9825228D01*
X7447534Y9843770D01*
X7456677Y9871455D01*
X7456677Y9889744D01*
X3972077Y6083300D02*
G01*
X3833647Y6083300D01*
X3805961Y6074155D01*
X3787419Y6055613D01*
X3778275Y6027928D01*
X3778275Y6009386D01*
X3787419Y5981700D01*
X3805961Y5963157D01*
X3833647Y5954013D01*
X3972077Y5954013D01*
X3972077Y5819139D02*
G01*
X3778275Y5893054D01*
X3972077Y5819139D02*
G01*
X3778275Y5745226D01*
X3842791Y5865368D02*
G01*
X3842791Y5772912D01*
X3972077Y5684265D02*
G01*
X3778275Y5684265D01*
X3972077Y5684265D02*
G01*
X3972077Y5601207D01*
X3962933Y5573521D01*
X3953789Y5564123D01*
X3935247Y5554979D01*
X3916705Y5554979D01*
X3898163Y5564123D01*
X3889019Y5573521D01*
X3879875Y5601207D01*
X3879875Y5684265D01*
X3879875Y5619750D02*
G01*
X3778275Y5554979D01*
X3972077Y5429250D02*
G01*
X3778275Y5429250D01*
X3972077Y5494020D02*
G01*
X3972077Y5364734D01*
X3925849Y5294629D02*
G01*
X3935247Y5294629D01*
X3953789Y5285231D01*
X3962933Y5276087D01*
X3972077Y5257545D01*
X3972077Y5220715D01*
X3962933Y5202173D01*
X3953789Y5193029D01*
X3935247Y5183631D01*
X3916705Y5183631D01*
X3898163Y5193029D01*
X3870477Y5211318D01*
X3778275Y5303773D01*
X3778275Y5174487D01*
X5500877Y6083300D02*
G01*
X5362447Y6083300D01*
X5334761Y6074155D01*
X5316220Y6055613D01*
X5307075Y6027928D01*
X5307075Y6009386D01*
X5316220Y5981700D01*
X5334761Y5963157D01*
X5362447Y5954013D01*
X5500877Y5954013D01*
X5500877Y5819139D02*
G01*
X5307075Y5893054D01*
X5500877Y5819139D02*
G01*
X5307075Y5745226D01*
X5371591Y5865368D02*
G01*
X5371591Y5772912D01*
X5500877Y5684265D02*
G01*
X5307075Y5684265D01*
X5500877Y5684265D02*
G01*
X5500877Y5601207D01*
X5491734Y5573521D01*
X5482590Y5564123D01*
X5464047Y5554979D01*
X5445506Y5554979D01*
X5426963Y5564123D01*
X5417820Y5573521D01*
X5408675Y5601207D01*
X5408675Y5684265D01*
X5408675Y5619750D02*
G01*
X5307075Y5554979D01*
X5500877Y5429250D02*
G01*
X5307075Y5429250D01*
X5500877Y5494020D02*
G01*
X5500877Y5364734D01*
X5454650Y5294629D02*
G01*
X5464047Y5294629D01*
X5482590Y5285231D01*
X5491734Y5276087D01*
X5500877Y5257545D01*
X5500877Y5220715D01*
X5491734Y5202173D01*
X5482590Y5193029D01*
X5464047Y5183631D01*
X5445506Y5183631D01*
X5426963Y5193029D01*
X5399277Y5211318D01*
X5307075Y5303773D01*
X5307075Y5174487D01*
X3964177Y7302500D02*
G01*
X3770375Y7302500D01*
X3917950Y7232395D02*
G01*
X3927347Y7232395D01*
X3945890Y7222997D01*
X3955034Y7213854D01*
X3964177Y7195312D01*
X3964177Y7158481D01*
X3955034Y7139939D01*
X3945890Y7130795D01*
X3927347Y7121397D01*
X3908806Y7121397D01*
X3890263Y7130795D01*
X3862577Y7149084D01*
X3770375Y7241539D01*
X3770375Y7112254D01*
X3917950Y6912610D02*
G01*
X3936491Y6922008D01*
X3955034Y6940550D01*
X3964177Y6958837D01*
X3964177Y6995921D01*
X3955034Y7014210D01*
X3936491Y7032752D01*
X3917950Y7042150D01*
X3890263Y7051294D01*
X3844290Y7051294D01*
X3816350Y7042150D01*
X3798061Y7032752D01*
X3779520Y7014210D01*
X3770375Y6995921D01*
X3770375Y6958837D01*
X3779520Y6940550D01*
X3798061Y6922008D01*
X3816350Y6912610D01*
X3927347Y6851650D02*
G01*
X3936491Y6833362D01*
X3964177Y6805676D01*
X3770375Y6805676D01*
X5500877Y7327900D02*
G01*
X5307075Y7327900D01*
X5454650Y7257795D02*
G01*
X5464047Y7257795D01*
X5482590Y7248397D01*
X5491734Y7239254D01*
X5500877Y7220712D01*
X5500877Y7183881D01*
X5491734Y7165339D01*
X5482590Y7156195D01*
X5464047Y7146797D01*
X5445506Y7146797D01*
X5426963Y7156195D01*
X5399277Y7174484D01*
X5307075Y7266939D01*
X5307075Y7137654D01*
X5454650Y6938010D02*
G01*
X5473191Y6947408D01*
X5491734Y6965950D01*
X5500877Y6984237D01*
X5500877Y7021321D01*
X5491734Y7039610D01*
X5473191Y7058152D01*
X5454650Y7067550D01*
X5426963Y7076694D01*
X5380990Y7076694D01*
X5353050Y7067550D01*
X5334761Y7058152D01*
X5316220Y7039610D01*
X5307075Y7021321D01*
X5307075Y6984237D01*
X5316220Y6965950D01*
X5334761Y6947408D01*
X5353050Y6938010D01*
X5464047Y6877050D02*
G01*
X5473191Y6858762D01*
X5500877Y6831076D01*
X5307075Y6831076D01*
X5513577Y8343900D02*
G01*
X5319775Y8343900D01*
X5467350Y8273795D02*
G01*
X5476747Y8273795D01*
X5495290Y8264397D01*
X5504434Y8255254D01*
X5513577Y8236712D01*
X5513577Y8199881D01*
X5504434Y8181339D01*
X5495290Y8172195D01*
X5476747Y8162797D01*
X5458206Y8162797D01*
X5439663Y8172195D01*
X5411977Y8190484D01*
X5319775Y8282939D01*
X5319775Y8153654D01*
X5467350Y7954010D02*
G01*
X5485891Y7963408D01*
X5504434Y7981950D01*
X5513577Y8000237D01*
X5513577Y8037321D01*
X5504434Y8055610D01*
X5485891Y8074152D01*
X5467350Y8083550D01*
X5439663Y8092694D01*
X5393690Y8092694D01*
X5365750Y8083550D01*
X5347461Y8074152D01*
X5328920Y8055610D01*
X5319775Y8037321D01*
X5319775Y8000237D01*
X5328920Y7981950D01*
X5347461Y7963408D01*
X5365750Y7954010D01*
X5476747Y7893050D02*
G01*
X5485891Y7874762D01*
X5513577Y7847076D01*
X5319775Y7847076D01*
X3976877Y8318500D02*
G01*
X3783075Y8318500D01*
X3930650Y8248395D02*
G01*
X3940047Y8248395D01*
X3958590Y8238997D01*
X3967734Y8229854D01*
X3976877Y8211312D01*
X3976877Y8174481D01*
X3967734Y8155939D01*
X3958590Y8146795D01*
X3940047Y8137397D01*
X3921506Y8137397D01*
X3902963Y8146795D01*
X3875277Y8165084D01*
X3783075Y8257539D01*
X3783075Y8128254D01*
X3930650Y7928610D02*
G01*
X3949191Y7938008D01*
X3967734Y7956550D01*
X3976877Y7974837D01*
X3976877Y8011921D01*
X3967734Y8030210D01*
X3949191Y8048752D01*
X3930650Y8058150D01*
X3902963Y8067294D01*
X3856990Y8067294D01*
X3829050Y8058150D01*
X3810761Y8048752D01*
X3792220Y8030210D01*
X3783075Y8011921D01*
X3783075Y7974837D01*
X3792220Y7956550D01*
X3810761Y7938008D01*
X3829050Y7928610D01*
X3940047Y7867650D02*
G01*
X3949191Y7849362D01*
X3976877Y7821676D01*
X3783075Y7821676D01*
X3976877Y9372600D02*
G01*
X3783075Y9372600D01*
X3930650Y9302495D02*
G01*
X3940047Y9302495D01*
X3958590Y9293097D01*
X3967734Y9283954D01*
X3976877Y9265412D01*
X3976877Y9228581D01*
X3967734Y9210039D01*
X3958590Y9200895D01*
X3940047Y9191497D01*
X3921506Y9191497D01*
X3902963Y9200895D01*
X3875277Y9219184D01*
X3783075Y9311639D01*
X3783075Y9182354D01*
X3930650Y8982710D02*
G01*
X3949191Y8992108D01*
X3967734Y9010650D01*
X3976877Y9028937D01*
X3976877Y9066021D01*
X3967734Y9084310D01*
X3949191Y9102852D01*
X3930650Y9112250D01*
X3902963Y9121394D01*
X3856990Y9121394D01*
X3829050Y9112250D01*
X3810761Y9102852D01*
X3792220Y9084310D01*
X3783075Y9066021D01*
X3783075Y9028937D01*
X3792220Y9010650D01*
X3810761Y8992108D01*
X3829050Y8982710D01*
X3940047Y8921750D02*
G01*
X3949191Y8903462D01*
X3976877Y8875776D01*
X3783075Y8875776D01*
X5513577Y9359900D02*
G01*
X5319775Y9359900D01*
X5467350Y9289795D02*
G01*
X5476747Y9289795D01*
X5495290Y9280397D01*
X5504434Y9271254D01*
X5513577Y9252712D01*
X5513577Y9215881D01*
X5504434Y9197339D01*
X5495290Y9188195D01*
X5476747Y9178797D01*
X5458206Y9178797D01*
X5439663Y9188195D01*
X5411977Y9206484D01*
X5319775Y9298939D01*
X5319775Y9169654D01*
X5467350Y8970010D02*
G01*
X5485891Y8979408D01*
X5504434Y8997950D01*
X5513577Y9016237D01*
X5513577Y9053321D01*
X5504434Y9071610D01*
X5485891Y9090152D01*
X5467350Y9099550D01*
X5439663Y9108694D01*
X5393690Y9108694D01*
X5365750Y9099550D01*
X5347461Y9090152D01*
X5328920Y9071610D01*
X5319775Y9053321D01*
X5319775Y9016237D01*
X5328920Y8997950D01*
X5347461Y8979408D01*
X5365750Y8970010D01*
X5476747Y8909050D02*
G01*
X5485891Y8890762D01*
X5513577Y8863076D01*
X5319775Y8863076D01*
X2831591Y8481313D02*
G01*
X2850134Y8499855D01*
X2859277Y8527542D01*
X2859277Y8564371D01*
X2850134Y8592058D01*
X2831591Y8610600D01*
X2813050Y8610600D01*
X2794761Y8601455D01*
X2785363Y8592058D01*
X2776220Y8573770D01*
X2757677Y8518144D01*
X2748534Y8499855D01*
X2739390Y8490458D01*
X2720847Y8481313D01*
X2693161Y8481313D01*
X2674620Y8499855D01*
X2665475Y8527542D01*
X2665475Y8564371D01*
X2674620Y8592058D01*
X2693161Y8610600D01*
X2859277Y8420354D02*
G01*
X2665475Y8374126D01*
X2859277Y8327897D02*
G01*
X2665475Y8374126D01*
X2859277Y8327897D02*
G01*
X2665475Y8281670D01*
X2859277Y8235695D02*
G01*
X2665475Y8281670D01*
X2859277Y8174736D02*
G01*
X2665475Y8174736D01*
X2859277Y8174736D02*
G01*
X2859277Y8109965D01*
X2850134Y8082279D01*
X2831591Y8063737D01*
X2813050Y8054594D01*
X2785363Y8045450D01*
X2739390Y8045450D01*
X2711450Y8054594D01*
X2693161Y8063737D01*
X2674620Y8082279D01*
X2665475Y8109965D01*
X2665475Y8174736D01*
D23*
X3709415Y11849100D02*
G01*
X3600450Y11849100D01*
X3709415Y11849100D02*
G01*
X3709415Y11802363D01*
X3704336Y11786870D01*
X3699002Y11781536D01*
X3688588Y11776455D01*
X3678174Y11776455D01*
X3667759Y11781536D01*
X3662679Y11786870D01*
X3657600Y11802363D01*
X3657600Y11849100D01*
X3657600Y11812778D02*
G01*
X3600450Y11776455D01*
X3709415Y11742165D02*
G01*
X3600450Y11742165D01*
X3709415Y11742165D02*
G01*
X3600450Y11669268D01*
X3709415Y11669268D02*
G01*
X3600450Y11669268D01*
X3709415Y11583162D02*
G01*
X3636772Y11634978D01*
X3636772Y11557000D01*
X3709415Y11583162D02*
G01*
X3600450Y11583162D01*
X3709415Y11496802D02*
G01*
X3704336Y11512550D01*
X3693922Y11517629D01*
X3683508Y11517629D01*
X3673093Y11512550D01*
X3667759Y11502136D01*
X3662679Y11481308D01*
X3657600Y11465560D01*
X3647186Y11455400D01*
X3636772Y11450065D01*
X3621024Y11450065D01*
X3610609Y11455400D01*
X3605529Y11460479D01*
X3600450Y11475974D01*
X3600450Y11496802D01*
X3605529Y11512550D01*
X3610609Y11517629D01*
X3621024Y11522710D01*
X3636772Y11522710D01*
X3647186Y11517629D01*
X3657600Y11507215D01*
X3662679Y11491721D01*
X3667759Y11470894D01*
X3673093Y11460479D01*
X3683508Y11455400D01*
X3693922Y11455400D01*
X3704336Y11460479D01*
X3709415Y11475974D01*
X3709415Y11496802D01*
X3709415Y11343131D02*
G01*
X3600450Y11394947D01*
X3709415Y11415776D02*
G01*
X3709415Y11343131D01*
X3688588Y11308842D02*
G01*
X3693922Y11298428D01*
X3709415Y11282679D01*
X3600450Y11282679D01*
X1805686Y10849355D02*
G01*
X1805686Y10851642D01*
X1807971Y10856213D01*
X1810257Y10858500D01*
X1814829Y10860786D01*
X1824228Y10860786D01*
X1828800Y10858500D01*
X1831086Y10856213D01*
X1833371Y10851642D01*
X1833371Y10847070D01*
X1831086Y10842244D01*
X1826513Y10835386D01*
X1803400Y10812271D01*
X1835657Y10812271D01*
X2057400Y10851642D02*
G01*
X2061972Y10853928D01*
X2068829Y10860786D01*
X2068829Y10812271D01*
X1868170Y10630915D02*
G01*
X1868170Y10547858D01*
X1862836Y10532110D01*
X1857755Y10527029D01*
X1847342Y10521950D01*
X1836928Y10521950D01*
X1826513Y10527029D01*
X1821179Y10532110D01*
X1816100Y10547858D01*
X1816100Y10558271D01*
X1902460Y10630915D02*
G01*
X1902460Y10521950D01*
X1902460Y10630915D02*
G01*
X1949195Y10630915D01*
X1964690Y10625836D01*
X1969770Y10620502D01*
X1975104Y10610087D01*
X1975104Y10594594D01*
X1969770Y10584179D01*
X1964690Y10579100D01*
X1949195Y10573765D01*
X1902460Y10573765D01*
X2014474Y10605008D02*
G01*
X2014474Y10610087D01*
X2019808Y10620502D01*
X2024888Y10625836D01*
X2035302Y10630915D01*
X2056129Y10630915D01*
X2066543Y10625836D01*
X2071624Y10620502D01*
X2076958Y10610087D01*
X2076958Y10599674D01*
X2071624Y10589260D01*
X2061209Y10573765D01*
X2009393Y10521950D01*
X2082038Y10521950D01*
X2093213Y10131044D02*
G01*
X2093213Y10128758D01*
X2090927Y10124186D01*
X2088641Y10121900D01*
X2084070Y10119613D01*
X2074672Y10119613D01*
X2070100Y10121900D01*
X2067813Y10124186D01*
X2065527Y10128758D01*
X2065527Y10133329D01*
X2067813Y10138155D01*
X2072386Y10145013D01*
X2095500Y10168128D01*
X2063241Y10168128D01*
X1854200Y10116058D02*
G01*
X1849628Y10113771D01*
X1842770Y10106913D01*
X1842770Y10155428D01*
X3421888Y10274300D02*
G01*
X3427222Y10263886D01*
X3442715Y10248392D01*
X3333750Y10248392D01*
X3442715Y10182860D02*
G01*
X3437636Y10198354D01*
X3421888Y10208768D01*
X3395979Y10214102D01*
X3380486Y10214102D01*
X3354324Y10208768D01*
X3338829Y10198354D01*
X3333750Y10182860D01*
X3333750Y10172445D01*
X3338829Y10156952D01*
X3354324Y10146537D01*
X3380486Y10141204D01*
X3395979Y10141204D01*
X3421888Y10146537D01*
X3437636Y10156952D01*
X3442715Y10172445D01*
X3442715Y10182860D01*
X3442715Y10075926D02*
G01*
X3437636Y10091420D01*
X3421888Y10101834D01*
X3395979Y10106913D01*
X3380486Y10106913D01*
X3354324Y10101834D01*
X3338829Y10091420D01*
X3333750Y10075926D01*
X3333750Y10065512D01*
X3338829Y10049763D01*
X3354324Y10039350D01*
X3380486Y10034270D01*
X3395979Y10034270D01*
X3421888Y10039350D01*
X3437636Y10049763D01*
X3442715Y10065512D01*
X3442715Y10075926D01*
X3406393Y9999979D02*
G01*
X3333750Y9999979D01*
X3385565Y9999979D02*
G01*
X3401059Y9984486D01*
X3406393Y9974071D01*
X3406393Y9958324D01*
X3401059Y9947910D01*
X3385565Y9942829D01*
X3333750Y9942829D01*
X3442715Y9908539D02*
G01*
X3333750Y9908539D01*
X3442715Y9908539D02*
G01*
X3442715Y9840976D01*
X3390900Y9908539D02*
G01*
X3390900Y9866884D01*
X4255515Y10234932D02*
G01*
X4182872Y10287002D01*
X4182872Y10209024D01*
X4255515Y10234932D02*
G01*
X4146550Y10234932D01*
X4255515Y10102090D02*
G01*
X4146550Y10153906D01*
X4255515Y10174734D02*
G01*
X4255515Y10102090D01*
X4255515Y10036558D02*
G01*
X4250436Y10052052D01*
X4234688Y10062466D01*
X4208779Y10067800D01*
X4193286Y10067800D01*
X4167124Y10062466D01*
X4151629Y10052052D01*
X4146550Y10036558D01*
X4146550Y10026144D01*
X4151629Y10010650D01*
X4167124Y10000236D01*
X4193286Y9994902D01*
X4208779Y9994902D01*
X4234688Y10000236D01*
X4250436Y10010650D01*
X4255515Y10026144D01*
X4255515Y10036558D01*
X4219193Y9960612D02*
G01*
X4146550Y9960612D01*
X4198365Y9960612D02*
G01*
X4213859Y9945118D01*
X4219193Y9934704D01*
X4219193Y9919210D01*
X4213859Y9908796D01*
X4198365Y9903462D01*
X4146550Y9903462D01*
X4255515Y9869172D02*
G01*
X4146550Y9869172D01*
X4255515Y9869172D02*
G01*
X4255515Y9801862D01*
X4203700Y9869172D02*
G01*
X4203700Y9827770D01*
X6025388Y11201400D02*
G01*
X6030722Y11190986D01*
X6046215Y11175492D01*
X5937250Y11175492D01*
X6046215Y11109960D02*
G01*
X6041136Y11125454D01*
X6025388Y11135868D01*
X5999479Y11141202D01*
X5983986Y11141202D01*
X5957824Y11135868D01*
X5942329Y11125454D01*
X5937250Y11109960D01*
X5937250Y11099545D01*
X5942329Y11084052D01*
X5957824Y11073637D01*
X5983986Y11068304D01*
X5999479Y11068304D01*
X6025388Y11073637D01*
X6041136Y11084052D01*
X6046215Y11099545D01*
X6046215Y11109960D01*
X6046215Y11003026D02*
G01*
X6041136Y11018520D01*
X6025388Y11028934D01*
X5999479Y11034013D01*
X5983986Y11034013D01*
X5957824Y11028934D01*
X5942329Y11018520D01*
X5937250Y11003026D01*
X5937250Y10992612D01*
X5942329Y10976863D01*
X5957824Y10966450D01*
X5983986Y10961370D01*
X5999479Y10961370D01*
X6025388Y10966450D01*
X6041136Y10976863D01*
X6046215Y10992612D01*
X6046215Y11003026D01*
X6009893Y10927079D02*
G01*
X5937250Y10927079D01*
X5989065Y10927079D02*
G01*
X6004559Y10911586D01*
X6009893Y10901171D01*
X6009893Y10885424D01*
X6004559Y10875010D01*
X5989065Y10869929D01*
X5937250Y10869929D01*
X6046215Y10835639D02*
G01*
X5937250Y10835639D01*
X6046215Y10835639D02*
G01*
X6046215Y10768076D01*
X5994400Y10835639D02*
G01*
X5994400Y10793984D01*
X5373115Y11098517D02*
G01*
X5300472Y11150587D01*
X5300472Y11072609D01*
X5373115Y11098517D02*
G01*
X5264150Y11098517D01*
X5290058Y11033239D02*
G01*
X5284724Y11038319D01*
X5279643Y11033239D01*
X5284724Y11027905D01*
X5290058Y11033239D01*
X5373115Y10920971D02*
G01*
X5264150Y10972787D01*
X5373115Y10993615D02*
G01*
X5373115Y10920971D01*
X5373115Y10886681D02*
G01*
X5264150Y10886681D01*
X5373115Y10814037D02*
G01*
X5300472Y10886681D01*
X5326379Y10860773D02*
G01*
X5264150Y10814037D01*
D20*
X4059300Y5764199D02*
G01*
X4059300Y5564200D01*
D10*
X5059299Y5814212D02*
G01*
X5059299Y5514187D01*
X5059299Y5444210D02*
G01*
X4879289Y5444210D01*
X4879289Y5384190D01*
X5059299Y5384190D01*
X5059299Y5444210D01*
X5059299Y5884189D01*
X4059300Y5884189D01*
X4059300Y5444210D01*
X4239310Y5444210D01*
X4239310Y5384190D01*
X4059300Y5384190D01*
X4059300Y5444210D01*
X4239310Y5444210D02*
G01*
X4879289Y5444210D01*
X3083145Y7256940D02*
G01*
X2828389Y7253025D01*
X2273300Y7242047D02*
G01*
X2018512Y7242581D01*
D20*
X5583300Y7211999D02*
G01*
X5583300Y7012000D01*
D10*
X6583299Y7262012D02*
G01*
X6583299Y6961987D01*
X6583299Y6892010D02*
G01*
X6403289Y6892010D01*
X6403289Y6831990D01*
X6583299Y6831990D01*
X6583299Y6892010D01*
X6583299Y7331989D01*
X5583300Y7331989D01*
X5583300Y6892010D01*
X5763310Y6892010D01*
X5763310Y6831990D01*
X5583300Y6831990D01*
X5583300Y6892010D01*
X5763310Y6892010D02*
G01*
X6403289Y6892010D01*
D20*
X4059300Y7186599D02*
G01*
X4059300Y6986600D01*
D10*
X5059299Y7236612D02*
G01*
X5059299Y6936587D01*
X5059299Y6866610D02*
G01*
X4879289Y6866610D01*
X4879289Y6806590D01*
X5059299Y6806590D01*
X5059299Y6866610D01*
X5059299Y7306589D01*
X4059300Y7306589D01*
X4059300Y6866610D01*
X4239310Y6866610D01*
X4239310Y6806590D01*
X4059300Y6806590D01*
X4059300Y6866610D01*
X4239310Y6866610D02*
G01*
X4879289Y6866610D01*
D20*
X5596000Y5764199D02*
G01*
X5596000Y5564200D01*
D10*
X6595999Y5814212D02*
G01*
X6595999Y5514187D01*
X6595999Y5444210D02*
G01*
X6415989Y5444210D01*
X6415989Y5384190D01*
X6595999Y5384190D01*
X6595999Y5444210D01*
X6595999Y5884189D01*
X5596000Y5884189D01*
X5596000Y5444210D01*
X5776010Y5444210D01*
X5776010Y5384190D01*
X5596000Y5384190D01*
X5596000Y5444210D01*
X5776010Y5444210D02*
G01*
X6415989Y5444210D01*
D21*
X4773498Y11926417D02*
G01*
X4773498Y11201400D01*
D10*
X3873500Y11201400D02*
G01*
X4773498Y11201400D01*
X3873500Y11926417D02*
G01*
X3873500Y11201400D01*
X1701800Y10934700D02*
G01*
X1701800Y11188700D01*
X2209800Y11188700D01*
X2209800Y10934700D01*
X1701800Y10934700D01*
X2209800Y10464800D02*
G01*
X2209800Y10210800D01*
X1701800Y10210800D01*
X1701800Y10464800D01*
X2209800Y10464800D01*
X6972300Y9690100D02*
G01*
X7480300Y9690100D01*
X7480300Y4864100D01*
X6972300Y4864100D01*
X6972300Y9690100D01*
X876300Y9690100D02*
G01*
X1384300Y9690100D01*
X1384300Y4864100D01*
X876300Y4864100D01*
X876300Y9690100D01*
X3875709Y10405694D02*
G01*
X3875709Y9685705D01*
X3875709Y9685705D02*
G01*
X3515690Y9685705D01*
X3515690Y9685705D02*
G01*
X3515690Y10405694D01*
X3515690Y10405694D02*
G01*
X3875709Y10405694D01*
X4328490Y9698405D02*
G01*
X4328490Y10418394D01*
X4328490Y10418394D02*
G01*
X4688509Y10418394D01*
X4688509Y10418394D02*
G01*
X4688509Y9698405D01*
X4688509Y9698405D02*
G01*
X4328490Y9698405D01*
X6093790Y10600105D02*
G01*
X6093790Y11320094D01*
X6093790Y11320094D02*
G01*
X6453809Y11320094D01*
X6453809Y11320094D02*
G01*
X6453809Y10600105D01*
X6453809Y10600105D02*
G01*
X6093790Y10600105D01*
D20*
X5583300Y9243999D02*
G01*
X5583300Y9044000D01*
D10*
X6583299Y9294012D02*
G01*
X6583299Y8993987D01*
X6583299Y8924010D02*
G01*
X6403289Y8924010D01*
X6403289Y8863990D01*
X6583299Y8863990D01*
X6583299Y8924010D01*
X6583299Y9363989D01*
X5583300Y9363989D01*
X5583300Y8924010D01*
X5763310Y8924010D01*
X5763310Y8863990D01*
X5583300Y8863990D01*
X5583300Y8924010D01*
X5763310Y8924010D02*
G01*
X6403289Y8924010D01*
D20*
X4059300Y8202599D02*
G01*
X4059300Y8002600D01*
D10*
X5059299Y8252612D02*
G01*
X5059299Y7952587D01*
X5059299Y7882610D02*
G01*
X4879289Y7882610D01*
X4879289Y7822590D01*
X5059299Y7822590D01*
X5059299Y7882610D01*
X5059299Y8322589D01*
X4059300Y8322589D01*
X4059300Y7882610D01*
X4239310Y7882610D01*
X4239310Y7822590D01*
X4059300Y7822590D01*
X4059300Y7882610D01*
X4239310Y7882610D02*
G01*
X4879289Y7882610D01*
D20*
X5583300Y8227999D02*
G01*
X5583300Y8028000D01*
D10*
X6583299Y8278012D02*
G01*
X6583299Y7977987D01*
X6583299Y7908010D02*
G01*
X6403289Y7908010D01*
X6403289Y7847990D01*
X6583299Y7847990D01*
X6583299Y7908010D01*
X6583299Y8347989D01*
X5583300Y8347989D01*
X5583300Y7908010D01*
X5763310Y7908010D01*
X5763310Y7847990D01*
X5583300Y7847990D01*
X5583300Y7908010D01*
X5763310Y7908010D02*
G01*
X6403289Y7908010D01*
D20*
X4059300Y9243999D02*
G01*
X4059300Y9044000D01*
D10*
X5059299Y9294012D02*
G01*
X5059299Y8993987D01*
X5059299Y8924010D02*
G01*
X4879289Y8924010D01*
X4879289Y8863990D01*
X5059299Y8863990D01*
X5059299Y8924010D01*
X5059299Y9363989D01*
X4059300Y9363989D01*
X4059300Y8924010D01*
X4239310Y8924010D01*
X4239310Y8863990D01*
X4059300Y8863990D01*
X4059300Y8924010D01*
X4239310Y8924010D02*
G01*
X4879289Y8924010D01*
X2311298Y6342799D02*
G01*
X2311298Y5442800D01*
X1981301Y5442800D01*
X1981301Y6342799D01*
X2311298Y6342799D01*
X2146300Y5435612D02*
G01*
X2146300Y5359412D01*
X2146300Y6350012D02*
G01*
X2146300Y6426212D01*
X5448401Y10497400D02*
G01*
X5448401Y11397399D01*
X5778398Y11397399D01*
X5778398Y10497400D01*
X5448401Y10497400D01*
X5613400Y11404587D02*
G01*
X5613400Y11480787D01*
X5613400Y10490187D02*
G01*
X5613400Y10413987D01*
X3124098Y6342799D02*
G01*
X3124098Y5442800D01*
X2794101Y5442800D01*
X2794101Y6342799D01*
X3124098Y6342799D01*
X2959100Y5435612D02*
G01*
X2959100Y5359412D01*
X2959100Y6350012D02*
G01*
X2959100Y6426212D01*
G75*
G01*
X2829641Y7252513D02*
G03*
X3083095Y7256937I129428J-152474D01*
G75*
G01*
X2019757Y7242048D02*
G03*
X2273249Y7242048I126746J-154710D01*
M02*
