G04 Layer: BottomSolderMaskLayer*
G04 EasyEDA v6.4.31, 2022-02-12 11:49:02*
G04 e007ce868bfc41669b98f304f8b66a95,955daf9958a1483280a48a3f8fd5623a,10*
G04 Gerber Generator version 0.2*
G04 Scale: 100 percent, Rotated: No, Reflected: No *
G04 Dimensions in millimeters *
G04 leading zeros omitted , absolute positions ,4 integer and 5 decimal *
%FSLAX45Y45*%
%MOMM*%

%ADD25C,1.4732*%
%ADD26C,1.8542*%
%ADD29R,2.1336X2.1336*%
%ADD31C,1.7272*%

%LPD*%
G36*
X4185665Y5590539D02*
G01*
X4185665Y5737860D01*
X4332986Y5737860D01*
X4332986Y5590539D01*
G37*
D25*
G01*
X4459300Y5664200D03*
G01*
X4659299Y5664200D03*
G01*
X4859299Y5664200D03*
D26*
G01*
X2961309Y6959625D03*
G01*
X2956890Y7213574D03*
G01*
X2146300Y6946900D03*
G01*
X2146300Y7200900D03*
G36*
X5709665Y7038339D02*
G01*
X5709665Y7185660D01*
X5856986Y7185660D01*
X5856986Y7038339D01*
G37*
D25*
G01*
X5983300Y7112000D03*
G01*
X6183299Y7112000D03*
G01*
X6383299Y7112000D03*
G36*
X4185665Y7012939D02*
G01*
X4185665Y7160260D01*
X4332986Y7160260D01*
X4332986Y7012939D01*
G37*
G01*
X4459300Y7086600D03*
G01*
X4659299Y7086600D03*
G01*
X4859299Y7086600D03*
G36*
X5722365Y5590539D02*
G01*
X5722365Y5737860D01*
X5869686Y5737860D01*
X5869686Y5590539D01*
G37*
G01*
X5996000Y5664200D03*
G01*
X6195999Y5664200D03*
G01*
X6395999Y5664200D03*
D29*
G01*
X2082800Y11061700D03*
G01*
X1828800Y11061700D03*
G36*
X1722120Y10231120D02*
G01*
X1722120Y10444479D01*
X1935479Y10444479D01*
X1935479Y10231120D01*
G37*
G36*
X1976120Y10231120D02*
G01*
X1976120Y10444479D01*
X2189479Y10444479D01*
X2189479Y10231120D01*
G37*
G36*
X2377440Y8905239D02*
G01*
X2377440Y9103360D01*
X2575559Y9103360D01*
X2575559Y8905239D01*
G37*
G36*
X2377440Y8651239D02*
G01*
X2377440Y8849360D01*
X2575559Y8849360D01*
X2575559Y8651239D01*
G37*
G36*
X2377440Y8397239D02*
G01*
X2377440Y8595360D01*
X2575559Y8595360D01*
X2575559Y8397239D01*
G37*
G36*
X2377440Y8143239D02*
G01*
X2377440Y8341360D01*
X2575559Y8341360D01*
X2575559Y8143239D01*
G37*
G36*
X2377440Y7889239D02*
G01*
X2377440Y8087360D01*
X2575559Y8087360D01*
X2575559Y7889239D01*
G37*
G36*
X2377440Y7635239D02*
G01*
X2377440Y7833360D01*
X2575559Y7833360D01*
X2575559Y7635239D01*
G37*
D31*
G01*
X7099300Y9563100D03*
G01*
X7353300Y9563100D03*
G01*
X7099300Y9309100D03*
G01*
X7353300Y9309100D03*
G01*
X7099300Y9055100D03*
G01*
X7353300Y9055100D03*
G01*
X7099300Y8801100D03*
G01*
X7353300Y8801100D03*
G01*
X7099300Y8547100D03*
G01*
X7353300Y8547100D03*
G01*
X7099300Y8293100D03*
G01*
X7353300Y8293100D03*
G01*
X7099300Y8039100D03*
G01*
X7353300Y8039100D03*
G01*
X7099300Y7785100D03*
G01*
X7353300Y7785100D03*
G01*
X7099300Y7531100D03*
G01*
X7353300Y7531100D03*
G01*
X7099300Y7277100D03*
G01*
X7353300Y7277100D03*
G01*
X7099300Y7023100D03*
G01*
X7353300Y7023100D03*
G01*
X7099300Y6769100D03*
G01*
X7353300Y6769100D03*
G01*
X7099300Y6515100D03*
G01*
X7353300Y6515100D03*
G01*
X7099300Y6261100D03*
G01*
X7353300Y6261100D03*
G01*
X7099300Y6007100D03*
G01*
X7353300Y6007100D03*
G01*
X7099300Y5753100D03*
G01*
X7353300Y5753100D03*
G01*
X7099300Y5499100D03*
G01*
X7353300Y5499100D03*
G01*
X7099300Y5245100D03*
G01*
X7353300Y5245100D03*
G01*
X7099300Y4991100D03*
G01*
X7353300Y4991100D03*
G01*
X1003300Y9563100D03*
G01*
X1257300Y9563100D03*
G01*
X1003300Y9309100D03*
G01*
X1257300Y9309100D03*
G01*
X1003300Y9055100D03*
G01*
X1257300Y9055100D03*
G01*
X1003300Y8801100D03*
G01*
X1257300Y8801100D03*
G01*
X1003300Y8547100D03*
G01*
X1257300Y8547100D03*
G01*
X1003300Y8293100D03*
G01*
X1257300Y8293100D03*
G01*
X1003300Y8039100D03*
G01*
X1257300Y8039100D03*
G01*
X1003300Y7785100D03*
G01*
X1257300Y7785100D03*
G01*
X1003300Y7531100D03*
G01*
X1257300Y7531100D03*
G01*
X1003300Y7277100D03*
G01*
X1257300Y7277100D03*
G01*
X1003300Y7023100D03*
G01*
X1257300Y7023100D03*
G01*
X1003300Y6769100D03*
G01*
X1257300Y6769100D03*
G01*
X1003300Y6515100D03*
G01*
X1257300Y6515100D03*
G01*
X1003300Y6261100D03*
G01*
X1257300Y6261100D03*
G01*
X1003300Y6007100D03*
G01*
X1257300Y6007100D03*
G01*
X1003300Y5753100D03*
G01*
X1257300Y5753100D03*
G01*
X1003300Y5499100D03*
G01*
X1257300Y5499100D03*
G01*
X1003300Y5245100D03*
G01*
X1257300Y5245100D03*
G01*
X1003300Y4991100D03*
G01*
X1257300Y4991100D03*
G01*
X3695700Y10299700D03*
G01*
X3695700Y9791700D03*
G01*
X4508500Y9804400D03*
G01*
X4508500Y10312400D03*
G01*
X6273800Y10706100D03*
G01*
X6273800Y11214100D03*
G36*
X5709665Y9070339D02*
G01*
X5709665Y9217660D01*
X5856986Y9217660D01*
X5856986Y9070339D01*
G37*
D25*
G01*
X5983300Y9144000D03*
G01*
X6183299Y9144000D03*
G01*
X6383299Y9144000D03*
G36*
X4185665Y8028939D02*
G01*
X4185665Y8176260D01*
X4332986Y8176260D01*
X4332986Y8028939D01*
G37*
G01*
X4459300Y8102600D03*
G01*
X4659299Y8102600D03*
G01*
X4859299Y8102600D03*
G36*
X5709665Y8054339D02*
G01*
X5709665Y8201660D01*
X5856986Y8201660D01*
X5856986Y8054339D01*
G37*
G01*
X5983300Y8128000D03*
G01*
X6183299Y8128000D03*
G01*
X6383299Y8128000D03*
G36*
X4185665Y9070339D02*
G01*
X4185665Y9217660D01*
X4332986Y9217660D01*
X4332986Y9070339D01*
G37*
G01*
X4459300Y9144000D03*
G01*
X4659299Y9144000D03*
G01*
X4859299Y9144000D03*
D31*
G01*
X2146300Y5242788D03*
G01*
X2146300Y6542786D03*
G01*
X5613400Y11597386D03*
G01*
X5613400Y10297388D03*
G01*
X2959100Y5242788D03*
G01*
X2959100Y6542786D03*
M02*
