G04 Layer: TopLayer*
G04 EasyEDA v6.4.31, 2022-02-12 11:49:02*
G04 e007ce868bfc41669b98f304f8b66a95,955daf9958a1483280a48a3f8fd5623a,10*
G04 Gerber Generator version 0.2*
G04 Scale: 100 percent, Rotated: No, Reflected: No *
G04 Dimensions in millimeters *
G04 leading zeros omitted , absolute positions ,4 integer and 5 decimal *
%FSLAX45Y45*%
%MOMM*%

%ADD10C,0.2540*%
%ADD11C,0.3000*%
%ADD12R,1.5000X0.7000*%
%ADD13R,0.7000X1.5000*%
%ADD15C,1.2700*%
%ADD16C,1.6510*%
%ADD17R,1.9304X1.9304*%
%ADD19C,1.5240*%

%LPD*%
G36*
X785368Y4712208D02*
G01*
X781456Y4712970D01*
X778205Y4715205D01*
X775970Y4718456D01*
X775208Y4722368D01*
X775208Y11914632D01*
X775970Y11918543D01*
X778205Y11921794D01*
X781456Y11924030D01*
X785368Y11924792D01*
X3809898Y11924792D01*
X3813860Y11923979D01*
X3817213Y11921693D01*
X3819398Y11918289D01*
X3820058Y11914327D01*
X3819144Y11910364D01*
X3816756Y11907113D01*
X3812286Y11904675D01*
X3807358Y11901627D01*
X3803294Y11897512D01*
X3800195Y11892635D01*
X3798315Y11887149D01*
X3797604Y11880850D01*
X3797604Y11811965D01*
X3798315Y11805666D01*
X3800195Y11800179D01*
X3803294Y11795302D01*
X3804970Y11793575D01*
X3807206Y11790324D01*
X3807968Y11786412D01*
X3807206Y11782501D01*
X3804970Y11779250D01*
X3803294Y11777522D01*
X3800195Y11772646D01*
X3798315Y11767159D01*
X3797604Y11760860D01*
X3797604Y11750243D01*
X3854653Y11750243D01*
X3854653Y11775338D01*
X3855415Y11779250D01*
X3857599Y11782501D01*
X3860901Y11784736D01*
X3864813Y11785498D01*
X3932174Y11785498D01*
X3936085Y11784736D01*
X3939387Y11782501D01*
X3941572Y11779250D01*
X3942334Y11775338D01*
X3942334Y11750243D01*
X3999382Y11750243D01*
X3999382Y11760860D01*
X3998671Y11767159D01*
X3996791Y11772646D01*
X3993692Y11777522D01*
X3992016Y11779250D01*
X3989781Y11782501D01*
X3989019Y11786412D01*
X3989781Y11790324D01*
X3992016Y11793575D01*
X3993692Y11795302D01*
X3996791Y11800179D01*
X3998671Y11805666D01*
X3999382Y11811965D01*
X3999382Y11880850D01*
X3998671Y11887149D01*
X3996791Y11892635D01*
X3993692Y11897512D01*
X3989628Y11901627D01*
X3984701Y11904675D01*
X3980230Y11907113D01*
X3977843Y11910364D01*
X3976928Y11914327D01*
X3977589Y11918289D01*
X3979773Y11921693D01*
X3983126Y11923979D01*
X3987088Y11924792D01*
X4659934Y11924792D01*
X4663897Y11923979D01*
X4667250Y11921693D01*
X4669434Y11918289D01*
X4670094Y11914327D01*
X4669180Y11910364D01*
X4666742Y11907113D01*
X4662271Y11904675D01*
X4657394Y11901627D01*
X4653280Y11897512D01*
X4650232Y11892635D01*
X4648301Y11887149D01*
X4647590Y11880850D01*
X4647590Y11811965D01*
X4648301Y11805666D01*
X4650232Y11800179D01*
X4653280Y11795302D01*
X4655007Y11793575D01*
X4657191Y11790324D01*
X4657953Y11786412D01*
X4657191Y11782501D01*
X4655007Y11779250D01*
X4653280Y11777522D01*
X4650232Y11772646D01*
X4648301Y11767159D01*
X4647590Y11760860D01*
X4647590Y11691975D01*
X4648301Y11685676D01*
X4650232Y11680190D01*
X4653280Y11675313D01*
X4655007Y11673586D01*
X4657191Y11670284D01*
X4658004Y11666423D01*
X4657191Y11662511D01*
X4655007Y11659209D01*
X4653280Y11657533D01*
X4650232Y11652605D01*
X4648301Y11647170D01*
X4647590Y11640820D01*
X4647590Y11571986D01*
X4648301Y11565636D01*
X4650232Y11560200D01*
X4653280Y11555272D01*
X4655007Y11553596D01*
X4657191Y11550294D01*
X4657953Y11546382D01*
X4657191Y11542522D01*
X4655007Y11539220D01*
X4653280Y11537543D01*
X4650232Y11532616D01*
X4648301Y11527180D01*
X4647590Y11520830D01*
X4647590Y11510264D01*
X4704638Y11510264D01*
X4704638Y11535308D01*
X4705451Y11539220D01*
X4707636Y11542522D01*
X4710938Y11544706D01*
X4714798Y11545468D01*
X4782210Y11545468D01*
X4786071Y11544706D01*
X4789373Y11542522D01*
X4791557Y11539220D01*
X4792370Y11535308D01*
X4792370Y11510264D01*
X4849418Y11510264D01*
X4849418Y11520830D01*
X4848707Y11527180D01*
X4846777Y11532616D01*
X4843729Y11537543D01*
X4842002Y11539220D01*
X4839817Y11542522D01*
X4839055Y11546382D01*
X4839817Y11550294D01*
X4842002Y11553596D01*
X4843729Y11555272D01*
X4849215Y11564569D01*
X4852619Y11566956D01*
X4856683Y11567769D01*
X5508650Y11567769D01*
X5512663Y11567007D01*
X5515965Y11564721D01*
X5518150Y11561267D01*
X5520791Y11554409D01*
X5527344Y11542471D01*
X5535422Y11531498D01*
X5544921Y11521694D01*
X5555640Y11513210D01*
X5567375Y11506301D01*
X5579922Y11500967D01*
X5593080Y11497360D01*
X5606592Y11495532D01*
X5620207Y11495532D01*
X5633720Y11497360D01*
X5646877Y11500967D01*
X5659424Y11506301D01*
X5671159Y11513210D01*
X5681878Y11521694D01*
X5691378Y11531498D01*
X5699455Y11542471D01*
X5706008Y11554409D01*
X5708650Y11561267D01*
X5710834Y11564721D01*
X5714136Y11567007D01*
X5718149Y11567769D01*
X5861304Y11567769D01*
X5865164Y11567007D01*
X5868466Y11564823D01*
X6175146Y11258143D01*
X6177229Y11255146D01*
X6178092Y11251590D01*
X6177635Y11247983D01*
X6174486Y11237772D01*
X6172250Y11224310D01*
X6171793Y11210696D01*
X6173114Y11197132D01*
X6176314Y11183874D01*
X6181191Y11171123D01*
X6187744Y11159185D01*
X6195822Y11148212D01*
X6205321Y11138408D01*
X6216040Y11129924D01*
X6227775Y11122964D01*
X6240322Y11117681D01*
X6253480Y11114074D01*
X6266992Y11112246D01*
X6280607Y11112246D01*
X6294120Y11114074D01*
X6307277Y11117681D01*
X6319824Y11122964D01*
X6331559Y11129924D01*
X6342278Y11138408D01*
X6351778Y11148212D01*
X6359855Y11159185D01*
X6366408Y11171123D01*
X6371285Y11183874D01*
X6374485Y11197132D01*
X6375806Y11210696D01*
X6375349Y11224310D01*
X6373114Y11237772D01*
X6369050Y11250777D01*
X6363309Y11263172D01*
X6355994Y11274653D01*
X6347206Y11285067D01*
X6337046Y11294211D01*
X6325819Y11301933D01*
X6313678Y11308080D01*
X6300774Y11312550D01*
X6287414Y11315293D01*
X6273800Y11316208D01*
X6260185Y11315293D01*
X6246825Y11312550D01*
X6240322Y11310315D01*
X6236563Y11309756D01*
X6232906Y11310569D01*
X6229807Y11312702D01*
X5909157Y11633352D01*
X5902909Y11638483D01*
X5896254Y11642039D01*
X5889040Y11644223D01*
X5881014Y11644985D01*
X5709412Y11644985D01*
X5706059Y11645595D01*
X5703112Y11647220D01*
X5700826Y11649710D01*
X5695594Y11657939D01*
X5686806Y11668353D01*
X5676646Y11677497D01*
X5665419Y11685219D01*
X5653278Y11691366D01*
X5640374Y11695836D01*
X5627014Y11698579D01*
X5613400Y11699494D01*
X5599785Y11698579D01*
X5586425Y11695836D01*
X5573522Y11691366D01*
X5561380Y11685219D01*
X5550154Y11677497D01*
X5539994Y11668353D01*
X5531205Y11657939D01*
X5525973Y11649710D01*
X5523687Y11647220D01*
X5520740Y11645595D01*
X5517388Y11644985D01*
X4856683Y11644985D01*
X4852619Y11645849D01*
X4849215Y11648236D01*
X4843729Y11657533D01*
X4842002Y11659209D01*
X4839817Y11662511D01*
X4839004Y11666423D01*
X4839817Y11670284D01*
X4842002Y11673586D01*
X4843729Y11675313D01*
X4846777Y11680190D01*
X4848707Y11685676D01*
X4849418Y11691975D01*
X4849418Y11760860D01*
X4848707Y11767159D01*
X4846777Y11772646D01*
X4843729Y11777522D01*
X4842002Y11779250D01*
X4839817Y11782501D01*
X4839055Y11786412D01*
X4839817Y11790324D01*
X4842002Y11793575D01*
X4843729Y11795302D01*
X4846777Y11800179D01*
X4847488Y11802211D01*
X4849622Y11805767D01*
X4852974Y11808155D01*
X4856988Y11809018D01*
X6093307Y11823039D01*
X6096457Y11822531D01*
X6099302Y11821160D01*
X7068921Y11133836D01*
X7071207Y11131550D01*
X7072680Y11128654D01*
X7073188Y11125454D01*
X7061606Y9664547D01*
X7060946Y9660991D01*
X7059117Y9657943D01*
X7056323Y9655708D01*
X7044385Y9649155D01*
X7033412Y9641078D01*
X7023608Y9631578D01*
X7015124Y9620859D01*
X7008164Y9609124D01*
X7002881Y9596577D01*
X6999274Y9583420D01*
X6997446Y9569907D01*
X6997446Y9556292D01*
X6999274Y9542780D01*
X7002881Y9529622D01*
X7008164Y9517075D01*
X7015124Y9505340D01*
X7023608Y9494621D01*
X7033412Y9485122D01*
X7044385Y9477044D01*
X7056323Y9470491D01*
X7069074Y9465614D01*
X7082332Y9462414D01*
X7095896Y9461093D01*
X7109510Y9461550D01*
X7122972Y9463786D01*
X7135977Y9467850D01*
X7148372Y9473590D01*
X7159853Y9480905D01*
X7170267Y9489694D01*
X7179411Y9499854D01*
X7187133Y9511080D01*
X7193280Y9523222D01*
X7197750Y9536125D01*
X7200493Y9549485D01*
X7201408Y9563100D01*
X7200493Y9576714D01*
X7197750Y9590074D01*
X7193280Y9602978D01*
X7187133Y9615119D01*
X7179411Y9626346D01*
X7170267Y9636506D01*
X7159853Y9645294D01*
X7148372Y9652609D01*
X7144715Y9654336D01*
X7141565Y9656572D01*
X7139482Y9659823D01*
X7138822Y9663633D01*
X7150608Y11149838D01*
X7150049Y11157051D01*
X7148017Y11164366D01*
X7144664Y11171123D01*
X7139990Y11177117D01*
X7133894Y11182400D01*
X6131102Y11893245D01*
X6123076Y11897563D01*
X6115812Y11899696D01*
X6107785Y11900408D01*
X4856327Y11886234D01*
X4852873Y11886793D01*
X4849825Y11888520D01*
X4847539Y11891162D01*
X4843627Y11897563D01*
X4839614Y11901627D01*
X4834737Y11904675D01*
X4830267Y11907113D01*
X4827828Y11910364D01*
X4826914Y11914327D01*
X4827574Y11918289D01*
X4829759Y11921693D01*
X4833112Y11923979D01*
X4837074Y11924792D01*
X7596581Y11924792D01*
X7600442Y11924030D01*
X7603744Y11921794D01*
X7605979Y11918492D01*
X7606741Y11914632D01*
X7594142Y4722368D01*
X7593380Y4718456D01*
X7591196Y4715154D01*
X7587894Y4712970D01*
X7583982Y4712208D01*
X7340701Y4712208D01*
X7336536Y4713122D01*
X7333081Y4715662D01*
X7330998Y4719421D01*
X7330643Y4723688D01*
X7332116Y4727752D01*
X7335062Y4730800D01*
X7502601Y4842510D01*
X7509154Y4847894D01*
X7514234Y4854041D01*
X7518044Y4861102D01*
X7520381Y4868773D01*
X7521194Y4877308D01*
X7521194Y5752795D01*
X7520940Y5757875D01*
X7520431Y5760974D01*
X7519212Y5765698D01*
X7518095Y5768695D01*
X7515910Y5773216D01*
X7452664Y5887059D01*
X7450836Y5890056D01*
X7447940Y5893917D01*
X7445756Y5896254D01*
X7442149Y5899505D01*
X7439609Y5901334D01*
X7435392Y5903823D01*
X7432548Y5905144D01*
X7427975Y5906770D01*
X7424877Y5907481D01*
X7420254Y5908141D01*
X7416596Y5909411D01*
X7413650Y5911951D01*
X7411872Y5915406D01*
X7411567Y5919216D01*
X7412685Y5922924D01*
X7415072Y5925972D01*
X7424267Y5933694D01*
X7433411Y5943854D01*
X7441133Y5955080D01*
X7447280Y5967222D01*
X7451750Y5980125D01*
X7454493Y5993485D01*
X7455408Y6007100D01*
X7454493Y6020714D01*
X7451750Y6034074D01*
X7447280Y6046978D01*
X7441133Y6059119D01*
X7433411Y6070346D01*
X7424267Y6080506D01*
X7413853Y6089294D01*
X7402372Y6096609D01*
X7389977Y6102350D01*
X7376972Y6106414D01*
X7363510Y6108649D01*
X7349896Y6109106D01*
X7336332Y6107785D01*
X7323074Y6104585D01*
X7310323Y6099708D01*
X7298385Y6093155D01*
X7287412Y6085078D01*
X7277608Y6075578D01*
X7269124Y6064859D01*
X7262164Y6053124D01*
X7256881Y6040577D01*
X7253274Y6027420D01*
X7251446Y6013907D01*
X7251446Y6000292D01*
X7253274Y5986780D01*
X7256881Y5973622D01*
X7262164Y5961075D01*
X7269124Y5949340D01*
X7277608Y5938621D01*
X7287412Y5929122D01*
X7290765Y5926632D01*
X7293559Y5923483D01*
X7294880Y5919470D01*
X7294422Y5915304D01*
X7292289Y5911646D01*
X7288885Y5909157D01*
X7284770Y5908294D01*
X7167981Y5908294D01*
X7163968Y5909157D01*
X7160564Y5911494D01*
X7158431Y5914999D01*
X7157821Y5919012D01*
X7158888Y5922975D01*
X7161428Y5926226D01*
X7170267Y5933694D01*
X7179411Y5943854D01*
X7187133Y5955080D01*
X7193280Y5967222D01*
X7197750Y5980125D01*
X7200493Y5993485D01*
X7201408Y6007100D01*
X7200493Y6020714D01*
X7197750Y6034074D01*
X7193280Y6046978D01*
X7187133Y6059119D01*
X7179411Y6070346D01*
X7170267Y6080506D01*
X7159853Y6089294D01*
X7148372Y6096609D01*
X7135977Y6102350D01*
X7122972Y6106414D01*
X7109510Y6108649D01*
X7095896Y6109106D01*
X7082332Y6107785D01*
X7069074Y6104585D01*
X7056323Y6099708D01*
X7044385Y6093155D01*
X7033412Y6085078D01*
X7023608Y6075578D01*
X7015124Y6064859D01*
X7008164Y6053124D01*
X7002881Y6040577D01*
X6999274Y6027420D01*
X6997446Y6013907D01*
X6997446Y6000292D01*
X6999274Y5986780D01*
X7002881Y5973622D01*
X7008164Y5961075D01*
X7015124Y5949340D01*
X7023608Y5938621D01*
X7033412Y5929122D01*
X7044385Y5921044D01*
X7056323Y5914491D01*
X7069074Y5909614D01*
X7082332Y5906414D01*
X7095896Y5905093D01*
X7107174Y5905449D01*
X7111339Y5904687D01*
X7114895Y5902248D01*
X7117080Y5898591D01*
X7117588Y5894374D01*
X7116318Y5890260D01*
X7112508Y5883554D01*
X7102449Y5860948D01*
X7100468Y5858002D01*
X7097623Y5855919D01*
X7094220Y5854954D01*
X7082332Y5853785D01*
X7069074Y5850585D01*
X7056323Y5845708D01*
X7044385Y5839155D01*
X7033412Y5831078D01*
X7023608Y5821578D01*
X7015124Y5810859D01*
X7008164Y5799124D01*
X7002881Y5786577D01*
X6999274Y5773420D01*
X6997446Y5759907D01*
X6997446Y5746292D01*
X6999274Y5732780D01*
X7002881Y5719622D01*
X7008164Y5707075D01*
X7015124Y5695340D01*
X7023608Y5684621D01*
X7033412Y5675122D01*
X7044385Y5667044D01*
X7056323Y5660491D01*
X7069074Y5655614D01*
X7082332Y5652414D01*
X7095896Y5651093D01*
X7109510Y5651550D01*
X7122972Y5653786D01*
X7135977Y5657850D01*
X7148372Y5663590D01*
X7159853Y5670905D01*
X7170267Y5679694D01*
X7179411Y5689854D01*
X7187133Y5701080D01*
X7193280Y5713222D01*
X7197750Y5726125D01*
X7200493Y5739485D01*
X7201408Y5753100D01*
X7200493Y5766714D01*
X7197750Y5780074D01*
X7193280Y5792978D01*
X7187133Y5805119D01*
X7183374Y5810605D01*
X7181748Y5814618D01*
X7181951Y5819038D01*
X7183983Y5822899D01*
X7187488Y5825540D01*
X7191756Y5826506D01*
X7260539Y5826506D01*
X7264704Y5825591D01*
X7268159Y5823102D01*
X7270242Y5819394D01*
X7270648Y5815177D01*
X7269327Y5811164D01*
X7262164Y5799124D01*
X7256881Y5786577D01*
X7253274Y5773420D01*
X7251446Y5759907D01*
X7251446Y5746292D01*
X7253274Y5732780D01*
X7256881Y5719622D01*
X7262164Y5707075D01*
X7269124Y5695340D01*
X7277608Y5684621D01*
X7287412Y5675122D01*
X7298385Y5667044D01*
X7310323Y5660491D01*
X7323074Y5655614D01*
X7336332Y5652414D01*
X7349896Y5651093D01*
X7363510Y5651550D01*
X7376972Y5653786D01*
X7389977Y5657850D01*
X7402372Y5663590D01*
X7413853Y5670905D01*
X7422692Y5678373D01*
X7425994Y5680252D01*
X7429804Y5680760D01*
X7433513Y5679846D01*
X7436612Y5677611D01*
X7438694Y5674360D01*
X7439406Y5670600D01*
X7439406Y5581599D01*
X7438694Y5577840D01*
X7436612Y5574588D01*
X7433513Y5572353D01*
X7429804Y5571439D01*
X7425994Y5571947D01*
X7422692Y5573826D01*
X7413853Y5581294D01*
X7402372Y5588609D01*
X7389977Y5594350D01*
X7376972Y5598414D01*
X7363510Y5600649D01*
X7349896Y5601106D01*
X7336332Y5599785D01*
X7323074Y5596585D01*
X7310323Y5591708D01*
X7298385Y5585155D01*
X7287412Y5577078D01*
X7277608Y5567578D01*
X7269124Y5556859D01*
X7262164Y5545124D01*
X7256881Y5532577D01*
X7253274Y5519420D01*
X7251446Y5505907D01*
X7251446Y5492292D01*
X7253274Y5478780D01*
X7256881Y5465622D01*
X7262164Y5453075D01*
X7269124Y5441340D01*
X7277608Y5430621D01*
X7287412Y5421122D01*
X7298385Y5413044D01*
X7310323Y5406491D01*
X7323074Y5401614D01*
X7336332Y5398414D01*
X7349896Y5397093D01*
X7363510Y5397550D01*
X7376972Y5399786D01*
X7389977Y5403850D01*
X7402372Y5409590D01*
X7413853Y5416905D01*
X7422692Y5424373D01*
X7425994Y5426252D01*
X7429804Y5426760D01*
X7433513Y5425846D01*
X7436612Y5423611D01*
X7438694Y5420360D01*
X7439406Y5416600D01*
X7439406Y5327599D01*
X7438694Y5323840D01*
X7436612Y5320588D01*
X7433513Y5318353D01*
X7429804Y5317439D01*
X7425994Y5317947D01*
X7422692Y5319826D01*
X7413853Y5327294D01*
X7402372Y5334609D01*
X7389977Y5340350D01*
X7376972Y5344414D01*
X7363510Y5346649D01*
X7349896Y5347106D01*
X7336332Y5345785D01*
X7323074Y5342585D01*
X7310323Y5337708D01*
X7298385Y5331155D01*
X7287412Y5323078D01*
X7277608Y5313578D01*
X7269124Y5302859D01*
X7262164Y5291124D01*
X7256881Y5278577D01*
X7253274Y5265420D01*
X7251446Y5251907D01*
X7251446Y5238292D01*
X7253274Y5224780D01*
X7256881Y5211622D01*
X7262164Y5199075D01*
X7269124Y5187340D01*
X7277608Y5176621D01*
X7287412Y5167122D01*
X7298385Y5159044D01*
X7310323Y5152491D01*
X7323074Y5147614D01*
X7336332Y5144414D01*
X7349896Y5143093D01*
X7363510Y5143550D01*
X7376972Y5145786D01*
X7389977Y5149850D01*
X7402372Y5155590D01*
X7413853Y5162905D01*
X7422692Y5170373D01*
X7425994Y5172252D01*
X7429804Y5172760D01*
X7433513Y5171846D01*
X7436612Y5169611D01*
X7438694Y5166360D01*
X7439406Y5162600D01*
X7439406Y5073599D01*
X7438694Y5069840D01*
X7436612Y5066588D01*
X7433513Y5064353D01*
X7429804Y5063439D01*
X7425994Y5063947D01*
X7422692Y5065826D01*
X7413853Y5073294D01*
X7402372Y5080609D01*
X7389977Y5086350D01*
X7376972Y5090414D01*
X7363510Y5092649D01*
X7349896Y5093106D01*
X7336332Y5091785D01*
X7323074Y5088585D01*
X7310323Y5083708D01*
X7298385Y5077155D01*
X7287412Y5069078D01*
X7277608Y5059578D01*
X7269124Y5048859D01*
X7262164Y5037124D01*
X7256881Y5024577D01*
X7253274Y5011420D01*
X7251446Y4997907D01*
X7251446Y4984292D01*
X7253274Y4970780D01*
X7256881Y4957622D01*
X7262164Y4945075D01*
X7269124Y4933340D01*
X7277608Y4922621D01*
X7287412Y4913122D01*
X7298385Y4905044D01*
X7310323Y4898491D01*
X7323074Y4893614D01*
X7336332Y4890414D01*
X7349896Y4889093D01*
X7363510Y4889550D01*
X7376972Y4891786D01*
X7389977Y4895850D01*
X7402372Y4901590D01*
X7413853Y4908905D01*
X7422692Y4916373D01*
X7425994Y4918252D01*
X7429804Y4918760D01*
X7433513Y4917846D01*
X7436612Y4915611D01*
X7438694Y4912360D01*
X7439406Y4908600D01*
X7439406Y4904130D01*
X7438847Y4900879D01*
X7437272Y4897932D01*
X7434884Y4895697D01*
X7241946Y4767072D01*
X7239253Y4765802D01*
X7236307Y4765344D01*
X3970883Y4777943D01*
X3967022Y4778705D01*
X3963771Y4780889D01*
X3510991Y5233670D01*
X3508756Y5236972D01*
X3507994Y5240832D01*
X3507994Y7136892D01*
X3507181Y7145375D01*
X3504844Y7153046D01*
X3501085Y7160107D01*
X3495649Y7166660D01*
X2899460Y7762849D01*
X2892907Y7768285D01*
X2885846Y7772044D01*
X2878175Y7774381D01*
X2869692Y7775194D01*
X2601468Y7775194D01*
X2597556Y7775956D01*
X2594305Y7778191D01*
X2592070Y7781493D01*
X2591308Y7785353D01*
X2591308Y7822641D01*
X2590596Y7828940D01*
X2588666Y7834426D01*
X2585618Y7839303D01*
X2581503Y7843418D01*
X2576626Y7846466D01*
X2571140Y7848396D01*
X2564841Y7849108D01*
X2388158Y7849108D01*
X2381859Y7848396D01*
X2376373Y7846466D01*
X2371496Y7843418D01*
X2367381Y7839303D01*
X2364333Y7834426D01*
X2362403Y7828940D01*
X2361692Y7822641D01*
X2361692Y7645958D01*
X2362403Y7639659D01*
X2364333Y7634173D01*
X2367381Y7629296D01*
X2371496Y7625181D01*
X2376373Y7622133D01*
X2381859Y7620203D01*
X2388158Y7619492D01*
X2564841Y7619492D01*
X2571140Y7620203D01*
X2576626Y7622133D01*
X2581503Y7625181D01*
X2585618Y7629296D01*
X2588666Y7634173D01*
X2590596Y7639659D01*
X2591308Y7645958D01*
X2591308Y7683246D01*
X2592070Y7687106D01*
X2594305Y7690408D01*
X2597556Y7692593D01*
X2601468Y7693406D01*
X2849067Y7693406D01*
X2852928Y7692593D01*
X2856230Y7690408D01*
X3423208Y7123430D01*
X3425444Y7120128D01*
X3426206Y7116267D01*
X3426206Y5220208D01*
X3427018Y5211724D01*
X3429355Y5204053D01*
X3433114Y5196992D01*
X3438550Y5190439D01*
X3899408Y4729530D01*
X3901592Y4726279D01*
X3902354Y4722368D01*
X3901592Y4718456D01*
X3899408Y4715205D01*
X3896106Y4712970D01*
X3892194Y4712208D01*
G37*

%LPC*%
G36*
X999896Y4889093D02*
G01*
X1013510Y4889550D01*
X1026972Y4891786D01*
X1039977Y4895850D01*
X1052372Y4901590D01*
X1063853Y4908905D01*
X1074267Y4917694D01*
X1083411Y4927854D01*
X1091133Y4939080D01*
X1097280Y4951222D01*
X1101750Y4964125D01*
X1104493Y4977485D01*
X1105408Y4991100D01*
X1104493Y5004714D01*
X1101750Y5018074D01*
X1097280Y5030978D01*
X1091133Y5043119D01*
X1083411Y5054346D01*
X1074267Y5064506D01*
X1063853Y5073294D01*
X1052372Y5080609D01*
X1039977Y5086350D01*
X1026972Y5090414D01*
X1013510Y5092649D01*
X999896Y5093106D01*
X986332Y5091785D01*
X973074Y5088585D01*
X960323Y5083708D01*
X948385Y5077155D01*
X937412Y5069078D01*
X927608Y5059578D01*
X919124Y5048859D01*
X912164Y5037124D01*
X906881Y5024577D01*
X903274Y5011420D01*
X901446Y4997907D01*
X901446Y4984292D01*
X903274Y4970780D01*
X906881Y4957622D01*
X912164Y4945075D01*
X919124Y4933340D01*
X927608Y4922621D01*
X937412Y4913122D01*
X948385Y4905044D01*
X960323Y4898491D01*
X973074Y4893614D01*
X986332Y4890414D01*
G37*
G36*
X1253896Y4889093D02*
G01*
X1267510Y4889550D01*
X1280972Y4891786D01*
X1293977Y4895850D01*
X1306372Y4901590D01*
X1317853Y4908905D01*
X1328267Y4917694D01*
X1337411Y4927854D01*
X1345133Y4939080D01*
X1347927Y4944618D01*
X1350162Y4947564D01*
X1353362Y4949494D01*
X1357020Y4950206D01*
X2706928Y4950206D01*
X2715361Y4951018D01*
X2723032Y4953355D01*
X2730093Y4957114D01*
X2736697Y4962550D01*
X2917545Y5143347D01*
X2920644Y5145481D01*
X2924302Y5146344D01*
X2928061Y5145786D01*
X2932125Y5144363D01*
X2945485Y5141620D01*
X2959100Y5140706D01*
X2972714Y5141620D01*
X2986074Y5144363D01*
X2998978Y5148834D01*
X3011119Y5154980D01*
X3022346Y5162702D01*
X3032506Y5171846D01*
X3041294Y5182260D01*
X3048609Y5193741D01*
X3054350Y5206136D01*
X3058414Y5219141D01*
X3060649Y5232603D01*
X3061106Y5246217D01*
X3059785Y5259781D01*
X3056585Y5273040D01*
X3051708Y5285790D01*
X3045155Y5297728D01*
X3037078Y5308701D01*
X3027578Y5318506D01*
X3016859Y5326989D01*
X3005124Y5333898D01*
X2992577Y5339232D01*
X2979420Y5342839D01*
X2965907Y5344668D01*
X2952292Y5344668D01*
X2938780Y5342839D01*
X2925622Y5339232D01*
X2913075Y5333898D01*
X2901340Y5326989D01*
X2890621Y5318506D01*
X2881122Y5308701D01*
X2873044Y5297728D01*
X2866491Y5285790D01*
X2861614Y5273040D01*
X2858414Y5259781D01*
X2857093Y5246217D01*
X2857550Y5232603D01*
X2859786Y5219141D01*
X2862173Y5211419D01*
X2862630Y5207762D01*
X2861767Y5204206D01*
X2859684Y5201208D01*
X2693466Y5034991D01*
X2690164Y5032756D01*
X2686253Y5031994D01*
X1357020Y5031994D01*
X1353362Y5032705D01*
X1350162Y5034635D01*
X1347927Y5037582D01*
X1345133Y5043119D01*
X1337411Y5054346D01*
X1328267Y5064506D01*
X1317853Y5073294D01*
X1306372Y5080609D01*
X1293977Y5086350D01*
X1280972Y5090414D01*
X1267510Y5092649D01*
X1253896Y5093106D01*
X1240332Y5091785D01*
X1227074Y5088585D01*
X1214323Y5083708D01*
X1202385Y5077155D01*
X1191412Y5069078D01*
X1181608Y5059578D01*
X1173124Y5048859D01*
X1166164Y5037124D01*
X1160881Y5024577D01*
X1157274Y5011420D01*
X1155446Y4997907D01*
X1155446Y4984292D01*
X1157274Y4970780D01*
X1160881Y4957622D01*
X1166164Y4945075D01*
X1173124Y4933340D01*
X1181608Y4922621D01*
X1191412Y4913122D01*
X1202385Y4905044D01*
X1214323Y4898491D01*
X1227074Y4893614D01*
X1240332Y4890414D01*
G37*
G36*
X7095896Y4889093D02*
G01*
X7109510Y4889550D01*
X7122972Y4891786D01*
X7135977Y4895850D01*
X7148372Y4901590D01*
X7159853Y4908905D01*
X7170267Y4917694D01*
X7179411Y4927854D01*
X7187133Y4939080D01*
X7193280Y4951222D01*
X7197750Y4964125D01*
X7200493Y4977485D01*
X7201408Y4991100D01*
X7200493Y5004714D01*
X7197750Y5018074D01*
X7193280Y5030978D01*
X7187133Y5043119D01*
X7179411Y5054346D01*
X7170267Y5064506D01*
X7159853Y5073294D01*
X7148372Y5080609D01*
X7135977Y5086350D01*
X7122972Y5090414D01*
X7109510Y5092649D01*
X7095896Y5093106D01*
X7082332Y5091785D01*
X7069074Y5088585D01*
X7056323Y5083708D01*
X7044385Y5077155D01*
X7033412Y5069078D01*
X7023608Y5059578D01*
X7015124Y5048859D01*
X7008114Y5036972D01*
X7005828Y5034330D01*
X7002780Y5032603D01*
X6999376Y5031994D01*
X6490258Y5031994D01*
X6486347Y5032756D01*
X6483045Y5034991D01*
X5954064Y5563971D01*
X5951880Y5567222D01*
X5951118Y5571032D01*
X5951829Y5574893D01*
X5953912Y5578195D01*
X5957112Y5580430D01*
X5960973Y5581294D01*
X5964834Y5580684D01*
X5970828Y5578449D01*
X5983274Y5575706D01*
X5996025Y5574842D01*
X6008725Y5575706D01*
X6018022Y5577738D01*
X6021374Y5577890D01*
X6024575Y5576976D01*
X6027369Y5574995D01*
X6385814Y5216550D01*
X6392418Y5211114D01*
X6399479Y5207355D01*
X6407150Y5205018D01*
X6415582Y5204206D01*
X6999376Y5204206D01*
X7002780Y5203596D01*
X7005828Y5201869D01*
X7008114Y5199227D01*
X7015124Y5187340D01*
X7023608Y5176621D01*
X7033412Y5167122D01*
X7044385Y5159044D01*
X7056323Y5152491D01*
X7069074Y5147614D01*
X7082332Y5144414D01*
X7095896Y5143093D01*
X7109510Y5143550D01*
X7122972Y5145786D01*
X7135977Y5149850D01*
X7148372Y5155590D01*
X7159853Y5162905D01*
X7170267Y5171694D01*
X7179411Y5181854D01*
X7187133Y5193080D01*
X7193280Y5205222D01*
X7197750Y5218125D01*
X7200493Y5231485D01*
X7201408Y5245100D01*
X7200493Y5258714D01*
X7197750Y5272074D01*
X7193280Y5284978D01*
X7187133Y5297119D01*
X7179411Y5308346D01*
X7170267Y5318506D01*
X7159853Y5327294D01*
X7148372Y5334609D01*
X7135977Y5340350D01*
X7122972Y5344414D01*
X7109510Y5346649D01*
X7095896Y5347106D01*
X7082332Y5345785D01*
X7069074Y5342585D01*
X7056323Y5337708D01*
X7044385Y5331155D01*
X7033412Y5323078D01*
X7023608Y5313578D01*
X7015124Y5302859D01*
X7008114Y5290972D01*
X7005828Y5288330D01*
X7002780Y5286603D01*
X6999376Y5285994D01*
X6436258Y5285994D01*
X6432346Y5286756D01*
X6429044Y5288991D01*
X6154064Y5563971D01*
X6151880Y5567222D01*
X6151118Y5571032D01*
X6151829Y5574893D01*
X6153912Y5578195D01*
X6157112Y5580430D01*
X6160973Y5581294D01*
X6164834Y5580684D01*
X6170828Y5578449D01*
X6183274Y5575706D01*
X6196025Y5574842D01*
X6208725Y5575706D01*
X6221171Y5578449D01*
X6233109Y5582920D01*
X6244336Y5589016D01*
X6254546Y5596636D01*
X6263538Y5605678D01*
X6271209Y5615889D01*
X6277305Y5627065D01*
X6281775Y5639003D01*
X6284468Y5651500D01*
X6285382Y5664200D01*
X6284468Y5676900D01*
X6281775Y5689396D01*
X6277305Y5701334D01*
X6271209Y5712510D01*
X6263538Y5722721D01*
X6254546Y5731764D01*
X6244336Y5739384D01*
X6233109Y5745480D01*
X6221171Y5749950D01*
X6208725Y5752693D01*
X6196025Y5753557D01*
X6183274Y5752693D01*
X6170828Y5749950D01*
X6158890Y5745480D01*
X6147663Y5739384D01*
X6137452Y5731764D01*
X6128461Y5722721D01*
X6120790Y5712510D01*
X6114694Y5701334D01*
X6110224Y5689396D01*
X6107531Y5676900D01*
X6106617Y5664200D01*
X6107531Y5651500D01*
X6110224Y5639003D01*
X6112459Y5633008D01*
X6113119Y5629148D01*
X6112256Y5625338D01*
X6109970Y5622137D01*
X6106718Y5620004D01*
X6102858Y5619292D01*
X6099048Y5620105D01*
X6095796Y5622290D01*
X6085179Y5632856D01*
X6083249Y5635599D01*
X6082284Y5638850D01*
X6082436Y5642203D01*
X6084468Y5651500D01*
X6085382Y5664200D01*
X6084468Y5676900D01*
X6081776Y5689396D01*
X6077305Y5701334D01*
X6071209Y5712510D01*
X6063538Y5722721D01*
X6054547Y5731764D01*
X6044336Y5739384D01*
X6042101Y5740603D01*
X6039307Y5742838D01*
X6037478Y5745937D01*
X6036818Y5749493D01*
X6036818Y5890768D01*
X6036005Y5899251D01*
X6033668Y5906922D01*
X6029909Y5913983D01*
X6024473Y5920536D01*
X5845860Y6099149D01*
X5839307Y6104585D01*
X5832246Y6108344D01*
X5824575Y6110681D01*
X5816092Y6111494D01*
X4661408Y6111494D01*
X4652924Y6110681D01*
X4645253Y6108344D01*
X4638192Y6104585D01*
X4631639Y6099149D01*
X4438548Y5906058D01*
X4433112Y5899505D01*
X4429353Y5892444D01*
X4427016Y5884773D01*
X4426204Y5876290D01*
X4426204Y5753709D01*
X4425543Y5750153D01*
X4423714Y5747054D01*
X4420920Y5744819D01*
X4410964Y5739384D01*
X4400753Y5731764D01*
X4391761Y5722721D01*
X4384090Y5712510D01*
X4377994Y5701334D01*
X4373524Y5689396D01*
X4370832Y5676900D01*
X4369917Y5664200D01*
X4370832Y5651500D01*
X4372660Y5643067D01*
X4372660Y5638749D01*
X4370882Y5634786D01*
X4367580Y5631992D01*
X4363466Y5630773D01*
X4359198Y5631383D01*
X4355541Y5633720D01*
X4351680Y5637580D01*
X4349496Y5640882D01*
X4348734Y5644743D01*
X4348734Y5727141D01*
X4347972Y5733440D01*
X4346092Y5738926D01*
X4342993Y5743803D01*
X4338929Y5747918D01*
X4334002Y5750966D01*
X4328566Y5752896D01*
X4322216Y5753608D01*
X4196384Y5753608D01*
X4190034Y5752896D01*
X4184599Y5750966D01*
X4179671Y5747918D01*
X4175607Y5743803D01*
X4172508Y5738926D01*
X4170629Y5733440D01*
X4169918Y5727141D01*
X4169918Y5601258D01*
X4170629Y5594959D01*
X4172508Y5589473D01*
X4175607Y5584596D01*
X4179671Y5580481D01*
X4184599Y5577433D01*
X4190034Y5575503D01*
X4196384Y5574792D01*
X4294530Y5574792D01*
X4298442Y5574030D01*
X4301744Y5571794D01*
X4644339Y5229250D01*
X4650892Y5223814D01*
X4657953Y5220055D01*
X4665624Y5217718D01*
X4674108Y5216906D01*
X5523992Y5216906D01*
X5532475Y5217718D01*
X5540146Y5220055D01*
X5547207Y5223814D01*
X5553760Y5229250D01*
X5824575Y5500014D01*
X5829960Y5506618D01*
X5833770Y5513679D01*
X5836056Y5521350D01*
X5836920Y5529783D01*
X5836920Y5540908D01*
X5837682Y5544820D01*
X5839866Y5548071D01*
X5843168Y5550306D01*
X5847080Y5551068D01*
X5850940Y5550306D01*
X5854242Y5548071D01*
X6439814Y4962550D01*
X6446418Y4957114D01*
X6453479Y4953355D01*
X6461150Y4951018D01*
X6469583Y4950206D01*
X6999376Y4950206D01*
X7002780Y4949596D01*
X7005828Y4947869D01*
X7008114Y4945227D01*
X7015124Y4933340D01*
X7023608Y4922621D01*
X7033412Y4913122D01*
X7044385Y4905044D01*
X7056323Y4898491D01*
X7069074Y4893614D01*
X7082332Y4890414D01*
G37*
G36*
X2146300Y5140706D02*
G01*
X2159914Y5141620D01*
X2173274Y5144363D01*
X2186178Y5148834D01*
X2198319Y5154980D01*
X2209546Y5162702D01*
X2219706Y5171846D01*
X2228494Y5182260D01*
X2235809Y5193741D01*
X2241550Y5206136D01*
X2245614Y5219141D01*
X2247849Y5232603D01*
X2248306Y5246217D01*
X2246985Y5259781D01*
X2243785Y5273040D01*
X2238908Y5285790D01*
X2232355Y5297728D01*
X2224278Y5308701D01*
X2214778Y5318506D01*
X2204059Y5326989D01*
X2192324Y5333898D01*
X2179777Y5339232D01*
X2166620Y5342839D01*
X2153107Y5344668D01*
X2139492Y5344668D01*
X2125980Y5342839D01*
X2112822Y5339232D01*
X2100275Y5333898D01*
X2088540Y5326989D01*
X2077821Y5318506D01*
X2068322Y5308701D01*
X2060244Y5297728D01*
X2055622Y5289245D01*
X2053336Y5286451D01*
X2050237Y5284622D01*
X2046681Y5283962D01*
X1357122Y5285740D01*
X1353464Y5286451D01*
X1350314Y5288381D01*
X1348079Y5291328D01*
X1345133Y5297119D01*
X1337411Y5308346D01*
X1328267Y5318506D01*
X1317853Y5327294D01*
X1306372Y5334609D01*
X1293977Y5340350D01*
X1280972Y5344414D01*
X1267510Y5346649D01*
X1253896Y5347106D01*
X1240332Y5345785D01*
X1227074Y5342585D01*
X1214323Y5337708D01*
X1202385Y5331155D01*
X1191412Y5323078D01*
X1181608Y5313578D01*
X1173124Y5302859D01*
X1166164Y5291124D01*
X1160881Y5278577D01*
X1157274Y5265420D01*
X1155446Y5251907D01*
X1155446Y5238292D01*
X1157274Y5224780D01*
X1160881Y5211622D01*
X1166164Y5199075D01*
X1173124Y5187340D01*
X1181608Y5176621D01*
X1191412Y5167122D01*
X1202385Y5159044D01*
X1214323Y5152491D01*
X1227074Y5147614D01*
X1240332Y5144414D01*
X1253896Y5143093D01*
X1267510Y5143550D01*
X1280972Y5145786D01*
X1293977Y5149850D01*
X1306372Y5155590D01*
X1317853Y5162905D01*
X1328267Y5171694D01*
X1337411Y5181854D01*
X1345133Y5193080D01*
X1347825Y5198364D01*
X1350060Y5201310D01*
X1353261Y5203240D01*
X1356918Y5203952D01*
X2046427Y5202174D01*
X2050135Y5201412D01*
X2053386Y5199380D01*
X2055622Y5196281D01*
X2056790Y5193741D01*
X2064105Y5182260D01*
X2072893Y5171846D01*
X2083054Y5162702D01*
X2094280Y5154980D01*
X2106422Y5148834D01*
X2119325Y5144363D01*
X2132685Y5141620D01*
G37*
G36*
X999896Y5143093D02*
G01*
X1013510Y5143550D01*
X1026972Y5145786D01*
X1039977Y5149850D01*
X1052372Y5155590D01*
X1063853Y5162905D01*
X1074267Y5171694D01*
X1083411Y5181854D01*
X1091133Y5193080D01*
X1097280Y5205222D01*
X1101750Y5218125D01*
X1104493Y5231485D01*
X1105408Y5245100D01*
X1104493Y5258714D01*
X1101750Y5272074D01*
X1097280Y5284978D01*
X1091133Y5297119D01*
X1083411Y5308346D01*
X1074267Y5318506D01*
X1063853Y5327294D01*
X1052372Y5334609D01*
X1039977Y5340350D01*
X1026972Y5344414D01*
X1013510Y5346649D01*
X999896Y5347106D01*
X986332Y5345785D01*
X973074Y5342585D01*
X960323Y5337708D01*
X948385Y5331155D01*
X937412Y5323078D01*
X927608Y5313578D01*
X919124Y5302859D01*
X912164Y5291124D01*
X906881Y5278577D01*
X903274Y5265420D01*
X901446Y5251907D01*
X901446Y5238292D01*
X903274Y5224780D01*
X906881Y5211622D01*
X912164Y5199075D01*
X919124Y5187340D01*
X927608Y5176621D01*
X937412Y5167122D01*
X948385Y5159044D01*
X960323Y5152491D01*
X973074Y5147614D01*
X986332Y5144414D01*
G37*
G36*
X1253896Y5397093D02*
G01*
X1267510Y5397550D01*
X1280972Y5399786D01*
X1293977Y5403850D01*
X1306372Y5409590D01*
X1317853Y5416905D01*
X1328267Y5425694D01*
X1337411Y5435854D01*
X1345133Y5447080D01*
X1351280Y5459222D01*
X1355750Y5472125D01*
X1358493Y5485485D01*
X1359408Y5499100D01*
X1358493Y5512714D01*
X1355750Y5526074D01*
X1351280Y5538978D01*
X1345133Y5551119D01*
X1337411Y5562346D01*
X1328267Y5572506D01*
X1317853Y5581294D01*
X1306372Y5588609D01*
X1293977Y5594350D01*
X1280972Y5598414D01*
X1267510Y5600649D01*
X1253896Y5601106D01*
X1240332Y5599785D01*
X1227074Y5596585D01*
X1214323Y5591708D01*
X1202385Y5585155D01*
X1191412Y5577078D01*
X1181608Y5567578D01*
X1173124Y5556859D01*
X1166164Y5545124D01*
X1160881Y5532577D01*
X1157274Y5519420D01*
X1155446Y5505907D01*
X1155446Y5492292D01*
X1157274Y5478780D01*
X1160881Y5465622D01*
X1166164Y5453075D01*
X1173124Y5441340D01*
X1181608Y5430621D01*
X1191412Y5421122D01*
X1202385Y5413044D01*
X1214323Y5406491D01*
X1227074Y5401614D01*
X1240332Y5398414D01*
G37*
G36*
X999896Y5397093D02*
G01*
X1013510Y5397550D01*
X1026972Y5399786D01*
X1039977Y5403850D01*
X1052372Y5409590D01*
X1063853Y5416905D01*
X1074267Y5425694D01*
X1083411Y5435854D01*
X1091133Y5447080D01*
X1097280Y5459222D01*
X1101750Y5472125D01*
X1104493Y5485485D01*
X1105408Y5499100D01*
X1104493Y5512714D01*
X1101750Y5526074D01*
X1097280Y5538978D01*
X1091133Y5551119D01*
X1083411Y5562346D01*
X1074267Y5572506D01*
X1063853Y5581294D01*
X1052372Y5588609D01*
X1039977Y5594350D01*
X1026972Y5598414D01*
X1013510Y5600649D01*
X999896Y5601106D01*
X986332Y5599785D01*
X973074Y5596585D01*
X960323Y5591708D01*
X948385Y5585155D01*
X937412Y5577078D01*
X927608Y5567578D01*
X919124Y5556859D01*
X912164Y5545124D01*
X906881Y5532577D01*
X903274Y5519420D01*
X901446Y5505907D01*
X901446Y5492292D01*
X903274Y5478780D01*
X906881Y5465622D01*
X912164Y5453075D01*
X919124Y5441340D01*
X927608Y5430621D01*
X937412Y5421122D01*
X948385Y5413044D01*
X960323Y5406491D01*
X973074Y5401614D01*
X986332Y5398414D01*
G37*
G36*
X7095896Y5397093D02*
G01*
X7109510Y5397550D01*
X7122972Y5399786D01*
X7135977Y5403850D01*
X7148372Y5409590D01*
X7159853Y5416905D01*
X7170267Y5425694D01*
X7179411Y5435854D01*
X7187133Y5447080D01*
X7193280Y5459222D01*
X7197750Y5472125D01*
X7200493Y5485485D01*
X7201408Y5499100D01*
X7200493Y5512714D01*
X7197750Y5526074D01*
X7193280Y5538978D01*
X7187133Y5551119D01*
X7179411Y5562346D01*
X7170267Y5572506D01*
X7159853Y5581294D01*
X7148372Y5588609D01*
X7135977Y5594350D01*
X7122972Y5598414D01*
X7109510Y5600649D01*
X7095896Y5601106D01*
X7082332Y5599785D01*
X7069074Y5596585D01*
X7056323Y5591708D01*
X7044385Y5585155D01*
X7033412Y5577078D01*
X7023608Y5567578D01*
X7015124Y5556859D01*
X7008164Y5545124D01*
X7002881Y5532577D01*
X6999274Y5519420D01*
X6997446Y5505907D01*
X6997446Y5492292D01*
X6999274Y5478780D01*
X7002881Y5465622D01*
X7008164Y5453075D01*
X7015124Y5441340D01*
X7023608Y5430621D01*
X7033412Y5421122D01*
X7044385Y5413044D01*
X7056323Y5406491D01*
X7069074Y5401614D01*
X7082332Y5398414D01*
G37*
G36*
X6357924Y5583428D02*
G01*
X6357924Y5626100D01*
X6315202Y5626100D01*
X6320790Y5615889D01*
X6328460Y5605678D01*
X6337452Y5596636D01*
X6347663Y5589016D01*
G37*
G36*
X6434124Y5583428D02*
G01*
X6444335Y5589016D01*
X6454546Y5596636D01*
X6463538Y5605678D01*
X6471208Y5615889D01*
X6476796Y5626100D01*
X6434124Y5626100D01*
G37*
G36*
X999896Y5651093D02*
G01*
X1013510Y5651550D01*
X1026972Y5653786D01*
X1039977Y5657850D01*
X1052372Y5663590D01*
X1063853Y5670905D01*
X1074267Y5679694D01*
X1083411Y5689854D01*
X1091133Y5701080D01*
X1097280Y5713222D01*
X1101750Y5726125D01*
X1104493Y5739485D01*
X1105408Y5753100D01*
X1104493Y5766714D01*
X1101750Y5780074D01*
X1097280Y5792978D01*
X1091133Y5805119D01*
X1083411Y5816346D01*
X1074267Y5826506D01*
X1063853Y5835294D01*
X1052372Y5842609D01*
X1039977Y5848350D01*
X1026972Y5852414D01*
X1013510Y5854649D01*
X999896Y5855106D01*
X986332Y5853785D01*
X973074Y5850585D01*
X960323Y5845708D01*
X948385Y5839155D01*
X937412Y5831078D01*
X927608Y5821578D01*
X919124Y5810859D01*
X912164Y5799124D01*
X906881Y5786577D01*
X903274Y5773420D01*
X901446Y5759907D01*
X901446Y5746292D01*
X903274Y5732780D01*
X906881Y5719622D01*
X912164Y5707075D01*
X919124Y5695340D01*
X927608Y5684621D01*
X937412Y5675122D01*
X948385Y5667044D01*
X960323Y5660491D01*
X973074Y5655614D01*
X986332Y5652414D01*
G37*
G36*
X1253896Y5651093D02*
G01*
X1267510Y5651550D01*
X1280972Y5653786D01*
X1293977Y5657850D01*
X1306372Y5663590D01*
X1317853Y5670905D01*
X1328267Y5679694D01*
X1337411Y5689854D01*
X1345133Y5701080D01*
X1351280Y5713222D01*
X1355750Y5726125D01*
X1358493Y5739485D01*
X1359408Y5753100D01*
X1358493Y5766714D01*
X1355750Y5780074D01*
X1351280Y5792978D01*
X1345133Y5805119D01*
X1337411Y5816346D01*
X1328267Y5826506D01*
X1317853Y5835294D01*
X1306372Y5842609D01*
X1293977Y5848350D01*
X1280972Y5852414D01*
X1267510Y5854649D01*
X1253896Y5855106D01*
X1240332Y5853785D01*
X1227074Y5850585D01*
X1214323Y5845708D01*
X1202385Y5839155D01*
X1191412Y5831078D01*
X1181608Y5821578D01*
X1173124Y5810859D01*
X1166164Y5799124D01*
X1160881Y5786577D01*
X1157274Y5773420D01*
X1155446Y5759907D01*
X1155446Y5746292D01*
X1157274Y5732780D01*
X1160881Y5719622D01*
X1166164Y5707075D01*
X1173124Y5695340D01*
X1181608Y5684621D01*
X1191412Y5675122D01*
X1202385Y5667044D01*
X1214323Y5660491D01*
X1227074Y5655614D01*
X1240332Y5652414D01*
G37*
G36*
X6315202Y5702300D02*
G01*
X6357924Y5702300D01*
X6357924Y5744972D01*
X6347663Y5739384D01*
X6337452Y5731764D01*
X6328460Y5722721D01*
X6320790Y5712510D01*
G37*
G36*
X6434124Y5702300D02*
G01*
X6476796Y5702300D01*
X6471208Y5712510D01*
X6463538Y5722721D01*
X6454546Y5731764D01*
X6444335Y5739384D01*
X6434124Y5744972D01*
G37*
G36*
X1253896Y5905093D02*
G01*
X1267510Y5905550D01*
X1280972Y5907786D01*
X1293977Y5911850D01*
X1306372Y5917590D01*
X1317853Y5924905D01*
X1328267Y5933694D01*
X1337411Y5943854D01*
X1345133Y5955080D01*
X1351280Y5967222D01*
X1355750Y5980125D01*
X1358493Y5993485D01*
X1359408Y6007100D01*
X1358493Y6020714D01*
X1355750Y6034074D01*
X1351280Y6046978D01*
X1345133Y6059119D01*
X1337411Y6070346D01*
X1328267Y6080506D01*
X1317853Y6089294D01*
X1306372Y6096609D01*
X1293977Y6102350D01*
X1280972Y6106414D01*
X1267510Y6108649D01*
X1253896Y6109106D01*
X1240332Y6107785D01*
X1227074Y6104585D01*
X1214323Y6099708D01*
X1202385Y6093155D01*
X1191412Y6085078D01*
X1181608Y6075578D01*
X1173124Y6064859D01*
X1166164Y6053124D01*
X1160881Y6040577D01*
X1157274Y6027420D01*
X1155446Y6013907D01*
X1155446Y6000292D01*
X1157274Y5986780D01*
X1160881Y5973622D01*
X1166164Y5961075D01*
X1173124Y5949340D01*
X1181608Y5938621D01*
X1191412Y5929122D01*
X1202385Y5921044D01*
X1214323Y5914491D01*
X1227074Y5909614D01*
X1240332Y5906414D01*
G37*
G36*
X999896Y5905093D02*
G01*
X1013510Y5905550D01*
X1026972Y5907786D01*
X1039977Y5911850D01*
X1052372Y5917590D01*
X1063853Y5924905D01*
X1074267Y5933694D01*
X1083411Y5943854D01*
X1091133Y5955080D01*
X1097280Y5967222D01*
X1101750Y5980125D01*
X1104493Y5993485D01*
X1105408Y6007100D01*
X1104493Y6020714D01*
X1101750Y6034074D01*
X1097280Y6046978D01*
X1091133Y6059119D01*
X1083411Y6070346D01*
X1074267Y6080506D01*
X1063853Y6089294D01*
X1052372Y6096609D01*
X1039977Y6102350D01*
X1026972Y6106414D01*
X1013510Y6108649D01*
X999896Y6109106D01*
X986332Y6107785D01*
X973074Y6104585D01*
X960323Y6099708D01*
X948385Y6093155D01*
X937412Y6085078D01*
X927608Y6075578D01*
X919124Y6064859D01*
X912164Y6053124D01*
X906881Y6040577D01*
X903274Y6027420D01*
X901446Y6013907D01*
X901446Y6000292D01*
X903274Y5986780D01*
X906881Y5973622D01*
X912164Y5961075D01*
X919124Y5949340D01*
X927608Y5938621D01*
X937412Y5929122D01*
X948385Y5921044D01*
X960323Y5914491D01*
X973074Y5909614D01*
X986332Y5906414D01*
G37*
G36*
X1253896Y6159093D02*
G01*
X1267510Y6159550D01*
X1280972Y6161786D01*
X1293977Y6165850D01*
X1306372Y6171590D01*
X1317853Y6178905D01*
X1328267Y6187694D01*
X1337411Y6197854D01*
X1345133Y6209080D01*
X1351280Y6221222D01*
X1355750Y6234125D01*
X1358493Y6247485D01*
X1359408Y6261100D01*
X1358493Y6274714D01*
X1355750Y6288074D01*
X1351280Y6300978D01*
X1345133Y6313119D01*
X1337411Y6324346D01*
X1328267Y6334506D01*
X1317853Y6343294D01*
X1306372Y6350609D01*
X1293977Y6356350D01*
X1280972Y6360414D01*
X1267510Y6362649D01*
X1253896Y6363106D01*
X1240332Y6361785D01*
X1227074Y6358585D01*
X1214323Y6353708D01*
X1202385Y6347155D01*
X1191412Y6339078D01*
X1181608Y6329578D01*
X1173124Y6318859D01*
X1166164Y6307124D01*
X1160881Y6294577D01*
X1157274Y6281420D01*
X1155446Y6267907D01*
X1155446Y6254292D01*
X1157274Y6240780D01*
X1160881Y6227622D01*
X1166164Y6215075D01*
X1173124Y6203340D01*
X1181608Y6192621D01*
X1191412Y6183122D01*
X1202385Y6175044D01*
X1214323Y6168491D01*
X1227074Y6163614D01*
X1240332Y6160414D01*
G37*
G36*
X999896Y6159093D02*
G01*
X1013510Y6159550D01*
X1026972Y6161786D01*
X1039977Y6165850D01*
X1052372Y6171590D01*
X1063853Y6178905D01*
X1074267Y6187694D01*
X1083411Y6197854D01*
X1091133Y6209080D01*
X1097280Y6221222D01*
X1101750Y6234125D01*
X1104493Y6247485D01*
X1105408Y6261100D01*
X1104493Y6274714D01*
X1101750Y6288074D01*
X1097280Y6300978D01*
X1091133Y6313119D01*
X1083411Y6324346D01*
X1074267Y6334506D01*
X1063853Y6343294D01*
X1052372Y6350609D01*
X1039977Y6356350D01*
X1026972Y6360414D01*
X1013510Y6362649D01*
X999896Y6363106D01*
X986332Y6361785D01*
X973074Y6358585D01*
X960323Y6353708D01*
X948385Y6347155D01*
X937412Y6339078D01*
X927608Y6329578D01*
X919124Y6318859D01*
X912164Y6307124D01*
X906881Y6294577D01*
X903274Y6281420D01*
X901446Y6267907D01*
X901446Y6254292D01*
X903274Y6240780D01*
X906881Y6227622D01*
X912164Y6215075D01*
X919124Y6203340D01*
X927608Y6192621D01*
X937412Y6183122D01*
X948385Y6175044D01*
X960323Y6168491D01*
X973074Y6163614D01*
X986332Y6160414D01*
G37*
G36*
X7349896Y6159093D02*
G01*
X7363510Y6159550D01*
X7376972Y6161786D01*
X7389977Y6165850D01*
X7402372Y6171590D01*
X7413853Y6178905D01*
X7424267Y6187694D01*
X7433411Y6197854D01*
X7441133Y6209080D01*
X7447280Y6221222D01*
X7451750Y6234125D01*
X7454493Y6247485D01*
X7455408Y6261100D01*
X7454493Y6274714D01*
X7451750Y6288074D01*
X7447280Y6300978D01*
X7441133Y6313119D01*
X7433411Y6324346D01*
X7424267Y6334506D01*
X7413853Y6343294D01*
X7402372Y6350609D01*
X7389977Y6356350D01*
X7376972Y6360414D01*
X7363510Y6362649D01*
X7349896Y6363106D01*
X7336332Y6361785D01*
X7323074Y6358585D01*
X7310323Y6353708D01*
X7298385Y6347155D01*
X7287412Y6339078D01*
X7277608Y6329578D01*
X7269124Y6318859D01*
X7262164Y6307124D01*
X7256881Y6294577D01*
X7253274Y6281420D01*
X7251446Y6267907D01*
X7251446Y6254292D01*
X7253274Y6240780D01*
X7256881Y6227622D01*
X7262164Y6215075D01*
X7269124Y6203340D01*
X7277608Y6192621D01*
X7287412Y6183122D01*
X7298385Y6175044D01*
X7310323Y6168491D01*
X7323074Y6163614D01*
X7336332Y6160414D01*
G37*
G36*
X7095896Y6159093D02*
G01*
X7109510Y6159550D01*
X7122972Y6161786D01*
X7135977Y6165850D01*
X7148372Y6171590D01*
X7159853Y6178905D01*
X7170267Y6187694D01*
X7179411Y6197854D01*
X7187133Y6209080D01*
X7193280Y6221222D01*
X7197750Y6234125D01*
X7200493Y6247485D01*
X7201408Y6261100D01*
X7200493Y6274714D01*
X7197750Y6288074D01*
X7193280Y6300978D01*
X7187133Y6313119D01*
X7179411Y6324346D01*
X7170267Y6334506D01*
X7159853Y6343294D01*
X7148372Y6350609D01*
X7135977Y6356350D01*
X7122972Y6360414D01*
X7109510Y6362649D01*
X7095896Y6363106D01*
X7082332Y6361785D01*
X7069074Y6358585D01*
X7056323Y6353708D01*
X7044385Y6347155D01*
X7033412Y6339078D01*
X7023608Y6329578D01*
X7015124Y6318859D01*
X7008164Y6307124D01*
X7002881Y6294577D01*
X6999274Y6281420D01*
X6997446Y6267907D01*
X6997446Y6254292D01*
X6999274Y6240780D01*
X7002881Y6227622D01*
X7008164Y6215075D01*
X7015124Y6203340D01*
X7023608Y6192621D01*
X7033412Y6183122D01*
X7044385Y6175044D01*
X7056323Y6168491D01*
X7069074Y6163614D01*
X7082332Y6160414D01*
G37*
G36*
X999896Y6413093D02*
G01*
X1013510Y6413550D01*
X1026972Y6415786D01*
X1039977Y6419850D01*
X1052372Y6425590D01*
X1063853Y6432905D01*
X1074267Y6441694D01*
X1083411Y6451854D01*
X1091133Y6463080D01*
X1097280Y6475222D01*
X1101750Y6488125D01*
X1104493Y6501485D01*
X1105408Y6515100D01*
X1104493Y6528714D01*
X1101750Y6542074D01*
X1097280Y6554978D01*
X1091133Y6567119D01*
X1083411Y6578346D01*
X1074267Y6588506D01*
X1063853Y6597294D01*
X1052372Y6604609D01*
X1039977Y6610350D01*
X1026972Y6614414D01*
X1013510Y6616649D01*
X999896Y6617106D01*
X986332Y6615785D01*
X973074Y6612585D01*
X960323Y6607708D01*
X948385Y6601155D01*
X937412Y6593078D01*
X927608Y6583578D01*
X919124Y6572859D01*
X912164Y6561124D01*
X906881Y6548577D01*
X903274Y6535420D01*
X901446Y6521907D01*
X901446Y6508292D01*
X903274Y6494780D01*
X906881Y6481622D01*
X912164Y6469075D01*
X919124Y6457340D01*
X927608Y6446621D01*
X937412Y6437122D01*
X948385Y6429044D01*
X960323Y6422491D01*
X973074Y6417614D01*
X986332Y6414414D01*
G37*
G36*
X1253896Y6413093D02*
G01*
X1267510Y6413550D01*
X1280972Y6415786D01*
X1293977Y6419850D01*
X1306372Y6425590D01*
X1317853Y6432905D01*
X1328267Y6441694D01*
X1337411Y6451854D01*
X1345133Y6463080D01*
X1351280Y6475222D01*
X1355750Y6488125D01*
X1358493Y6501485D01*
X1359408Y6515100D01*
X1358493Y6528714D01*
X1355750Y6542074D01*
X1351280Y6554978D01*
X1345133Y6567119D01*
X1337411Y6578346D01*
X1328267Y6588506D01*
X1317853Y6597294D01*
X1306372Y6604609D01*
X1293977Y6610350D01*
X1280972Y6614414D01*
X1267510Y6616649D01*
X1253896Y6617106D01*
X1240332Y6615785D01*
X1227074Y6612585D01*
X1214323Y6607708D01*
X1202385Y6601155D01*
X1191412Y6593078D01*
X1181608Y6583578D01*
X1173124Y6572859D01*
X1166164Y6561124D01*
X1160881Y6548577D01*
X1157274Y6535420D01*
X1155446Y6521907D01*
X1155446Y6508292D01*
X1157274Y6494780D01*
X1160881Y6481622D01*
X1166164Y6469075D01*
X1173124Y6457340D01*
X1181608Y6446621D01*
X1191412Y6437122D01*
X1202385Y6429044D01*
X1214323Y6422491D01*
X1227074Y6417614D01*
X1240332Y6414414D01*
G37*
G36*
X7095896Y6413093D02*
G01*
X7109510Y6413550D01*
X7122972Y6415786D01*
X7135977Y6419850D01*
X7148372Y6425590D01*
X7159853Y6432905D01*
X7170267Y6441694D01*
X7179411Y6451854D01*
X7187133Y6463080D01*
X7193280Y6475222D01*
X7197750Y6488125D01*
X7200493Y6501485D01*
X7201408Y6515100D01*
X7200493Y6528714D01*
X7197750Y6542074D01*
X7193280Y6554978D01*
X7187133Y6567119D01*
X7179411Y6578346D01*
X7170267Y6588506D01*
X7159853Y6597294D01*
X7148372Y6604609D01*
X7135977Y6610350D01*
X7122972Y6614414D01*
X7109510Y6616649D01*
X7095896Y6617106D01*
X7082332Y6615785D01*
X7069074Y6612585D01*
X7056323Y6607708D01*
X7044385Y6601155D01*
X7033412Y6593078D01*
X7023608Y6583578D01*
X7015124Y6572859D01*
X7008164Y6561124D01*
X7002881Y6548577D01*
X6999274Y6535420D01*
X6997446Y6521907D01*
X6997446Y6508292D01*
X6999274Y6494780D01*
X7002881Y6481622D01*
X7008164Y6469075D01*
X7015124Y6457340D01*
X7023608Y6446621D01*
X7033412Y6437122D01*
X7044385Y6429044D01*
X7056323Y6422491D01*
X7069074Y6417614D01*
X7082332Y6414414D01*
G37*
G36*
X7349896Y6413093D02*
G01*
X7363510Y6413550D01*
X7376972Y6415786D01*
X7389977Y6419850D01*
X7402372Y6425590D01*
X7413853Y6432905D01*
X7424267Y6441694D01*
X7433411Y6451854D01*
X7441133Y6463080D01*
X7447280Y6475222D01*
X7451750Y6488125D01*
X7454493Y6501485D01*
X7455408Y6515100D01*
X7454493Y6528714D01*
X7451750Y6542074D01*
X7447280Y6554978D01*
X7441133Y6567119D01*
X7433411Y6578346D01*
X7424267Y6588506D01*
X7413853Y6597294D01*
X7402372Y6604609D01*
X7389977Y6610350D01*
X7376972Y6614414D01*
X7363510Y6616649D01*
X7349896Y6617106D01*
X7336332Y6615785D01*
X7323074Y6612585D01*
X7310323Y6607708D01*
X7298385Y6601155D01*
X7287412Y6593078D01*
X7277608Y6583578D01*
X7269124Y6572859D01*
X7262164Y6561124D01*
X7256881Y6548577D01*
X7253274Y6535420D01*
X7251446Y6521907D01*
X7251446Y6508292D01*
X7253274Y6494780D01*
X7256881Y6481622D01*
X7262164Y6469075D01*
X7269124Y6457340D01*
X7277608Y6446621D01*
X7287412Y6437122D01*
X7298385Y6429044D01*
X7310323Y6422491D01*
X7323074Y6417614D01*
X7336332Y6414414D01*
G37*
G36*
X2146300Y6440728D02*
G01*
X2159914Y6441643D01*
X2173274Y6444335D01*
X2186178Y6448806D01*
X2198319Y6454952D01*
X2209546Y6462674D01*
X2219706Y6471818D01*
X2228494Y6482232D01*
X2235809Y6493764D01*
X2241550Y6506108D01*
X2245614Y6519113D01*
X2247849Y6532575D01*
X2248306Y6546189D01*
X2246985Y6559803D01*
X2243785Y6573062D01*
X2238908Y6585762D01*
X2232355Y6597751D01*
X2224278Y6608724D01*
X2214778Y6618528D01*
X2204059Y6626961D01*
X2192172Y6634022D01*
X2189530Y6636258D01*
X2187803Y6639306D01*
X2187194Y6642760D01*
X2187194Y6840118D01*
X2187905Y6843775D01*
X2189886Y6846976D01*
X2192883Y6849211D01*
X2200503Y6852970D01*
X2212289Y6860895D01*
X2222957Y6870242D01*
X2232304Y6880910D01*
X2240229Y6892696D01*
X2246477Y6905396D01*
X2251049Y6918858D01*
X2253792Y6932726D01*
X2254758Y6946900D01*
X2253792Y6961073D01*
X2251049Y6974941D01*
X2246477Y6988403D01*
X2240229Y7001103D01*
X2232304Y7012889D01*
X2222957Y7023557D01*
X2212289Y7032904D01*
X2200503Y7040829D01*
X2187803Y7047077D01*
X2174341Y7051649D01*
X2160473Y7054392D01*
X2146300Y7055358D01*
X2132126Y7054392D01*
X2118258Y7051649D01*
X2104796Y7047077D01*
X2092096Y7040829D01*
X2080310Y7032904D01*
X2069642Y7023557D01*
X2060295Y7012889D01*
X2052370Y7001103D01*
X2046122Y6988403D01*
X2041550Y6974941D01*
X2038807Y6961073D01*
X2037842Y6946900D01*
X2038807Y6932726D01*
X2041550Y6918858D01*
X2046122Y6905396D01*
X2052370Y6892696D01*
X2060295Y6880910D01*
X2069642Y6870242D01*
X2080310Y6860895D01*
X2092096Y6852970D01*
X2099716Y6849211D01*
X2102713Y6846976D01*
X2104694Y6843775D01*
X2105406Y6840118D01*
X2105406Y6642760D01*
X2104796Y6639306D01*
X2103069Y6636258D01*
X2100427Y6634022D01*
X2088540Y6626961D01*
X2077821Y6618528D01*
X2068322Y6608724D01*
X2060244Y6597751D01*
X2053691Y6585762D01*
X2048814Y6573062D01*
X2045614Y6559803D01*
X2044293Y6546189D01*
X2044750Y6532575D01*
X2046986Y6519113D01*
X2051050Y6506108D01*
X2056790Y6493764D01*
X2064105Y6482232D01*
X2072893Y6471818D01*
X2083054Y6462674D01*
X2094280Y6454952D01*
X2106422Y6448806D01*
X2119325Y6444335D01*
X2132685Y6441643D01*
G37*
G36*
X2959100Y6440728D02*
G01*
X2972714Y6441643D01*
X2986074Y6444335D01*
X2998978Y6448806D01*
X3011119Y6454952D01*
X3022346Y6462674D01*
X3032506Y6471818D01*
X3041294Y6482232D01*
X3048609Y6493764D01*
X3054350Y6506108D01*
X3058414Y6519113D01*
X3060649Y6532575D01*
X3061106Y6546189D01*
X3059785Y6559803D01*
X3056585Y6573062D01*
X3051708Y6585762D01*
X3045155Y6597751D01*
X3037078Y6608724D01*
X3027578Y6618528D01*
X3016859Y6626961D01*
X3005531Y6633667D01*
X3002889Y6635953D01*
X3001162Y6639001D01*
X3000552Y6642455D01*
X3001721Y6852564D01*
X3002381Y6856171D01*
X3004312Y6859320D01*
X3007207Y6861556D01*
X3017164Y6866686D01*
X3028797Y6874764D01*
X3039313Y6884314D01*
X3048457Y6895134D01*
X3056178Y6907022D01*
X3062224Y6919874D01*
X3066542Y6933387D01*
X3069031Y6947357D01*
X3069742Y6961530D01*
X3068574Y6975652D01*
X3065526Y6989521D01*
X3060750Y7002881D01*
X3054248Y7015480D01*
X3046171Y7027113D01*
X3036620Y7037628D01*
X3025800Y7046772D01*
X3013862Y7054443D01*
X3001060Y7060488D01*
X2987548Y7064857D01*
X2973578Y7067346D01*
X2959404Y7068058D01*
X2945282Y7066838D01*
X2931414Y7063841D01*
X2918053Y7059066D01*
X2905455Y7052564D01*
X2893822Y7044486D01*
X2883306Y7034936D01*
X2874162Y7024116D01*
X2866491Y7012178D01*
X2860446Y6999376D01*
X2856077Y6985863D01*
X2853588Y6971893D01*
X2852877Y6957720D01*
X2854045Y6943598D01*
X2857093Y6929729D01*
X2861868Y6916369D01*
X2868371Y6903770D01*
X2876448Y6892137D01*
X2885998Y6881622D01*
X2896819Y6872427D01*
X2908757Y6864756D01*
X2914091Y6862267D01*
X2917139Y6860031D01*
X2919171Y6856780D01*
X2919882Y6853021D01*
X2918764Y6643014D01*
X2918104Y6639559D01*
X2916377Y6636562D01*
X2913735Y6634327D01*
X2901340Y6626961D01*
X2890621Y6618528D01*
X2881122Y6608724D01*
X2873044Y6597751D01*
X2866491Y6585762D01*
X2861614Y6573062D01*
X2858414Y6559803D01*
X2857093Y6546189D01*
X2857550Y6532575D01*
X2859786Y6519113D01*
X2863850Y6506108D01*
X2869590Y6493764D01*
X2876905Y6482232D01*
X2885694Y6471818D01*
X2895854Y6462674D01*
X2907080Y6454952D01*
X2919222Y6448806D01*
X2932125Y6444335D01*
X2945485Y6441643D01*
G37*
G36*
X5434685Y6563106D02*
G01*
X5474817Y6563106D01*
X5483250Y6563918D01*
X5490921Y6566255D01*
X5497982Y6570014D01*
X5504586Y6575450D01*
X5951931Y7022795D01*
X5954725Y7024776D01*
X5957925Y7025690D01*
X5961278Y7025538D01*
X5970574Y7023506D01*
X5983325Y7022642D01*
X5996025Y7023506D01*
X6008471Y7026249D01*
X6020409Y7030720D01*
X6031636Y7036816D01*
X6041847Y7044436D01*
X6050838Y7053478D01*
X6058509Y7063689D01*
X6064605Y7074865D01*
X6069076Y7086803D01*
X6071768Y7099300D01*
X6072682Y7112000D01*
X6071768Y7124700D01*
X6069076Y7137196D01*
X6064605Y7149134D01*
X6058509Y7160310D01*
X6050838Y7170521D01*
X6041847Y7179564D01*
X6031636Y7187184D01*
X6029502Y7188352D01*
X6026708Y7190638D01*
X6024829Y7193737D01*
X6024219Y7197293D01*
X6024219Y8042706D01*
X6024829Y8046262D01*
X6026708Y8049361D01*
X6029502Y8051647D01*
X6031636Y8052816D01*
X6041847Y8060436D01*
X6050838Y8069478D01*
X6058509Y8079689D01*
X6064605Y8090865D01*
X6069076Y8102803D01*
X6071768Y8115300D01*
X6072682Y8128000D01*
X6071768Y8140700D01*
X6069076Y8153196D01*
X6064605Y8165134D01*
X6058509Y8176310D01*
X6050838Y8186521D01*
X6041847Y8195564D01*
X6031636Y8203184D01*
X6029502Y8204352D01*
X6026708Y8206638D01*
X6024829Y8209737D01*
X6024219Y8213293D01*
X6024219Y9058706D01*
X6024829Y9062262D01*
X6026708Y9065361D01*
X6029502Y9067647D01*
X6031636Y9068816D01*
X6041847Y9076436D01*
X6050838Y9085478D01*
X6058509Y9095689D01*
X6064605Y9106865D01*
X6069076Y9118803D01*
X6071768Y9131300D01*
X6072682Y9144000D01*
X6071768Y9156700D01*
X6069076Y9169196D01*
X6064605Y9181134D01*
X6058509Y9192310D01*
X6050838Y9202521D01*
X6041847Y9211564D01*
X6028690Y9221571D01*
X6026861Y9224873D01*
X6026302Y9228582D01*
X6027166Y9232239D01*
X6029248Y9235338D01*
X6059170Y9265208D01*
X6062472Y9267393D01*
X6066332Y9268206D01*
X6824167Y9268206D01*
X6828028Y9267393D01*
X6831330Y9265208D01*
X6999782Y9096756D01*
X7001814Y9093860D01*
X7002729Y9090406D01*
X7002424Y9086900D01*
X6999274Y9075420D01*
X6997446Y9061907D01*
X6997446Y9048292D01*
X6999274Y9034780D01*
X7002881Y9021622D01*
X7008164Y9009075D01*
X7015124Y8997340D01*
X7023608Y8986621D01*
X7033412Y8977122D01*
X7044385Y8969044D01*
X7056323Y8962491D01*
X7069074Y8957614D01*
X7082332Y8954414D01*
X7095896Y8953093D01*
X7109510Y8953550D01*
X7122972Y8955786D01*
X7135977Y8959850D01*
X7148372Y8965590D01*
X7159853Y8972905D01*
X7170267Y8981694D01*
X7179411Y8991854D01*
X7187133Y9003080D01*
X7193280Y9015222D01*
X7197750Y9028125D01*
X7200493Y9041485D01*
X7201408Y9055100D01*
X7200493Y9068714D01*
X7197750Y9082074D01*
X7193280Y9094978D01*
X7187133Y9107119D01*
X7179411Y9118346D01*
X7170267Y9128506D01*
X7159853Y9137294D01*
X7148372Y9144609D01*
X7135977Y9150350D01*
X7122972Y9154414D01*
X7109510Y9156649D01*
X7095896Y9157106D01*
X7082332Y9155785D01*
X7068413Y9152382D01*
X7064603Y9151670D01*
X7060793Y9152483D01*
X7057593Y9154668D01*
X6874560Y9337649D01*
X6868007Y9343085D01*
X6860946Y9346844D01*
X6853275Y9349181D01*
X6844792Y9349994D01*
X6045708Y9349994D01*
X6037224Y9349181D01*
X6029553Y9346844D01*
X6022492Y9343085D01*
X6015939Y9337649D01*
X5954725Y9276486D01*
X5949340Y9269882D01*
X5945530Y9262821D01*
X5943244Y9255150D01*
X5942380Y9246717D01*
X5942380Y9229293D01*
X5941771Y9225737D01*
X5939891Y9222638D01*
X5937097Y9220352D01*
X5934964Y9219184D01*
X5924753Y9211564D01*
X5915761Y9202521D01*
X5908090Y9192310D01*
X5901994Y9181134D01*
X5897524Y9169196D01*
X5894832Y9156700D01*
X5893917Y9144000D01*
X5894832Y9131300D01*
X5897524Y9118803D01*
X5901994Y9106865D01*
X5908090Y9095689D01*
X5915761Y9085478D01*
X5924753Y9076436D01*
X5934964Y9068816D01*
X5937097Y9067647D01*
X5939891Y9065361D01*
X5941771Y9062262D01*
X5942380Y9058706D01*
X5942380Y8213293D01*
X5941771Y8209737D01*
X5939891Y8206638D01*
X5937097Y8204352D01*
X5934964Y8203184D01*
X5924753Y8195564D01*
X5915761Y8186521D01*
X5908090Y8176310D01*
X5901994Y8165134D01*
X5897524Y8153196D01*
X5894832Y8140700D01*
X5893917Y8128000D01*
X5894832Y8115300D01*
X5897524Y8102803D01*
X5901994Y8090865D01*
X5908090Y8079689D01*
X5915761Y8069478D01*
X5924753Y8060436D01*
X5934964Y8052816D01*
X5937097Y8051647D01*
X5939891Y8049361D01*
X5941771Y8046262D01*
X5942380Y8042706D01*
X5942380Y7197293D01*
X5941771Y7193737D01*
X5939891Y7190638D01*
X5937097Y7188352D01*
X5934964Y7187184D01*
X5924753Y7179564D01*
X5915761Y7170521D01*
X5908090Y7160310D01*
X5901994Y7149134D01*
X5897524Y7137196D01*
X5894832Y7124700D01*
X5893917Y7112000D01*
X5894832Y7099300D01*
X5896864Y7090003D01*
X5897016Y7086650D01*
X5896051Y7083399D01*
X5894120Y7080656D01*
X5890056Y7076592D01*
X5886754Y7074408D01*
X5882894Y7073646D01*
X5878982Y7074408D01*
X5875680Y7076592D01*
X5873496Y7079894D01*
X5872734Y7083806D01*
X5872734Y7174941D01*
X5871972Y7181240D01*
X5870092Y7186726D01*
X5866993Y7191603D01*
X5862929Y7195718D01*
X5858002Y7198766D01*
X5852566Y7200696D01*
X5846216Y7201408D01*
X5834380Y7201408D01*
X5830468Y7202170D01*
X5827166Y7204405D01*
X5824982Y7207656D01*
X5824220Y7211568D01*
X5824220Y8028431D01*
X5824982Y8032343D01*
X5827166Y8035594D01*
X5830468Y8037830D01*
X5834380Y8038592D01*
X5846216Y8038592D01*
X5852566Y8039303D01*
X5858002Y8041233D01*
X5862929Y8044281D01*
X5866993Y8048396D01*
X5870092Y8053273D01*
X5871972Y8058759D01*
X5872734Y8065058D01*
X5872734Y8190941D01*
X5871972Y8197240D01*
X5870092Y8202726D01*
X5866993Y8207603D01*
X5862929Y8211718D01*
X5858002Y8214766D01*
X5852566Y8216696D01*
X5846216Y8217408D01*
X5834380Y8217408D01*
X5830468Y8218170D01*
X5827166Y8220405D01*
X5824982Y8223656D01*
X5824220Y8227568D01*
X5824220Y9044432D01*
X5824982Y9048343D01*
X5827166Y9051594D01*
X5830468Y9053830D01*
X5834380Y9054592D01*
X5846216Y9054592D01*
X5852566Y9055303D01*
X5858002Y9057233D01*
X5862929Y9060281D01*
X5866993Y9064396D01*
X5870092Y9069273D01*
X5871972Y9074759D01*
X5872734Y9081058D01*
X5872734Y9201556D01*
X5873140Y9204502D01*
X5874410Y9207195D01*
X5987897Y9377934D01*
X5990183Y9380372D01*
X5993079Y9381947D01*
X5996381Y9382506D01*
X6963867Y9382506D01*
X6967728Y9381693D01*
X6971030Y9379508D01*
X6999782Y9350756D01*
X7001814Y9347860D01*
X7002729Y9344406D01*
X7002424Y9340900D01*
X6999274Y9329420D01*
X6997446Y9315907D01*
X6997446Y9302292D01*
X6999274Y9288780D01*
X7002881Y9275622D01*
X7008164Y9263075D01*
X7015124Y9251340D01*
X7023608Y9240621D01*
X7033412Y9231122D01*
X7044385Y9223044D01*
X7056323Y9216491D01*
X7069074Y9211614D01*
X7082332Y9208414D01*
X7095896Y9207093D01*
X7109510Y9207550D01*
X7122972Y9209786D01*
X7135977Y9213850D01*
X7148372Y9219590D01*
X7159853Y9226905D01*
X7170267Y9235694D01*
X7179411Y9245854D01*
X7187133Y9257080D01*
X7193280Y9269222D01*
X7197750Y9282125D01*
X7200493Y9295485D01*
X7201408Y9309100D01*
X7200493Y9322714D01*
X7197750Y9336074D01*
X7193280Y9348978D01*
X7187133Y9361119D01*
X7179411Y9372346D01*
X7170267Y9382506D01*
X7159853Y9391294D01*
X7148372Y9398609D01*
X7135977Y9404350D01*
X7122972Y9408414D01*
X7109510Y9410649D01*
X7095896Y9411106D01*
X7082332Y9409785D01*
X7068413Y9406382D01*
X7064603Y9405670D01*
X7060793Y9406483D01*
X7057593Y9408668D01*
X7014260Y9451949D01*
X7007707Y9457385D01*
X7000646Y9461144D01*
X6992975Y9463481D01*
X6984492Y9464294D01*
X5969508Y9464294D01*
X5961024Y9463481D01*
X5953353Y9461144D01*
X5946292Y9457385D01*
X5940094Y9452305D01*
X5934659Y9445599D01*
X5796635Y9237929D01*
X5794349Y9235541D01*
X5791454Y9233966D01*
X5788152Y9233408D01*
X5755944Y9233408D01*
X5752084Y9234170D01*
X5748782Y9236405D01*
X5520486Y9464649D01*
X5513882Y9470085D01*
X5506821Y9473844D01*
X5499150Y9476181D01*
X5490718Y9476994D01*
X4521708Y9476994D01*
X4513224Y9476181D01*
X4505553Y9473844D01*
X4498492Y9470085D01*
X4491939Y9464649D01*
X4263644Y9236405D01*
X4260342Y9234170D01*
X4256430Y9233408D01*
X4196384Y9233408D01*
X4190034Y9232696D01*
X4184599Y9230766D01*
X4179671Y9227718D01*
X4175607Y9223603D01*
X4172508Y9218726D01*
X4170629Y9213240D01*
X4169918Y9206941D01*
X4169918Y9081058D01*
X4170629Y9074759D01*
X4172508Y9069273D01*
X4175607Y9064396D01*
X4179671Y9060281D01*
X4184599Y9057233D01*
X4190034Y9055303D01*
X4196384Y9054592D01*
X4208221Y9054592D01*
X4212132Y9053830D01*
X4215434Y9051594D01*
X4217619Y9048343D01*
X4218381Y9044432D01*
X4218381Y8202168D01*
X4217619Y8198256D01*
X4215434Y8195005D01*
X4212132Y8192770D01*
X4208221Y8192008D01*
X4196384Y8192008D01*
X4190034Y8191296D01*
X4184599Y8189366D01*
X4179671Y8186318D01*
X4175607Y8182203D01*
X4172508Y8177326D01*
X4170629Y8171840D01*
X4169918Y8165541D01*
X4169918Y8039658D01*
X4170629Y8033359D01*
X4172508Y8027873D01*
X4175607Y8022996D01*
X4179671Y8018881D01*
X4184599Y8015833D01*
X4190034Y8013903D01*
X4196384Y8013192D01*
X4208221Y8013192D01*
X4212132Y8012430D01*
X4215434Y8010194D01*
X4217619Y8006943D01*
X4218381Y8003031D01*
X4218381Y7186168D01*
X4217619Y7182256D01*
X4215434Y7179005D01*
X4212132Y7176770D01*
X4208221Y7176008D01*
X4196384Y7176008D01*
X4190034Y7175296D01*
X4184599Y7173366D01*
X4179671Y7170318D01*
X4175607Y7166203D01*
X4172508Y7161326D01*
X4170629Y7155840D01*
X4169918Y7149541D01*
X4169918Y7023658D01*
X4170629Y7017359D01*
X4172508Y7011873D01*
X4175607Y7006996D01*
X4179671Y7002881D01*
X4184599Y6999833D01*
X4190034Y6997903D01*
X4196384Y6997192D01*
X4322216Y6997192D01*
X4328566Y6997903D01*
X4334002Y6999833D01*
X4338929Y7002881D01*
X4342993Y7006996D01*
X4346092Y7011873D01*
X4347972Y7017359D01*
X4348734Y7023658D01*
X4348734Y7149541D01*
X4347972Y7155840D01*
X4346092Y7161326D01*
X4342993Y7166203D01*
X4338929Y7170318D01*
X4334002Y7173366D01*
X4328566Y7175296D01*
X4322216Y7176008D01*
X4310380Y7176008D01*
X4306468Y7176770D01*
X4303166Y7179005D01*
X4300982Y7182256D01*
X4300220Y7186168D01*
X4300220Y8003031D01*
X4300982Y8006943D01*
X4303166Y8010194D01*
X4306468Y8012430D01*
X4310380Y8013192D01*
X4322216Y8013192D01*
X4328566Y8013903D01*
X4334002Y8015833D01*
X4338929Y8018881D01*
X4342993Y8022996D01*
X4346092Y8027873D01*
X4347972Y8033359D01*
X4348734Y8039658D01*
X4348734Y8165541D01*
X4347972Y8171840D01*
X4346092Y8177326D01*
X4342993Y8182203D01*
X4338929Y8186318D01*
X4334002Y8189366D01*
X4328566Y8191296D01*
X4322216Y8192008D01*
X4310380Y8192008D01*
X4306468Y8192770D01*
X4303166Y8195005D01*
X4300982Y8198256D01*
X4300220Y8202168D01*
X4300220Y9044432D01*
X4300982Y9048343D01*
X4303166Y9051594D01*
X4306468Y9053830D01*
X4310380Y9054592D01*
X4322216Y9054592D01*
X4328566Y9055303D01*
X4334002Y9057233D01*
X4338929Y9060281D01*
X4342993Y9064396D01*
X4346092Y9069273D01*
X4347972Y9074759D01*
X4348734Y9081058D01*
X4348734Y9201556D01*
X4349496Y9205417D01*
X4351680Y9208719D01*
X4535170Y9392208D01*
X4538472Y9394393D01*
X4542332Y9395206D01*
X5470042Y9395206D01*
X5473954Y9394393D01*
X5477256Y9392208D01*
X5690920Y9178544D01*
X5693105Y9175242D01*
X5693918Y9171330D01*
X5693918Y9081058D01*
X5694629Y9074759D01*
X5696508Y9069273D01*
X5699607Y9064396D01*
X5703671Y9060281D01*
X5708599Y9057233D01*
X5714034Y9055303D01*
X5720384Y9054592D01*
X5732221Y9054592D01*
X5736132Y9053830D01*
X5739434Y9051594D01*
X5741619Y9048343D01*
X5742381Y9044432D01*
X5742381Y8227568D01*
X5741619Y8223656D01*
X5739434Y8220405D01*
X5736132Y8218170D01*
X5732221Y8217408D01*
X5720384Y8217408D01*
X5714034Y8216696D01*
X5708599Y8214766D01*
X5703671Y8211718D01*
X5699607Y8207603D01*
X5696508Y8202726D01*
X5694629Y8197240D01*
X5693918Y8190941D01*
X5693918Y8065058D01*
X5694629Y8058759D01*
X5696508Y8053273D01*
X5699607Y8048396D01*
X5703671Y8044281D01*
X5708599Y8041233D01*
X5714034Y8039303D01*
X5720384Y8038592D01*
X5732221Y8038592D01*
X5736132Y8037830D01*
X5739434Y8035594D01*
X5741619Y8032343D01*
X5742381Y8028431D01*
X5742381Y7211568D01*
X5741619Y7207656D01*
X5739434Y7204405D01*
X5736132Y7202170D01*
X5732221Y7201408D01*
X5720384Y7201408D01*
X5714034Y7200696D01*
X5708599Y7198766D01*
X5703671Y7195718D01*
X5699607Y7191603D01*
X5696508Y7186726D01*
X5694629Y7181240D01*
X5693918Y7174941D01*
X5693918Y7049058D01*
X5694629Y7042759D01*
X5696508Y7037273D01*
X5699607Y7032396D01*
X5703671Y7028281D01*
X5708599Y7025233D01*
X5714034Y7023303D01*
X5720384Y7022592D01*
X5811520Y7022592D01*
X5815380Y7021830D01*
X5818682Y7019594D01*
X5820918Y7016343D01*
X5821680Y7012431D01*
X5820918Y7008520D01*
X5818682Y7005269D01*
X5461355Y6647891D01*
X5458053Y6645656D01*
X5454142Y6644894D01*
X5435904Y6644894D01*
X4821986Y6657187D01*
X4818176Y6658000D01*
X4814976Y6660184D01*
X4503115Y6972046D01*
X4500930Y6975348D01*
X4500118Y6979208D01*
X4500118Y7001306D01*
X4500778Y7004862D01*
X4502607Y7007961D01*
X4505401Y7010196D01*
X4507636Y7011416D01*
X4517847Y7019036D01*
X4526838Y7028078D01*
X4534509Y7038289D01*
X4540605Y7049465D01*
X4545076Y7061403D01*
X4547768Y7073900D01*
X4548682Y7086600D01*
X4547768Y7099300D01*
X4545076Y7111796D01*
X4540605Y7123734D01*
X4534509Y7134910D01*
X4526838Y7145121D01*
X4517847Y7154164D01*
X4507636Y7161784D01*
X4505502Y7162952D01*
X4502708Y7165238D01*
X4500829Y7168337D01*
X4500219Y7171893D01*
X4500219Y8017306D01*
X4500829Y8020862D01*
X4502708Y8023961D01*
X4505502Y8026247D01*
X4507636Y8027416D01*
X4517847Y8035036D01*
X4526838Y8044078D01*
X4534509Y8054289D01*
X4540605Y8065465D01*
X4545076Y8077403D01*
X4547768Y8089900D01*
X4548682Y8102600D01*
X4547768Y8115300D01*
X4545076Y8127796D01*
X4540605Y8139734D01*
X4534509Y8150910D01*
X4526838Y8161121D01*
X4517847Y8170164D01*
X4507636Y8177784D01*
X4505502Y8178952D01*
X4502708Y8181238D01*
X4500829Y8184337D01*
X4500219Y8187893D01*
X4500219Y9058706D01*
X4500829Y9062262D01*
X4502708Y9065361D01*
X4505502Y9067647D01*
X4507636Y9068816D01*
X4517847Y9076436D01*
X4526838Y9085478D01*
X4534509Y9095689D01*
X4540605Y9106865D01*
X4545076Y9118803D01*
X4547768Y9131300D01*
X4548682Y9144000D01*
X4547768Y9156700D01*
X4545076Y9169196D01*
X4540605Y9181134D01*
X4534509Y9192310D01*
X4526838Y9202521D01*
X4517847Y9211564D01*
X4507636Y9219184D01*
X4496409Y9225280D01*
X4484471Y9229750D01*
X4472025Y9232493D01*
X4459325Y9233357D01*
X4446574Y9232493D01*
X4434128Y9229750D01*
X4422190Y9225280D01*
X4410964Y9219184D01*
X4400753Y9211564D01*
X4391761Y9202521D01*
X4384090Y9192310D01*
X4377994Y9181134D01*
X4373524Y9169196D01*
X4370832Y9156700D01*
X4369917Y9144000D01*
X4370832Y9131300D01*
X4373524Y9118803D01*
X4377994Y9106865D01*
X4384090Y9095689D01*
X4391761Y9085478D01*
X4400753Y9076436D01*
X4410964Y9068816D01*
X4413097Y9067647D01*
X4415891Y9065361D01*
X4417771Y9062262D01*
X4418380Y9058706D01*
X4418380Y8187893D01*
X4417771Y8184337D01*
X4415891Y8181238D01*
X4413097Y8178952D01*
X4410964Y8177784D01*
X4400753Y8170164D01*
X4391761Y8161121D01*
X4384090Y8150910D01*
X4377994Y8139734D01*
X4373524Y8127796D01*
X4370832Y8115300D01*
X4369917Y8102600D01*
X4370832Y8089900D01*
X4373524Y8077403D01*
X4377994Y8065465D01*
X4384090Y8054289D01*
X4391761Y8044078D01*
X4400753Y8035036D01*
X4410964Y8027416D01*
X4413097Y8026247D01*
X4415891Y8023961D01*
X4417771Y8020862D01*
X4418380Y8017306D01*
X4418380Y7171893D01*
X4417771Y7168337D01*
X4415891Y7165238D01*
X4413097Y7162952D01*
X4410964Y7161784D01*
X4400753Y7154164D01*
X4391761Y7145121D01*
X4384090Y7134910D01*
X4377994Y7123734D01*
X4373524Y7111796D01*
X4370832Y7099300D01*
X4369917Y7086600D01*
X4370832Y7073900D01*
X4373524Y7061403D01*
X4377994Y7049465D01*
X4384090Y7038289D01*
X4391761Y7028078D01*
X4400753Y7019036D01*
X4410964Y7011416D01*
X4413046Y7010298D01*
X4415840Y7008012D01*
X4417669Y7004913D01*
X4418330Y7001357D01*
X4418330Y6958584D01*
X4419142Y6950100D01*
X4421479Y6942429D01*
X4425238Y6935368D01*
X4430674Y6928815D01*
X4771339Y6588099D01*
X4777181Y6583222D01*
X4784191Y6579260D01*
X4791811Y6576771D01*
X4800295Y6575806D01*
G37*
G36*
X999896Y6667093D02*
G01*
X1013510Y6667550D01*
X1026972Y6669786D01*
X1039977Y6673850D01*
X1052372Y6679590D01*
X1063853Y6686905D01*
X1074267Y6695694D01*
X1083411Y6705853D01*
X1091133Y6717080D01*
X1097280Y6729222D01*
X1101750Y6742125D01*
X1104493Y6755485D01*
X1105408Y6769100D01*
X1104493Y6782714D01*
X1101750Y6796074D01*
X1097280Y6808978D01*
X1091133Y6821119D01*
X1083411Y6832346D01*
X1074267Y6842506D01*
X1063853Y6851294D01*
X1052372Y6858609D01*
X1039977Y6864350D01*
X1026972Y6868414D01*
X1013510Y6870649D01*
X999896Y6871106D01*
X986332Y6869785D01*
X973074Y6866585D01*
X960323Y6861708D01*
X948385Y6855155D01*
X937412Y6847078D01*
X927608Y6837578D01*
X919124Y6826859D01*
X912164Y6815124D01*
X906881Y6802577D01*
X903274Y6789420D01*
X901446Y6775907D01*
X901446Y6762292D01*
X903274Y6748780D01*
X906881Y6735622D01*
X912164Y6723075D01*
X919124Y6711340D01*
X927608Y6700621D01*
X937412Y6691122D01*
X948385Y6683044D01*
X960323Y6676491D01*
X973074Y6671614D01*
X986332Y6668414D01*
G37*
G36*
X1253896Y6667093D02*
G01*
X1267510Y6667550D01*
X1280972Y6669786D01*
X1293977Y6673850D01*
X1306372Y6679590D01*
X1317853Y6686905D01*
X1328267Y6695694D01*
X1337411Y6705853D01*
X1345133Y6717080D01*
X1351280Y6729222D01*
X1355750Y6742125D01*
X1358493Y6755485D01*
X1359408Y6769100D01*
X1358493Y6782714D01*
X1355750Y6796074D01*
X1351280Y6808978D01*
X1345133Y6821119D01*
X1337411Y6832346D01*
X1328267Y6842506D01*
X1317853Y6851294D01*
X1306372Y6858609D01*
X1293977Y6864350D01*
X1280972Y6868414D01*
X1267510Y6870649D01*
X1253896Y6871106D01*
X1240332Y6869785D01*
X1227074Y6866585D01*
X1214323Y6861708D01*
X1202385Y6855155D01*
X1191412Y6847078D01*
X1181608Y6837578D01*
X1173124Y6826859D01*
X1166164Y6815124D01*
X1160881Y6802577D01*
X1157274Y6789420D01*
X1155446Y6775907D01*
X1155446Y6762292D01*
X1157274Y6748780D01*
X1160881Y6735622D01*
X1166164Y6723075D01*
X1173124Y6711340D01*
X1181608Y6700621D01*
X1191412Y6691122D01*
X1202385Y6683044D01*
X1214323Y6676491D01*
X1227074Y6671614D01*
X1240332Y6668414D01*
G37*
G36*
X7095896Y6667093D02*
G01*
X7109510Y6667550D01*
X7122972Y6669786D01*
X7135977Y6673850D01*
X7148372Y6679590D01*
X7159853Y6686905D01*
X7170267Y6695694D01*
X7179411Y6705853D01*
X7187133Y6717080D01*
X7193280Y6729222D01*
X7197750Y6742125D01*
X7200493Y6755485D01*
X7201408Y6769100D01*
X7200493Y6782714D01*
X7197750Y6796074D01*
X7193280Y6808978D01*
X7187133Y6821119D01*
X7179411Y6832346D01*
X7170267Y6842506D01*
X7159853Y6851294D01*
X7148372Y6858609D01*
X7135977Y6864350D01*
X7122972Y6868414D01*
X7109510Y6870649D01*
X7095896Y6871106D01*
X7082332Y6869785D01*
X7069074Y6866585D01*
X7056323Y6861708D01*
X7044385Y6855155D01*
X7033412Y6847078D01*
X7023608Y6837578D01*
X7015124Y6826859D01*
X7008164Y6815124D01*
X7002881Y6802577D01*
X6999274Y6789420D01*
X6997446Y6775907D01*
X6997446Y6762292D01*
X6999274Y6748780D01*
X7002881Y6735622D01*
X7008164Y6723075D01*
X7015124Y6711340D01*
X7023608Y6700621D01*
X7033412Y6691122D01*
X7044385Y6683044D01*
X7056323Y6676491D01*
X7069074Y6671614D01*
X7082332Y6668414D01*
G37*
G36*
X7349896Y6667093D02*
G01*
X7363510Y6667550D01*
X7376972Y6669786D01*
X7389977Y6673850D01*
X7402372Y6679590D01*
X7413853Y6686905D01*
X7424267Y6695694D01*
X7433411Y6705853D01*
X7441133Y6717080D01*
X7447280Y6729222D01*
X7451750Y6742125D01*
X7454493Y6755485D01*
X7455408Y6769100D01*
X7454493Y6782714D01*
X7451750Y6796074D01*
X7447280Y6808978D01*
X7441133Y6821119D01*
X7433411Y6832346D01*
X7424267Y6842506D01*
X7413853Y6851294D01*
X7402372Y6858609D01*
X7389977Y6864350D01*
X7376972Y6868414D01*
X7363510Y6870649D01*
X7349896Y6871106D01*
X7336332Y6869785D01*
X7323074Y6866585D01*
X7310323Y6861708D01*
X7298385Y6855155D01*
X7287412Y6847078D01*
X7277608Y6837578D01*
X7269124Y6826859D01*
X7262164Y6815124D01*
X7256881Y6802577D01*
X7253274Y6789420D01*
X7251446Y6775907D01*
X7251446Y6762292D01*
X7253274Y6748780D01*
X7256881Y6735622D01*
X7262164Y6723075D01*
X7269124Y6711340D01*
X7277608Y6700621D01*
X7287412Y6691122D01*
X7298385Y6683044D01*
X7310323Y6676491D01*
X7323074Y6671614D01*
X7336332Y6668414D01*
G37*
G36*
X999896Y6921093D02*
G01*
X1013510Y6921550D01*
X1026972Y6923786D01*
X1039977Y6927850D01*
X1052372Y6933590D01*
X1063853Y6940905D01*
X1074267Y6949694D01*
X1083411Y6959853D01*
X1091133Y6971080D01*
X1097280Y6983222D01*
X1101750Y6996125D01*
X1104493Y7009485D01*
X1105408Y7023100D01*
X1104493Y7036714D01*
X1101750Y7050074D01*
X1097280Y7062978D01*
X1091133Y7075119D01*
X1083411Y7086346D01*
X1074267Y7096506D01*
X1063853Y7105294D01*
X1052372Y7112609D01*
X1039977Y7118350D01*
X1026972Y7122414D01*
X1013510Y7124649D01*
X999896Y7125106D01*
X986332Y7123785D01*
X973074Y7120585D01*
X960323Y7115708D01*
X948385Y7109155D01*
X937412Y7101078D01*
X927608Y7091578D01*
X919124Y7080859D01*
X912164Y7069124D01*
X906881Y7056577D01*
X903274Y7043420D01*
X901446Y7029907D01*
X901446Y7016292D01*
X903274Y7002780D01*
X906881Y6989622D01*
X912164Y6977075D01*
X919124Y6965340D01*
X927608Y6954621D01*
X937412Y6945122D01*
X948385Y6937044D01*
X960323Y6930491D01*
X973074Y6925614D01*
X986332Y6922414D01*
G37*
G36*
X1253896Y6921093D02*
G01*
X1267510Y6921550D01*
X1280972Y6923786D01*
X1293977Y6927850D01*
X1306372Y6933590D01*
X1317853Y6940905D01*
X1328267Y6949694D01*
X1337411Y6959853D01*
X1345133Y6971080D01*
X1351280Y6983222D01*
X1355750Y6996125D01*
X1358493Y7009485D01*
X1359408Y7023100D01*
X1358493Y7036714D01*
X1355750Y7050074D01*
X1351280Y7062978D01*
X1345133Y7075119D01*
X1337411Y7086346D01*
X1328267Y7096506D01*
X1317853Y7105294D01*
X1306372Y7112609D01*
X1293977Y7118350D01*
X1280972Y7122414D01*
X1267510Y7124649D01*
X1253896Y7125106D01*
X1240332Y7123785D01*
X1227074Y7120585D01*
X1214323Y7115708D01*
X1202385Y7109155D01*
X1191412Y7101078D01*
X1181608Y7091578D01*
X1173124Y7080859D01*
X1166164Y7069124D01*
X1160881Y7056577D01*
X1157274Y7043420D01*
X1155446Y7029907D01*
X1155446Y7016292D01*
X1157274Y7002780D01*
X1160881Y6989622D01*
X1166164Y6977075D01*
X1173124Y6965340D01*
X1181608Y6954621D01*
X1191412Y6945122D01*
X1202385Y6937044D01*
X1214323Y6930491D01*
X1227074Y6925614D01*
X1240332Y6922414D01*
G37*
G36*
X7095896Y6921093D02*
G01*
X7109510Y6921550D01*
X7122972Y6923786D01*
X7135977Y6927850D01*
X7148372Y6933590D01*
X7159853Y6940905D01*
X7170267Y6949694D01*
X7179411Y6959853D01*
X7187133Y6971080D01*
X7193280Y6983222D01*
X7197750Y6996125D01*
X7200493Y7009485D01*
X7201408Y7023100D01*
X7200493Y7036714D01*
X7197750Y7050074D01*
X7193280Y7062978D01*
X7187133Y7075119D01*
X7179411Y7086346D01*
X7170267Y7096506D01*
X7159853Y7105294D01*
X7148372Y7112609D01*
X7135977Y7118350D01*
X7122972Y7122414D01*
X7109510Y7124649D01*
X7095896Y7125106D01*
X7082332Y7123785D01*
X7069074Y7120585D01*
X7056323Y7115708D01*
X7044385Y7109155D01*
X7033412Y7101078D01*
X7023608Y7091578D01*
X7015124Y7080859D01*
X7008164Y7069124D01*
X7002881Y7056577D01*
X6999274Y7043420D01*
X6997446Y7029907D01*
X6997446Y7016292D01*
X6999274Y7002780D01*
X7002881Y6989622D01*
X7008164Y6977075D01*
X7015124Y6965340D01*
X7023608Y6954621D01*
X7033412Y6945122D01*
X7044385Y6937044D01*
X7056323Y6930491D01*
X7069074Y6925614D01*
X7082332Y6922414D01*
G37*
G36*
X7349896Y6921093D02*
G01*
X7363510Y6921550D01*
X7376972Y6923786D01*
X7389977Y6927850D01*
X7402372Y6933590D01*
X7413853Y6940905D01*
X7424267Y6949694D01*
X7433411Y6959853D01*
X7441133Y6971080D01*
X7447280Y6983222D01*
X7451750Y6996125D01*
X7454493Y7009485D01*
X7455408Y7023100D01*
X7454493Y7036714D01*
X7451750Y7050074D01*
X7447280Y7062978D01*
X7441133Y7075119D01*
X7433411Y7086346D01*
X7424267Y7096506D01*
X7413853Y7105294D01*
X7402372Y7112609D01*
X7389977Y7118350D01*
X7376972Y7122414D01*
X7363510Y7124649D01*
X7349896Y7125106D01*
X7336332Y7123785D01*
X7323074Y7120585D01*
X7310323Y7115708D01*
X7298385Y7109155D01*
X7287412Y7101078D01*
X7277608Y7091578D01*
X7269124Y7080859D01*
X7262164Y7069124D01*
X7256881Y7056577D01*
X7253274Y7043420D01*
X7251446Y7029907D01*
X7251446Y7016292D01*
X7253274Y7002780D01*
X7256881Y6989622D01*
X7262164Y6977075D01*
X7269124Y6965340D01*
X7277608Y6954621D01*
X7287412Y6945122D01*
X7298385Y6937044D01*
X7310323Y6930491D01*
X7323074Y6925614D01*
X7336332Y6922414D01*
G37*
G36*
X4659325Y6997242D02*
G01*
X4672025Y6998106D01*
X4684471Y7000849D01*
X4696409Y7005320D01*
X4707636Y7011416D01*
X4717846Y7019036D01*
X4726838Y7028078D01*
X4734509Y7038289D01*
X4740605Y7049465D01*
X4745075Y7061403D01*
X4747768Y7073900D01*
X4748682Y7086600D01*
X4747768Y7099300D01*
X4745075Y7111796D01*
X4740605Y7123734D01*
X4734509Y7134910D01*
X4726838Y7145121D01*
X4717846Y7154164D01*
X4707636Y7161784D01*
X4696409Y7167880D01*
X4684471Y7172350D01*
X4672025Y7175093D01*
X4659325Y7175957D01*
X4646574Y7175093D01*
X4634128Y7172350D01*
X4622190Y7167880D01*
X4610963Y7161784D01*
X4600752Y7154164D01*
X4591761Y7145121D01*
X4584090Y7134910D01*
X4577994Y7123734D01*
X4573524Y7111796D01*
X4570831Y7099300D01*
X4569917Y7086600D01*
X4570831Y7073900D01*
X4573524Y7061403D01*
X4577994Y7049465D01*
X4584090Y7038289D01*
X4591761Y7028078D01*
X4600752Y7019036D01*
X4610963Y7011416D01*
X4622190Y7005320D01*
X4634128Y7000849D01*
X4646574Y6998106D01*
G37*
G36*
X4821224Y7005828D02*
G01*
X4821224Y7048500D01*
X4778502Y7048500D01*
X4784090Y7038289D01*
X4791760Y7028078D01*
X4800752Y7019036D01*
X4810963Y7011416D01*
G37*
G36*
X4897424Y7005828D02*
G01*
X4907635Y7011416D01*
X4917846Y7019036D01*
X4926838Y7028078D01*
X4934508Y7038289D01*
X4940096Y7048500D01*
X4897424Y7048500D01*
G37*
G36*
X6183325Y7022642D02*
G01*
X6196025Y7023506D01*
X6208471Y7026249D01*
X6220409Y7030720D01*
X6231636Y7036816D01*
X6241846Y7044436D01*
X6250838Y7053478D01*
X6258509Y7063689D01*
X6264605Y7074865D01*
X6269075Y7086803D01*
X6271768Y7099300D01*
X6272682Y7112000D01*
X6271768Y7124700D01*
X6269075Y7137196D01*
X6264605Y7149134D01*
X6258509Y7160310D01*
X6250838Y7170521D01*
X6241846Y7179564D01*
X6231636Y7187184D01*
X6220409Y7193280D01*
X6208471Y7197750D01*
X6196025Y7200493D01*
X6183325Y7201357D01*
X6170574Y7200493D01*
X6158128Y7197750D01*
X6146190Y7193280D01*
X6134963Y7187184D01*
X6124752Y7179564D01*
X6115761Y7170521D01*
X6108090Y7160310D01*
X6101994Y7149134D01*
X6097524Y7137196D01*
X6094831Y7124700D01*
X6093917Y7112000D01*
X6094831Y7099300D01*
X6097524Y7086803D01*
X6101994Y7074865D01*
X6108090Y7063689D01*
X6115761Y7053478D01*
X6124752Y7044436D01*
X6134963Y7036816D01*
X6146190Y7030720D01*
X6158128Y7026249D01*
X6170574Y7023506D01*
G37*
G36*
X6421424Y7031228D02*
G01*
X6431635Y7036816D01*
X6441846Y7044436D01*
X6450838Y7053478D01*
X6458508Y7063689D01*
X6464096Y7073900D01*
X6421424Y7073900D01*
G37*
G36*
X6345224Y7031228D02*
G01*
X6345224Y7073900D01*
X6302502Y7073900D01*
X6308090Y7063689D01*
X6315760Y7053478D01*
X6324752Y7044436D01*
X6334963Y7036816D01*
G37*
G36*
X2193950Y7103719D02*
G01*
X2200503Y7106970D01*
X2212289Y7114895D01*
X2222957Y7124242D01*
X2232304Y7134910D01*
X2240229Y7146696D01*
X2243480Y7153249D01*
X2193950Y7153249D01*
G37*
G36*
X2098700Y7103719D02*
G01*
X2098700Y7153249D01*
X2049119Y7153249D01*
X2052370Y7146696D01*
X2060295Y7134910D01*
X2069642Y7124242D01*
X2080310Y7114895D01*
X2092096Y7106970D01*
G37*
G36*
X2910941Y7115606D02*
G01*
X2910078Y7165136D01*
X2860548Y7164273D01*
X2863951Y7157720D01*
X2872028Y7146086D01*
X2881579Y7135571D01*
X2892399Y7126427D01*
X2904286Y7118756D01*
G37*
G36*
X3006191Y7117283D02*
G01*
X3012744Y7120636D01*
X3024378Y7128713D01*
X3034893Y7138263D01*
X3044037Y7149084D01*
X3051708Y7161022D01*
X3054858Y7167676D01*
X3005328Y7166813D01*
G37*
G36*
X4778502Y7124700D02*
G01*
X4821224Y7124700D01*
X4821224Y7167372D01*
X4810963Y7161784D01*
X4800752Y7154164D01*
X4791760Y7145121D01*
X4784090Y7134910D01*
G37*
G36*
X4897424Y7124700D02*
G01*
X4940096Y7124700D01*
X4934508Y7134910D01*
X4926838Y7145121D01*
X4917846Y7154164D01*
X4907635Y7161784D01*
X4897424Y7167372D01*
G37*
G36*
X6302502Y7150100D02*
G01*
X6345224Y7150100D01*
X6345224Y7192772D01*
X6334963Y7187184D01*
X6324752Y7179564D01*
X6315760Y7170521D01*
X6308090Y7160310D01*
G37*
G36*
X6421424Y7150100D02*
G01*
X6464096Y7150100D01*
X6458508Y7160310D01*
X6450838Y7170521D01*
X6441846Y7179564D01*
X6431635Y7187184D01*
X6421424Y7192772D01*
G37*
G36*
X999896Y7175093D02*
G01*
X1013510Y7175550D01*
X1026972Y7177786D01*
X1039977Y7181850D01*
X1052372Y7187590D01*
X1063853Y7194905D01*
X1074267Y7203694D01*
X1083411Y7213853D01*
X1091133Y7225080D01*
X1097280Y7237222D01*
X1101750Y7250125D01*
X1104493Y7263485D01*
X1105408Y7277100D01*
X1104493Y7290714D01*
X1101750Y7304074D01*
X1097280Y7316978D01*
X1091133Y7329119D01*
X1083411Y7340346D01*
X1074267Y7350506D01*
X1063853Y7359294D01*
X1052372Y7366609D01*
X1039977Y7372350D01*
X1026972Y7376414D01*
X1013510Y7378649D01*
X999896Y7379106D01*
X986332Y7377785D01*
X973074Y7374585D01*
X960323Y7369708D01*
X948385Y7363155D01*
X937412Y7355078D01*
X927608Y7345578D01*
X919124Y7334859D01*
X912164Y7323124D01*
X906881Y7310577D01*
X903274Y7297420D01*
X901446Y7283907D01*
X901446Y7270292D01*
X903274Y7256780D01*
X906881Y7243622D01*
X912164Y7231075D01*
X919124Y7219340D01*
X927608Y7208621D01*
X937412Y7199122D01*
X948385Y7191044D01*
X960323Y7184491D01*
X973074Y7179614D01*
X986332Y7176414D01*
G37*
G36*
X7349896Y7175093D02*
G01*
X7363510Y7175550D01*
X7376972Y7177786D01*
X7389977Y7181850D01*
X7402372Y7187590D01*
X7413853Y7194905D01*
X7424267Y7203694D01*
X7433411Y7213853D01*
X7441133Y7225080D01*
X7447280Y7237222D01*
X7451750Y7250125D01*
X7454493Y7263485D01*
X7455408Y7277100D01*
X7454493Y7290714D01*
X7451750Y7304074D01*
X7447280Y7316978D01*
X7441133Y7329119D01*
X7433411Y7340346D01*
X7424267Y7350506D01*
X7413853Y7359294D01*
X7402372Y7366609D01*
X7389977Y7372350D01*
X7376972Y7376414D01*
X7363510Y7378649D01*
X7349896Y7379106D01*
X7336332Y7377785D01*
X7323074Y7374585D01*
X7310323Y7369708D01*
X7298385Y7363155D01*
X7287412Y7355078D01*
X7277608Y7345578D01*
X7269124Y7334859D01*
X7262164Y7323124D01*
X7256881Y7310577D01*
X7253274Y7297420D01*
X7251446Y7283907D01*
X7251446Y7270292D01*
X7253274Y7256780D01*
X7256881Y7243622D01*
X7262164Y7231075D01*
X7269124Y7219340D01*
X7277608Y7208621D01*
X7287412Y7199122D01*
X7298385Y7191044D01*
X7310323Y7184491D01*
X7323074Y7179614D01*
X7336332Y7176414D01*
G37*
G36*
X7095896Y7175093D02*
G01*
X7109510Y7175550D01*
X7122972Y7177786D01*
X7135977Y7181850D01*
X7148372Y7187590D01*
X7159853Y7194905D01*
X7170267Y7203694D01*
X7179411Y7213853D01*
X7187133Y7225080D01*
X7193280Y7237222D01*
X7197750Y7250125D01*
X7200493Y7263485D01*
X7201408Y7277100D01*
X7200493Y7290714D01*
X7197750Y7304074D01*
X7193280Y7316978D01*
X7187133Y7329119D01*
X7179411Y7340346D01*
X7170267Y7350506D01*
X7159853Y7359294D01*
X7148372Y7366609D01*
X7135977Y7372350D01*
X7122972Y7376414D01*
X7109510Y7378649D01*
X7095896Y7379106D01*
X7082332Y7377785D01*
X7069074Y7374585D01*
X7056323Y7369708D01*
X7044385Y7363155D01*
X7033412Y7355078D01*
X7023608Y7345578D01*
X7015124Y7334859D01*
X7008164Y7323124D01*
X7002881Y7310577D01*
X6999274Y7297420D01*
X6997446Y7283907D01*
X6997446Y7270292D01*
X6999274Y7256780D01*
X7002881Y7243622D01*
X7008164Y7231075D01*
X7015124Y7219340D01*
X7023608Y7208621D01*
X7033412Y7199122D01*
X7044385Y7191044D01*
X7056323Y7184491D01*
X7069074Y7179614D01*
X7082332Y7176414D01*
G37*
G36*
X1212850Y7185304D02*
G01*
X1212850Y7232650D01*
X1165504Y7232650D01*
X1166164Y7231075D01*
X1173124Y7219340D01*
X1181608Y7208621D01*
X1191412Y7199122D01*
X1202385Y7191044D01*
G37*
G36*
X1301750Y7185456D02*
G01*
X1306372Y7187590D01*
X1317853Y7194905D01*
X1328267Y7203694D01*
X1337411Y7213853D01*
X1345133Y7225080D01*
X1348943Y7232650D01*
X1301750Y7232650D01*
G37*
G36*
X2193950Y7248499D02*
G01*
X2243480Y7248499D01*
X2240229Y7255103D01*
X2232304Y7266889D01*
X2222957Y7277557D01*
X2212289Y7286904D01*
X2200503Y7294829D01*
X2193950Y7298080D01*
G37*
G36*
X2049119Y7248499D02*
G01*
X2098700Y7248499D01*
X2098700Y7298080D01*
X2092096Y7294829D01*
X2080310Y7286904D01*
X2069642Y7277557D01*
X2060295Y7266889D01*
X2052370Y7255103D01*
G37*
G36*
X2858922Y7259523D02*
G01*
X2908452Y7260386D01*
X2907588Y7309916D01*
X2901035Y7306513D01*
X2889402Y7298436D01*
X2878886Y7288885D01*
X2869692Y7278065D01*
X2862021Y7266127D01*
G37*
G36*
X3003651Y7262012D02*
G01*
X3053181Y7262875D01*
X3049828Y7269429D01*
X3041751Y7281062D01*
X3032201Y7291578D01*
X3021380Y7300722D01*
X3009442Y7308443D01*
X3002788Y7311542D01*
G37*
G36*
X1301750Y7321550D02*
G01*
X1348943Y7321550D01*
X1345133Y7329119D01*
X1337411Y7340346D01*
X1328267Y7350506D01*
X1317853Y7359294D01*
X1306372Y7366609D01*
X1301750Y7368743D01*
G37*
G36*
X1165504Y7321550D02*
G01*
X1212850Y7321550D01*
X1212850Y7368895D01*
X1202385Y7363155D01*
X1191412Y7355078D01*
X1181608Y7345578D01*
X1173124Y7334859D01*
X1166164Y7323124D01*
G37*
G36*
X999896Y7429093D02*
G01*
X1013510Y7429550D01*
X1026972Y7431786D01*
X1039977Y7435850D01*
X1052372Y7441590D01*
X1063853Y7448905D01*
X1074267Y7457694D01*
X1083411Y7467853D01*
X1091133Y7479080D01*
X1097280Y7491222D01*
X1101750Y7504125D01*
X1104493Y7517485D01*
X1105408Y7531100D01*
X1104493Y7544714D01*
X1101750Y7558074D01*
X1097280Y7570978D01*
X1091133Y7583119D01*
X1083411Y7594346D01*
X1074267Y7604506D01*
X1063853Y7613294D01*
X1052372Y7620609D01*
X1039977Y7626350D01*
X1026972Y7630414D01*
X1013510Y7632649D01*
X999896Y7633106D01*
X986332Y7631785D01*
X973074Y7628585D01*
X960323Y7623708D01*
X948385Y7617155D01*
X937412Y7609078D01*
X927608Y7599578D01*
X919124Y7588859D01*
X912164Y7577124D01*
X906881Y7564577D01*
X903274Y7551420D01*
X901446Y7537907D01*
X901446Y7524292D01*
X903274Y7510780D01*
X906881Y7497622D01*
X912164Y7485075D01*
X919124Y7473340D01*
X927608Y7462621D01*
X937412Y7453122D01*
X948385Y7445044D01*
X960323Y7438491D01*
X973074Y7433614D01*
X986332Y7430414D01*
G37*
G36*
X1253896Y7429093D02*
G01*
X1267510Y7429550D01*
X1280972Y7431786D01*
X1293977Y7435850D01*
X1306372Y7441590D01*
X1317853Y7448905D01*
X1328267Y7457694D01*
X1337411Y7467853D01*
X1345133Y7479080D01*
X1351280Y7491222D01*
X1355750Y7504125D01*
X1358493Y7517485D01*
X1359408Y7531100D01*
X1358493Y7544714D01*
X1355750Y7558074D01*
X1351280Y7570978D01*
X1345133Y7583119D01*
X1337411Y7594346D01*
X1328267Y7604506D01*
X1317853Y7613294D01*
X1306372Y7620609D01*
X1293977Y7626350D01*
X1280972Y7630414D01*
X1267510Y7632649D01*
X1253896Y7633106D01*
X1240332Y7631785D01*
X1227074Y7628585D01*
X1214323Y7623708D01*
X1202385Y7617155D01*
X1191412Y7609078D01*
X1181608Y7599578D01*
X1173124Y7588859D01*
X1166164Y7577124D01*
X1160881Y7564577D01*
X1157274Y7551420D01*
X1155446Y7537907D01*
X1155446Y7524292D01*
X1157274Y7510780D01*
X1160881Y7497622D01*
X1166164Y7485075D01*
X1173124Y7473340D01*
X1181608Y7462621D01*
X1191412Y7453122D01*
X1202385Y7445044D01*
X1214323Y7438491D01*
X1227074Y7433614D01*
X1240332Y7430414D01*
G37*
G36*
X7095896Y7429093D02*
G01*
X7109510Y7429550D01*
X7122972Y7431786D01*
X7135977Y7435850D01*
X7148372Y7441590D01*
X7159853Y7448905D01*
X7170267Y7457694D01*
X7179411Y7467853D01*
X7187133Y7479080D01*
X7193280Y7491222D01*
X7197750Y7504125D01*
X7200493Y7517485D01*
X7201408Y7531100D01*
X7200493Y7544714D01*
X7197750Y7558074D01*
X7193280Y7570978D01*
X7187133Y7583119D01*
X7179411Y7594346D01*
X7170267Y7604506D01*
X7159853Y7613294D01*
X7148372Y7620609D01*
X7135977Y7626350D01*
X7122972Y7630414D01*
X7109510Y7632649D01*
X7095896Y7633106D01*
X7082332Y7631785D01*
X7069074Y7628585D01*
X7056323Y7623708D01*
X7044385Y7617155D01*
X7033412Y7609078D01*
X7023608Y7599578D01*
X7015124Y7588859D01*
X7008164Y7577124D01*
X7002881Y7564577D01*
X6999274Y7551420D01*
X6997446Y7537907D01*
X6997446Y7524292D01*
X6999274Y7510780D01*
X7002881Y7497622D01*
X7008164Y7485075D01*
X7015124Y7473340D01*
X7023608Y7462621D01*
X7033412Y7453122D01*
X7044385Y7445044D01*
X7056323Y7438491D01*
X7069074Y7433614D01*
X7082332Y7430414D01*
G37*
G36*
X7349896Y7429093D02*
G01*
X7363510Y7429550D01*
X7376972Y7431786D01*
X7389977Y7435850D01*
X7402372Y7441590D01*
X7413853Y7448905D01*
X7424267Y7457694D01*
X7433411Y7467853D01*
X7441133Y7479080D01*
X7447280Y7491222D01*
X7451750Y7504125D01*
X7454493Y7517485D01*
X7455408Y7531100D01*
X7454493Y7544714D01*
X7451750Y7558074D01*
X7447280Y7570978D01*
X7441133Y7583119D01*
X7433411Y7594346D01*
X7424267Y7604506D01*
X7413853Y7613294D01*
X7402372Y7620609D01*
X7389977Y7626350D01*
X7376972Y7630414D01*
X7363510Y7632649D01*
X7349896Y7633106D01*
X7336332Y7631785D01*
X7323074Y7628585D01*
X7310323Y7623708D01*
X7298385Y7617155D01*
X7287412Y7609078D01*
X7277608Y7599578D01*
X7269124Y7588859D01*
X7262164Y7577124D01*
X7256881Y7564577D01*
X7253274Y7551420D01*
X7251446Y7537907D01*
X7251446Y7524292D01*
X7253274Y7510780D01*
X7256881Y7497622D01*
X7262164Y7485075D01*
X7269124Y7473340D01*
X7277608Y7462621D01*
X7287412Y7453122D01*
X7298385Y7445044D01*
X7310323Y7438491D01*
X7323074Y7433614D01*
X7336332Y7430414D01*
G37*
G36*
X1253896Y7683093D02*
G01*
X1267510Y7683550D01*
X1280972Y7685786D01*
X1293977Y7689850D01*
X1306372Y7695590D01*
X1317853Y7702905D01*
X1328267Y7711694D01*
X1337411Y7721853D01*
X1345133Y7733080D01*
X1351280Y7745222D01*
X1355750Y7758125D01*
X1358493Y7771485D01*
X1359408Y7785100D01*
X1358493Y7798714D01*
X1355750Y7812074D01*
X1351280Y7824978D01*
X1345133Y7837119D01*
X1337411Y7848346D01*
X1328267Y7858506D01*
X1317853Y7867294D01*
X1306372Y7874609D01*
X1293977Y7880350D01*
X1280972Y7884414D01*
X1267510Y7886649D01*
X1253896Y7887106D01*
X1240332Y7885785D01*
X1227074Y7882585D01*
X1214323Y7877708D01*
X1202385Y7871155D01*
X1191412Y7863078D01*
X1181608Y7853578D01*
X1173124Y7842859D01*
X1166164Y7831124D01*
X1160881Y7818577D01*
X1157274Y7805420D01*
X1155446Y7791907D01*
X1155446Y7778292D01*
X1157274Y7764780D01*
X1160881Y7751622D01*
X1166164Y7739075D01*
X1173124Y7727340D01*
X1181608Y7716621D01*
X1191412Y7707122D01*
X1202385Y7699044D01*
X1214323Y7692491D01*
X1227074Y7687614D01*
X1240332Y7684414D01*
G37*
G36*
X7349896Y7683093D02*
G01*
X7363510Y7683550D01*
X7376972Y7685786D01*
X7389977Y7689850D01*
X7402372Y7695590D01*
X7413853Y7702905D01*
X7424267Y7711694D01*
X7433411Y7721853D01*
X7441133Y7733080D01*
X7447280Y7745222D01*
X7451750Y7758125D01*
X7454493Y7771485D01*
X7455408Y7785100D01*
X7454493Y7798714D01*
X7451750Y7812074D01*
X7447280Y7824978D01*
X7441133Y7837119D01*
X7433411Y7848346D01*
X7424267Y7858506D01*
X7413853Y7867294D01*
X7402372Y7874609D01*
X7389977Y7880350D01*
X7376972Y7884414D01*
X7363510Y7886649D01*
X7349896Y7887106D01*
X7336332Y7885785D01*
X7323074Y7882585D01*
X7310323Y7877708D01*
X7298385Y7871155D01*
X7287412Y7863078D01*
X7277608Y7853578D01*
X7269124Y7842859D01*
X7262164Y7831124D01*
X7256881Y7818577D01*
X7253274Y7805420D01*
X7251446Y7791907D01*
X7251446Y7778292D01*
X7253274Y7764780D01*
X7256881Y7751622D01*
X7262164Y7739075D01*
X7269124Y7727340D01*
X7277608Y7716621D01*
X7287412Y7707122D01*
X7298385Y7699044D01*
X7310323Y7692491D01*
X7323074Y7687614D01*
X7336332Y7684414D01*
G37*
G36*
X7095896Y7683093D02*
G01*
X7109510Y7683550D01*
X7122972Y7685786D01*
X7135977Y7689850D01*
X7148372Y7695590D01*
X7159853Y7702905D01*
X7170267Y7711694D01*
X7179411Y7721853D01*
X7187133Y7733080D01*
X7193280Y7745222D01*
X7197750Y7758125D01*
X7200493Y7771485D01*
X7201408Y7785100D01*
X7200493Y7798714D01*
X7197750Y7812074D01*
X7193280Y7824978D01*
X7187133Y7837119D01*
X7179411Y7848346D01*
X7170267Y7858506D01*
X7159853Y7867294D01*
X7148372Y7874609D01*
X7135977Y7880350D01*
X7122972Y7884414D01*
X7109510Y7886649D01*
X7095896Y7887106D01*
X7082332Y7885785D01*
X7069074Y7882585D01*
X7056323Y7877708D01*
X7044385Y7871155D01*
X7033412Y7863078D01*
X7023608Y7853578D01*
X7015124Y7842859D01*
X7008164Y7831124D01*
X7002881Y7818577D01*
X6999274Y7805420D01*
X6997446Y7791907D01*
X6997446Y7778292D01*
X6999274Y7764780D01*
X7002881Y7751622D01*
X7008164Y7739075D01*
X7015124Y7727340D01*
X7023608Y7716621D01*
X7033412Y7707122D01*
X7044385Y7699044D01*
X7056323Y7692491D01*
X7069074Y7687614D01*
X7082332Y7684414D01*
G37*
G36*
X999896Y7683093D02*
G01*
X1013510Y7683550D01*
X1026972Y7685786D01*
X1039977Y7689850D01*
X1052372Y7695590D01*
X1063853Y7702905D01*
X1074267Y7711694D01*
X1083411Y7721853D01*
X1091133Y7733080D01*
X1097280Y7745222D01*
X1101750Y7758125D01*
X1104493Y7771485D01*
X1105408Y7785100D01*
X1104493Y7798714D01*
X1101750Y7812074D01*
X1097280Y7824978D01*
X1091133Y7837119D01*
X1083411Y7848346D01*
X1074267Y7858506D01*
X1063853Y7867294D01*
X1052372Y7874609D01*
X1039977Y7880350D01*
X1026972Y7884414D01*
X1013510Y7886649D01*
X999896Y7887106D01*
X986332Y7885785D01*
X973074Y7882585D01*
X960323Y7877708D01*
X948385Y7871155D01*
X941527Y7866125D01*
X938326Y7864551D01*
X934770Y7864144D01*
X931265Y7865059D01*
X928319Y7867091D01*
X920191Y7875270D01*
X918006Y7878572D01*
X917194Y7882432D01*
X917194Y7956702D01*
X917956Y7960563D01*
X920140Y7963865D01*
X923391Y7966049D01*
X927252Y7966862D01*
X931113Y7966151D01*
X934415Y7964017D01*
X937412Y7961122D01*
X948385Y7953044D01*
X960323Y7946491D01*
X973074Y7941614D01*
X986332Y7938414D01*
X999896Y7937093D01*
X1013510Y7937550D01*
X1026972Y7939786D01*
X1039977Y7943850D01*
X1052372Y7949590D01*
X1063853Y7956905D01*
X1074267Y7965694D01*
X1083411Y7975853D01*
X1091133Y7987080D01*
X1097280Y7999222D01*
X1101750Y8012125D01*
X1104493Y8025485D01*
X1105408Y8039100D01*
X1104493Y8052714D01*
X1101750Y8066074D01*
X1100328Y8070189D01*
X1099769Y8073898D01*
X1100632Y8077555D01*
X1102766Y8080705D01*
X1131570Y8109508D01*
X1134872Y8111693D01*
X1138732Y8112506D01*
X1164539Y8112506D01*
X1168704Y8111591D01*
X1172159Y8109102D01*
X1174242Y8105394D01*
X1174648Y8101177D01*
X1173327Y8097164D01*
X1166164Y8085124D01*
X1160881Y8072577D01*
X1157274Y8059420D01*
X1155446Y8045907D01*
X1155446Y8032292D01*
X1157274Y8018780D01*
X1160881Y8005622D01*
X1166164Y7993075D01*
X1173124Y7981340D01*
X1181608Y7970621D01*
X1191412Y7961122D01*
X1202385Y7953044D01*
X1214323Y7946491D01*
X1227074Y7941614D01*
X1240332Y7938414D01*
X1253896Y7937093D01*
X1267510Y7937550D01*
X1280972Y7939786D01*
X1293977Y7943850D01*
X1306372Y7949590D01*
X1317853Y7956905D01*
X1328267Y7965694D01*
X1331620Y7969402D01*
X1334617Y7971688D01*
X1338224Y7972704D01*
X1341932Y7972348D01*
X1423670Y7949031D01*
X1427022Y7948218D01*
X1431848Y7947558D01*
X1435303Y7947406D01*
X2351532Y7947406D01*
X2355443Y7946593D01*
X2358694Y7944408D01*
X2360930Y7941106D01*
X2361692Y7937246D01*
X2361692Y7899958D01*
X2362403Y7893659D01*
X2364333Y7888173D01*
X2367381Y7883296D01*
X2371496Y7879181D01*
X2376373Y7876133D01*
X2381859Y7874203D01*
X2388158Y7873492D01*
X2564841Y7873492D01*
X2571140Y7874203D01*
X2576626Y7876133D01*
X2581503Y7879181D01*
X2585618Y7883296D01*
X2588666Y7888173D01*
X2590596Y7893659D01*
X2591308Y7899958D01*
X2591308Y8076641D01*
X2590596Y8082940D01*
X2588666Y8088426D01*
X2585618Y8093303D01*
X2581503Y8097418D01*
X2576626Y8100466D01*
X2571140Y8102396D01*
X2564841Y8103108D01*
X2388158Y8103108D01*
X2381859Y8102396D01*
X2376373Y8100466D01*
X2371496Y8097418D01*
X2367381Y8093303D01*
X2364333Y8088426D01*
X2362403Y8082940D01*
X2361692Y8076641D01*
X2361692Y8039353D01*
X2360930Y8035493D01*
X2358694Y8032191D01*
X2355443Y8029956D01*
X2351532Y8029194D01*
X1442262Y8029194D01*
X1439468Y8029600D01*
X1364386Y8051038D01*
X1361084Y8052663D01*
X1358595Y8055356D01*
X1357223Y8058810D01*
X1355750Y8066074D01*
X1351280Y8078978D01*
X1345133Y8091119D01*
X1341374Y8096605D01*
X1339748Y8100618D01*
X1339951Y8105038D01*
X1341983Y8108899D01*
X1345488Y8111540D01*
X1349756Y8112506D01*
X1472692Y8112506D01*
X1481175Y8113318D01*
X1488846Y8115655D01*
X1495907Y8119414D01*
X1502460Y8124850D01*
X1576070Y8198408D01*
X1579372Y8200593D01*
X1583232Y8201406D01*
X2351532Y8201406D01*
X2355443Y8200593D01*
X2358694Y8198408D01*
X2360930Y8195106D01*
X2361692Y8191246D01*
X2361692Y8153958D01*
X2362403Y8147659D01*
X2364333Y8142173D01*
X2367381Y8137296D01*
X2371496Y8133181D01*
X2376373Y8130133D01*
X2381859Y8128203D01*
X2388158Y8127492D01*
X2564841Y8127492D01*
X2571140Y8128203D01*
X2576626Y8130133D01*
X2581503Y8133181D01*
X2585618Y8137296D01*
X2588666Y8142173D01*
X2590596Y8147659D01*
X2591308Y8153958D01*
X2591308Y8330641D01*
X2590596Y8336940D01*
X2588666Y8342426D01*
X2585618Y8347303D01*
X2581503Y8351418D01*
X2576626Y8354466D01*
X2571140Y8356396D01*
X2564841Y8357108D01*
X2388158Y8357108D01*
X2381859Y8356396D01*
X2376373Y8354466D01*
X2371496Y8351418D01*
X2367381Y8347303D01*
X2364333Y8342426D01*
X2362403Y8336940D01*
X2361692Y8330641D01*
X2361692Y8293353D01*
X2360930Y8289493D01*
X2358694Y8286191D01*
X2355443Y8283956D01*
X2351532Y8283194D01*
X1562608Y8283194D01*
X1554124Y8282381D01*
X1546453Y8280044D01*
X1539392Y8276285D01*
X1532839Y8270849D01*
X1459230Y8197291D01*
X1455928Y8195056D01*
X1452067Y8194294D01*
X1325981Y8194294D01*
X1321968Y8195157D01*
X1318564Y8197494D01*
X1316431Y8200999D01*
X1315821Y8205012D01*
X1316888Y8208975D01*
X1319428Y8212226D01*
X1328267Y8219694D01*
X1337411Y8229853D01*
X1345133Y8241080D01*
X1351280Y8253222D01*
X1355750Y8266125D01*
X1358493Y8279485D01*
X1359408Y8293100D01*
X1358493Y8306714D01*
X1355750Y8320074D01*
X1351280Y8332978D01*
X1345133Y8345119D01*
X1337411Y8356346D01*
X1328267Y8366506D01*
X1317853Y8375294D01*
X1306372Y8382609D01*
X1293977Y8388350D01*
X1280972Y8392414D01*
X1267510Y8394649D01*
X1253896Y8395106D01*
X1240332Y8393785D01*
X1227074Y8390585D01*
X1214323Y8385708D01*
X1202385Y8379155D01*
X1191412Y8371078D01*
X1181608Y8361578D01*
X1173124Y8350859D01*
X1166164Y8339124D01*
X1160881Y8326577D01*
X1157274Y8313420D01*
X1155446Y8299907D01*
X1155446Y8286292D01*
X1157274Y8272780D01*
X1160881Y8259622D01*
X1166164Y8247075D01*
X1173124Y8235340D01*
X1181608Y8224621D01*
X1191412Y8215122D01*
X1194765Y8212632D01*
X1197559Y8209483D01*
X1198880Y8205470D01*
X1198422Y8201304D01*
X1196289Y8197646D01*
X1192885Y8195157D01*
X1188770Y8194294D01*
X1118108Y8194294D01*
X1109624Y8193481D01*
X1101953Y8191144D01*
X1094892Y8187385D01*
X1088339Y8181949D01*
X1044854Y8138515D01*
X1041857Y8136432D01*
X1038301Y8135569D01*
X1034694Y8136026D01*
X1026972Y8138414D01*
X1013510Y8140649D01*
X999896Y8141106D01*
X986332Y8139785D01*
X973074Y8136585D01*
X960323Y8131708D01*
X948385Y8125155D01*
X937412Y8117078D01*
X934415Y8114182D01*
X931113Y8112048D01*
X927252Y8111337D01*
X923391Y8112150D01*
X920140Y8114334D01*
X917956Y8117636D01*
X917194Y8121497D01*
X917194Y8210702D01*
X917956Y8214563D01*
X920140Y8217865D01*
X923391Y8220049D01*
X927252Y8220862D01*
X931113Y8220151D01*
X934415Y8218017D01*
X937412Y8215122D01*
X948385Y8207044D01*
X960323Y8200491D01*
X973074Y8195614D01*
X986332Y8192414D01*
X999896Y8191093D01*
X1013510Y8191550D01*
X1026972Y8193786D01*
X1039977Y8197850D01*
X1052372Y8203590D01*
X1063853Y8210905D01*
X1074267Y8219694D01*
X1083411Y8229853D01*
X1091133Y8241080D01*
X1097280Y8253222D01*
X1101750Y8266125D01*
X1104493Y8279485D01*
X1105408Y8293100D01*
X1104493Y8306714D01*
X1101750Y8320074D01*
X1097280Y8332978D01*
X1091133Y8345119D01*
X1083411Y8356346D01*
X1074267Y8366506D01*
X1063853Y8375294D01*
X1052372Y8382609D01*
X1039977Y8388350D01*
X1026972Y8392414D01*
X1013510Y8394649D01*
X999896Y8395106D01*
X986332Y8393785D01*
X973074Y8390585D01*
X960323Y8385708D01*
X948385Y8379155D01*
X937412Y8371078D01*
X934415Y8368182D01*
X931113Y8366048D01*
X927252Y8365337D01*
X923391Y8366150D01*
X920140Y8368334D01*
X917956Y8371636D01*
X917194Y8375497D01*
X917194Y8464702D01*
X917956Y8468563D01*
X920140Y8471865D01*
X923391Y8474049D01*
X927252Y8474862D01*
X931113Y8474151D01*
X934415Y8472017D01*
X937412Y8469122D01*
X948385Y8461044D01*
X960323Y8454491D01*
X973074Y8449614D01*
X986332Y8446414D01*
X999896Y8445093D01*
X1013510Y8445550D01*
X1026972Y8447786D01*
X1039977Y8451850D01*
X1052372Y8457590D01*
X1063853Y8464905D01*
X1074267Y8473694D01*
X1083411Y8483854D01*
X1091133Y8495080D01*
X1097280Y8507222D01*
X1101750Y8520125D01*
X1104493Y8533485D01*
X1105408Y8547100D01*
X1104493Y8560714D01*
X1101750Y8574074D01*
X1097280Y8586978D01*
X1091133Y8599119D01*
X1087374Y8604605D01*
X1085748Y8608618D01*
X1085951Y8613038D01*
X1087983Y8616899D01*
X1091488Y8619540D01*
X1095756Y8620506D01*
X1164539Y8620506D01*
X1168704Y8619591D01*
X1172159Y8617102D01*
X1174242Y8613394D01*
X1174648Y8609177D01*
X1173327Y8605164D01*
X1166164Y8593124D01*
X1160881Y8580577D01*
X1157274Y8567420D01*
X1155446Y8553907D01*
X1155446Y8540292D01*
X1157274Y8526780D01*
X1160881Y8513622D01*
X1166164Y8501075D01*
X1173124Y8489340D01*
X1181608Y8478621D01*
X1191412Y8469122D01*
X1202385Y8461044D01*
X1214323Y8454491D01*
X1227074Y8449614D01*
X1240332Y8446414D01*
X1253896Y8445093D01*
X1267510Y8445550D01*
X1280972Y8447786D01*
X1293977Y8451850D01*
X1306372Y8457590D01*
X1317853Y8464905D01*
X1328267Y8473694D01*
X1337411Y8483854D01*
X1345133Y8495080D01*
X1351280Y8507222D01*
X1355750Y8520125D01*
X1358493Y8533485D01*
X1359408Y8547100D01*
X1358493Y8560714D01*
X1355750Y8574074D01*
X1351280Y8586978D01*
X1345133Y8599119D01*
X1341374Y8604605D01*
X1339748Y8608618D01*
X1339951Y8613038D01*
X1341983Y8616899D01*
X1345488Y8619540D01*
X1349756Y8620506D01*
X2323592Y8620506D01*
X2332075Y8621318D01*
X2339746Y8623655D01*
X2346807Y8627414D01*
X2353360Y8632850D01*
X2359761Y8639200D01*
X2362555Y8641181D01*
X2365806Y8642146D01*
X2369210Y8641943D01*
X2372360Y8640622D01*
X2376373Y8638133D01*
X2381859Y8636203D01*
X2388158Y8635492D01*
X2564841Y8635492D01*
X2571140Y8636203D01*
X2576626Y8638133D01*
X2581503Y8641181D01*
X2585618Y8645296D01*
X2588666Y8650173D01*
X2590596Y8655659D01*
X2591308Y8661958D01*
X2591308Y8838641D01*
X2590596Y8844940D01*
X2588666Y8850426D01*
X2585618Y8855303D01*
X2581503Y8859418D01*
X2576626Y8862466D01*
X2571140Y8864396D01*
X2564841Y8865108D01*
X2388158Y8865108D01*
X2381859Y8864396D01*
X2376373Y8862466D01*
X2371496Y8859418D01*
X2367381Y8855303D01*
X2364333Y8850426D01*
X2362403Y8844940D01*
X2361692Y8838641D01*
X2361692Y8761069D01*
X2360930Y8757158D01*
X2358694Y8753856D01*
X2310130Y8705291D01*
X2306828Y8703056D01*
X2302967Y8702294D01*
X1325981Y8702294D01*
X1321968Y8703157D01*
X1318564Y8705494D01*
X1316431Y8708999D01*
X1315821Y8713012D01*
X1316888Y8716975D01*
X1319428Y8720226D01*
X1328267Y8727694D01*
X1337411Y8737854D01*
X1345133Y8749080D01*
X1351280Y8761222D01*
X1355750Y8774125D01*
X1358493Y8787485D01*
X1359408Y8801100D01*
X1358493Y8814714D01*
X1355750Y8828074D01*
X1351280Y8840978D01*
X1345133Y8853119D01*
X1337411Y8864346D01*
X1328267Y8874506D01*
X1317853Y8883294D01*
X1306372Y8890609D01*
X1293977Y8896350D01*
X1280972Y8900414D01*
X1267510Y8902649D01*
X1253896Y8903106D01*
X1240332Y8901785D01*
X1227074Y8898585D01*
X1214323Y8893708D01*
X1202385Y8887155D01*
X1191412Y8879078D01*
X1181608Y8869578D01*
X1173124Y8858859D01*
X1166164Y8847124D01*
X1160881Y8834577D01*
X1157274Y8821420D01*
X1155446Y8807907D01*
X1155446Y8794292D01*
X1157274Y8780780D01*
X1160881Y8767622D01*
X1166164Y8755075D01*
X1173124Y8743340D01*
X1181608Y8732621D01*
X1191412Y8723122D01*
X1194765Y8720632D01*
X1197559Y8717483D01*
X1198880Y8713470D01*
X1198422Y8709304D01*
X1196289Y8705646D01*
X1192885Y8703157D01*
X1188770Y8702294D01*
X1071981Y8702294D01*
X1067968Y8703157D01*
X1064564Y8705494D01*
X1062431Y8708999D01*
X1061821Y8713012D01*
X1062888Y8716975D01*
X1065428Y8720226D01*
X1074267Y8727694D01*
X1083411Y8737854D01*
X1091133Y8749080D01*
X1097280Y8761222D01*
X1101750Y8774125D01*
X1104493Y8787485D01*
X1105408Y8801100D01*
X1104493Y8814714D01*
X1101750Y8828074D01*
X1097280Y8840978D01*
X1091133Y8853119D01*
X1083411Y8864346D01*
X1074267Y8874506D01*
X1063853Y8883294D01*
X1052372Y8890609D01*
X1039977Y8896350D01*
X1026972Y8900414D01*
X1013510Y8902649D01*
X999896Y8903106D01*
X986332Y8901785D01*
X973074Y8898585D01*
X960323Y8893708D01*
X948385Y8887155D01*
X937412Y8879078D01*
X927608Y8869578D01*
X919124Y8858859D01*
X912164Y8847124D01*
X906881Y8834577D01*
X903274Y8821420D01*
X901446Y8807907D01*
X901446Y8794292D01*
X903274Y8780780D01*
X906881Y8767622D01*
X912164Y8755075D01*
X919124Y8743340D01*
X927608Y8732621D01*
X937412Y8723122D01*
X948436Y8714994D01*
X951128Y8711996D01*
X952449Y8708136D01*
X952195Y8704072D01*
X950315Y8700465D01*
X947166Y8697874D01*
X942492Y8695385D01*
X935939Y8689949D01*
X847750Y8601760D01*
X842314Y8595207D01*
X838555Y8588146D01*
X836218Y8580475D01*
X835406Y8571992D01*
X835406Y7861808D01*
X836218Y7853324D01*
X838555Y7845653D01*
X842314Y7838592D01*
X847750Y7832039D01*
X899007Y7780731D01*
X900937Y7778038D01*
X901903Y7774889D01*
X903274Y7764780D01*
X906881Y7751622D01*
X912164Y7739075D01*
X919124Y7727340D01*
X927608Y7716621D01*
X937412Y7707122D01*
X948385Y7699044D01*
X960323Y7692491D01*
X973074Y7687614D01*
X986332Y7684414D01*
G37*
G36*
X7349896Y7937093D02*
G01*
X7363510Y7937550D01*
X7376972Y7939786D01*
X7389977Y7943850D01*
X7402372Y7949590D01*
X7413853Y7956905D01*
X7424267Y7965694D01*
X7433411Y7975853D01*
X7441133Y7987080D01*
X7447280Y7999222D01*
X7451750Y8012125D01*
X7454493Y8025485D01*
X7455408Y8039100D01*
X7454493Y8052714D01*
X7451750Y8066074D01*
X7447280Y8078978D01*
X7441133Y8091119D01*
X7433411Y8102346D01*
X7424267Y8112506D01*
X7413853Y8121294D01*
X7402372Y8128609D01*
X7389977Y8134350D01*
X7376972Y8138414D01*
X7363510Y8140649D01*
X7349896Y8141106D01*
X7336332Y8139785D01*
X7323074Y8136585D01*
X7310323Y8131708D01*
X7298385Y8125155D01*
X7287412Y8117078D01*
X7277608Y8107578D01*
X7269124Y8096859D01*
X7262164Y8085124D01*
X7256881Y8072577D01*
X7253274Y8059420D01*
X7251446Y8045907D01*
X7251446Y8032292D01*
X7253274Y8018780D01*
X7256881Y8005622D01*
X7262164Y7993075D01*
X7269124Y7981340D01*
X7277608Y7970621D01*
X7287412Y7961122D01*
X7298385Y7953044D01*
X7310323Y7946491D01*
X7323074Y7941614D01*
X7336332Y7938414D01*
G37*
G36*
X7095896Y7937093D02*
G01*
X7109510Y7937550D01*
X7122972Y7939786D01*
X7135977Y7943850D01*
X7148372Y7949590D01*
X7159853Y7956905D01*
X7170267Y7965694D01*
X7179411Y7975853D01*
X7187133Y7987080D01*
X7193280Y7999222D01*
X7197750Y8012125D01*
X7200493Y8025485D01*
X7201408Y8039100D01*
X7200493Y8052714D01*
X7197750Y8066074D01*
X7193280Y8078978D01*
X7187133Y8091119D01*
X7179411Y8102346D01*
X7170267Y8112506D01*
X7159853Y8121294D01*
X7148372Y8128609D01*
X7135977Y8134350D01*
X7122972Y8138414D01*
X7109510Y8140649D01*
X7095896Y8141106D01*
X7082332Y8139785D01*
X7069074Y8136585D01*
X7056323Y8131708D01*
X7044385Y8125155D01*
X7033412Y8117078D01*
X7023608Y8107578D01*
X7015124Y8096859D01*
X7008164Y8085124D01*
X7002881Y8072577D01*
X6999274Y8059420D01*
X6997446Y8045907D01*
X6997446Y8032292D01*
X6999274Y8018780D01*
X7002881Y8005622D01*
X7008164Y7993075D01*
X7015124Y7981340D01*
X7023608Y7970621D01*
X7033412Y7961122D01*
X7044385Y7953044D01*
X7056323Y7946491D01*
X7069074Y7941614D01*
X7082332Y7938414D01*
G37*
G36*
X4659325Y8013242D02*
G01*
X4672025Y8014106D01*
X4684471Y8016849D01*
X4696409Y8021320D01*
X4707636Y8027416D01*
X4717846Y8035036D01*
X4726838Y8044078D01*
X4734509Y8054289D01*
X4740605Y8065465D01*
X4745075Y8077403D01*
X4747768Y8089900D01*
X4748682Y8102600D01*
X4747768Y8115300D01*
X4745075Y8127796D01*
X4740605Y8139734D01*
X4734509Y8150910D01*
X4726838Y8161121D01*
X4717846Y8170164D01*
X4707636Y8177784D01*
X4696409Y8183880D01*
X4684471Y8188350D01*
X4672025Y8191093D01*
X4659325Y8191957D01*
X4646574Y8191093D01*
X4634128Y8188350D01*
X4622190Y8183880D01*
X4610963Y8177784D01*
X4600752Y8170164D01*
X4591761Y8161121D01*
X4584090Y8150910D01*
X4577994Y8139734D01*
X4573524Y8127796D01*
X4570831Y8115300D01*
X4569917Y8102600D01*
X4570831Y8089900D01*
X4573524Y8077403D01*
X4577994Y8065465D01*
X4584090Y8054289D01*
X4591761Y8044078D01*
X4600752Y8035036D01*
X4610963Y8027416D01*
X4622190Y8021320D01*
X4634128Y8016849D01*
X4646574Y8014106D01*
G37*
G36*
X4821224Y8021828D02*
G01*
X4821224Y8064500D01*
X4778502Y8064500D01*
X4784090Y8054289D01*
X4791760Y8044078D01*
X4800752Y8035036D01*
X4810963Y8027416D01*
G37*
G36*
X4897424Y8021828D02*
G01*
X4907635Y8027416D01*
X4917846Y8035036D01*
X4926838Y8044078D01*
X4934508Y8054289D01*
X4940096Y8064500D01*
X4897424Y8064500D01*
G37*
G36*
X6183325Y8038642D02*
G01*
X6196025Y8039506D01*
X6208471Y8042249D01*
X6220409Y8046720D01*
X6231636Y8052816D01*
X6241846Y8060436D01*
X6250838Y8069478D01*
X6258509Y8079689D01*
X6264605Y8090865D01*
X6269075Y8102803D01*
X6271768Y8115300D01*
X6272682Y8128000D01*
X6271768Y8140700D01*
X6269075Y8153196D01*
X6264605Y8165134D01*
X6258509Y8176310D01*
X6250838Y8186521D01*
X6241846Y8195564D01*
X6231636Y8203184D01*
X6220409Y8209280D01*
X6208471Y8213750D01*
X6196025Y8216493D01*
X6183325Y8217357D01*
X6170574Y8216493D01*
X6158128Y8213750D01*
X6146190Y8209280D01*
X6134963Y8203184D01*
X6124752Y8195564D01*
X6115761Y8186521D01*
X6108090Y8176310D01*
X6101994Y8165134D01*
X6097524Y8153196D01*
X6094831Y8140700D01*
X6093917Y8128000D01*
X6094831Y8115300D01*
X6097524Y8102803D01*
X6101994Y8090865D01*
X6108090Y8079689D01*
X6115761Y8069478D01*
X6124752Y8060436D01*
X6134963Y8052816D01*
X6146190Y8046720D01*
X6158128Y8042249D01*
X6170574Y8039506D01*
G37*
G36*
X6421424Y8047228D02*
G01*
X6431635Y8052816D01*
X6441846Y8060436D01*
X6450838Y8069478D01*
X6458508Y8079689D01*
X6464096Y8089900D01*
X6421424Y8089900D01*
G37*
G36*
X6345224Y8047228D02*
G01*
X6345224Y8089900D01*
X6302502Y8089900D01*
X6308090Y8079689D01*
X6315760Y8069478D01*
X6324752Y8060436D01*
X6334963Y8052816D01*
G37*
G36*
X4778502Y8140700D02*
G01*
X4821224Y8140700D01*
X4821224Y8183372D01*
X4810963Y8177784D01*
X4800752Y8170164D01*
X4791760Y8161121D01*
X4784090Y8150910D01*
G37*
G36*
X4897424Y8140700D02*
G01*
X4940096Y8140700D01*
X4934508Y8150910D01*
X4926838Y8161121D01*
X4917846Y8170164D01*
X4907635Y8177784D01*
X4897424Y8183372D01*
G37*
G36*
X6421424Y8166100D02*
G01*
X6464096Y8166100D01*
X6458508Y8176310D01*
X6450838Y8186521D01*
X6441846Y8195564D01*
X6431635Y8203184D01*
X6421424Y8208772D01*
G37*
G36*
X6302502Y8166100D02*
G01*
X6345224Y8166100D01*
X6345224Y8208772D01*
X6334963Y8203184D01*
X6324752Y8195564D01*
X6315760Y8186521D01*
X6308090Y8176310D01*
G37*
G36*
X7349896Y8191093D02*
G01*
X7363510Y8191550D01*
X7376972Y8193786D01*
X7389977Y8197850D01*
X7402372Y8203590D01*
X7413853Y8210905D01*
X7424267Y8219694D01*
X7433411Y8229853D01*
X7441133Y8241080D01*
X7447280Y8253222D01*
X7451750Y8266125D01*
X7454493Y8279485D01*
X7455408Y8293100D01*
X7454493Y8306714D01*
X7451750Y8320074D01*
X7447280Y8332978D01*
X7441133Y8345119D01*
X7433411Y8356346D01*
X7424267Y8366506D01*
X7413853Y8375294D01*
X7402372Y8382609D01*
X7389977Y8388350D01*
X7376972Y8392414D01*
X7363510Y8394649D01*
X7349896Y8395106D01*
X7336332Y8393785D01*
X7323074Y8390585D01*
X7310323Y8385708D01*
X7298385Y8379155D01*
X7287412Y8371078D01*
X7277608Y8361578D01*
X7269124Y8350859D01*
X7262164Y8339124D01*
X7256881Y8326577D01*
X7253274Y8313420D01*
X7251446Y8299907D01*
X7251446Y8286292D01*
X7253274Y8272780D01*
X7256881Y8259622D01*
X7262164Y8247075D01*
X7269124Y8235340D01*
X7277608Y8224621D01*
X7287412Y8215122D01*
X7298385Y8207044D01*
X7310323Y8200491D01*
X7323074Y8195614D01*
X7336332Y8192414D01*
G37*
G36*
X7095896Y8191093D02*
G01*
X7109510Y8191550D01*
X7122972Y8193786D01*
X7135977Y8197850D01*
X7148372Y8203590D01*
X7159853Y8210905D01*
X7170267Y8219694D01*
X7179411Y8229853D01*
X7187133Y8241080D01*
X7193280Y8253222D01*
X7197750Y8266125D01*
X7200493Y8279485D01*
X7201408Y8293100D01*
X7200493Y8306714D01*
X7197750Y8320074D01*
X7193280Y8332978D01*
X7187133Y8345119D01*
X7179411Y8356346D01*
X7170267Y8366506D01*
X7159853Y8375294D01*
X7148372Y8382609D01*
X7135977Y8388350D01*
X7122972Y8392414D01*
X7109510Y8394649D01*
X7095896Y8395106D01*
X7082332Y8393785D01*
X7069074Y8390585D01*
X7056323Y8385708D01*
X7044385Y8379155D01*
X7033412Y8371078D01*
X7023608Y8361578D01*
X7015124Y8350859D01*
X7008164Y8339124D01*
X7002881Y8326577D01*
X6999274Y8313420D01*
X6997446Y8299907D01*
X6997446Y8286292D01*
X6999274Y8272780D01*
X7002881Y8259622D01*
X7008164Y8247075D01*
X7015124Y8235340D01*
X7023608Y8224621D01*
X7033412Y8215122D01*
X7044385Y8207044D01*
X7056323Y8200491D01*
X7069074Y8195614D01*
X7082332Y8192414D01*
G37*
G36*
X2527300Y8381492D02*
G01*
X2564841Y8381492D01*
X2571140Y8382203D01*
X2576626Y8384133D01*
X2581503Y8387181D01*
X2585618Y8391296D01*
X2588666Y8396173D01*
X2590596Y8401659D01*
X2591308Y8407958D01*
X2591308Y8445500D01*
X2527300Y8445500D01*
G37*
G36*
X2388158Y8381492D02*
G01*
X2425700Y8381492D01*
X2425700Y8445500D01*
X2361692Y8445500D01*
X2361692Y8407958D01*
X2362403Y8401659D01*
X2364333Y8396173D01*
X2367381Y8391296D01*
X2371496Y8387181D01*
X2376373Y8384133D01*
X2381859Y8382203D01*
G37*
G36*
X7349896Y8445093D02*
G01*
X7363510Y8445550D01*
X7376972Y8447786D01*
X7389977Y8451850D01*
X7402372Y8457590D01*
X7413853Y8464905D01*
X7424267Y8473694D01*
X7433411Y8483854D01*
X7441133Y8495080D01*
X7447280Y8507222D01*
X7451750Y8520125D01*
X7454493Y8533485D01*
X7455408Y8547100D01*
X7454493Y8560714D01*
X7451750Y8574074D01*
X7447280Y8586978D01*
X7441133Y8599119D01*
X7433411Y8610346D01*
X7424267Y8620506D01*
X7413853Y8629294D01*
X7402372Y8636609D01*
X7389977Y8642350D01*
X7376972Y8646414D01*
X7363510Y8648649D01*
X7349896Y8649106D01*
X7336332Y8647785D01*
X7323074Y8644585D01*
X7310323Y8639708D01*
X7298385Y8633155D01*
X7287412Y8625078D01*
X7277608Y8615578D01*
X7269124Y8604859D01*
X7262164Y8593124D01*
X7256881Y8580577D01*
X7253274Y8567420D01*
X7251446Y8553907D01*
X7251446Y8540292D01*
X7253274Y8526780D01*
X7256881Y8513622D01*
X7262164Y8501075D01*
X7269124Y8489340D01*
X7277608Y8478621D01*
X7287412Y8469122D01*
X7298385Y8461044D01*
X7310323Y8454491D01*
X7323074Y8449614D01*
X7336332Y8446414D01*
G37*
G36*
X7095896Y8445093D02*
G01*
X7109510Y8445550D01*
X7122972Y8447786D01*
X7135977Y8451850D01*
X7148372Y8457590D01*
X7159853Y8464905D01*
X7170267Y8473694D01*
X7179411Y8483854D01*
X7187133Y8495080D01*
X7193280Y8507222D01*
X7197750Y8520125D01*
X7200493Y8533485D01*
X7201408Y8547100D01*
X7200493Y8560714D01*
X7197750Y8574074D01*
X7193280Y8586978D01*
X7187133Y8599119D01*
X7179411Y8610346D01*
X7170267Y8620506D01*
X7159853Y8629294D01*
X7148372Y8636609D01*
X7135977Y8642350D01*
X7122972Y8646414D01*
X7109510Y8648649D01*
X7095896Y8649106D01*
X7082332Y8647785D01*
X7069074Y8644585D01*
X7056323Y8639708D01*
X7044385Y8633155D01*
X7033412Y8625078D01*
X7023608Y8615578D01*
X7015124Y8604859D01*
X7008164Y8593124D01*
X7002881Y8580577D01*
X6999274Y8567420D01*
X6997446Y8553907D01*
X6997446Y8540292D01*
X6999274Y8526780D01*
X7002881Y8513622D01*
X7008164Y8501075D01*
X7015124Y8489340D01*
X7023608Y8478621D01*
X7033412Y8469122D01*
X7044385Y8461044D01*
X7056323Y8454491D01*
X7069074Y8449614D01*
X7082332Y8446414D01*
G37*
G36*
X2361692Y8547100D02*
G01*
X2425700Y8547100D01*
X2425700Y8611108D01*
X2388158Y8611108D01*
X2381859Y8610396D01*
X2376373Y8608466D01*
X2371496Y8605418D01*
X2367381Y8601303D01*
X2364333Y8596426D01*
X2362403Y8590940D01*
X2361692Y8584641D01*
G37*
G36*
X2527300Y8547100D02*
G01*
X2591308Y8547100D01*
X2591308Y8584641D01*
X2590596Y8590940D01*
X2588666Y8596426D01*
X2585618Y8601303D01*
X2581503Y8605418D01*
X2576626Y8608466D01*
X2571140Y8610396D01*
X2564841Y8611108D01*
X2527300Y8611108D01*
G37*
G36*
X7095896Y8699093D02*
G01*
X7109510Y8699550D01*
X7122972Y8701786D01*
X7135977Y8705850D01*
X7148372Y8711590D01*
X7159853Y8718905D01*
X7170267Y8727694D01*
X7179411Y8737854D01*
X7187133Y8749080D01*
X7193280Y8761222D01*
X7197750Y8774125D01*
X7200493Y8787485D01*
X7201408Y8801100D01*
X7200493Y8814714D01*
X7197750Y8828074D01*
X7193280Y8840978D01*
X7187133Y8853119D01*
X7179411Y8864346D01*
X7170267Y8874506D01*
X7159853Y8883294D01*
X7148372Y8890609D01*
X7135977Y8896350D01*
X7122972Y8900414D01*
X7109510Y8902649D01*
X7095896Y8903106D01*
X7082332Y8901785D01*
X7069074Y8898585D01*
X7056323Y8893708D01*
X7044385Y8887155D01*
X7033412Y8879078D01*
X7023608Y8869578D01*
X7015124Y8858859D01*
X7008164Y8847124D01*
X7002881Y8834577D01*
X6999274Y8821420D01*
X6997446Y8807907D01*
X6997446Y8794292D01*
X6999274Y8780780D01*
X7002881Y8767622D01*
X7008164Y8755075D01*
X7015124Y8743340D01*
X7023608Y8732621D01*
X7033412Y8723122D01*
X7044385Y8715044D01*
X7056323Y8708491D01*
X7069074Y8703614D01*
X7082332Y8700414D01*
G37*
G36*
X7349896Y8699093D02*
G01*
X7363510Y8699550D01*
X7376972Y8701786D01*
X7389977Y8705850D01*
X7402372Y8711590D01*
X7413853Y8718905D01*
X7424267Y8727694D01*
X7433411Y8737854D01*
X7441133Y8749080D01*
X7447280Y8761222D01*
X7451750Y8774125D01*
X7454493Y8787485D01*
X7455408Y8801100D01*
X7454493Y8814714D01*
X7451750Y8828074D01*
X7447280Y8840978D01*
X7441133Y8853119D01*
X7433411Y8864346D01*
X7424267Y8874506D01*
X7413853Y8883294D01*
X7402372Y8890609D01*
X7389977Y8896350D01*
X7376972Y8900414D01*
X7363510Y8902649D01*
X7349896Y8903106D01*
X7336332Y8901785D01*
X7323074Y8898585D01*
X7310323Y8893708D01*
X7298385Y8887155D01*
X7287412Y8879078D01*
X7277608Y8869578D01*
X7269124Y8858859D01*
X7262164Y8847124D01*
X7256881Y8834577D01*
X7253274Y8821420D01*
X7251446Y8807907D01*
X7251446Y8794292D01*
X7253274Y8780780D01*
X7256881Y8767622D01*
X7262164Y8755075D01*
X7269124Y8743340D01*
X7277608Y8732621D01*
X7287412Y8723122D01*
X7298385Y8715044D01*
X7310323Y8708491D01*
X7323074Y8703614D01*
X7336332Y8700414D01*
G37*
G36*
X2388158Y8889492D02*
G01*
X2564841Y8889492D01*
X2571140Y8890203D01*
X2576626Y8892133D01*
X2581503Y8895181D01*
X2585618Y8899296D01*
X2588666Y8904173D01*
X2590596Y8909659D01*
X2591308Y8915958D01*
X2591308Y9092641D01*
X2590596Y9098940D01*
X2588666Y9104426D01*
X2585618Y9109303D01*
X2581503Y9113418D01*
X2576626Y9116466D01*
X2571140Y9118396D01*
X2564841Y9119108D01*
X2388158Y9119108D01*
X2381859Y9118396D01*
X2376373Y9116466D01*
X2371496Y9113418D01*
X2367381Y9109303D01*
X2364333Y9104426D01*
X2362403Y9098940D01*
X2361692Y9092641D01*
X2361692Y8915958D01*
X2362403Y8909659D01*
X2364333Y8904173D01*
X2367381Y8899296D01*
X2371496Y8895181D01*
X2376373Y8892133D01*
X2381859Y8890203D01*
G37*
G36*
X999896Y8953093D02*
G01*
X1013510Y8953550D01*
X1026972Y8955786D01*
X1039977Y8959850D01*
X1052372Y8965590D01*
X1063853Y8972905D01*
X1074267Y8981694D01*
X1083411Y8991854D01*
X1091133Y9003080D01*
X1097280Y9015222D01*
X1101750Y9028125D01*
X1104493Y9041485D01*
X1105408Y9055100D01*
X1104493Y9068714D01*
X1101750Y9082074D01*
X1097280Y9094978D01*
X1091133Y9107119D01*
X1083411Y9118346D01*
X1074267Y9128506D01*
X1063853Y9137294D01*
X1052372Y9144609D01*
X1039977Y9150350D01*
X1026972Y9154414D01*
X1013510Y9156649D01*
X999896Y9157106D01*
X986332Y9155785D01*
X973074Y9152585D01*
X960323Y9147708D01*
X948385Y9141155D01*
X937412Y9133078D01*
X927608Y9123578D01*
X919124Y9112859D01*
X912164Y9101124D01*
X906881Y9088577D01*
X903274Y9075420D01*
X901446Y9061907D01*
X901446Y9048292D01*
X903274Y9034780D01*
X906881Y9021622D01*
X912164Y9009075D01*
X919124Y8997340D01*
X927608Y8986621D01*
X937412Y8977122D01*
X948385Y8969044D01*
X960323Y8962491D01*
X973074Y8957614D01*
X986332Y8954414D01*
G37*
G36*
X1253896Y8953093D02*
G01*
X1267510Y8953550D01*
X1280972Y8955786D01*
X1293977Y8959850D01*
X1306372Y8965590D01*
X1317853Y8972905D01*
X1328267Y8981694D01*
X1337411Y8991854D01*
X1345133Y9003080D01*
X1351280Y9015222D01*
X1355750Y9028125D01*
X1358493Y9041485D01*
X1359408Y9055100D01*
X1358493Y9068714D01*
X1355750Y9082074D01*
X1351280Y9094978D01*
X1345133Y9107119D01*
X1337411Y9118346D01*
X1328267Y9128506D01*
X1317853Y9137294D01*
X1306372Y9144609D01*
X1293977Y9150350D01*
X1280972Y9154414D01*
X1267510Y9156649D01*
X1253896Y9157106D01*
X1240332Y9155785D01*
X1227074Y9152585D01*
X1214323Y9147708D01*
X1202385Y9141155D01*
X1191412Y9133078D01*
X1181608Y9123578D01*
X1173124Y9112859D01*
X1166164Y9101124D01*
X1160881Y9088577D01*
X1157274Y9075420D01*
X1155446Y9061907D01*
X1155446Y9048292D01*
X1157274Y9034780D01*
X1160881Y9021622D01*
X1166164Y9009075D01*
X1173124Y8997340D01*
X1181608Y8986621D01*
X1191412Y8977122D01*
X1202385Y8969044D01*
X1214323Y8962491D01*
X1227074Y8957614D01*
X1240332Y8954414D01*
G37*
G36*
X7349896Y8953093D02*
G01*
X7363510Y8953550D01*
X7376972Y8955786D01*
X7389977Y8959850D01*
X7402372Y8965590D01*
X7413853Y8972905D01*
X7424267Y8981694D01*
X7433411Y8991854D01*
X7441133Y9003080D01*
X7447280Y9015222D01*
X7451750Y9028125D01*
X7454493Y9041485D01*
X7455408Y9055100D01*
X7454493Y9068714D01*
X7451750Y9082074D01*
X7447280Y9094978D01*
X7441133Y9107119D01*
X7433411Y9118346D01*
X7424267Y9128506D01*
X7413853Y9137294D01*
X7402372Y9144609D01*
X7389977Y9150350D01*
X7376972Y9154414D01*
X7363510Y9156649D01*
X7349896Y9157106D01*
X7336332Y9155785D01*
X7323074Y9152585D01*
X7310323Y9147708D01*
X7298385Y9141155D01*
X7287412Y9133078D01*
X7277608Y9123578D01*
X7269124Y9112859D01*
X7262164Y9101124D01*
X7256881Y9088577D01*
X7253274Y9075420D01*
X7251446Y9061907D01*
X7251446Y9048292D01*
X7253274Y9034780D01*
X7256881Y9021622D01*
X7262164Y9009075D01*
X7269124Y8997340D01*
X7277608Y8986621D01*
X7287412Y8977122D01*
X7298385Y8969044D01*
X7310323Y8962491D01*
X7323074Y8957614D01*
X7336332Y8954414D01*
G37*
G36*
X6183325Y9054642D02*
G01*
X6196025Y9055506D01*
X6208471Y9058249D01*
X6220409Y9062720D01*
X6231636Y9068816D01*
X6241846Y9076436D01*
X6250838Y9085478D01*
X6258509Y9095689D01*
X6264605Y9106865D01*
X6269075Y9118803D01*
X6271768Y9131300D01*
X6272682Y9144000D01*
X6271768Y9156700D01*
X6269075Y9169196D01*
X6264605Y9181134D01*
X6258509Y9192310D01*
X6250838Y9202521D01*
X6241846Y9211564D01*
X6231636Y9219184D01*
X6220409Y9225280D01*
X6208471Y9229750D01*
X6196025Y9232493D01*
X6183325Y9233357D01*
X6170574Y9232493D01*
X6158128Y9229750D01*
X6146190Y9225280D01*
X6134963Y9219184D01*
X6124752Y9211564D01*
X6115761Y9202521D01*
X6108090Y9192310D01*
X6101994Y9181134D01*
X6097524Y9169196D01*
X6094831Y9156700D01*
X6093917Y9144000D01*
X6094831Y9131300D01*
X6097524Y9118803D01*
X6101994Y9106865D01*
X6108090Y9095689D01*
X6115761Y9085478D01*
X6124752Y9076436D01*
X6134963Y9068816D01*
X6146190Y9062720D01*
X6158128Y9058249D01*
X6170574Y9055506D01*
G37*
G36*
X4659325Y9054642D02*
G01*
X4672025Y9055506D01*
X4684471Y9058249D01*
X4696409Y9062720D01*
X4707636Y9068816D01*
X4717846Y9076436D01*
X4726838Y9085478D01*
X4734509Y9095689D01*
X4740605Y9106865D01*
X4745075Y9118803D01*
X4747768Y9131300D01*
X4748682Y9144000D01*
X4747768Y9156700D01*
X4745075Y9169196D01*
X4740605Y9181134D01*
X4734509Y9192310D01*
X4726838Y9202521D01*
X4717846Y9211564D01*
X4707636Y9219184D01*
X4696409Y9225280D01*
X4684471Y9229750D01*
X4672025Y9232493D01*
X4659325Y9233357D01*
X4646574Y9232493D01*
X4634128Y9229750D01*
X4622190Y9225280D01*
X4610963Y9219184D01*
X4600752Y9211564D01*
X4591761Y9202521D01*
X4584090Y9192310D01*
X4577994Y9181134D01*
X4573524Y9169196D01*
X4570831Y9156700D01*
X4569917Y9144000D01*
X4570831Y9131300D01*
X4573524Y9118803D01*
X4577994Y9106865D01*
X4584090Y9095689D01*
X4591761Y9085478D01*
X4600752Y9076436D01*
X4610963Y9068816D01*
X4622190Y9062720D01*
X4634128Y9058249D01*
X4646574Y9055506D01*
G37*
G36*
X6345224Y9063228D02*
G01*
X6345224Y9105900D01*
X6302502Y9105900D01*
X6308090Y9095689D01*
X6315760Y9085478D01*
X6324752Y9076436D01*
X6334963Y9068816D01*
G37*
G36*
X4821224Y9063228D02*
G01*
X4821224Y9105900D01*
X4778502Y9105900D01*
X4784090Y9095689D01*
X4791760Y9085478D01*
X4800752Y9076436D01*
X4810963Y9068816D01*
G37*
G36*
X4897424Y9063228D02*
G01*
X4907635Y9068816D01*
X4917846Y9076436D01*
X4926838Y9085478D01*
X4934508Y9095689D01*
X4940096Y9105900D01*
X4897424Y9105900D01*
G37*
G36*
X6421424Y9063228D02*
G01*
X6431635Y9068816D01*
X6441846Y9076436D01*
X6450838Y9085478D01*
X6458508Y9095689D01*
X6464096Y9105900D01*
X6421424Y9105900D01*
G37*
G36*
X6302502Y9182100D02*
G01*
X6345224Y9182100D01*
X6345224Y9224772D01*
X6334963Y9219184D01*
X6324752Y9211564D01*
X6315760Y9202521D01*
X6308090Y9192310D01*
G37*
G36*
X4778502Y9182100D02*
G01*
X4821224Y9182100D01*
X4821224Y9224772D01*
X4810963Y9219184D01*
X4800752Y9211564D01*
X4791760Y9202521D01*
X4784090Y9192310D01*
G37*
G36*
X4897424Y9182100D02*
G01*
X4940096Y9182100D01*
X4934508Y9192310D01*
X4926838Y9202521D01*
X4917846Y9211564D01*
X4907635Y9219184D01*
X4897424Y9224772D01*
G37*
G36*
X6421424Y9182100D02*
G01*
X6464096Y9182100D01*
X6458508Y9192310D01*
X6450838Y9202521D01*
X6441846Y9211564D01*
X6431635Y9219184D01*
X6421424Y9224772D01*
G37*
G36*
X999896Y9207093D02*
G01*
X1013510Y9207550D01*
X1026972Y9209786D01*
X1039977Y9213850D01*
X1052372Y9219590D01*
X1063853Y9226905D01*
X1074267Y9235694D01*
X1083411Y9245854D01*
X1091133Y9257080D01*
X1097280Y9269222D01*
X1101750Y9282125D01*
X1104493Y9295485D01*
X1105408Y9309100D01*
X1104493Y9322714D01*
X1101750Y9336074D01*
X1097280Y9348978D01*
X1091133Y9361119D01*
X1083411Y9372346D01*
X1074267Y9382506D01*
X1063853Y9391294D01*
X1052372Y9398609D01*
X1039977Y9404350D01*
X1026972Y9408414D01*
X1013510Y9410649D01*
X999896Y9411106D01*
X986332Y9409785D01*
X973074Y9406585D01*
X960323Y9401708D01*
X948385Y9395155D01*
X937412Y9387078D01*
X927608Y9377578D01*
X919124Y9366859D01*
X912164Y9355124D01*
X906881Y9342577D01*
X903274Y9329420D01*
X901446Y9315907D01*
X901446Y9302292D01*
X903274Y9288780D01*
X906881Y9275622D01*
X912164Y9263075D01*
X919124Y9251340D01*
X927608Y9240621D01*
X937412Y9231122D01*
X948385Y9223044D01*
X960323Y9216491D01*
X973074Y9211614D01*
X986332Y9208414D01*
G37*
G36*
X1253896Y9207093D02*
G01*
X1267510Y9207550D01*
X1280972Y9209786D01*
X1293977Y9213850D01*
X1306372Y9219590D01*
X1317853Y9226905D01*
X1328267Y9235694D01*
X1337411Y9245854D01*
X1345133Y9257080D01*
X1351280Y9269222D01*
X1355750Y9282125D01*
X1358493Y9295485D01*
X1359408Y9309100D01*
X1358493Y9322714D01*
X1355750Y9336074D01*
X1351280Y9348978D01*
X1345133Y9361119D01*
X1337411Y9372346D01*
X1328267Y9382506D01*
X1317853Y9391294D01*
X1306372Y9398609D01*
X1293977Y9404350D01*
X1280972Y9408414D01*
X1267510Y9410649D01*
X1253896Y9411106D01*
X1240332Y9409785D01*
X1227074Y9406585D01*
X1214323Y9401708D01*
X1202385Y9395155D01*
X1191412Y9387078D01*
X1181608Y9377578D01*
X1173124Y9366859D01*
X1166164Y9355124D01*
X1160881Y9342577D01*
X1157274Y9329420D01*
X1155446Y9315907D01*
X1155446Y9302292D01*
X1157274Y9288780D01*
X1160881Y9275622D01*
X1166164Y9263075D01*
X1173124Y9251340D01*
X1181608Y9240621D01*
X1191412Y9231122D01*
X1202385Y9223044D01*
X1214323Y9216491D01*
X1227074Y9211614D01*
X1240332Y9208414D01*
G37*
G36*
X7349896Y9207093D02*
G01*
X7363510Y9207550D01*
X7376972Y9209786D01*
X7389977Y9213850D01*
X7402372Y9219590D01*
X7413853Y9226905D01*
X7424267Y9235694D01*
X7433411Y9245854D01*
X7441133Y9257080D01*
X7447280Y9269222D01*
X7451750Y9282125D01*
X7454493Y9295485D01*
X7455408Y9309100D01*
X7454493Y9322714D01*
X7451750Y9336074D01*
X7447280Y9348978D01*
X7441133Y9361119D01*
X7433411Y9372346D01*
X7424267Y9382506D01*
X7413853Y9391294D01*
X7402372Y9398609D01*
X7389977Y9404350D01*
X7376972Y9408414D01*
X7363510Y9410649D01*
X7349896Y9411106D01*
X7336332Y9409785D01*
X7323074Y9406585D01*
X7310323Y9401708D01*
X7298385Y9395155D01*
X7287412Y9387078D01*
X7277608Y9377578D01*
X7269124Y9366859D01*
X7262164Y9355124D01*
X7256881Y9342577D01*
X7253274Y9329420D01*
X7251446Y9315907D01*
X7251446Y9302292D01*
X7253274Y9288780D01*
X7256881Y9275622D01*
X7262164Y9263075D01*
X7269124Y9251340D01*
X7277608Y9240621D01*
X7287412Y9231122D01*
X7298385Y9223044D01*
X7310323Y9216491D01*
X7323074Y9211614D01*
X7336332Y9208414D01*
G37*
G36*
X7349896Y9461093D02*
G01*
X7363510Y9461550D01*
X7376972Y9463786D01*
X7389977Y9467850D01*
X7402372Y9473590D01*
X7413853Y9480905D01*
X7424267Y9489694D01*
X7433411Y9499854D01*
X7441133Y9511080D01*
X7447280Y9523222D01*
X7451750Y9536125D01*
X7454493Y9549485D01*
X7455408Y9563100D01*
X7454493Y9576714D01*
X7451750Y9590074D01*
X7447280Y9602978D01*
X7441133Y9615119D01*
X7433411Y9626346D01*
X7424267Y9636506D01*
X7413853Y9645294D01*
X7402372Y9652609D01*
X7389977Y9658350D01*
X7376972Y9662414D01*
X7363510Y9664649D01*
X7349896Y9665106D01*
X7336332Y9663785D01*
X7323074Y9660585D01*
X7310323Y9655708D01*
X7298385Y9649155D01*
X7287412Y9641078D01*
X7277608Y9631578D01*
X7269124Y9620859D01*
X7262164Y9609124D01*
X7256881Y9596577D01*
X7253274Y9583420D01*
X7251446Y9569907D01*
X7251446Y9556292D01*
X7253274Y9542780D01*
X7256881Y9529622D01*
X7262164Y9517075D01*
X7269124Y9505340D01*
X7277608Y9494621D01*
X7287412Y9485122D01*
X7298385Y9477044D01*
X7310323Y9470491D01*
X7323074Y9465614D01*
X7336332Y9462414D01*
G37*
G36*
X999896Y9461093D02*
G01*
X1013510Y9461550D01*
X1026972Y9463786D01*
X1039977Y9467850D01*
X1052372Y9473590D01*
X1063853Y9480905D01*
X1074267Y9489694D01*
X1083411Y9499854D01*
X1091133Y9511080D01*
X1097280Y9523222D01*
X1101750Y9536125D01*
X1104493Y9549485D01*
X1105408Y9563100D01*
X1104493Y9576714D01*
X1101750Y9590074D01*
X1100328Y9594189D01*
X1099769Y9597898D01*
X1100632Y9601555D01*
X1102766Y9604705D01*
X1245870Y9747808D01*
X1249172Y9749993D01*
X1253032Y9750806D01*
X2387092Y9750806D01*
X2395321Y9751568D01*
X2402992Y9753854D01*
X2410104Y9757562D01*
X2416708Y9762947D01*
X3417417Y10751159D01*
X3420719Y10753344D01*
X3424580Y10754106D01*
X4114292Y10754106D01*
X4122775Y10754918D01*
X4130446Y10757255D01*
X4137507Y10761014D01*
X4144060Y10766450D01*
X4168800Y10791139D01*
X4173982Y10797387D01*
X4177842Y10804448D01*
X4180230Y10812119D01*
X4181094Y10820552D01*
X4183532Y11118799D01*
X4184142Y11122202D01*
X4185818Y11125149D01*
X4188409Y11127384D01*
X4194657Y11131245D01*
X4196334Y11132870D01*
X4199585Y11135106D01*
X4203496Y11135868D01*
X4207408Y11135106D01*
X4210659Y11132870D01*
X4212386Y11131194D01*
X4217822Y11127740D01*
X4220362Y11125504D01*
X4221988Y11122507D01*
X4222597Y11119154D01*
X4222597Y10812424D01*
X4221784Y10808563D01*
X4219600Y10805261D01*
X4138929Y10724591D01*
X4135628Y10722356D01*
X4131767Y10721594D01*
X3480308Y10721594D01*
X3471824Y10720781D01*
X3464153Y10718444D01*
X3457092Y10714685D01*
X3450539Y10709249D01*
X2360930Y9619691D01*
X2357628Y9617456D01*
X2353767Y9616694D01*
X1349400Y9616694D01*
X1346149Y9617252D01*
X1343253Y9618776D01*
X1341018Y9621113D01*
X1337411Y9626346D01*
X1328267Y9636506D01*
X1317853Y9645294D01*
X1306372Y9652609D01*
X1293977Y9658350D01*
X1280972Y9662414D01*
X1267510Y9664649D01*
X1253896Y9665106D01*
X1240332Y9663785D01*
X1227074Y9660585D01*
X1214323Y9655708D01*
X1202385Y9649155D01*
X1191412Y9641078D01*
X1181608Y9631578D01*
X1173124Y9620859D01*
X1166164Y9609124D01*
X1160881Y9596577D01*
X1157274Y9583420D01*
X1155446Y9569907D01*
X1155446Y9556292D01*
X1157274Y9542780D01*
X1160881Y9529622D01*
X1166164Y9517075D01*
X1173124Y9505340D01*
X1181608Y9494621D01*
X1191412Y9485122D01*
X1202385Y9477044D01*
X1214323Y9470491D01*
X1227074Y9465614D01*
X1240332Y9462414D01*
X1253896Y9461093D01*
X1267510Y9461550D01*
X1280972Y9463786D01*
X1293977Y9467850D01*
X1306372Y9473590D01*
X1317853Y9480905D01*
X1328267Y9489694D01*
X1337411Y9499854D01*
X1345133Y9511080D01*
X1351280Y9523222D01*
X1352956Y9528048D01*
X1355090Y9531654D01*
X1358493Y9534042D01*
X1362557Y9534906D01*
X2374392Y9534906D01*
X2382875Y9535718D01*
X2390546Y9538055D01*
X2397607Y9541814D01*
X2404160Y9547250D01*
X3493770Y10636808D01*
X3497072Y10638993D01*
X3500932Y10639806D01*
X4152392Y10639806D01*
X4160875Y10640618D01*
X4168546Y10642955D01*
X4175607Y10646714D01*
X4182160Y10652150D01*
X4292041Y10762030D01*
X4297476Y10768584D01*
X4301236Y10775645D01*
X4303572Y10783316D01*
X4304385Y10791799D01*
X4304385Y11119154D01*
X4304995Y11122507D01*
X4306620Y11125504D01*
X4309160Y11127740D01*
X4314596Y11131194D01*
X4316323Y11132870D01*
X4319574Y11135106D01*
X4323486Y11135868D01*
X4327398Y11135106D01*
X4330649Y11132870D01*
X4332376Y11131194D01*
X4337253Y11128095D01*
X4342739Y11126216D01*
X4349038Y11125504D01*
X4417923Y11125504D01*
X4424222Y11126216D01*
X4429709Y11128095D01*
X4434586Y11131194D01*
X4436313Y11132921D01*
X4439615Y11135106D01*
X4443476Y11135868D01*
X4447387Y11135106D01*
X4450689Y11132921D01*
X4452366Y11131194D01*
X4461662Y11125708D01*
X4464050Y11122304D01*
X4464913Y11118240D01*
X4464913Y10410748D01*
X4464202Y10407091D01*
X4462272Y10403941D01*
X4459325Y10401655D01*
X4456480Y10400233D01*
X4445254Y10392511D01*
X4435094Y10383367D01*
X4426305Y10372953D01*
X4418990Y10361472D01*
X4413250Y10349077D01*
X4409186Y10336072D01*
X4406950Y10322610D01*
X4406493Y10308996D01*
X4407814Y10295432D01*
X4411014Y10282174D01*
X4415891Y10269423D01*
X4422444Y10257485D01*
X4430522Y10246512D01*
X4440021Y10236708D01*
X4450740Y10228224D01*
X4462475Y10221264D01*
X4475022Y10215981D01*
X4488180Y10212374D01*
X4501692Y10210546D01*
X4515307Y10210546D01*
X4528820Y10212374D01*
X4541977Y10215981D01*
X4554524Y10221264D01*
X4566259Y10228224D01*
X4576978Y10236708D01*
X4586478Y10246512D01*
X4592472Y10254640D01*
X4594707Y10256875D01*
X4597552Y10258298D01*
X4600651Y10258755D01*
X5512409Y10258755D01*
X5515965Y10258145D01*
X5519064Y10256316D01*
X5521299Y10253522D01*
X5527344Y10242448D01*
X5535422Y10231475D01*
X5544921Y10221671D01*
X5555640Y10213238D01*
X5567375Y10206278D01*
X5579922Y10200944D01*
X5593080Y10197338D01*
X5606592Y10195560D01*
X5620207Y10195560D01*
X5633720Y10197338D01*
X5646877Y10200944D01*
X5659424Y10206278D01*
X5671159Y10213238D01*
X5681878Y10221671D01*
X5691378Y10231475D01*
X5699455Y10242448D01*
X5706008Y10254437D01*
X5710885Y10267137D01*
X5714085Y10280396D01*
X5715406Y10294010D01*
X5714949Y10307624D01*
X5712714Y10321086D01*
X5708650Y10334091D01*
X5702909Y10346436D01*
X5695594Y10357967D01*
X5686806Y10368381D01*
X5676646Y10377525D01*
X5665419Y10385247D01*
X5653278Y10391394D01*
X5640374Y10395864D01*
X5627014Y10398556D01*
X5613400Y10399471D01*
X5599785Y10398556D01*
X5586425Y10395864D01*
X5573522Y10391394D01*
X5561380Y10385247D01*
X5550154Y10377525D01*
X5539994Y10368381D01*
X5531205Y10357967D01*
X5523890Y10346436D01*
X5521756Y10341864D01*
X5519521Y10338765D01*
X5516270Y10336733D01*
X5512511Y10335971D01*
X4615332Y10335971D01*
X4611116Y10336885D01*
X4607712Y10339425D01*
X4605629Y10343134D01*
X4603750Y10349077D01*
X4598009Y10361472D01*
X4590694Y10372953D01*
X4581906Y10383367D01*
X4571746Y10392511D01*
X4560519Y10400233D01*
X4547666Y10406735D01*
X4544720Y10408970D01*
X4542790Y10412120D01*
X4542129Y10415778D01*
X4542129Y11118240D01*
X4542942Y11122304D01*
X4545330Y11125708D01*
X4549698Y11128095D01*
X4554626Y11131194D01*
X4556302Y11132870D01*
X4559604Y11135106D01*
X4563516Y11135868D01*
X4567377Y11135106D01*
X4570679Y11132870D01*
X4572355Y11131194D01*
X4577283Y11128095D01*
X4582718Y11126216D01*
X4589068Y11125504D01*
X4657902Y11125504D01*
X4664252Y11126216D01*
X4669688Y11128095D01*
X4674616Y11131194D01*
X4678680Y11135258D01*
X4681778Y11140186D01*
X4683658Y11145621D01*
X4684420Y11151971D01*
X4684420Y11295329D01*
X4685182Y11299240D01*
X4687366Y11302492D01*
X4690668Y11304727D01*
X4694580Y11305489D01*
X4822952Y11305489D01*
X4829251Y11306200D01*
X4834737Y11308130D01*
X4839614Y11311178D01*
X4843729Y11315293D01*
X4846777Y11320170D01*
X4848707Y11325656D01*
X4849418Y11331956D01*
X4849418Y11400840D01*
X4848707Y11407140D01*
X4846777Y11412626D01*
X4843729Y11417503D01*
X4842002Y11419230D01*
X4839817Y11422532D01*
X4839004Y11426393D01*
X4839817Y11430304D01*
X4842002Y11433606D01*
X4843729Y11435283D01*
X4846777Y11440210D01*
X4848707Y11445646D01*
X4849418Y11451996D01*
X4849418Y11462562D01*
X4792370Y11462562D01*
X4792370Y11437467D01*
X4791557Y11433556D01*
X4789373Y11430304D01*
X4786071Y11428069D01*
X4782210Y11427307D01*
X4714798Y11427307D01*
X4710938Y11428069D01*
X4707636Y11430304D01*
X4705451Y11433556D01*
X4704638Y11437467D01*
X4704638Y11462562D01*
X4647590Y11462562D01*
X4647590Y11451996D01*
X4648301Y11445646D01*
X4650232Y11440210D01*
X4653280Y11435283D01*
X4655007Y11433606D01*
X4657191Y11430304D01*
X4658004Y11426393D01*
X4657191Y11422532D01*
X4655007Y11419230D01*
X4653280Y11417503D01*
X4650232Y11412626D01*
X4648301Y11407140D01*
X4647590Y11400840D01*
X4647590Y11337442D01*
X4646828Y11333581D01*
X4644644Y11330279D01*
X4641342Y11328095D01*
X4637430Y11327282D01*
X4589068Y11327282D01*
X4582718Y11326571D01*
X4577283Y11324691D01*
X4572355Y11321592D01*
X4570679Y11319916D01*
X4567377Y11317681D01*
X4563516Y11316919D01*
X4559604Y11317681D01*
X4556302Y11319916D01*
X4554626Y11321592D01*
X4549698Y11324691D01*
X4544263Y11326571D01*
X4537913Y11327282D01*
X4469079Y11327282D01*
X4462729Y11326571D01*
X4457293Y11324691D01*
X4452366Y11321592D01*
X4450689Y11319865D01*
X4447387Y11317681D01*
X4443476Y11316919D01*
X4439615Y11317681D01*
X4436313Y11319865D01*
X4434586Y11321592D01*
X4429709Y11324691D01*
X4424222Y11326571D01*
X4417923Y11327282D01*
X4349038Y11327282D01*
X4342739Y11326571D01*
X4337253Y11324691D01*
X4332376Y11321592D01*
X4330649Y11319916D01*
X4327398Y11317681D01*
X4323486Y11316919D01*
X4319574Y11317681D01*
X4316323Y11319916D01*
X4314596Y11321592D01*
X4309719Y11324691D01*
X4304233Y11326571D01*
X4297934Y11327282D01*
X4229049Y11327282D01*
X4222750Y11326571D01*
X4217263Y11324691D01*
X4212386Y11321592D01*
X4210659Y11319916D01*
X4207408Y11317681D01*
X4203496Y11316919D01*
X4199585Y11317681D01*
X4196334Y11319916D01*
X4194606Y11321592D01*
X4189729Y11324691D01*
X4184243Y11326571D01*
X4177944Y11327282D01*
X4109059Y11327282D01*
X4102760Y11326571D01*
X4097274Y11324691D01*
X4092397Y11321592D01*
X4090670Y11319865D01*
X4087368Y11317681D01*
X4083507Y11316919D01*
X4079595Y11317681D01*
X4076293Y11319865D01*
X4074617Y11321592D01*
X4069689Y11324691D01*
X4064254Y11326571D01*
X4057904Y11327282D01*
X4009542Y11327282D01*
X4005681Y11328095D01*
X4002379Y11330279D01*
X4000195Y11333581D01*
X3999382Y11337442D01*
X3999382Y11400840D01*
X3998671Y11407140D01*
X3996791Y11412626D01*
X3993692Y11417503D01*
X3991965Y11419230D01*
X3989781Y11422532D01*
X3989019Y11426393D01*
X3989781Y11430304D01*
X3991965Y11433606D01*
X3993692Y11435283D01*
X3996791Y11440210D01*
X3998671Y11445646D01*
X3999382Y11451996D01*
X3999382Y11520830D01*
X3998671Y11527180D01*
X3996791Y11532616D01*
X3993692Y11537543D01*
X3992016Y11539220D01*
X3989781Y11542522D01*
X3989019Y11546382D01*
X3989781Y11550294D01*
X3992016Y11553596D01*
X3993692Y11555272D01*
X3996791Y11560200D01*
X3998671Y11565636D01*
X3999382Y11571986D01*
X3999382Y11640820D01*
X3998671Y11647170D01*
X3996791Y11652605D01*
X3993692Y11657533D01*
X3991965Y11659209D01*
X3989781Y11662511D01*
X3989019Y11666423D01*
X3989781Y11670284D01*
X3991965Y11673586D01*
X3993692Y11675313D01*
X3996791Y11680190D01*
X3998671Y11685676D01*
X3999382Y11691975D01*
X3999382Y11702542D01*
X3942334Y11702542D01*
X3942334Y11677446D01*
X3941572Y11673586D01*
X3939387Y11670284D01*
X3936085Y11668099D01*
X3932174Y11667286D01*
X3864813Y11667286D01*
X3860901Y11668099D01*
X3857599Y11670284D01*
X3855415Y11673586D01*
X3854653Y11677446D01*
X3854653Y11702542D01*
X3797604Y11702542D01*
X3797604Y11691975D01*
X3798315Y11685676D01*
X3800195Y11680190D01*
X3803294Y11675313D01*
X3805021Y11673586D01*
X3807206Y11670284D01*
X3807968Y11666423D01*
X3807206Y11662511D01*
X3805021Y11659209D01*
X3803294Y11657533D01*
X3800195Y11652605D01*
X3798315Y11647170D01*
X3797604Y11640820D01*
X3797604Y11571986D01*
X3798315Y11565636D01*
X3800195Y11560200D01*
X3803294Y11555272D01*
X3804970Y11553596D01*
X3807206Y11550294D01*
X3807968Y11546382D01*
X3807206Y11542522D01*
X3804970Y11539220D01*
X3803294Y11537543D01*
X3800195Y11532616D01*
X3798315Y11527180D01*
X3797604Y11520830D01*
X3797604Y11451996D01*
X3798315Y11445646D01*
X3800195Y11440210D01*
X3803294Y11435283D01*
X3805021Y11433606D01*
X3807206Y11430304D01*
X3807968Y11426393D01*
X3807206Y11422532D01*
X3805021Y11419230D01*
X3803294Y11417503D01*
X3800195Y11412626D01*
X3798315Y11407140D01*
X3797604Y11400840D01*
X3797604Y11331956D01*
X3798315Y11325656D01*
X3800195Y11320170D01*
X3803294Y11315293D01*
X3807358Y11311178D01*
X3812286Y11308130D01*
X3817721Y11306200D01*
X3824071Y11305489D01*
X3952443Y11305489D01*
X3956304Y11304727D01*
X3959606Y11302492D01*
X3961790Y11299240D01*
X3962552Y11295329D01*
X3962552Y11151971D01*
X3963314Y11145621D01*
X3965194Y11140186D01*
X3968292Y11135258D01*
X3972356Y11131194D01*
X3977284Y11128095D01*
X3982720Y11126216D01*
X3989070Y11125504D01*
X4057904Y11125504D01*
X4064254Y11126216D01*
X4069689Y11128095D01*
X4074617Y11131194D01*
X4076293Y11132921D01*
X4079595Y11135106D01*
X4083507Y11135868D01*
X4087368Y11135106D01*
X4090670Y11132921D01*
X4092397Y11131194D01*
X4096969Y11128298D01*
X4099509Y11126012D01*
X4101185Y11123015D01*
X4101744Y11119612D01*
X4099509Y10846003D01*
X4098696Y10842142D01*
X4096512Y10838840D01*
X4093210Y10836656D01*
X4089349Y10835894D01*
X3404108Y10835894D01*
X3395878Y10835132D01*
X3388207Y10832846D01*
X3381095Y10829137D01*
X3374491Y10823752D01*
X2373782Y9835540D01*
X2370480Y9833356D01*
X2366619Y9832594D01*
X1232408Y9832594D01*
X1223924Y9831781D01*
X1216253Y9829444D01*
X1209192Y9825685D01*
X1202639Y9820249D01*
X1044854Y9662515D01*
X1041857Y9660432D01*
X1038301Y9659569D01*
X1034694Y9660026D01*
X1026972Y9662414D01*
X1013510Y9664649D01*
X999896Y9665106D01*
X986332Y9663785D01*
X973074Y9660585D01*
X960323Y9655708D01*
X948385Y9649155D01*
X937412Y9641078D01*
X927608Y9631578D01*
X919124Y9620859D01*
X912164Y9609124D01*
X906881Y9596577D01*
X903274Y9583420D01*
X901446Y9569907D01*
X901446Y9556292D01*
X903274Y9542780D01*
X906881Y9529622D01*
X912164Y9517075D01*
X919124Y9505340D01*
X927608Y9494621D01*
X937412Y9485122D01*
X948385Y9477044D01*
X960323Y9470491D01*
X973074Y9465614D01*
X986332Y9462414D01*
G37*
G36*
X3695700Y9689592D02*
G01*
X3709314Y9690506D01*
X3722674Y9693249D01*
X3735578Y9697720D01*
X3747719Y9703866D01*
X3758946Y9711588D01*
X3769106Y9720732D01*
X3777894Y9731146D01*
X3785209Y9742627D01*
X3790950Y9755022D01*
X3795014Y9768027D01*
X3797249Y9781489D01*
X3797706Y9795103D01*
X3796385Y9808667D01*
X3793185Y9821926D01*
X3788308Y9834676D01*
X3781755Y9846614D01*
X3773678Y9857587D01*
X3764178Y9867392D01*
X3753459Y9875875D01*
X3741724Y9882835D01*
X3729177Y9888118D01*
X3716020Y9891725D01*
X3702507Y9893554D01*
X3688892Y9893554D01*
X3675379Y9891725D01*
X3662222Y9888118D01*
X3649675Y9882835D01*
X3637940Y9875875D01*
X3627221Y9867392D01*
X3617722Y9857587D01*
X3609644Y9846614D01*
X3603091Y9834676D01*
X3598214Y9821926D01*
X3595014Y9808667D01*
X3593693Y9795103D01*
X3594150Y9781489D01*
X3596386Y9768027D01*
X3600450Y9755022D01*
X3606190Y9742627D01*
X3613505Y9731146D01*
X3622294Y9720732D01*
X3632454Y9711588D01*
X3643680Y9703866D01*
X3655822Y9697720D01*
X3668725Y9693249D01*
X3682085Y9690506D01*
G37*
G36*
X4552950Y9712604D02*
G01*
X4554524Y9713264D01*
X4566259Y9720224D01*
X4576978Y9728708D01*
X4586478Y9738512D01*
X4594555Y9749485D01*
X4600295Y9759950D01*
X4552950Y9759950D01*
G37*
G36*
X4464050Y9712604D02*
G01*
X4464050Y9759950D01*
X4416704Y9759950D01*
X4422444Y9749485D01*
X4430522Y9738512D01*
X4440021Y9728708D01*
X4450740Y9720224D01*
X4462475Y9713264D01*
G37*
G36*
X4416856Y9848850D02*
G01*
X4464050Y9848850D01*
X4464050Y9896043D01*
X4456480Y9892233D01*
X4445254Y9884511D01*
X4435094Y9875367D01*
X4426305Y9864953D01*
X4418990Y9853472D01*
G37*
G36*
X4552950Y9848850D02*
G01*
X4600143Y9848850D01*
X4598009Y9853472D01*
X4590694Y9864953D01*
X4581906Y9875367D01*
X4571746Y9884511D01*
X4560519Y9892233D01*
X4552950Y9896043D01*
G37*
G36*
X3651250Y10208056D02*
G01*
X3651250Y10255250D01*
X3604056Y10255250D01*
X3606190Y10250627D01*
X3613505Y10239146D01*
X3622294Y10228732D01*
X3632454Y10219588D01*
X3643680Y10211866D01*
G37*
G36*
X3740150Y10208056D02*
G01*
X3747719Y10211866D01*
X3758946Y10219588D01*
X3769106Y10228732D01*
X3777894Y10239146D01*
X3785209Y10250627D01*
X3787343Y10255250D01*
X3740150Y10255250D01*
G37*
G36*
X1732838Y10215372D02*
G01*
X1924761Y10215372D01*
X1931060Y10216083D01*
X1936546Y10218013D01*
X1941423Y10221061D01*
X1945538Y10225176D01*
X1947214Y10227818D01*
X1950008Y10230764D01*
X1953768Y10232390D01*
X1957832Y10232390D01*
X1961591Y10230764D01*
X1964385Y10227818D01*
X1966061Y10225176D01*
X1970176Y10221061D01*
X1975053Y10218013D01*
X1980539Y10216083D01*
X1986838Y10215372D01*
X2178761Y10215372D01*
X2185060Y10216083D01*
X2190546Y10218013D01*
X2195423Y10221061D01*
X2199538Y10225176D01*
X2202586Y10230053D01*
X2204516Y10235539D01*
X2205228Y10241838D01*
X2205228Y10433761D01*
X2204516Y10440060D01*
X2202586Y10445546D01*
X2199538Y10450423D01*
X2195423Y10454538D01*
X2190546Y10457586D01*
X2185060Y10459516D01*
X2178761Y10460228D01*
X1986838Y10460228D01*
X1980539Y10459516D01*
X1975053Y10457586D01*
X1970176Y10454538D01*
X1966061Y10450423D01*
X1964385Y10447782D01*
X1961591Y10444835D01*
X1957832Y10443210D01*
X1953768Y10443210D01*
X1950008Y10444835D01*
X1947214Y10447782D01*
X1945538Y10450423D01*
X1941423Y10454538D01*
X1936546Y10457586D01*
X1931060Y10459516D01*
X1924761Y10460228D01*
X1732838Y10460228D01*
X1726539Y10459516D01*
X1721053Y10457586D01*
X1716176Y10454538D01*
X1712061Y10450423D01*
X1709013Y10445546D01*
X1707083Y10440060D01*
X1706372Y10433761D01*
X1706372Y10241838D01*
X1707083Y10235539D01*
X1709013Y10230053D01*
X1712061Y10225176D01*
X1716176Y10221061D01*
X1721053Y10218013D01*
X1726539Y10216083D01*
G37*
G36*
X3740150Y10344150D02*
G01*
X3787495Y10344150D01*
X3781755Y10354614D01*
X3773678Y10365587D01*
X3764178Y10375392D01*
X3753459Y10383875D01*
X3741724Y10390835D01*
X3740150Y10391495D01*
G37*
G36*
X3603904Y10344150D02*
G01*
X3651250Y10344150D01*
X3651250Y10391495D01*
X3649675Y10390835D01*
X3637940Y10383875D01*
X3627221Y10375392D01*
X3617722Y10365587D01*
X3609644Y10354614D01*
G37*
G36*
X6229350Y10614304D02*
G01*
X6229350Y10661650D01*
X6182004Y10661650D01*
X6187744Y10651185D01*
X6195822Y10640212D01*
X6205321Y10630408D01*
X6216040Y10621924D01*
X6227775Y10614964D01*
G37*
G36*
X6318250Y10614304D02*
G01*
X6319824Y10614964D01*
X6331559Y10621924D01*
X6342278Y10630408D01*
X6351778Y10640212D01*
X6359855Y10651185D01*
X6365595Y10661650D01*
X6318250Y10661650D01*
G37*
G36*
X6182156Y10750550D02*
G01*
X6229350Y10750550D01*
X6229350Y10797743D01*
X6221780Y10793933D01*
X6210554Y10786211D01*
X6200394Y10777067D01*
X6191605Y10766653D01*
X6184290Y10755172D01*
G37*
G36*
X6318250Y10750550D02*
G01*
X6365443Y10750550D01*
X6363309Y10755172D01*
X6355994Y10766653D01*
X6347206Y10777067D01*
X6337046Y10786211D01*
X6325819Y10793933D01*
X6318250Y10797743D01*
G37*
G36*
X2137410Y10939272D02*
G01*
X2178761Y10939272D01*
X2185060Y10939983D01*
X2190546Y10941913D01*
X2195423Y10944961D01*
X2199538Y10949076D01*
X2202586Y10953953D01*
X2204516Y10959439D01*
X2205228Y10965738D01*
X2205228Y11007090D01*
X2137410Y11007090D01*
G37*
G36*
X1732838Y10939272D02*
G01*
X1924761Y10939272D01*
X1931060Y10939983D01*
X1936546Y10941913D01*
X1941423Y10944961D01*
X1945538Y10949076D01*
X1947214Y10951718D01*
X1950008Y10954664D01*
X1953768Y10956290D01*
X1957832Y10956290D01*
X1961591Y10954664D01*
X1964385Y10951718D01*
X1966061Y10949076D01*
X1970176Y10944961D01*
X1975053Y10941913D01*
X1980539Y10939983D01*
X1986838Y10939272D01*
X2028189Y10939272D01*
X2028189Y11007090D01*
X1961388Y11007090D01*
X1957476Y11007852D01*
X1954225Y11010087D01*
X1951989Y11013338D01*
X1951228Y11017250D01*
X1951228Y11106150D01*
X1951989Y11110061D01*
X1954225Y11113312D01*
X1957476Y11115548D01*
X1961388Y11116310D01*
X2028189Y11116310D01*
X2028189Y11184128D01*
X1986838Y11184128D01*
X1980539Y11183416D01*
X1975053Y11181486D01*
X1970176Y11178438D01*
X1966061Y11174323D01*
X1964385Y11171682D01*
X1961591Y11168735D01*
X1957832Y11167110D01*
X1953768Y11167110D01*
X1950008Y11168735D01*
X1947214Y11171682D01*
X1945538Y11174323D01*
X1941423Y11178438D01*
X1936546Y11181486D01*
X1931060Y11183416D01*
X1924761Y11184128D01*
X1732838Y11184128D01*
X1726539Y11183416D01*
X1721053Y11181486D01*
X1716176Y11178438D01*
X1712061Y11174323D01*
X1709013Y11169446D01*
X1707083Y11163960D01*
X1706372Y11157661D01*
X1706372Y10965738D01*
X1707083Y10959439D01*
X1709013Y10953953D01*
X1712061Y10949076D01*
X1716176Y10944961D01*
X1721053Y10941913D01*
X1726539Y10939983D01*
G37*
G36*
X2137410Y11116310D02*
G01*
X2205228Y11116310D01*
X2205228Y11157661D01*
X2204516Y11163960D01*
X2202586Y11169446D01*
X2199538Y11174323D01*
X2195423Y11178438D01*
X2190546Y11181486D01*
X2185060Y11183416D01*
X2178761Y11184128D01*
X2137410Y11184128D01*
G37*

%LPD*%
G36*
X4694732Y5298694D02*
G01*
X4690872Y5299456D01*
X4687570Y5301691D01*
X4428794Y5560466D01*
X4426458Y5564073D01*
X4425848Y5568340D01*
X4427067Y5572506D01*
X4429912Y5575757D01*
X4433824Y5577586D01*
X4438142Y5577586D01*
X4446574Y5575706D01*
X4459325Y5574842D01*
X4472025Y5575706D01*
X4484471Y5578449D01*
X4496409Y5582920D01*
X4507636Y5589016D01*
X4517847Y5596636D01*
X4526838Y5605678D01*
X4534509Y5615889D01*
X4540605Y5627065D01*
X4545076Y5639003D01*
X4547768Y5651500D01*
X4548682Y5664200D01*
X4547768Y5676900D01*
X4545076Y5689396D01*
X4540605Y5701334D01*
X4534509Y5712510D01*
X4526838Y5722721D01*
X4517847Y5731764D01*
X4512056Y5736082D01*
X4509871Y5738317D01*
X4508500Y5741111D01*
X4507992Y5744210D01*
X4507992Y5855665D01*
X4508804Y5859526D01*
X4510989Y5862828D01*
X4674870Y6026708D01*
X4678172Y6028893D01*
X4682032Y6029706D01*
X5795467Y6029706D01*
X5799328Y6028893D01*
X5802630Y6026708D01*
X5952032Y5877306D01*
X5954268Y5874004D01*
X5955030Y5870143D01*
X5955030Y5749442D01*
X5954369Y5745886D01*
X5952540Y5742787D01*
X5949746Y5740501D01*
X5947664Y5739384D01*
X5937453Y5731764D01*
X5928461Y5722721D01*
X5920790Y5712510D01*
X5914694Y5701334D01*
X5910224Y5689396D01*
X5907532Y5676900D01*
X5906617Y5664200D01*
X5907532Y5651500D01*
X5910224Y5639003D01*
X5912459Y5633008D01*
X5913120Y5629148D01*
X5912256Y5625338D01*
X5909970Y5622137D01*
X5906719Y5620004D01*
X5902858Y5619292D01*
X5899048Y5620105D01*
X5895797Y5622290D01*
X5888380Y5629656D01*
X5886196Y5632958D01*
X5885434Y5636869D01*
X5885434Y5727141D01*
X5884672Y5733440D01*
X5882792Y5738926D01*
X5879693Y5743803D01*
X5875629Y5747918D01*
X5870702Y5750966D01*
X5865266Y5752896D01*
X5858916Y5753608D01*
X5733084Y5753608D01*
X5726734Y5752896D01*
X5721299Y5750966D01*
X5716371Y5747918D01*
X5712307Y5743803D01*
X5709208Y5738926D01*
X5707329Y5733440D01*
X5706618Y5727141D01*
X5706618Y5601258D01*
X5707329Y5594959D01*
X5709208Y5589473D01*
X5712307Y5584596D01*
X5716371Y5580481D01*
X5721299Y5577433D01*
X5726734Y5575503D01*
X5733084Y5574792D01*
X5744921Y5574792D01*
X5748832Y5574030D01*
X5752134Y5571794D01*
X5754319Y5568543D01*
X5755081Y5564632D01*
X5755081Y5550458D01*
X5754319Y5546547D01*
X5752134Y5543245D01*
X5510530Y5301691D01*
X5507228Y5299456D01*
X5503367Y5298694D01*
G37*

%LPC*%
G36*
X4659325Y5574842D02*
G01*
X4672025Y5575706D01*
X4684471Y5578449D01*
X4696409Y5582920D01*
X4707636Y5589016D01*
X4717846Y5596636D01*
X4726838Y5605678D01*
X4734509Y5615889D01*
X4740605Y5627065D01*
X4745075Y5639003D01*
X4747768Y5651500D01*
X4748682Y5664200D01*
X4747768Y5676900D01*
X4745075Y5689396D01*
X4740605Y5701334D01*
X4734509Y5712510D01*
X4726838Y5722721D01*
X4717846Y5731764D01*
X4707636Y5739384D01*
X4696409Y5745480D01*
X4684471Y5749950D01*
X4672025Y5752693D01*
X4659325Y5753557D01*
X4646574Y5752693D01*
X4634128Y5749950D01*
X4622190Y5745480D01*
X4610963Y5739384D01*
X4600752Y5731764D01*
X4591761Y5722721D01*
X4584090Y5712510D01*
X4577994Y5701334D01*
X4573524Y5689396D01*
X4570831Y5676900D01*
X4569917Y5664200D01*
X4570831Y5651500D01*
X4573524Y5639003D01*
X4577994Y5627065D01*
X4584090Y5615889D01*
X4591761Y5605678D01*
X4600752Y5596636D01*
X4610963Y5589016D01*
X4622190Y5582920D01*
X4634128Y5578449D01*
X4646574Y5575706D01*
G37*
G36*
X4821224Y5583428D02*
G01*
X4821224Y5626100D01*
X4778502Y5626100D01*
X4784090Y5615889D01*
X4791760Y5605678D01*
X4800752Y5596636D01*
X4810963Y5589016D01*
G37*
G36*
X4897424Y5583428D02*
G01*
X4907635Y5589016D01*
X4917846Y5596636D01*
X4926838Y5605678D01*
X4934508Y5615889D01*
X4940096Y5626100D01*
X4897424Y5626100D01*
G37*
G36*
X4778502Y5702300D02*
G01*
X4821224Y5702300D01*
X4821224Y5744972D01*
X4810963Y5739384D01*
X4800752Y5731764D01*
X4791760Y5722721D01*
X4784090Y5712510D01*
G37*
G36*
X4897424Y5702300D02*
G01*
X4940096Y5702300D01*
X4934508Y5712510D01*
X4926838Y5722721D01*
X4917846Y5731764D01*
X4907635Y5739384D01*
X4897424Y5744972D01*
G37*

%LPD*%
D10*
X5613400Y10297388D02*
G01*
X4523511Y10297388D01*
X4508500Y10312400D01*
X4503496Y11226393D02*
G01*
X4503496Y10317403D01*
X4508500Y10312400D01*
D11*
X4259300Y7086600D02*
G01*
X4259300Y8102600D01*
X4259300Y8102600D02*
G01*
X4259300Y9144000D01*
X5783300Y8128000D02*
G01*
X5783300Y9144000D01*
X5783300Y7112000D02*
G01*
X5783300Y8128000D01*
X4459300Y7086600D02*
G01*
X4459300Y8102600D01*
X4459300Y9144000D02*
G01*
X4459300Y8102600D01*
X5983300Y8128000D02*
G01*
X5983300Y9144000D01*
X5983300Y7112000D02*
G01*
X5983300Y8128000D01*
X4459224Y7086600D02*
G01*
X4459224Y6958076D01*
X4800600Y6616700D01*
X5435600Y6604000D01*
X5983300Y7112000D02*
G01*
X5475300Y6604000D01*
X5435600Y6604000D01*
X4259300Y9144000D02*
G01*
X4259300Y9174200D01*
X4521200Y9436100D01*
X5491200Y9436100D01*
X5783300Y9144000D01*
X5996000Y5664200D02*
G01*
X6415100Y5245100D01*
X7099300Y5245100D01*
X5796000Y5664200D02*
G01*
X6469100Y4991100D01*
X7099300Y4991100D01*
X4267200Y5664200D02*
G01*
X4673600Y5257800D01*
X5524500Y5257800D01*
X5796000Y5529300D01*
X5796000Y5664200D01*
X4467097Y5664200D02*
G01*
X4467097Y5876797D01*
X4660900Y6070600D01*
X5816600Y6070600D01*
X5995924Y5891276D01*
X5995924Y5664200D01*
D10*
X4748504Y11606403D02*
G01*
X5604383Y11606403D01*
X5613400Y11597386D01*
X4748504Y11846407D02*
G01*
X6108700Y11861800D01*
X7112000Y11150600D01*
X7099300Y9550400D01*
X5604383Y11606403D02*
G01*
X5881497Y11606403D01*
X6273800Y11214100D01*
D11*
X4263491Y11226393D02*
G01*
X4263491Y10791291D01*
X4152900Y10680700D01*
X3479800Y10680700D01*
X2374900Y9575800D01*
X1270000Y9575800D01*
X1257300Y9563100D01*
X2146300Y6946900D02*
G01*
X2146300Y6542786D01*
X2961386Y6959600D02*
G01*
X2959100Y6542786D01*
X1257300Y5245100D02*
G01*
X2146300Y5242813D01*
X1257300Y4991100D02*
G01*
X2707411Y4991100D01*
X2959100Y5242788D01*
X4143502Y11226292D02*
G01*
X4140200Y10820400D01*
X4114800Y10795000D01*
X3403600Y10795000D01*
X2387600Y9791700D01*
X1231900Y9791700D01*
X1003300Y9563100D01*
X5983300Y9144000D02*
G01*
X5983300Y9247200D01*
X6045200Y9309100D01*
X6845300Y9309100D01*
X7099300Y9055100D01*
X5783300Y9144000D02*
G01*
X5969000Y9423400D01*
X6985000Y9423400D01*
X7099300Y9309100D01*
X2476500Y7988300D02*
G01*
X1435100Y7988300D01*
X1257300Y8039100D01*
X2476500Y8242300D02*
G01*
X1562100Y8242300D01*
X1473200Y8153400D01*
X1117600Y8153400D01*
X1003300Y8039100D01*
X1003300Y7785100D02*
G01*
X952500Y7785100D01*
X876300Y7861300D01*
X876300Y8572500D01*
X965200Y8661400D01*
X2324100Y8661400D01*
X2413000Y8750300D01*
X2476500Y8750300D01*
X2476500Y7734300D02*
G01*
X2870200Y7734300D01*
X3467100Y7137400D01*
X3467100Y5219700D01*
X3949700Y4737100D01*
X7251700Y4724400D01*
X7480300Y4876800D01*
X7480300Y5753100D01*
X7416800Y5867400D01*
X7150100Y5867400D01*
X7099300Y5753100D01*
G36*
X3823487Y11881408D02*
G01*
X3973499Y11881408D01*
X3973499Y11811406D01*
X3823487Y11811406D01*
G37*
G36*
X3823487Y11761419D02*
G01*
X3973499Y11761419D01*
X3973499Y11691416D01*
X3823487Y11691416D01*
G37*
G36*
X3823487Y11641404D02*
G01*
X3973499Y11641404D01*
X3973499Y11571401D01*
X3823487Y11571401D01*
G37*
G36*
X3823487Y11521414D02*
G01*
X3973499Y11521414D01*
X3973499Y11451412D01*
X3823487Y11451412D01*
G37*
G36*
X3823487Y11401399D02*
G01*
X3973499Y11401399D01*
X3973499Y11331397D01*
X3823487Y11331397D01*
G37*
D13*
G01*
X4023486Y11226393D03*
G01*
X4143502Y11226393D03*
G01*
X4263491Y11226393D03*
G01*
X4383481Y11226393D03*
G01*
X4503496Y11226393D03*
G01*
X4623485Y11226393D03*
D12*
G01*
X4748504Y11366398D03*
G01*
X4748504Y11486413D03*
G01*
X4748504Y11606403D03*
G01*
X4748504Y11726418D03*
G01*
X4748504Y11846407D03*
G36*
X4195800Y5727700D02*
G01*
X4322800Y5727700D01*
X4322800Y5600700D01*
X4195800Y5600700D01*
G37*
D15*
G01*
X4459300Y5664200D03*
G01*
X4659299Y5664200D03*
G01*
X4859299Y5664200D03*
D16*
G01*
X2961309Y6959625D03*
G01*
X2956890Y7213574D03*
G01*
X2146300Y6946900D03*
G01*
X2146300Y7200900D03*
G36*
X5719800Y7175500D02*
G01*
X5846800Y7175500D01*
X5846800Y7048500D01*
X5719800Y7048500D01*
G37*
D15*
G01*
X5983300Y7112000D03*
G01*
X6183299Y7112000D03*
G01*
X6383299Y7112000D03*
G36*
X4195800Y7150100D02*
G01*
X4322800Y7150100D01*
X4322800Y7023100D01*
X4195800Y7023100D01*
G37*
G01*
X4459300Y7086600D03*
G01*
X4659299Y7086600D03*
G01*
X4859299Y7086600D03*
G36*
X5732500Y5727700D02*
G01*
X5859500Y5727700D01*
X5859500Y5600700D01*
X5732500Y5600700D01*
G37*
G01*
X5996000Y5664200D03*
G01*
X6195999Y5664200D03*
G01*
X6395999Y5664200D03*
D17*
G01*
X2082800Y11061700D03*
G01*
X1828800Y11061700D03*
G01*
X1828800Y10337800D03*
G01*
X2082800Y10337800D03*
G36*
X2387600Y9093200D02*
G01*
X2565400Y9093200D01*
X2565400Y8915400D01*
X2387600Y8915400D01*
G37*
G36*
X2387600Y8839200D02*
G01*
X2565400Y8839200D01*
X2565400Y8661400D01*
X2387600Y8661400D01*
G37*
G36*
X2387600Y8585200D02*
G01*
X2565400Y8585200D01*
X2565400Y8407400D01*
X2387600Y8407400D01*
G37*
G36*
X2387600Y8331200D02*
G01*
X2565400Y8331200D01*
X2565400Y8153400D01*
X2387600Y8153400D01*
G37*
G36*
X2387600Y8077200D02*
G01*
X2565400Y8077200D01*
X2565400Y7899400D01*
X2387600Y7899400D01*
G37*
G36*
X2387600Y7823200D02*
G01*
X2565400Y7823200D01*
X2565400Y7645400D01*
X2387600Y7645400D01*
G37*
D19*
G01*
X7099300Y9563100D03*
G01*
X7353300Y9563100D03*
G01*
X7099300Y9309100D03*
G01*
X7353300Y9309100D03*
G01*
X7099300Y9055100D03*
G01*
X7353300Y9055100D03*
G01*
X7099300Y8801100D03*
G01*
X7353300Y8801100D03*
G01*
X7099300Y8547100D03*
G01*
X7353300Y8547100D03*
G01*
X7099300Y8293100D03*
G01*
X7353300Y8293100D03*
G01*
X7099300Y8039100D03*
G01*
X7353300Y8039100D03*
G01*
X7099300Y7785100D03*
G01*
X7353300Y7785100D03*
G01*
X7099300Y7531100D03*
G01*
X7353300Y7531100D03*
G01*
X7099300Y7277100D03*
G01*
X7353300Y7277100D03*
G01*
X7099300Y7023100D03*
G01*
X7353300Y7023100D03*
G01*
X7099300Y6769100D03*
G01*
X7353300Y6769100D03*
G01*
X7099300Y6515100D03*
G01*
X7353300Y6515100D03*
G01*
X7099300Y6261100D03*
G01*
X7353300Y6261100D03*
G01*
X7099300Y6007100D03*
G01*
X7353300Y6007100D03*
G01*
X7099300Y5753100D03*
G01*
X7353300Y5753100D03*
G01*
X7099300Y5499100D03*
G01*
X7353300Y5499100D03*
G01*
X7099300Y5245100D03*
G01*
X7353300Y5245100D03*
G01*
X7099300Y4991100D03*
G01*
X7353300Y4991100D03*
G01*
X1003300Y9563100D03*
G01*
X1257300Y9563100D03*
G01*
X1003300Y9309100D03*
G01*
X1257300Y9309100D03*
G01*
X1003300Y9055100D03*
G01*
X1257300Y9055100D03*
G01*
X1003300Y8801100D03*
G01*
X1257300Y8801100D03*
G01*
X1003300Y8547100D03*
G01*
X1257300Y8547100D03*
G01*
X1003300Y8293100D03*
G01*
X1257300Y8293100D03*
G01*
X1003300Y8039100D03*
G01*
X1257300Y8039100D03*
G01*
X1003300Y7785100D03*
G01*
X1257300Y7785100D03*
G01*
X1003300Y7531100D03*
G01*
X1257300Y7531100D03*
G01*
X1003300Y7277100D03*
G01*
X1257300Y7277100D03*
G01*
X1003300Y7023100D03*
G01*
X1257300Y7023100D03*
G01*
X1003300Y6769100D03*
G01*
X1257300Y6769100D03*
G01*
X1003300Y6515100D03*
G01*
X1257300Y6515100D03*
G01*
X1003300Y6261100D03*
G01*
X1257300Y6261100D03*
G01*
X1003300Y6007100D03*
G01*
X1257300Y6007100D03*
G01*
X1003300Y5753100D03*
G01*
X1257300Y5753100D03*
G01*
X1003300Y5499100D03*
G01*
X1257300Y5499100D03*
G01*
X1003300Y5245100D03*
G01*
X1257300Y5245100D03*
G01*
X1003300Y4991100D03*
G01*
X1257300Y4991100D03*
G01*
X3695700Y10299700D03*
G01*
X3695700Y9791700D03*
G01*
X4508500Y9804400D03*
G01*
X4508500Y10312400D03*
G01*
X6273800Y10706100D03*
G01*
X6273800Y11214100D03*
G36*
X5719800Y9207500D02*
G01*
X5846800Y9207500D01*
X5846800Y9080500D01*
X5719800Y9080500D01*
G37*
D15*
G01*
X5983300Y9144000D03*
G01*
X6183299Y9144000D03*
G01*
X6383299Y9144000D03*
G36*
X4195800Y8166100D02*
G01*
X4322800Y8166100D01*
X4322800Y8039100D01*
X4195800Y8039100D01*
G37*
G01*
X4459300Y8102600D03*
G01*
X4659299Y8102600D03*
G01*
X4859299Y8102600D03*
G36*
X5719800Y8191500D02*
G01*
X5846800Y8191500D01*
X5846800Y8064500D01*
X5719800Y8064500D01*
G37*
G01*
X5983300Y8128000D03*
G01*
X6183299Y8128000D03*
G01*
X6383299Y8128000D03*
G36*
X4195800Y9207500D02*
G01*
X4322800Y9207500D01*
X4322800Y9080500D01*
X4195800Y9080500D01*
G37*
G01*
X4459300Y9144000D03*
G01*
X4659299Y9144000D03*
G01*
X4859299Y9144000D03*
D19*
G01*
X2146300Y5242788D03*
G01*
X2146300Y6542786D03*
G01*
X5613400Y11597386D03*
G01*
X5613400Y10297388D03*
G01*
X2959100Y5242788D03*
G01*
X2959100Y6542786D03*
M02*
