G04 Layer: BottomLayer*
G04 EasyEDA v6.4.31, 2022-02-12 11:49:02*
G04 e007ce868bfc41669b98f304f8b66a95,955daf9958a1483280a48a3f8fd5623a,10*
G04 Gerber Generator version 0.2*
G04 Scale: 100 percent, Rotated: No, Reflected: No *
G04 Dimensions in millimeters *
G04 leading zeros omitted , absolute positions ,4 integer and 5 decimal *
%FSLAX45Y45*%
%MOMM*%

%ADD11C,0.3000*%
%ADD15C,1.2700*%
%ADD16C,1.6510*%
%ADD17R,1.9304X1.9304*%
%ADD19C,1.5240*%

%LPD*%
D11*
X1828800Y11061700D02*
G01*
X1828800Y10337800D01*
X2082800Y10337800D02*
G01*
X2082800Y10045700D01*
X1955800Y9918700D01*
X914400Y9918700D01*
X825500Y9829800D01*
X825500Y7810500D01*
X990600Y7645400D01*
X1143000Y7645400D01*
X1257300Y7531100D01*
X2476500Y9004300D02*
G01*
X1257300Y7785100D01*
X6183299Y9144000D02*
G01*
X6183299Y8128000D01*
X6183299Y7112000D02*
G01*
X6183299Y8128000D01*
X4659299Y7086600D02*
G01*
X4659299Y8102600D01*
X4659299Y9144000D02*
G01*
X4659299Y8102600D01*
X4659299Y9144000D02*
G01*
X4964099Y9448800D01*
X5878499Y9448800D01*
X6183299Y9144000D01*
X3695700Y9791700D02*
G01*
X2908300Y9004300D01*
X2476500Y9004300D01*
X3695700Y9791700D02*
G01*
X4368800Y9434576D01*
X4659375Y9144000D01*
X6183299Y9144000D02*
G01*
X6578600Y9539300D01*
X6578600Y10947400D01*
X6426200Y11087100D01*
X6273800Y11214100D01*
X6183375Y7112000D02*
G01*
X6183375Y5664200D01*
X6196075Y5664200D01*
X4667199Y5664200D02*
G01*
X4667199Y6038799D01*
X4965700Y6337300D01*
X6183375Y6337300D01*
X4859274Y7086600D02*
G01*
X4859274Y6611873D01*
X4635500Y6388100D01*
X3975100Y6388100D01*
X3797300Y6210300D01*
X3797300Y5257800D01*
X4127500Y4927600D01*
X4749800Y4927600D01*
X4864100Y5041900D01*
X4864100Y5659373D01*
X4859274Y5664200D01*
G36*
X4195800Y5727700D02*
G01*
X4322800Y5727700D01*
X4322800Y5600700D01*
X4195800Y5600700D01*
G37*
D15*
G01*
X4459300Y5664200D03*
G01*
X4659299Y5664200D03*
G01*
X4859299Y5664200D03*
D16*
G01*
X2961309Y6959625D03*
G01*
X2956890Y7213574D03*
G01*
X2146300Y6946900D03*
G01*
X2146300Y7200900D03*
G36*
X5719800Y7175500D02*
G01*
X5846800Y7175500D01*
X5846800Y7048500D01*
X5719800Y7048500D01*
G37*
D15*
G01*
X5983300Y7112000D03*
G01*
X6183299Y7112000D03*
G01*
X6383299Y7112000D03*
G36*
X4195800Y7150100D02*
G01*
X4322800Y7150100D01*
X4322800Y7023100D01*
X4195800Y7023100D01*
G37*
G01*
X4459300Y7086600D03*
G01*
X4659299Y7086600D03*
G01*
X4859299Y7086600D03*
G36*
X5732500Y5727700D02*
G01*
X5859500Y5727700D01*
X5859500Y5600700D01*
X5732500Y5600700D01*
G37*
G01*
X5996000Y5664200D03*
G01*
X6195999Y5664200D03*
G01*
X6395999Y5664200D03*
D17*
G01*
X2082800Y11061700D03*
G01*
X1828800Y11061700D03*
G01*
X1828800Y10337800D03*
G01*
X2082800Y10337800D03*
G36*
X2387600Y9093200D02*
G01*
X2565400Y9093200D01*
X2565400Y8915400D01*
X2387600Y8915400D01*
G37*
G36*
X2387600Y8839200D02*
G01*
X2565400Y8839200D01*
X2565400Y8661400D01*
X2387600Y8661400D01*
G37*
G36*
X2387600Y8585200D02*
G01*
X2565400Y8585200D01*
X2565400Y8407400D01*
X2387600Y8407400D01*
G37*
G36*
X2387600Y8331200D02*
G01*
X2565400Y8331200D01*
X2565400Y8153400D01*
X2387600Y8153400D01*
G37*
G36*
X2387600Y8077200D02*
G01*
X2565400Y8077200D01*
X2565400Y7899400D01*
X2387600Y7899400D01*
G37*
G36*
X2387600Y7823200D02*
G01*
X2565400Y7823200D01*
X2565400Y7645400D01*
X2387600Y7645400D01*
G37*
D19*
G01*
X7099300Y9563100D03*
G01*
X7353300Y9563100D03*
G01*
X7099300Y9309100D03*
G01*
X7353300Y9309100D03*
G01*
X7099300Y9055100D03*
G01*
X7353300Y9055100D03*
G01*
X7099300Y8801100D03*
G01*
X7353300Y8801100D03*
G01*
X7099300Y8547100D03*
G01*
X7353300Y8547100D03*
G01*
X7099300Y8293100D03*
G01*
X7353300Y8293100D03*
G01*
X7099300Y8039100D03*
G01*
X7353300Y8039100D03*
G01*
X7099300Y7785100D03*
G01*
X7353300Y7785100D03*
G01*
X7099300Y7531100D03*
G01*
X7353300Y7531100D03*
G01*
X7099300Y7277100D03*
G01*
X7353300Y7277100D03*
G01*
X7099300Y7023100D03*
G01*
X7353300Y7023100D03*
G01*
X7099300Y6769100D03*
G01*
X7353300Y6769100D03*
G01*
X7099300Y6515100D03*
G01*
X7353300Y6515100D03*
G01*
X7099300Y6261100D03*
G01*
X7353300Y6261100D03*
G01*
X7099300Y6007100D03*
G01*
X7353300Y6007100D03*
G01*
X7099300Y5753100D03*
G01*
X7353300Y5753100D03*
G01*
X7099300Y5499100D03*
G01*
X7353300Y5499100D03*
G01*
X7099300Y5245100D03*
G01*
X7353300Y5245100D03*
G01*
X7099300Y4991100D03*
G01*
X7353300Y4991100D03*
G01*
X1003300Y9563100D03*
G01*
X1257300Y9563100D03*
G01*
X1003300Y9309100D03*
G01*
X1257300Y9309100D03*
G01*
X1003300Y9055100D03*
G01*
X1257300Y9055100D03*
G01*
X1003300Y8801100D03*
G01*
X1257300Y8801100D03*
G01*
X1003300Y8547100D03*
G01*
X1257300Y8547100D03*
G01*
X1003300Y8293100D03*
G01*
X1257300Y8293100D03*
G01*
X1003300Y8039100D03*
G01*
X1257300Y8039100D03*
G01*
X1003300Y7785100D03*
G01*
X1257300Y7785100D03*
G01*
X1003300Y7531100D03*
G01*
X1257300Y7531100D03*
G01*
X1003300Y7277100D03*
G01*
X1257300Y7277100D03*
G01*
X1003300Y7023100D03*
G01*
X1257300Y7023100D03*
G01*
X1003300Y6769100D03*
G01*
X1257300Y6769100D03*
G01*
X1003300Y6515100D03*
G01*
X1257300Y6515100D03*
G01*
X1003300Y6261100D03*
G01*
X1257300Y6261100D03*
G01*
X1003300Y6007100D03*
G01*
X1257300Y6007100D03*
G01*
X1003300Y5753100D03*
G01*
X1257300Y5753100D03*
G01*
X1003300Y5499100D03*
G01*
X1257300Y5499100D03*
G01*
X1003300Y5245100D03*
G01*
X1257300Y5245100D03*
G01*
X1003300Y4991100D03*
G01*
X1257300Y4991100D03*
G01*
X3695700Y10299700D03*
G01*
X3695700Y9791700D03*
G01*
X4508500Y9804400D03*
G01*
X4508500Y10312400D03*
G01*
X6273800Y10706100D03*
G01*
X6273800Y11214100D03*
G36*
X5719800Y9207500D02*
G01*
X5846800Y9207500D01*
X5846800Y9080500D01*
X5719800Y9080500D01*
G37*
D15*
G01*
X5983300Y9144000D03*
G01*
X6183299Y9144000D03*
G01*
X6383299Y9144000D03*
G36*
X4195800Y8166100D02*
G01*
X4322800Y8166100D01*
X4322800Y8039100D01*
X4195800Y8039100D01*
G37*
G01*
X4459300Y8102600D03*
G01*
X4659299Y8102600D03*
G01*
X4859299Y8102600D03*
G36*
X5719800Y8191500D02*
G01*
X5846800Y8191500D01*
X5846800Y8064500D01*
X5719800Y8064500D01*
G37*
G01*
X5983300Y8128000D03*
G01*
X6183299Y8128000D03*
G01*
X6383299Y8128000D03*
G36*
X4195800Y9207500D02*
G01*
X4322800Y9207500D01*
X4322800Y9080500D01*
X4195800Y9080500D01*
G37*
G01*
X4459300Y9144000D03*
G01*
X4659299Y9144000D03*
G01*
X4859299Y9144000D03*
D19*
G01*
X2146300Y5242788D03*
G01*
X2146300Y6542786D03*
G01*
X5613400Y11597386D03*
G01*
X5613400Y10297388D03*
G01*
X2959100Y5242788D03*
G01*
X2959100Y6542786D03*
M02*
