G04 Layer: TopLayer*
G04 EasyEDA v6.4.31, 2022-02-12 21:58:38*
G04 11df6e3db19843adbe4402e5d5cbdb9a,955daf9958a1483280a48a3f8fd5623a,10*
G04 Gerber Generator version 0.2*
G04 Scale: 100 percent, Rotated: No, Reflected: No *
G04 Dimensions in millimeters *
G04 leading zeros omitted , absolute positions ,4 integer and 5 decimal *
%FSLAX45Y45*%
%MOMM*%

%ADD11C,0.3000*%
%ADD12C,0.6200*%
%ADD13R,1.5000X0.7000*%
%ADD14R,0.7000X1.5000*%
%ADD15C,1.6510*%
%ADD16R,1.6000X1.7000*%
%ADD17C,1.7000*%
%ADD18R,1.2700X1.2700*%
%ADD19C,1.2700*%
%ADD20C,1.5240*%
%ADD21R,1.9304X1.9304*%

%LPD*%
G36*
X785368Y4712208D02*
G01*
X781456Y4712970D01*
X778205Y4715205D01*
X775970Y4718456D01*
X775208Y4722368D01*
X775208Y4930089D01*
X775970Y4933950D01*
X778154Y4937252D01*
X781405Y4939487D01*
X785266Y4940249D01*
X789178Y4939538D01*
X796137Y4936744D01*
X805586Y4934712D01*
X815238Y4934254D01*
X824788Y4935524D01*
X833983Y4938318D01*
X842619Y4942687D01*
X850087Y4948224D01*
X852932Y4949698D01*
X856132Y4950206D01*
X903376Y4950206D01*
X906780Y4949596D01*
X909828Y4947869D01*
X912114Y4945227D01*
X919124Y4933340D01*
X927608Y4922621D01*
X937412Y4913122D01*
X948385Y4905044D01*
X960323Y4898491D01*
X973074Y4893614D01*
X986332Y4890414D01*
X999896Y4889093D01*
X1013510Y4889550D01*
X1026972Y4891786D01*
X1039977Y4895850D01*
X1052372Y4901590D01*
X1063853Y4908905D01*
X1074267Y4917694D01*
X1083411Y4927854D01*
X1091133Y4939080D01*
X1097280Y4951222D01*
X1101750Y4964125D01*
X1104493Y4977485D01*
X1105408Y4991100D01*
X1104493Y5004714D01*
X1101750Y5018074D01*
X1097280Y5030978D01*
X1091133Y5043119D01*
X1083411Y5054346D01*
X1074267Y5064506D01*
X1063853Y5073294D01*
X1052372Y5080609D01*
X1039977Y5086350D01*
X1026972Y5090414D01*
X1013510Y5092649D01*
X999896Y5093106D01*
X986332Y5091785D01*
X973074Y5088585D01*
X960323Y5083708D01*
X948385Y5077155D01*
X937412Y5069078D01*
X927608Y5059578D01*
X919124Y5048859D01*
X912114Y5036972D01*
X909828Y5034330D01*
X906780Y5032603D01*
X903376Y5031994D01*
X856132Y5031994D01*
X852932Y5032502D01*
X850087Y5033975D01*
X842619Y5039512D01*
X833983Y5043881D01*
X824788Y5046675D01*
X815238Y5047945D01*
X805586Y5047488D01*
X796137Y5045456D01*
X789178Y5042662D01*
X785266Y5041950D01*
X781405Y5042712D01*
X778154Y5044948D01*
X775970Y5048250D01*
X775208Y5052110D01*
X775208Y5184089D01*
X775970Y5187950D01*
X778154Y5191252D01*
X781405Y5193487D01*
X785266Y5194249D01*
X789178Y5193538D01*
X796137Y5190744D01*
X805586Y5188712D01*
X815238Y5188254D01*
X824788Y5189524D01*
X833983Y5192318D01*
X842619Y5196687D01*
X850087Y5202224D01*
X852932Y5203698D01*
X856132Y5204206D01*
X903376Y5204206D01*
X906780Y5203596D01*
X909828Y5201869D01*
X912114Y5199227D01*
X919124Y5187340D01*
X927608Y5176621D01*
X937412Y5167122D01*
X948385Y5159044D01*
X960323Y5152491D01*
X973074Y5147614D01*
X986332Y5144414D01*
X999896Y5143093D01*
X1013510Y5143550D01*
X1026972Y5145786D01*
X1039977Y5149850D01*
X1052372Y5155590D01*
X1063853Y5162905D01*
X1074267Y5171694D01*
X1083411Y5181854D01*
X1091133Y5193080D01*
X1097280Y5205222D01*
X1101750Y5218125D01*
X1104493Y5231485D01*
X1105408Y5245100D01*
X1104493Y5258714D01*
X1101750Y5272074D01*
X1097280Y5284978D01*
X1091133Y5297119D01*
X1083411Y5308346D01*
X1074267Y5318506D01*
X1063853Y5327294D01*
X1052372Y5334609D01*
X1039977Y5340350D01*
X1026972Y5344414D01*
X1013510Y5346649D01*
X999896Y5347106D01*
X986332Y5345785D01*
X973074Y5342585D01*
X960323Y5337708D01*
X948385Y5331155D01*
X937412Y5323078D01*
X927608Y5313578D01*
X919124Y5302859D01*
X912114Y5290972D01*
X909828Y5288330D01*
X906780Y5286603D01*
X903376Y5285994D01*
X856132Y5285994D01*
X852932Y5286502D01*
X850087Y5287975D01*
X842619Y5293512D01*
X833983Y5297881D01*
X824788Y5300675D01*
X815238Y5301945D01*
X805586Y5301488D01*
X796137Y5299456D01*
X789178Y5296662D01*
X785266Y5295950D01*
X781405Y5296712D01*
X778154Y5298948D01*
X775970Y5302250D01*
X775208Y5306110D01*
X775208Y9121089D01*
X775970Y9124950D01*
X778154Y9128252D01*
X781405Y9130487D01*
X785266Y9131249D01*
X789178Y9130538D01*
X796137Y9127744D01*
X805586Y9125712D01*
X815238Y9125254D01*
X824788Y9126524D01*
X833983Y9129318D01*
X842619Y9133687D01*
X850087Y9139224D01*
X852932Y9140698D01*
X856132Y9141206D01*
X920699Y9141206D01*
X924610Y9140393D01*
X927912Y9138158D01*
X930097Y9134856D01*
X930859Y9130893D01*
X929995Y9127032D01*
X927608Y9123578D01*
X919124Y9112859D01*
X912164Y9101124D01*
X906881Y9088577D01*
X903274Y9075420D01*
X901446Y9061907D01*
X901446Y9048292D01*
X903274Y9034780D01*
X906881Y9021622D01*
X912164Y9009075D01*
X919124Y8997340D01*
X927608Y8986621D01*
X937412Y8977122D01*
X948385Y8969044D01*
X960323Y8962491D01*
X973074Y8957614D01*
X986332Y8954414D01*
X999896Y8953093D01*
X1013510Y8953550D01*
X1026972Y8955786D01*
X1039977Y8959850D01*
X1052372Y8965590D01*
X1063853Y8972905D01*
X1074267Y8981694D01*
X1083411Y8991854D01*
X1091133Y9003080D01*
X1097280Y9015222D01*
X1101750Y9028125D01*
X1104493Y9041485D01*
X1105408Y9055100D01*
X1105001Y9060840D01*
X1105560Y9064904D01*
X1107643Y9068409D01*
X1110945Y9070797D01*
X1114907Y9071711D01*
X1118920Y9070949D01*
X1122324Y9068714D01*
X1155750Y9035338D01*
X1157325Y9033256D01*
X1158341Y9030817D01*
X1160881Y9021622D01*
X1166164Y9009075D01*
X1173124Y8997340D01*
X1181608Y8986621D01*
X1191412Y8977122D01*
X1202385Y8969044D01*
X1214323Y8962491D01*
X1227074Y8957614D01*
X1240332Y8954414D01*
X1253896Y8953093D01*
X1267510Y8953550D01*
X1280972Y8955786D01*
X1293977Y8959850D01*
X1306372Y8965590D01*
X1317853Y8972905D01*
X1328267Y8981694D01*
X1337411Y8991854D01*
X1345133Y9003080D01*
X1351280Y9015222D01*
X1355750Y9028125D01*
X1358493Y9041485D01*
X1359408Y9055100D01*
X1358493Y9068714D01*
X1355750Y9082074D01*
X1351280Y9094978D01*
X1345133Y9107119D01*
X1337411Y9118346D01*
X1328267Y9128506D01*
X1317853Y9137294D01*
X1306372Y9144609D01*
X1293977Y9150350D01*
X1280972Y9154414D01*
X1267510Y9156649D01*
X1253896Y9157106D01*
X1240332Y9155785D01*
X1227074Y9152585D01*
X1214323Y9147708D01*
X1202385Y9141155D01*
X1191412Y9133078D01*
X1189583Y9131300D01*
X1186281Y9129166D01*
X1182420Y9128455D01*
X1178610Y9129217D01*
X1175308Y9131401D01*
X1096060Y9210649D01*
X1089507Y9216085D01*
X1082446Y9219844D01*
X1080109Y9220555D01*
X1076553Y9222486D01*
X1074013Y9225686D01*
X1072896Y9229598D01*
X1073454Y9233611D01*
X1075537Y9237116D01*
X1083411Y9245854D01*
X1091133Y9257080D01*
X1097280Y9269222D01*
X1101750Y9282125D01*
X1104493Y9295485D01*
X1105408Y9309100D01*
X1104493Y9322714D01*
X1101750Y9336074D01*
X1097280Y9348978D01*
X1091133Y9361119D01*
X1083411Y9372346D01*
X1074267Y9382506D01*
X1063853Y9391294D01*
X1052372Y9398609D01*
X1039977Y9404350D01*
X1026972Y9408414D01*
X1013510Y9410649D01*
X999896Y9411106D01*
X986332Y9409785D01*
X973074Y9406585D01*
X960323Y9401708D01*
X948385Y9395155D01*
X937412Y9387078D01*
X927608Y9377578D01*
X919124Y9366859D01*
X912164Y9355124D01*
X906881Y9342577D01*
X903274Y9329420D01*
X901446Y9315907D01*
X901446Y9302292D01*
X903274Y9288780D01*
X906881Y9275622D01*
X912164Y9263075D01*
X919124Y9251340D01*
X927760Y9240469D01*
X929995Y9237167D01*
X930859Y9233306D01*
X930097Y9229344D01*
X927912Y9226042D01*
X924610Y9223806D01*
X920699Y9222994D01*
X856132Y9222994D01*
X852932Y9223502D01*
X850087Y9224975D01*
X842619Y9230512D01*
X833983Y9234881D01*
X824788Y9237675D01*
X815238Y9238945D01*
X805586Y9238488D01*
X796137Y9236456D01*
X789178Y9233662D01*
X785266Y9232950D01*
X781405Y9233712D01*
X778154Y9235948D01*
X775970Y9239250D01*
X775208Y9243110D01*
X775208Y11914632D01*
X775970Y11918543D01*
X778205Y11921794D01*
X781456Y11924030D01*
X785368Y11924792D01*
X3809898Y11924792D01*
X3813860Y11923979D01*
X3817213Y11921693D01*
X3819398Y11918289D01*
X3820058Y11914327D01*
X3819144Y11910364D01*
X3816756Y11907113D01*
X3812286Y11904675D01*
X3807358Y11901627D01*
X3803294Y11897512D01*
X3800195Y11892635D01*
X3798315Y11887149D01*
X3797604Y11880850D01*
X3797604Y11811965D01*
X3798315Y11805666D01*
X3800195Y11800179D01*
X3803294Y11795302D01*
X3804970Y11793575D01*
X3807206Y11790324D01*
X3807968Y11786412D01*
X3807206Y11782501D01*
X3804970Y11779250D01*
X3803294Y11777522D01*
X3800195Y11772646D01*
X3798315Y11767159D01*
X3797604Y11760860D01*
X3797604Y11750243D01*
X3854653Y11750243D01*
X3854653Y11775338D01*
X3855415Y11779250D01*
X3857599Y11782501D01*
X3860901Y11784736D01*
X3864813Y11785498D01*
X3932174Y11785498D01*
X3936085Y11784736D01*
X3939387Y11782501D01*
X3941572Y11779250D01*
X3942334Y11775338D01*
X3942334Y11750243D01*
X3999382Y11750243D01*
X3999382Y11760860D01*
X3998671Y11767159D01*
X3996791Y11772646D01*
X3993692Y11777522D01*
X3992016Y11779250D01*
X3989781Y11782501D01*
X3989019Y11786412D01*
X3989781Y11790324D01*
X3992016Y11793575D01*
X3993692Y11795302D01*
X3996791Y11800179D01*
X3998671Y11805666D01*
X3999382Y11811965D01*
X3999382Y11880850D01*
X3998671Y11887149D01*
X3996791Y11892635D01*
X3993692Y11897512D01*
X3989628Y11901627D01*
X3984701Y11904675D01*
X3980230Y11907113D01*
X3977843Y11910364D01*
X3976928Y11914327D01*
X3977589Y11918289D01*
X3979773Y11921693D01*
X3983126Y11923979D01*
X3987088Y11924792D01*
X4659934Y11924792D01*
X4663897Y11923979D01*
X4667250Y11921693D01*
X4669434Y11918289D01*
X4670094Y11914327D01*
X4669180Y11910364D01*
X4666742Y11907113D01*
X4662271Y11904675D01*
X4657394Y11901627D01*
X4653280Y11897512D01*
X4650232Y11892635D01*
X4648301Y11887149D01*
X4647590Y11880850D01*
X4647590Y11811965D01*
X4648301Y11805666D01*
X4650232Y11800179D01*
X4653280Y11795302D01*
X4655007Y11793575D01*
X4657191Y11790324D01*
X4657953Y11786412D01*
X4657191Y11782501D01*
X4655007Y11779250D01*
X4653280Y11777522D01*
X4650232Y11772646D01*
X4648301Y11767159D01*
X4647590Y11760860D01*
X4647590Y11691975D01*
X4648301Y11685676D01*
X4650232Y11680190D01*
X4653280Y11675313D01*
X4655007Y11673586D01*
X4657191Y11670284D01*
X4658004Y11666423D01*
X4657191Y11662511D01*
X4655007Y11659209D01*
X4653280Y11657533D01*
X4650232Y11652605D01*
X4648301Y11647170D01*
X4647590Y11640820D01*
X4647590Y11571986D01*
X4648301Y11565636D01*
X4650232Y11560200D01*
X4653280Y11555272D01*
X4655007Y11553596D01*
X4657191Y11550294D01*
X4657953Y11546382D01*
X4657191Y11542522D01*
X4655007Y11539220D01*
X4653280Y11537543D01*
X4650232Y11532616D01*
X4648301Y11527180D01*
X4647590Y11520830D01*
X4647590Y11510264D01*
X4704638Y11510264D01*
X4704638Y11535308D01*
X4705451Y11539220D01*
X4707636Y11542522D01*
X4710938Y11544706D01*
X4714798Y11545468D01*
X4782210Y11545468D01*
X4786071Y11544706D01*
X4789373Y11542522D01*
X4791557Y11539220D01*
X4792370Y11535308D01*
X4792370Y11510264D01*
X4849418Y11510264D01*
X4849418Y11520830D01*
X4848707Y11527180D01*
X4846777Y11532616D01*
X4843729Y11537543D01*
X4842002Y11539220D01*
X4839817Y11542522D01*
X4839055Y11546382D01*
X4839817Y11550294D01*
X4842002Y11553596D01*
X4843729Y11555272D01*
X4847132Y11560759D01*
X4849418Y11563299D01*
X4852365Y11564924D01*
X4855718Y11565483D01*
X6208064Y11565483D01*
X6212027Y11564670D01*
X6215380Y11562384D01*
X6217564Y11558981D01*
X6219291Y11554409D01*
X6225844Y11542471D01*
X6233922Y11531498D01*
X6243421Y11521694D01*
X6254140Y11513210D01*
X6265875Y11506301D01*
X6278422Y11500967D01*
X6291580Y11497360D01*
X6305092Y11495532D01*
X6318707Y11495532D01*
X6332220Y11497360D01*
X6343700Y11500510D01*
X6347206Y11500815D01*
X6350660Y11499900D01*
X6353556Y11497868D01*
X6636308Y11215116D01*
X6638544Y11211814D01*
X6639306Y11207953D01*
X6639306Y10168432D01*
X6638544Y10164572D01*
X6636308Y10161270D01*
X6424930Y9949891D01*
X6421628Y9947656D01*
X6417767Y9946894D01*
X3823208Y9946894D01*
X3814724Y9946081D01*
X3807053Y9943744D01*
X3799992Y9939985D01*
X3793439Y9934549D01*
X3616350Y9757460D01*
X3610914Y9750907D01*
X3607155Y9743846D01*
X3604818Y9736175D01*
X3604006Y9727692D01*
X3604006Y9635032D01*
X3603244Y9631172D01*
X3601008Y9627870D01*
X3279140Y9306001D01*
X3273755Y9299448D01*
X3269996Y9292386D01*
X3267659Y9284716D01*
X3266846Y9276232D01*
X3266846Y8820454D01*
X3266236Y8817102D01*
X3264560Y8814104D01*
X3260598Y8809126D01*
X3255873Y8800744D01*
X3252673Y8791651D01*
X3251047Y8782100D01*
X3251047Y8772499D01*
X3252673Y8762949D01*
X3255873Y8753856D01*
X3260598Y8745474D01*
X3266643Y8737955D01*
X3273856Y8731554D01*
X3282086Y8726525D01*
X3291027Y8722918D01*
X3300476Y8720886D01*
X3310128Y8720480D01*
X3319678Y8721699D01*
X3328924Y8724544D01*
X3337509Y8728862D01*
X3345281Y8734602D01*
X3351936Y8741562D01*
X3357372Y8749588D01*
X3361334Y8758377D01*
X3363772Y8767673D01*
X3364585Y8777274D01*
X3363772Y8786926D01*
X3361334Y8796223D01*
X3357372Y8805011D01*
X3349396Y8816746D01*
X3348634Y8820556D01*
X3348634Y9255556D01*
X3349396Y9259468D01*
X3351631Y9262770D01*
X3673449Y9584639D01*
X3678885Y9591192D01*
X3682644Y9598253D01*
X3684981Y9605924D01*
X3685794Y9614408D01*
X3685794Y9707067D01*
X3686556Y9710928D01*
X3688791Y9714230D01*
X3836670Y9862108D01*
X3839972Y9864293D01*
X3843832Y9865106D01*
X6438392Y9865106D01*
X6446875Y9865918D01*
X6454546Y9868255D01*
X6461607Y9872014D01*
X6468160Y9877450D01*
X6708749Y10118039D01*
X6714185Y10124592D01*
X6717944Y10131653D01*
X6720281Y10139324D01*
X6721094Y10147808D01*
X6721094Y11228578D01*
X6720281Y11237061D01*
X6717944Y11244732D01*
X6714185Y11251793D01*
X6708749Y11258346D01*
X6411468Y11555679D01*
X6409283Y11558879D01*
X6408470Y11562689D01*
X6412585Y11580418D01*
X6413906Y11593982D01*
X6413449Y11607596D01*
X6411214Y11621058D01*
X6407150Y11634063D01*
X6401409Y11646458D01*
X6394094Y11657939D01*
X6385306Y11668353D01*
X6375146Y11677497D01*
X6363919Y11685219D01*
X6351778Y11691366D01*
X6338874Y11695836D01*
X6325514Y11698579D01*
X6311900Y11699494D01*
X6298285Y11698579D01*
X6284925Y11695836D01*
X6272022Y11691366D01*
X6259880Y11685219D01*
X6248654Y11677497D01*
X6238494Y11668353D01*
X6229705Y11657939D01*
X6225946Y11651996D01*
X6223660Y11649506D01*
X6220714Y11647881D01*
X6217361Y11647322D01*
X4855718Y11647322D01*
X4852365Y11647881D01*
X4849418Y11649506D01*
X4847132Y11652046D01*
X4843729Y11657533D01*
X4842002Y11659209D01*
X4839817Y11662511D01*
X4839004Y11666423D01*
X4839817Y11670284D01*
X4842002Y11673586D01*
X4843729Y11675313D01*
X4846777Y11680190D01*
X4848707Y11685676D01*
X4849418Y11691975D01*
X4849418Y11760860D01*
X4848707Y11767159D01*
X4846777Y11772646D01*
X4843729Y11777522D01*
X4842002Y11779250D01*
X4839817Y11782501D01*
X4839055Y11786412D01*
X4839817Y11790324D01*
X4842002Y11793575D01*
X4843729Y11795302D01*
X4847132Y11800738D01*
X4849418Y11803278D01*
X4852365Y11804904D01*
X4855718Y11805513D01*
X6522059Y11805513D01*
X6525920Y11804700D01*
X6529222Y11802516D01*
X7055408Y11276330D01*
X7057644Y11273028D01*
X7058406Y11269167D01*
X7058406Y9662871D01*
X7057745Y9659315D01*
X7055916Y9656216D01*
X7053122Y9653930D01*
X7044385Y9649155D01*
X7033412Y9641078D01*
X7023608Y9631578D01*
X7015124Y9620859D01*
X7008164Y9609124D01*
X7002881Y9596577D01*
X6999274Y9583420D01*
X6997446Y9569907D01*
X6997446Y9556292D01*
X6999274Y9542780D01*
X7002881Y9529622D01*
X7008164Y9517075D01*
X7015124Y9505340D01*
X7023608Y9494621D01*
X7033412Y9485122D01*
X7044385Y9477044D01*
X7056323Y9470491D01*
X7069074Y9465614D01*
X7082332Y9462414D01*
X7095896Y9461093D01*
X7109510Y9461550D01*
X7122972Y9463786D01*
X7135977Y9467850D01*
X7148372Y9473590D01*
X7159853Y9480905D01*
X7170267Y9489694D01*
X7179411Y9499854D01*
X7187133Y9511080D01*
X7193280Y9523222D01*
X7197750Y9536125D01*
X7200493Y9549485D01*
X7201408Y9563100D01*
X7200493Y9576714D01*
X7197750Y9590074D01*
X7193280Y9602978D01*
X7187133Y9615119D01*
X7179411Y9626346D01*
X7170267Y9636506D01*
X7159853Y9645294D01*
X7148372Y9652609D01*
X7146086Y9653676D01*
X7142988Y9655911D01*
X7140905Y9659112D01*
X7140194Y9662871D01*
X7140194Y11289792D01*
X7139381Y11298275D01*
X7137044Y11305946D01*
X7133285Y11313007D01*
X7127849Y11319560D01*
X6572453Y11874957D01*
X6565900Y11880392D01*
X6558838Y11884152D01*
X6551168Y11886488D01*
X6542684Y11887301D01*
X4855718Y11887301D01*
X4852365Y11887860D01*
X4849418Y11889536D01*
X4847132Y11892076D01*
X4843729Y11897512D01*
X4839614Y11901627D01*
X4834737Y11904675D01*
X4830267Y11907113D01*
X4827828Y11910364D01*
X4826914Y11914327D01*
X4827574Y11918289D01*
X4829759Y11921693D01*
X4833112Y11923979D01*
X4837074Y11924792D01*
X7596581Y11924792D01*
X7600442Y11924030D01*
X7603744Y11921794D01*
X7605979Y11918492D01*
X7606741Y11914632D01*
X7594142Y4722368D01*
X7593380Y4718456D01*
X7591196Y4715154D01*
X7587894Y4712970D01*
X7583982Y4712208D01*
G37*

%LPC*%
G36*
X7349896Y4889093D02*
G01*
X7363510Y4889550D01*
X7376972Y4891786D01*
X7389977Y4895850D01*
X7402372Y4901590D01*
X7413853Y4908905D01*
X7424267Y4917694D01*
X7433411Y4927854D01*
X7441133Y4939080D01*
X7447280Y4951222D01*
X7451750Y4964125D01*
X7454493Y4977485D01*
X7455408Y4991100D01*
X7454493Y5004714D01*
X7451750Y5018074D01*
X7447280Y5030978D01*
X7441133Y5043119D01*
X7433411Y5054346D01*
X7424267Y5064506D01*
X7413853Y5073294D01*
X7402372Y5080609D01*
X7389977Y5086350D01*
X7376972Y5090414D01*
X7363510Y5092649D01*
X7349896Y5093106D01*
X7336332Y5091785D01*
X7323074Y5088585D01*
X7310323Y5083708D01*
X7298385Y5077155D01*
X7287412Y5069078D01*
X7277608Y5059578D01*
X7269124Y5048859D01*
X7262164Y5037124D01*
X7256881Y5024577D01*
X7253274Y5011420D01*
X7251446Y4997907D01*
X7251446Y4984292D01*
X7253274Y4970780D01*
X7256881Y4957622D01*
X7262164Y4945075D01*
X7269124Y4933340D01*
X7277608Y4922621D01*
X7287412Y4913122D01*
X7298385Y4905044D01*
X7310323Y4898491D01*
X7323074Y4893614D01*
X7336332Y4890414D01*
G37*
G36*
X7095896Y4889093D02*
G01*
X7109510Y4889550D01*
X7122972Y4891786D01*
X7135977Y4895850D01*
X7148372Y4901590D01*
X7159853Y4908905D01*
X7170267Y4917694D01*
X7179411Y4927854D01*
X7187133Y4939080D01*
X7193280Y4951222D01*
X7197750Y4964125D01*
X7200493Y4977485D01*
X7201408Y4991100D01*
X7200493Y5004714D01*
X7197750Y5018074D01*
X7193280Y5030978D01*
X7187133Y5043119D01*
X7179411Y5054346D01*
X7170267Y5064506D01*
X7159853Y5073294D01*
X7148372Y5080609D01*
X7135977Y5086350D01*
X7122972Y5090414D01*
X7109510Y5092649D01*
X7095896Y5093106D01*
X7082332Y5091785D01*
X7069074Y5088585D01*
X7056323Y5083708D01*
X7044385Y5077155D01*
X7033412Y5069078D01*
X7023608Y5059578D01*
X7015124Y5048859D01*
X7008114Y5036972D01*
X7005828Y5034330D01*
X7002780Y5032603D01*
X6999376Y5031994D01*
X6905447Y5031994D01*
X6902246Y5032502D01*
X6899402Y5033975D01*
X6891883Y5039512D01*
X6883298Y5043881D01*
X6874052Y5046675D01*
X6864502Y5047945D01*
X6854850Y5047488D01*
X6845452Y5045456D01*
X6836460Y5041900D01*
X6828281Y5036820D01*
X6821017Y5030470D01*
X6814972Y5022951D01*
X6810248Y5014518D01*
X6807047Y5005425D01*
X6805422Y4995926D01*
X6805422Y4986274D01*
X6807047Y4976774D01*
X6810248Y4967681D01*
X6814972Y4959248D01*
X6821017Y4951730D01*
X6828281Y4945380D01*
X6836460Y4940300D01*
X6845452Y4936744D01*
X6854850Y4934712D01*
X6864502Y4934254D01*
X6874052Y4935524D01*
X6883298Y4938318D01*
X6891883Y4942687D01*
X6899402Y4948224D01*
X6902246Y4949698D01*
X6905447Y4950206D01*
X6999376Y4950206D01*
X7002780Y4949596D01*
X7005828Y4947869D01*
X7008114Y4945227D01*
X7015124Y4933340D01*
X7023608Y4922621D01*
X7033412Y4913122D01*
X7044385Y4905044D01*
X7056323Y4898491D01*
X7069074Y4893614D01*
X7082332Y4890414D01*
G37*
G36*
X1253896Y4889093D02*
G01*
X1267510Y4889550D01*
X1280972Y4891786D01*
X1293977Y4895850D01*
X1306372Y4901590D01*
X1317853Y4908905D01*
X1328267Y4917694D01*
X1337411Y4927854D01*
X1345133Y4939080D01*
X1347927Y4944618D01*
X1350162Y4947564D01*
X1353362Y4949494D01*
X1357020Y4950206D01*
X1480870Y4950206D01*
X1484477Y4949545D01*
X1487576Y4947666D01*
X1490167Y4945380D01*
X1498396Y4940300D01*
X1507337Y4936744D01*
X1516786Y4934712D01*
X1526438Y4934254D01*
X1535988Y4935524D01*
X1545183Y4938318D01*
X1553819Y4942687D01*
X1561592Y4948428D01*
X1568246Y4955387D01*
X1573631Y4963363D01*
X1577644Y4972151D01*
X1580032Y4981498D01*
X1580896Y4991100D01*
X1580032Y5000701D01*
X1577644Y5010048D01*
X1573631Y5018836D01*
X1568246Y5026812D01*
X1561592Y5033772D01*
X1553819Y5039512D01*
X1545183Y5043881D01*
X1535988Y5046675D01*
X1526438Y5047945D01*
X1516786Y5047488D01*
X1507337Y5045456D01*
X1498396Y5041900D01*
X1490167Y5036820D01*
X1487576Y5034534D01*
X1484477Y5032654D01*
X1480870Y5031994D01*
X1357020Y5031994D01*
X1353362Y5032705D01*
X1350162Y5034635D01*
X1347927Y5037582D01*
X1345133Y5043119D01*
X1337411Y5054346D01*
X1328267Y5064506D01*
X1317853Y5073294D01*
X1306372Y5080609D01*
X1293977Y5086350D01*
X1280972Y5090414D01*
X1267510Y5092649D01*
X1253896Y5093106D01*
X1240332Y5091785D01*
X1227074Y5088585D01*
X1214323Y5083708D01*
X1202385Y5077155D01*
X1191412Y5069078D01*
X1181608Y5059578D01*
X1173124Y5048859D01*
X1166164Y5037124D01*
X1160881Y5024577D01*
X1157274Y5011420D01*
X1155446Y4997907D01*
X1155446Y4984292D01*
X1157274Y4970780D01*
X1160881Y4957622D01*
X1166164Y4945075D01*
X1173124Y4933340D01*
X1181608Y4922621D01*
X1191412Y4913122D01*
X1202385Y4905044D01*
X1214323Y4898491D01*
X1227074Y4893614D01*
X1240332Y4890414D01*
G37*
G36*
X1945030Y5007457D02*
G01*
X1959152Y5008626D01*
X1973021Y5011623D01*
X1986381Y5016449D01*
X1998980Y5022951D01*
X2010613Y5031028D01*
X2021128Y5040579D01*
X2030272Y5051399D01*
X2037943Y5063286D01*
X2043988Y5076139D01*
X2048357Y5089652D01*
X2050846Y5103622D01*
X2051557Y5117795D01*
X2050389Y5131917D01*
X2047341Y5145786D01*
X2042566Y5159146D01*
X2036064Y5171744D01*
X2027986Y5183378D01*
X2018436Y5193893D01*
X2007616Y5203037D01*
X1995678Y5210708D01*
X1982876Y5216753D01*
X1969363Y5221122D01*
X1955393Y5223611D01*
X1941220Y5224322D01*
X1927098Y5223103D01*
X1913229Y5220106D01*
X1899869Y5215331D01*
X1887270Y5208828D01*
X1875637Y5200751D01*
X1865122Y5191201D01*
X1855978Y5180380D01*
X1848256Y5168442D01*
X1842211Y5155641D01*
X1837893Y5142128D01*
X1835404Y5128158D01*
X1834692Y5113985D01*
X1835861Y5099862D01*
X1838909Y5085994D01*
X1843684Y5072634D01*
X1850186Y5060035D01*
X1858264Y5048402D01*
X1867814Y5037886D01*
X1878634Y5028692D01*
X1890572Y5021021D01*
X1903374Y5014976D01*
X1916887Y5010658D01*
X1930857Y5008118D01*
G37*
G36*
X2198979Y5011877D02*
G01*
X2213102Y5013045D01*
X2226970Y5016093D01*
X2240330Y5020868D01*
X2252929Y5027371D01*
X2264562Y5035448D01*
X2275078Y5044998D01*
X2284272Y5055819D01*
X2291943Y5067757D01*
X2297988Y5080558D01*
X2302306Y5094071D01*
X2304846Y5108041D01*
X2305507Y5122214D01*
X2304338Y5136337D01*
X2301341Y5150205D01*
X2296515Y5163566D01*
X2290013Y5176164D01*
X2281936Y5187797D01*
X2272385Y5198313D01*
X2261565Y5207457D01*
X2249678Y5215178D01*
X2236825Y5221224D01*
X2223312Y5225542D01*
X2209342Y5228031D01*
X2195169Y5228742D01*
X2181047Y5227574D01*
X2167178Y5224526D01*
X2153818Y5219750D01*
X2141220Y5213248D01*
X2129586Y5205171D01*
X2119071Y5195620D01*
X2109927Y5184800D01*
X2102256Y5172862D01*
X2096211Y5160060D01*
X2091842Y5146548D01*
X2089353Y5132578D01*
X2088642Y5118404D01*
X2089861Y5104282D01*
X2092858Y5090414D01*
X2097633Y5077053D01*
X2104136Y5064455D01*
X2112213Y5052822D01*
X2121763Y5042306D01*
X2132584Y5033162D01*
X2144522Y5025491D01*
X2157323Y5019446D01*
X2170836Y5015077D01*
X2184806Y5012588D01*
G37*
G36*
X2432710Y5016093D02*
G01*
X2446324Y5016550D01*
X2459786Y5018786D01*
X2472791Y5022850D01*
X2485136Y5028590D01*
X2496667Y5035905D01*
X2507081Y5044694D01*
X2516225Y5054854D01*
X2523947Y5066080D01*
X2530094Y5078222D01*
X2534564Y5091125D01*
X2537256Y5104485D01*
X2538171Y5118100D01*
X2537256Y5131714D01*
X2534564Y5145074D01*
X2530094Y5157978D01*
X2523947Y5170119D01*
X2516225Y5181346D01*
X2507081Y5191506D01*
X2496667Y5200294D01*
X2485136Y5207609D01*
X2472791Y5213350D01*
X2459786Y5217414D01*
X2446324Y5219649D01*
X2432710Y5220106D01*
X2419096Y5218785D01*
X2405837Y5215585D01*
X2393137Y5210708D01*
X2381148Y5204155D01*
X2370175Y5196078D01*
X2360371Y5186578D01*
X2351938Y5175859D01*
X2344978Y5164124D01*
X2339644Y5151577D01*
X2336038Y5138420D01*
X2334260Y5124907D01*
X2334260Y5111292D01*
X2336038Y5097780D01*
X2339644Y5084622D01*
X2344978Y5072075D01*
X2351938Y5060340D01*
X2360371Y5049621D01*
X2370175Y5040122D01*
X2381148Y5032044D01*
X2393137Y5025491D01*
X2405837Y5020614D01*
X2419096Y5017414D01*
G37*
G36*
X3732682Y5016093D02*
G01*
X3746296Y5016550D01*
X3759758Y5018786D01*
X3772763Y5022850D01*
X3785158Y5028590D01*
X3796639Y5035905D01*
X3807053Y5044694D01*
X3816197Y5054854D01*
X3823919Y5066080D01*
X3830065Y5078222D01*
X3834536Y5091125D01*
X3837279Y5104485D01*
X3838194Y5118100D01*
X3837279Y5131714D01*
X3834536Y5145074D01*
X3830065Y5157978D01*
X3823919Y5170119D01*
X3816197Y5181346D01*
X3807053Y5191506D01*
X3796639Y5200294D01*
X3785158Y5207609D01*
X3772763Y5213350D01*
X3759758Y5217414D01*
X3746296Y5219649D01*
X3732682Y5220106D01*
X3719118Y5218785D01*
X3705860Y5215585D01*
X3693109Y5210708D01*
X3681171Y5204155D01*
X3670198Y5196078D01*
X3660394Y5186578D01*
X3651910Y5175859D01*
X3645001Y5164124D01*
X3639667Y5151577D01*
X3636060Y5138420D01*
X3634232Y5124907D01*
X3634232Y5111292D01*
X3636060Y5097780D01*
X3639667Y5084622D01*
X3645001Y5072075D01*
X3651910Y5060340D01*
X3660394Y5049621D01*
X3670198Y5040122D01*
X3681171Y5032044D01*
X3693109Y5025491D01*
X3705860Y5020614D01*
X3719118Y5017414D01*
G37*
G36*
X7349896Y5143093D02*
G01*
X7363510Y5143550D01*
X7376972Y5145786D01*
X7389977Y5149850D01*
X7402372Y5155590D01*
X7413853Y5162905D01*
X7424267Y5171694D01*
X7433411Y5181854D01*
X7441133Y5193080D01*
X7447280Y5205222D01*
X7451750Y5218125D01*
X7454493Y5231485D01*
X7455408Y5245100D01*
X7454493Y5258714D01*
X7451750Y5272074D01*
X7447280Y5284978D01*
X7441133Y5297119D01*
X7433411Y5308346D01*
X7424267Y5318506D01*
X7413853Y5327294D01*
X7402372Y5334609D01*
X7389977Y5340350D01*
X7376972Y5344414D01*
X7363510Y5346649D01*
X7349896Y5347106D01*
X7336332Y5345785D01*
X7323074Y5342585D01*
X7310323Y5337708D01*
X7298385Y5331155D01*
X7287412Y5323078D01*
X7277608Y5313578D01*
X7269124Y5302859D01*
X7262164Y5291124D01*
X7256881Y5278577D01*
X7253274Y5265420D01*
X7251446Y5251907D01*
X7251446Y5238292D01*
X7253274Y5224780D01*
X7256881Y5211622D01*
X7262164Y5199075D01*
X7269124Y5187340D01*
X7277608Y5176621D01*
X7287412Y5167122D01*
X7298385Y5159044D01*
X7310323Y5152491D01*
X7323074Y5147614D01*
X7336332Y5144414D01*
G37*
G36*
X7095896Y5143093D02*
G01*
X7109510Y5143550D01*
X7122972Y5145786D01*
X7135977Y5149850D01*
X7148372Y5155590D01*
X7159853Y5162905D01*
X7170267Y5171694D01*
X7179411Y5181854D01*
X7187133Y5193080D01*
X7193280Y5205222D01*
X7197750Y5218125D01*
X7200493Y5231485D01*
X7201408Y5245100D01*
X7200493Y5258714D01*
X7197750Y5272074D01*
X7193280Y5284978D01*
X7187133Y5297119D01*
X7179411Y5308346D01*
X7170267Y5318506D01*
X7159853Y5327294D01*
X7148372Y5334609D01*
X7135977Y5340350D01*
X7122972Y5344414D01*
X7109510Y5346649D01*
X7095896Y5347106D01*
X7082332Y5345785D01*
X7069074Y5342585D01*
X7056323Y5337708D01*
X7044385Y5331155D01*
X7033412Y5323078D01*
X7023608Y5313578D01*
X7015124Y5302859D01*
X7008114Y5290972D01*
X7005828Y5288330D01*
X7002780Y5286603D01*
X6999376Y5285994D01*
X6902043Y5285994D01*
X6898843Y5286502D01*
X6895998Y5287975D01*
X6888530Y5293512D01*
X6879894Y5297881D01*
X6870700Y5300675D01*
X6861098Y5301945D01*
X6851497Y5301488D01*
X6842048Y5299456D01*
X6833108Y5295900D01*
X6824878Y5290820D01*
X6817664Y5284470D01*
X6811568Y5276951D01*
X6806895Y5268518D01*
X6803644Y5259425D01*
X6802018Y5249926D01*
X6802018Y5240274D01*
X6803644Y5230774D01*
X6806895Y5221681D01*
X6811568Y5213248D01*
X6817664Y5205730D01*
X6824878Y5199380D01*
X6833108Y5194300D01*
X6842048Y5190744D01*
X6851497Y5188712D01*
X6861098Y5188254D01*
X6870700Y5189524D01*
X6879894Y5192318D01*
X6888530Y5196687D01*
X6895998Y5202224D01*
X6898843Y5203698D01*
X6902043Y5204206D01*
X6999376Y5204206D01*
X7002780Y5203596D01*
X7005828Y5201869D01*
X7008114Y5199227D01*
X7015124Y5187340D01*
X7023608Y5176621D01*
X7033412Y5167122D01*
X7044385Y5159044D01*
X7056323Y5152491D01*
X7069074Y5147614D01*
X7082332Y5144414D01*
G37*
G36*
X1253896Y5143093D02*
G01*
X1267510Y5143550D01*
X1280972Y5145786D01*
X1293977Y5149850D01*
X1306372Y5155590D01*
X1317853Y5162905D01*
X1328267Y5171694D01*
X1337411Y5181854D01*
X1345133Y5193080D01*
X1347927Y5198618D01*
X1350162Y5201564D01*
X1353362Y5203494D01*
X1357020Y5204206D01*
X1480870Y5204206D01*
X1484477Y5203545D01*
X1487576Y5201666D01*
X1490167Y5199380D01*
X1498396Y5194300D01*
X1507337Y5190744D01*
X1516786Y5188712D01*
X1526438Y5188254D01*
X1535988Y5189524D01*
X1545183Y5192318D01*
X1553819Y5196687D01*
X1561592Y5202428D01*
X1568246Y5209387D01*
X1573631Y5217363D01*
X1577644Y5226151D01*
X1580032Y5235498D01*
X1580896Y5245100D01*
X1580032Y5254701D01*
X1577644Y5264048D01*
X1573631Y5272836D01*
X1568246Y5280812D01*
X1561592Y5287772D01*
X1553819Y5293512D01*
X1545183Y5297881D01*
X1535988Y5300675D01*
X1526438Y5301945D01*
X1516786Y5301488D01*
X1507337Y5299456D01*
X1498396Y5295900D01*
X1490167Y5290820D01*
X1487576Y5288534D01*
X1484477Y5286654D01*
X1480870Y5285994D01*
X1357020Y5285994D01*
X1353362Y5286705D01*
X1350162Y5288635D01*
X1347927Y5291582D01*
X1345133Y5297119D01*
X1337411Y5308346D01*
X1328267Y5318506D01*
X1317853Y5327294D01*
X1306372Y5334609D01*
X1293977Y5340350D01*
X1280972Y5344414D01*
X1267510Y5346649D01*
X1253896Y5347106D01*
X1240332Y5345785D01*
X1227074Y5342585D01*
X1214323Y5337708D01*
X1202385Y5331155D01*
X1191412Y5323078D01*
X1181608Y5313578D01*
X1173124Y5302859D01*
X1166164Y5291124D01*
X1160881Y5278577D01*
X1157274Y5265420D01*
X1155446Y5251907D01*
X1155446Y5238292D01*
X1157274Y5224780D01*
X1160881Y5211622D01*
X1166164Y5199075D01*
X1173124Y5187340D01*
X1181608Y5176621D01*
X1191412Y5167122D01*
X1202385Y5159044D01*
X1214323Y5152491D01*
X1227074Y5147614D01*
X1240332Y5144414D01*
G37*
G36*
X6071158Y5223967D02*
G01*
X6197041Y5223967D01*
X6203340Y5224729D01*
X6208826Y5226608D01*
X6213703Y5229707D01*
X6217818Y5233771D01*
X6220866Y5238699D01*
X6222796Y5244134D01*
X6223508Y5250484D01*
X6223508Y5376316D01*
X6222796Y5382666D01*
X6220866Y5388102D01*
X6217818Y5393029D01*
X6213703Y5397093D01*
X6208826Y5400192D01*
X6203340Y5402072D01*
X6197041Y5402783D01*
X6071158Y5402783D01*
X6064859Y5402072D01*
X6059373Y5400192D01*
X6054496Y5397093D01*
X6050381Y5393029D01*
X6047333Y5388102D01*
X6045403Y5382666D01*
X6044692Y5376316D01*
X6044692Y5250484D01*
X6045403Y5244134D01*
X6047333Y5238699D01*
X6050381Y5233771D01*
X6054496Y5229707D01*
X6059373Y5226608D01*
X6064859Y5224729D01*
G37*
G36*
X999896Y5397093D02*
G01*
X1013510Y5397550D01*
X1026972Y5399786D01*
X1039977Y5403850D01*
X1052372Y5409590D01*
X1063853Y5416905D01*
X1074267Y5425694D01*
X1083411Y5435854D01*
X1091133Y5447080D01*
X1097280Y5459222D01*
X1101750Y5472125D01*
X1104493Y5485485D01*
X1105408Y5499100D01*
X1104493Y5512714D01*
X1101750Y5526074D01*
X1097280Y5538978D01*
X1091133Y5551119D01*
X1083411Y5562346D01*
X1074267Y5572506D01*
X1063853Y5581294D01*
X1052372Y5588609D01*
X1039977Y5594350D01*
X1026972Y5598414D01*
X1013510Y5600649D01*
X999896Y5601106D01*
X986332Y5599785D01*
X973074Y5596585D01*
X960323Y5591708D01*
X948385Y5585155D01*
X937412Y5577078D01*
X927608Y5567578D01*
X919124Y5556859D01*
X912164Y5545124D01*
X906881Y5532577D01*
X903274Y5519420D01*
X901446Y5505907D01*
X901446Y5492292D01*
X903274Y5478780D01*
X906881Y5465622D01*
X912164Y5453075D01*
X919124Y5441340D01*
X927608Y5430621D01*
X937412Y5421122D01*
X948385Y5413044D01*
X960323Y5406491D01*
X973074Y5401614D01*
X986332Y5398414D01*
G37*
G36*
X7095896Y5397093D02*
G01*
X7109510Y5397550D01*
X7122972Y5399786D01*
X7135977Y5403850D01*
X7148372Y5409590D01*
X7159853Y5416905D01*
X7170267Y5425694D01*
X7179411Y5435854D01*
X7187133Y5447080D01*
X7193280Y5459222D01*
X7197750Y5472125D01*
X7200493Y5485485D01*
X7201408Y5499100D01*
X7200493Y5512714D01*
X7197750Y5526074D01*
X7193280Y5538978D01*
X7187133Y5551119D01*
X7179411Y5562346D01*
X7170267Y5572506D01*
X7159853Y5581294D01*
X7148372Y5588609D01*
X7135977Y5594350D01*
X7122972Y5598414D01*
X7109510Y5600649D01*
X7095896Y5601106D01*
X7082332Y5599785D01*
X7069074Y5596585D01*
X7056323Y5591708D01*
X7044385Y5585155D01*
X7033412Y5577078D01*
X7023608Y5567578D01*
X7015124Y5556859D01*
X7008164Y5545124D01*
X7002881Y5532577D01*
X6999274Y5519420D01*
X6997446Y5505907D01*
X6997446Y5492292D01*
X6999274Y5478780D01*
X7002881Y5465622D01*
X7008164Y5453075D01*
X7015124Y5441340D01*
X7023608Y5430621D01*
X7033412Y5421122D01*
X7044385Y5413044D01*
X7056323Y5406491D01*
X7069074Y5401614D01*
X7082332Y5398414D01*
G37*
G36*
X7349896Y5397093D02*
G01*
X7363510Y5397550D01*
X7376972Y5399786D01*
X7389977Y5403850D01*
X7402372Y5409590D01*
X7413853Y5416905D01*
X7424267Y5425694D01*
X7433411Y5435854D01*
X7441133Y5447080D01*
X7447280Y5459222D01*
X7451750Y5472125D01*
X7454493Y5485485D01*
X7455408Y5499100D01*
X7454493Y5512714D01*
X7451750Y5526074D01*
X7447280Y5538978D01*
X7441133Y5551119D01*
X7433411Y5562346D01*
X7424267Y5572506D01*
X7413853Y5581294D01*
X7402372Y5588609D01*
X7389977Y5594350D01*
X7376972Y5598414D01*
X7363510Y5600649D01*
X7349896Y5601106D01*
X7336332Y5599785D01*
X7323074Y5596585D01*
X7310323Y5591708D01*
X7298385Y5585155D01*
X7287412Y5577078D01*
X7277608Y5567578D01*
X7269124Y5556859D01*
X7262164Y5545124D01*
X7256881Y5532577D01*
X7253274Y5519420D01*
X7251446Y5505907D01*
X7251446Y5492292D01*
X7253274Y5478780D01*
X7256881Y5465622D01*
X7262164Y5453075D01*
X7269124Y5441340D01*
X7277608Y5430621D01*
X7287412Y5421122D01*
X7298385Y5413044D01*
X7310323Y5406491D01*
X7323074Y5401614D01*
X7336332Y5398414D01*
G37*
G36*
X1253896Y5397093D02*
G01*
X1267510Y5397550D01*
X1280972Y5399786D01*
X1293977Y5403850D01*
X1306372Y5409590D01*
X1317853Y5416905D01*
X1328267Y5425694D01*
X1337411Y5435854D01*
X1345133Y5447080D01*
X1347927Y5452618D01*
X1350162Y5455564D01*
X1353362Y5457494D01*
X1357020Y5458206D01*
X1480870Y5458206D01*
X1484477Y5457545D01*
X1487576Y5455666D01*
X1490167Y5453380D01*
X1498396Y5448300D01*
X1507337Y5444744D01*
X1516786Y5442712D01*
X1526438Y5442254D01*
X1535988Y5443524D01*
X1545183Y5446318D01*
X1553819Y5450687D01*
X1561592Y5456428D01*
X1568246Y5463387D01*
X1573631Y5471363D01*
X1577644Y5480151D01*
X1580032Y5489498D01*
X1580896Y5499100D01*
X1580032Y5508701D01*
X1577644Y5518048D01*
X1573631Y5526836D01*
X1568246Y5534812D01*
X1561592Y5541772D01*
X1553819Y5547512D01*
X1545183Y5551881D01*
X1535988Y5554675D01*
X1526438Y5555945D01*
X1516786Y5555488D01*
X1507337Y5553456D01*
X1498396Y5549900D01*
X1490167Y5544820D01*
X1487576Y5542534D01*
X1484477Y5540654D01*
X1480870Y5539994D01*
X1357020Y5539994D01*
X1353362Y5540705D01*
X1350162Y5542635D01*
X1347927Y5545582D01*
X1345133Y5551119D01*
X1337411Y5562346D01*
X1328267Y5572506D01*
X1317853Y5581294D01*
X1306372Y5588609D01*
X1293977Y5594350D01*
X1280972Y5598414D01*
X1267510Y5600649D01*
X1253896Y5601106D01*
X1240332Y5599785D01*
X1227074Y5596585D01*
X1214323Y5591708D01*
X1202385Y5585155D01*
X1191412Y5577078D01*
X1181608Y5567578D01*
X1173124Y5556859D01*
X1166164Y5545124D01*
X1160881Y5532577D01*
X1157274Y5519420D01*
X1155446Y5505907D01*
X1155446Y5492292D01*
X1157274Y5478780D01*
X1160881Y5465622D01*
X1166164Y5453075D01*
X1173124Y5441340D01*
X1181608Y5430621D01*
X1191412Y5421122D01*
X1202385Y5413044D01*
X1214323Y5406491D01*
X1227074Y5401614D01*
X1240332Y5398414D01*
G37*
G36*
X6134100Y5424017D02*
G01*
X6146800Y5424932D01*
X6159296Y5427624D01*
X6171234Y5432094D01*
X6182410Y5438190D01*
X6192621Y5445861D01*
X6201664Y5454853D01*
X6209284Y5465064D01*
X6215380Y5476290D01*
X6219850Y5488228D01*
X6222593Y5500674D01*
X6223457Y5513374D01*
X6222593Y5526125D01*
X6219850Y5538571D01*
X6215380Y5550509D01*
X6209284Y5561736D01*
X6201664Y5571947D01*
X6192621Y5580938D01*
X6182410Y5588609D01*
X6171234Y5594705D01*
X6159296Y5599176D01*
X6146800Y5601868D01*
X6134100Y5602782D01*
X6121400Y5601868D01*
X6108903Y5599176D01*
X6096965Y5594705D01*
X6085789Y5588609D01*
X6075578Y5580938D01*
X6066536Y5571947D01*
X6058916Y5561736D01*
X6052820Y5550509D01*
X6048349Y5538571D01*
X6045606Y5526125D01*
X6044742Y5513374D01*
X6045606Y5500674D01*
X6048349Y5488228D01*
X6052820Y5476290D01*
X6058916Y5465064D01*
X6066536Y5454853D01*
X6075578Y5445861D01*
X6085789Y5438190D01*
X6096965Y5432094D01*
X6108903Y5427624D01*
X6121400Y5424932D01*
G37*
G36*
X6134100Y5624017D02*
G01*
X6146800Y5624931D01*
X6159296Y5627624D01*
X6171234Y5632094D01*
X6182410Y5638190D01*
X6192621Y5645861D01*
X6201664Y5654852D01*
X6209284Y5665063D01*
X6215380Y5676290D01*
X6219850Y5688228D01*
X6222593Y5700674D01*
X6223457Y5713374D01*
X6222593Y5726125D01*
X6219850Y5738571D01*
X6215380Y5750509D01*
X6209284Y5761736D01*
X6201664Y5771946D01*
X6192621Y5780938D01*
X6182410Y5788609D01*
X6171234Y5794705D01*
X6159296Y5799175D01*
X6146800Y5801868D01*
X6134100Y5802782D01*
X6121400Y5801868D01*
X6108903Y5799175D01*
X6096965Y5794705D01*
X6085789Y5788609D01*
X6075578Y5780938D01*
X6066536Y5771946D01*
X6058916Y5761736D01*
X6052820Y5750509D01*
X6048349Y5738571D01*
X6045606Y5726125D01*
X6044742Y5713374D01*
X6045606Y5700674D01*
X6048349Y5688228D01*
X6052820Y5676290D01*
X6058916Y5665063D01*
X6066536Y5654852D01*
X6075578Y5645861D01*
X6085789Y5638190D01*
X6096965Y5632094D01*
X6108903Y5627624D01*
X6121400Y5624931D01*
G37*
G36*
X1253896Y5651093D02*
G01*
X1267510Y5651550D01*
X1280972Y5653786D01*
X1293977Y5657850D01*
X1306372Y5663590D01*
X1317853Y5670905D01*
X1328267Y5679694D01*
X1337411Y5689854D01*
X1345133Y5701080D01*
X1351280Y5713222D01*
X1355750Y5726125D01*
X1358493Y5739485D01*
X1359408Y5753100D01*
X1358493Y5766714D01*
X1355750Y5780074D01*
X1351280Y5792978D01*
X1345133Y5805119D01*
X1337411Y5816346D01*
X1328267Y5826506D01*
X1317853Y5835294D01*
X1306372Y5842609D01*
X1293977Y5848350D01*
X1280972Y5852414D01*
X1267510Y5854649D01*
X1253896Y5855106D01*
X1240332Y5853785D01*
X1227074Y5850585D01*
X1214323Y5845708D01*
X1202385Y5839155D01*
X1191412Y5831078D01*
X1181608Y5821578D01*
X1173124Y5810859D01*
X1166164Y5799124D01*
X1160881Y5786577D01*
X1157274Y5773420D01*
X1155446Y5759907D01*
X1155446Y5746292D01*
X1157274Y5732780D01*
X1160881Y5719622D01*
X1166164Y5707075D01*
X1173124Y5695340D01*
X1181608Y5684621D01*
X1191412Y5675122D01*
X1202385Y5667044D01*
X1214323Y5660491D01*
X1227074Y5655614D01*
X1240332Y5652414D01*
G37*
G36*
X999896Y5651093D02*
G01*
X1013510Y5651550D01*
X1026972Y5653786D01*
X1039977Y5657850D01*
X1052372Y5663590D01*
X1063853Y5670905D01*
X1074267Y5679694D01*
X1083411Y5689854D01*
X1091133Y5701080D01*
X1097280Y5713222D01*
X1101750Y5726125D01*
X1104493Y5739485D01*
X1105408Y5753100D01*
X1104493Y5766714D01*
X1101750Y5780074D01*
X1097280Y5792978D01*
X1091133Y5805119D01*
X1083411Y5816346D01*
X1074267Y5826506D01*
X1063853Y5835294D01*
X1052372Y5842609D01*
X1039977Y5848350D01*
X1026972Y5852414D01*
X1013510Y5854649D01*
X999896Y5855106D01*
X986332Y5853785D01*
X973074Y5850585D01*
X960323Y5845708D01*
X948385Y5839155D01*
X937412Y5831078D01*
X927608Y5821578D01*
X919124Y5810859D01*
X912164Y5799124D01*
X906881Y5786577D01*
X903274Y5773420D01*
X901446Y5759907D01*
X901446Y5746292D01*
X903274Y5732780D01*
X906881Y5719622D01*
X912164Y5707075D01*
X919124Y5695340D01*
X927608Y5684621D01*
X937412Y5675122D01*
X948385Y5667044D01*
X960323Y5660491D01*
X973074Y5655614D01*
X986332Y5652414D01*
G37*
G36*
X7095896Y5651093D02*
G01*
X7109510Y5651550D01*
X7122972Y5653786D01*
X7135977Y5657850D01*
X7148372Y5663590D01*
X7159853Y5670905D01*
X7170267Y5679694D01*
X7179411Y5689854D01*
X7187133Y5701080D01*
X7193280Y5713222D01*
X7197750Y5726125D01*
X7200493Y5739485D01*
X7201408Y5753100D01*
X7200493Y5766714D01*
X7197750Y5780074D01*
X7193280Y5792978D01*
X7187133Y5805119D01*
X7179411Y5816346D01*
X7170267Y5826506D01*
X7159853Y5835294D01*
X7148372Y5842609D01*
X7135977Y5848350D01*
X7122972Y5852414D01*
X7109510Y5854649D01*
X7095896Y5855106D01*
X7082332Y5853785D01*
X7069074Y5850585D01*
X7056323Y5845708D01*
X7044385Y5839155D01*
X7033412Y5831078D01*
X7023608Y5821578D01*
X7015124Y5810859D01*
X7008164Y5799124D01*
X7002881Y5786577D01*
X6999274Y5773420D01*
X6997446Y5759907D01*
X6997446Y5746292D01*
X6999274Y5732780D01*
X7002881Y5719622D01*
X7008164Y5707075D01*
X7015124Y5695340D01*
X7023608Y5684621D01*
X7033412Y5675122D01*
X7044385Y5667044D01*
X7056323Y5660491D01*
X7069074Y5655614D01*
X7082332Y5652414D01*
G37*
G36*
X7349896Y5651093D02*
G01*
X7363510Y5651550D01*
X7376972Y5653786D01*
X7389977Y5657850D01*
X7402372Y5663590D01*
X7413853Y5670905D01*
X7424267Y5679694D01*
X7433411Y5689854D01*
X7441133Y5701080D01*
X7447280Y5713222D01*
X7451750Y5726125D01*
X7454493Y5739485D01*
X7455408Y5753100D01*
X7454493Y5766714D01*
X7451750Y5780074D01*
X7447280Y5792978D01*
X7441133Y5805119D01*
X7433411Y5816346D01*
X7424267Y5826506D01*
X7413853Y5835294D01*
X7402372Y5842609D01*
X7389977Y5848350D01*
X7376972Y5852414D01*
X7363510Y5854649D01*
X7349896Y5855106D01*
X7336332Y5853785D01*
X7323074Y5850585D01*
X7310323Y5845708D01*
X7298385Y5839155D01*
X7287412Y5831078D01*
X7277608Y5821578D01*
X7269124Y5810859D01*
X7262164Y5799124D01*
X7256881Y5786577D01*
X7253274Y5773420D01*
X7251446Y5759907D01*
X7251446Y5746292D01*
X7253274Y5732780D01*
X7256881Y5719622D01*
X7262164Y5707075D01*
X7269124Y5695340D01*
X7277608Y5684621D01*
X7287412Y5675122D01*
X7298385Y5667044D01*
X7310323Y5660491D01*
X7323074Y5655614D01*
X7336332Y5652414D01*
G37*
G36*
X1955800Y5733542D02*
G01*
X1969973Y5734507D01*
X1983841Y5737250D01*
X1997303Y5741822D01*
X2010003Y5748070D01*
X2021789Y5755995D01*
X2032457Y5765342D01*
X2041804Y5776010D01*
X2049729Y5787796D01*
X2055977Y5800496D01*
X2060549Y5813958D01*
X2063292Y5827826D01*
X2064257Y5842000D01*
X2063292Y5856173D01*
X2060549Y5870041D01*
X2055977Y5883503D01*
X2049729Y5896203D01*
X2041804Y5907989D01*
X2032457Y5918657D01*
X2021789Y5928004D01*
X2010003Y5935929D01*
X1997303Y5942177D01*
X1983841Y5946749D01*
X1969973Y5949492D01*
X1955800Y5950458D01*
X1941626Y5949492D01*
X1927758Y5946749D01*
X1914296Y5942177D01*
X1901596Y5935929D01*
X1889810Y5928004D01*
X1879142Y5918657D01*
X1869795Y5907989D01*
X1861870Y5896203D01*
X1855622Y5883503D01*
X1851050Y5870041D01*
X1848307Y5856173D01*
X1847342Y5842000D01*
X1848307Y5827826D01*
X1851050Y5813958D01*
X1855622Y5800496D01*
X1861870Y5787796D01*
X1869795Y5776010D01*
X1879142Y5765342D01*
X1889810Y5755995D01*
X1901596Y5748070D01*
X1914296Y5741822D01*
X1927758Y5737250D01*
X1941626Y5734507D01*
G37*
G36*
X2209800Y5733542D02*
G01*
X2223973Y5734507D01*
X2237841Y5737250D01*
X2251303Y5741822D01*
X2264003Y5748070D01*
X2275789Y5755995D01*
X2286457Y5765342D01*
X2295804Y5776010D01*
X2303729Y5787796D01*
X2309977Y5800496D01*
X2314549Y5813958D01*
X2316124Y5821680D01*
X2317953Y5825744D01*
X2321407Y5828639D01*
X2325725Y5829808D01*
X2330145Y5828944D01*
X2333752Y5826302D01*
X2335885Y5822340D01*
X2339644Y5808522D01*
X2344978Y5795975D01*
X2351938Y5784240D01*
X2360371Y5773521D01*
X2370175Y5764022D01*
X2381148Y5755944D01*
X2393137Y5749391D01*
X2405837Y5744514D01*
X2419096Y5741314D01*
X2432710Y5739993D01*
X2446324Y5740450D01*
X2459786Y5742686D01*
X2472791Y5746750D01*
X2485136Y5752490D01*
X2496667Y5759805D01*
X2507081Y5768594D01*
X2516225Y5778754D01*
X2523947Y5789980D01*
X2530094Y5802122D01*
X2534564Y5815025D01*
X2537256Y5828385D01*
X2538171Y5842000D01*
X2537256Y5855614D01*
X2534564Y5868974D01*
X2530094Y5881878D01*
X2523947Y5894019D01*
X2516225Y5905246D01*
X2507081Y5915406D01*
X2496667Y5924194D01*
X2485136Y5931509D01*
X2472791Y5937250D01*
X2459786Y5941314D01*
X2446324Y5943549D01*
X2432710Y5944006D01*
X2419096Y5942685D01*
X2405837Y5939485D01*
X2393137Y5934608D01*
X2381148Y5928055D01*
X2370175Y5919978D01*
X2360371Y5910478D01*
X2351938Y5899759D01*
X2344978Y5888024D01*
X2339644Y5875477D01*
X2335885Y5861558D01*
X2333752Y5857595D01*
X2330145Y5854903D01*
X2325725Y5854090D01*
X2321356Y5855208D01*
X2317953Y5858154D01*
X2316073Y5862218D01*
X2314549Y5870041D01*
X2309977Y5883503D01*
X2303729Y5896203D01*
X2295804Y5907989D01*
X2286457Y5918657D01*
X2275789Y5928004D01*
X2264003Y5935929D01*
X2251303Y5942177D01*
X2237841Y5946749D01*
X2223973Y5949492D01*
X2209800Y5950458D01*
X2195626Y5949492D01*
X2181758Y5946749D01*
X2168296Y5942177D01*
X2155596Y5935929D01*
X2143810Y5928004D01*
X2133142Y5918657D01*
X2123795Y5907989D01*
X2115870Y5896203D01*
X2109622Y5883503D01*
X2105050Y5870041D01*
X2102307Y5856173D01*
X2101342Y5842000D01*
X2102307Y5827826D01*
X2105050Y5813958D01*
X2109622Y5800496D01*
X2115870Y5787796D01*
X2123795Y5776010D01*
X2133142Y5765342D01*
X2143810Y5755995D01*
X2155596Y5748070D01*
X2168296Y5741822D01*
X2181758Y5737250D01*
X2195626Y5734507D01*
G37*
G36*
X3732682Y5739993D02*
G01*
X3746296Y5740450D01*
X3759758Y5742686D01*
X3772763Y5746750D01*
X3785158Y5752490D01*
X3796639Y5759805D01*
X3807053Y5768594D01*
X3816197Y5778754D01*
X3823919Y5789980D01*
X3830065Y5802122D01*
X3834536Y5815025D01*
X3837279Y5828385D01*
X3838194Y5842000D01*
X3837279Y5855614D01*
X3834536Y5868974D01*
X3830065Y5881878D01*
X3823919Y5894019D01*
X3816197Y5905246D01*
X3807053Y5915406D01*
X3796639Y5924194D01*
X3785158Y5931509D01*
X3772763Y5937250D01*
X3759758Y5941314D01*
X3746296Y5943549D01*
X3732682Y5944006D01*
X3719118Y5942685D01*
X3705860Y5939485D01*
X3693109Y5934608D01*
X3681171Y5928055D01*
X3670198Y5919978D01*
X3660394Y5910478D01*
X3651910Y5899759D01*
X3645001Y5888024D01*
X3639667Y5875477D01*
X3636060Y5862320D01*
X3634232Y5848807D01*
X3634232Y5835192D01*
X3636060Y5821680D01*
X3639667Y5808522D01*
X3645001Y5795975D01*
X3651910Y5784240D01*
X3660394Y5773521D01*
X3670198Y5764022D01*
X3681171Y5755944D01*
X3693109Y5749391D01*
X3705860Y5744514D01*
X3719118Y5741314D01*
G37*
G36*
X6096000Y5832602D02*
G01*
X6096000Y5875274D01*
X6053328Y5875274D01*
X6058916Y5865063D01*
X6066536Y5854852D01*
X6075578Y5845860D01*
X6085789Y5838190D01*
G37*
G36*
X6172200Y5832602D02*
G01*
X6182410Y5838190D01*
X6192621Y5845860D01*
X6201664Y5854852D01*
X6209284Y5865063D01*
X6214872Y5875274D01*
X6172200Y5875274D01*
G37*
G36*
X4851400Y5832703D02*
G01*
X4865573Y5833618D01*
X4879543Y5836361D01*
X4893005Y5840831D01*
X4905806Y5846978D01*
X4917744Y5854750D01*
X4928565Y5863945D01*
X4938115Y5874461D01*
X4946243Y5886094D01*
X4952796Y5898692D01*
X4957724Y5912053D01*
X4960874Y5925921D01*
X4962245Y5940044D01*
X4961788Y5954268D01*
X4959502Y5968288D01*
X4955489Y5981903D01*
X4949698Y5994908D01*
X4942332Y6007049D01*
X4933492Y6018174D01*
X4923282Y6028029D01*
X4911902Y6036513D01*
X4899507Y6043523D01*
X4886350Y6048857D01*
X4872583Y6052464D01*
X4858512Y6054242D01*
X4844288Y6054242D01*
X4830216Y6052464D01*
X4816449Y6048857D01*
X4803292Y6043523D01*
X4790897Y6036513D01*
X4779518Y6028029D01*
X4769307Y6018174D01*
X4760468Y6007049D01*
X4753102Y5994908D01*
X4747361Y5981903D01*
X4743297Y5968288D01*
X4741011Y5954268D01*
X4740554Y5940044D01*
X4741926Y5925921D01*
X4745075Y5912053D01*
X4750003Y5898692D01*
X4756556Y5886094D01*
X4764684Y5874461D01*
X4774234Y5863945D01*
X4785055Y5854750D01*
X4796993Y5846978D01*
X4809794Y5840831D01*
X4823256Y5836361D01*
X4837226Y5833618D01*
G37*
G36*
X4548530Y5844286D02*
G01*
X4548530Y5894730D01*
X4498086Y5894730D01*
X4502556Y5886094D01*
X4510684Y5874461D01*
X4520234Y5863945D01*
X4531055Y5854750D01*
X4542993Y5846978D01*
G37*
G36*
X4646269Y5844286D02*
G01*
X4651806Y5846978D01*
X4663744Y5854750D01*
X4674565Y5863945D01*
X4684115Y5874461D01*
X4692243Y5886094D01*
X4696714Y5894730D01*
X4646269Y5894730D01*
G37*
G36*
X1253896Y5905093D02*
G01*
X1267510Y5905550D01*
X1280972Y5907786D01*
X1293977Y5911850D01*
X1306372Y5917590D01*
X1317853Y5924905D01*
X1328267Y5933694D01*
X1337411Y5943854D01*
X1345133Y5955080D01*
X1351280Y5967222D01*
X1355750Y5980125D01*
X1358493Y5993485D01*
X1359408Y6007100D01*
X1358493Y6020714D01*
X1355750Y6034074D01*
X1351280Y6046978D01*
X1345133Y6059119D01*
X1337411Y6070346D01*
X1328267Y6080506D01*
X1317853Y6089294D01*
X1306372Y6096609D01*
X1293977Y6102350D01*
X1280972Y6106414D01*
X1267510Y6108649D01*
X1253896Y6109106D01*
X1240332Y6107785D01*
X1227074Y6104585D01*
X1214323Y6099708D01*
X1202385Y6093155D01*
X1191412Y6085078D01*
X1181608Y6075578D01*
X1173124Y6064859D01*
X1166164Y6053124D01*
X1160881Y6040577D01*
X1157274Y6027420D01*
X1155446Y6013907D01*
X1155446Y6000292D01*
X1157274Y5986780D01*
X1160881Y5973622D01*
X1166164Y5961075D01*
X1173124Y5949340D01*
X1181608Y5938621D01*
X1191412Y5929122D01*
X1202385Y5921044D01*
X1214323Y5914491D01*
X1227074Y5909614D01*
X1240332Y5906414D01*
G37*
G36*
X999896Y5905093D02*
G01*
X1013510Y5905550D01*
X1026972Y5907786D01*
X1039977Y5911850D01*
X1052372Y5917590D01*
X1063853Y5924905D01*
X1074267Y5933694D01*
X1083411Y5943854D01*
X1091133Y5955080D01*
X1097280Y5967222D01*
X1101750Y5980125D01*
X1104493Y5993485D01*
X1105408Y6007100D01*
X1104493Y6020714D01*
X1101750Y6034074D01*
X1097280Y6046978D01*
X1091133Y6059119D01*
X1083411Y6070346D01*
X1074267Y6080506D01*
X1063853Y6089294D01*
X1052372Y6096609D01*
X1039977Y6102350D01*
X1026972Y6106414D01*
X1013510Y6108649D01*
X999896Y6109106D01*
X986332Y6107785D01*
X973074Y6104585D01*
X960323Y6099708D01*
X948385Y6093155D01*
X937412Y6085078D01*
X927608Y6075578D01*
X919124Y6064859D01*
X912164Y6053124D01*
X906881Y6040577D01*
X903274Y6027420D01*
X901446Y6013907D01*
X901446Y6000292D01*
X903274Y5986780D01*
X906881Y5973622D01*
X912164Y5961075D01*
X919124Y5949340D01*
X927608Y5938621D01*
X937412Y5929122D01*
X948385Y5921044D01*
X960323Y5914491D01*
X973074Y5909614D01*
X986332Y5906414D01*
G37*
G36*
X7349896Y5905093D02*
G01*
X7363510Y5905550D01*
X7376972Y5907786D01*
X7389977Y5911850D01*
X7402372Y5917590D01*
X7413853Y5924905D01*
X7424267Y5933694D01*
X7433411Y5943854D01*
X7441133Y5955080D01*
X7447280Y5967222D01*
X7451750Y5980125D01*
X7454493Y5993485D01*
X7455408Y6007100D01*
X7454493Y6020714D01*
X7451750Y6034074D01*
X7447280Y6046978D01*
X7441133Y6059119D01*
X7433411Y6070346D01*
X7424267Y6080506D01*
X7413853Y6089294D01*
X7402372Y6096609D01*
X7389977Y6102350D01*
X7376972Y6106414D01*
X7363510Y6108649D01*
X7349896Y6109106D01*
X7336332Y6107785D01*
X7323074Y6104585D01*
X7310323Y6099708D01*
X7298385Y6093155D01*
X7287412Y6085078D01*
X7277608Y6075578D01*
X7269124Y6064859D01*
X7262164Y6053124D01*
X7256881Y6040577D01*
X7253274Y6027420D01*
X7251446Y6013907D01*
X7251446Y6000292D01*
X7253274Y5986780D01*
X7256881Y5973622D01*
X7262164Y5961075D01*
X7269124Y5949340D01*
X7277608Y5938621D01*
X7287412Y5929122D01*
X7298385Y5921044D01*
X7310323Y5914491D01*
X7323074Y5909614D01*
X7336332Y5906414D01*
G37*
G36*
X7095896Y5905093D02*
G01*
X7109510Y5905550D01*
X7122972Y5907786D01*
X7135977Y5911850D01*
X7148372Y5917590D01*
X7159853Y5924905D01*
X7170267Y5933694D01*
X7179411Y5943854D01*
X7187133Y5955080D01*
X7193280Y5967222D01*
X7197750Y5980125D01*
X7200493Y5993485D01*
X7201408Y6007100D01*
X7200493Y6020714D01*
X7197750Y6034074D01*
X7193280Y6046978D01*
X7187133Y6059119D01*
X7179411Y6070346D01*
X7170267Y6080506D01*
X7159853Y6089294D01*
X7148372Y6096609D01*
X7135977Y6102350D01*
X7122972Y6106414D01*
X7109510Y6108649D01*
X7095896Y6109106D01*
X7082332Y6107785D01*
X7069074Y6104585D01*
X7056323Y6099708D01*
X7044385Y6093155D01*
X7033412Y6085078D01*
X7023608Y6075578D01*
X7015124Y6064859D01*
X7008164Y6053124D01*
X7002881Y6040577D01*
X6999274Y6027420D01*
X6997446Y6013907D01*
X6997446Y6000292D01*
X6999274Y5986780D01*
X7002881Y5973622D01*
X7008164Y5961075D01*
X7015124Y5949340D01*
X7023608Y5938621D01*
X7033412Y5929122D01*
X7044385Y5921044D01*
X7056323Y5914491D01*
X7069074Y5909614D01*
X7082332Y5906414D01*
G37*
G36*
X6172200Y5951474D02*
G01*
X6214872Y5951474D01*
X6209284Y5961735D01*
X6201664Y5971946D01*
X6192621Y5980938D01*
X6182410Y5988608D01*
X6172200Y5994196D01*
G37*
G36*
X6053328Y5951474D02*
G01*
X6096000Y5951474D01*
X6096000Y5994196D01*
X6085789Y5988608D01*
X6075578Y5980938D01*
X6066536Y5971946D01*
X6058916Y5961735D01*
G37*
G36*
X4497984Y5992469D02*
G01*
X4548530Y5992469D01*
X4548530Y6043066D01*
X4536897Y6036513D01*
X4525518Y6028029D01*
X4515307Y6018174D01*
X4506468Y6007049D01*
X4499102Y5994908D01*
G37*
G36*
X4646269Y5992469D02*
G01*
X4696815Y5992469D01*
X4695698Y5994908D01*
X4688332Y6007049D01*
X4679492Y6018174D01*
X4669282Y6028029D01*
X4657902Y6036513D01*
X4646269Y6043066D01*
G37*
G36*
X4597400Y6086703D02*
G01*
X4611573Y6087618D01*
X4625543Y6090361D01*
X4639005Y6094831D01*
X4651806Y6100978D01*
X4663744Y6108750D01*
X4674565Y6117945D01*
X4684115Y6128461D01*
X4692243Y6140094D01*
X4698796Y6152692D01*
X4703724Y6166053D01*
X4706874Y6179921D01*
X4708245Y6194044D01*
X4707788Y6208268D01*
X4705502Y6222288D01*
X4701489Y6235903D01*
X4695698Y6248908D01*
X4688332Y6261049D01*
X4679492Y6272174D01*
X4669282Y6282029D01*
X4657902Y6290513D01*
X4645507Y6297523D01*
X4632350Y6302857D01*
X4618583Y6306464D01*
X4604512Y6308242D01*
X4590288Y6308242D01*
X4576216Y6306464D01*
X4562449Y6302857D01*
X4549292Y6297523D01*
X4536897Y6290513D01*
X4525518Y6282029D01*
X4515307Y6272174D01*
X4506468Y6261049D01*
X4499102Y6248908D01*
X4493361Y6235903D01*
X4489297Y6222288D01*
X4487011Y6208268D01*
X4486554Y6194044D01*
X4487926Y6179921D01*
X4491075Y6166053D01*
X4496003Y6152692D01*
X4502556Y6140094D01*
X4510684Y6128461D01*
X4520234Y6117945D01*
X4531055Y6108750D01*
X4542993Y6100978D01*
X4555794Y6094831D01*
X4569256Y6090361D01*
X4583226Y6087618D01*
G37*
G36*
X4851400Y6086703D02*
G01*
X4865573Y6087618D01*
X4879543Y6090361D01*
X4893005Y6094831D01*
X4905806Y6100978D01*
X4917744Y6108750D01*
X4928565Y6117945D01*
X4938115Y6128461D01*
X4946243Y6140094D01*
X4952796Y6152692D01*
X4957724Y6166053D01*
X4960874Y6179921D01*
X4962245Y6194044D01*
X4961788Y6208268D01*
X4959502Y6222288D01*
X4955489Y6235903D01*
X4949698Y6248908D01*
X4942332Y6261049D01*
X4933492Y6272174D01*
X4923282Y6282029D01*
X4911902Y6290513D01*
X4899507Y6297523D01*
X4886350Y6302857D01*
X4872583Y6306464D01*
X4858512Y6308242D01*
X4844288Y6308242D01*
X4830216Y6306464D01*
X4816449Y6302857D01*
X4803292Y6297523D01*
X4790897Y6290513D01*
X4779518Y6282029D01*
X4769307Y6272174D01*
X4760468Y6261049D01*
X4753102Y6248908D01*
X4747361Y6235903D01*
X4743297Y6222288D01*
X4741011Y6208268D01*
X4740554Y6194044D01*
X4741926Y6179921D01*
X4745075Y6166053D01*
X4750003Y6152692D01*
X4756556Y6140094D01*
X4764684Y6128461D01*
X4774234Y6117945D01*
X4785055Y6108750D01*
X4796993Y6100978D01*
X4809794Y6094831D01*
X4823256Y6090361D01*
X4837226Y6087618D01*
G37*
G36*
X4218838Y6140754D02*
G01*
X4228388Y6142024D01*
X4237583Y6144818D01*
X4246219Y6149187D01*
X4253992Y6154928D01*
X4260646Y6161887D01*
X4266031Y6169863D01*
X4270044Y6178651D01*
X4272432Y6187998D01*
X4273296Y6197600D01*
X4272432Y6207201D01*
X4270044Y6216548D01*
X4266031Y6225336D01*
X4260646Y6233312D01*
X4253992Y6240272D01*
X4246219Y6246012D01*
X4237583Y6250381D01*
X4228388Y6253175D01*
X4220667Y6254191D01*
X4217466Y6255156D01*
X4214774Y6257086D01*
X3851046Y6620814D01*
X3849268Y6623202D01*
X3848252Y6625996D01*
X3847236Y6630974D01*
X3842765Y6643878D01*
X3836619Y6656019D01*
X3828897Y6667246D01*
X3819753Y6677406D01*
X3809339Y6686194D01*
X3797858Y6693509D01*
X3795623Y6694576D01*
X3792474Y6696811D01*
X3790442Y6700012D01*
X3789730Y6703771D01*
X3789730Y7566406D01*
X3788867Y7574838D01*
X3786581Y7582509D01*
X3782771Y7589570D01*
X3777386Y7596174D01*
X3559860Y7813649D01*
X3553307Y7819085D01*
X3546246Y7822844D01*
X3538575Y7825181D01*
X3530092Y7825994D01*
X1570431Y7825994D01*
X1567230Y7826502D01*
X1564386Y7827975D01*
X1556918Y7833512D01*
X1548282Y7837881D01*
X1539087Y7840675D01*
X1529537Y7841945D01*
X1519885Y7841488D01*
X1510436Y7839456D01*
X1501495Y7835900D01*
X1493266Y7830820D01*
X1490675Y7828534D01*
X1487576Y7826654D01*
X1483969Y7825994D01*
X1357020Y7825994D01*
X1353362Y7826705D01*
X1350162Y7828635D01*
X1347927Y7831581D01*
X1345133Y7837119D01*
X1337411Y7848346D01*
X1328267Y7858506D01*
X1317853Y7867294D01*
X1306372Y7874609D01*
X1293977Y7880350D01*
X1280972Y7884414D01*
X1267510Y7886649D01*
X1253896Y7887106D01*
X1240332Y7885785D01*
X1227074Y7882585D01*
X1214323Y7877708D01*
X1202385Y7871155D01*
X1191412Y7863078D01*
X1181608Y7853578D01*
X1173124Y7842859D01*
X1166164Y7831124D01*
X1160881Y7818577D01*
X1157274Y7805420D01*
X1155446Y7791907D01*
X1155446Y7778292D01*
X1157274Y7764780D01*
X1160881Y7751622D01*
X1166164Y7739075D01*
X1173124Y7727340D01*
X1181608Y7716621D01*
X1191412Y7707122D01*
X1202385Y7699044D01*
X1214323Y7692491D01*
X1227074Y7687614D01*
X1240332Y7684414D01*
X1253896Y7683093D01*
X1267510Y7683550D01*
X1280972Y7685786D01*
X1293977Y7689850D01*
X1306372Y7695590D01*
X1317853Y7702905D01*
X1328267Y7711694D01*
X1337411Y7721853D01*
X1345133Y7733080D01*
X1347927Y7738618D01*
X1350162Y7741564D01*
X1353362Y7743494D01*
X1357020Y7744206D01*
X1483969Y7744206D01*
X1487576Y7743545D01*
X1490675Y7741666D01*
X1493266Y7739380D01*
X1501495Y7734300D01*
X1510436Y7730744D01*
X1519885Y7728712D01*
X1529537Y7728254D01*
X1539087Y7729524D01*
X1548282Y7732318D01*
X1556918Y7736687D01*
X1564386Y7742224D01*
X1567230Y7743698D01*
X1570431Y7744206D01*
X3509467Y7744206D01*
X3513328Y7743393D01*
X3516629Y7741208D01*
X3704945Y7552944D01*
X3707129Y7549642D01*
X3707892Y7545730D01*
X3707892Y6703771D01*
X3707282Y6700215D01*
X3705453Y6697116D01*
X3702608Y6694830D01*
X3693871Y6690055D01*
X3682898Y6681978D01*
X3673094Y6672478D01*
X3664610Y6661759D01*
X3657701Y6650024D01*
X3652367Y6637477D01*
X3648760Y6624320D01*
X3646932Y6610807D01*
X3646932Y6597192D01*
X3648760Y6583680D01*
X3652367Y6570522D01*
X3657701Y6557975D01*
X3664610Y6546240D01*
X3673094Y6535521D01*
X3682898Y6526022D01*
X3693871Y6517944D01*
X3705809Y6511391D01*
X3718560Y6506514D01*
X3731818Y6503314D01*
X3745382Y6501993D01*
X3758996Y6502450D01*
X3772458Y6504685D01*
X3785463Y6508750D01*
X3797858Y6514490D01*
X3809339Y6521805D01*
X3815740Y6527241D01*
X3818991Y6529070D01*
X3822750Y6529628D01*
X3826408Y6528765D01*
X3829507Y6526631D01*
X4156760Y6199378D01*
X4158589Y6196838D01*
X4159605Y6193891D01*
X4161383Y6183223D01*
X4164584Y6174181D01*
X4169257Y6165748D01*
X4175353Y6158230D01*
X4182567Y6151880D01*
X4190796Y6146800D01*
X4199737Y6143244D01*
X4209186Y6141212D01*
G37*
G36*
X999896Y6159093D02*
G01*
X1013510Y6159550D01*
X1026972Y6161786D01*
X1039977Y6165850D01*
X1052372Y6171590D01*
X1063853Y6178905D01*
X1074267Y6187694D01*
X1083411Y6197854D01*
X1091133Y6209080D01*
X1097280Y6221222D01*
X1101750Y6234125D01*
X1104493Y6247485D01*
X1105408Y6261100D01*
X1104493Y6274714D01*
X1101750Y6288074D01*
X1097280Y6300978D01*
X1091133Y6313119D01*
X1083411Y6324346D01*
X1074267Y6334506D01*
X1063853Y6343294D01*
X1052372Y6350609D01*
X1039977Y6356350D01*
X1026972Y6360414D01*
X1013510Y6362649D01*
X999896Y6363106D01*
X986332Y6361785D01*
X973074Y6358585D01*
X960323Y6353708D01*
X948385Y6347155D01*
X937412Y6339078D01*
X927608Y6329578D01*
X919124Y6318859D01*
X912164Y6307124D01*
X906881Y6294577D01*
X903274Y6281420D01*
X901446Y6267907D01*
X901446Y6254292D01*
X903274Y6240780D01*
X906881Y6227622D01*
X912164Y6215075D01*
X919124Y6203340D01*
X927608Y6192621D01*
X937412Y6183122D01*
X948385Y6175044D01*
X960323Y6168491D01*
X973074Y6163614D01*
X986332Y6160414D01*
G37*
G36*
X1253896Y6159093D02*
G01*
X1267510Y6159550D01*
X1280972Y6161786D01*
X1293977Y6165850D01*
X1306372Y6171590D01*
X1317853Y6178905D01*
X1328267Y6187694D01*
X1337411Y6197854D01*
X1345133Y6209080D01*
X1351280Y6221222D01*
X1355750Y6234125D01*
X1358493Y6247485D01*
X1359408Y6261100D01*
X1358493Y6274714D01*
X1355750Y6288074D01*
X1351280Y6300978D01*
X1345133Y6313119D01*
X1337411Y6324346D01*
X1328267Y6334506D01*
X1317853Y6343294D01*
X1306372Y6350609D01*
X1293977Y6356350D01*
X1280972Y6360414D01*
X1267510Y6362649D01*
X1253896Y6363106D01*
X1240332Y6361785D01*
X1227074Y6358585D01*
X1214323Y6353708D01*
X1202385Y6347155D01*
X1191412Y6339078D01*
X1181608Y6329578D01*
X1173124Y6318859D01*
X1166164Y6307124D01*
X1160881Y6294577D01*
X1157274Y6281420D01*
X1155446Y6267907D01*
X1155446Y6254292D01*
X1157274Y6240780D01*
X1160881Y6227622D01*
X1166164Y6215075D01*
X1173124Y6203340D01*
X1181608Y6192621D01*
X1191412Y6183122D01*
X1202385Y6175044D01*
X1214323Y6168491D01*
X1227074Y6163614D01*
X1240332Y6160414D01*
G37*
G36*
X7349896Y6159093D02*
G01*
X7363510Y6159550D01*
X7376972Y6161786D01*
X7389977Y6165850D01*
X7402372Y6171590D01*
X7413853Y6178905D01*
X7424267Y6187694D01*
X7433411Y6197854D01*
X7441133Y6209080D01*
X7447280Y6221222D01*
X7451750Y6234125D01*
X7454493Y6247485D01*
X7455408Y6261100D01*
X7454493Y6274714D01*
X7451750Y6288074D01*
X7447280Y6300978D01*
X7441133Y6313119D01*
X7433411Y6324346D01*
X7424267Y6334506D01*
X7413853Y6343294D01*
X7402372Y6350609D01*
X7389977Y6356350D01*
X7376972Y6360414D01*
X7363510Y6362649D01*
X7349896Y6363106D01*
X7336332Y6361785D01*
X7323074Y6358585D01*
X7310323Y6353708D01*
X7298385Y6347155D01*
X7287412Y6339078D01*
X7277608Y6329578D01*
X7269124Y6318859D01*
X7262164Y6307124D01*
X7256881Y6294577D01*
X7253274Y6281420D01*
X7251446Y6267907D01*
X7251446Y6254292D01*
X7253274Y6240780D01*
X7256881Y6227622D01*
X7262164Y6215075D01*
X7269124Y6203340D01*
X7277608Y6192621D01*
X7287412Y6183122D01*
X7298385Y6175044D01*
X7310323Y6168491D01*
X7323074Y6163614D01*
X7336332Y6160414D01*
G37*
G36*
X7095896Y6159093D02*
G01*
X7109510Y6159550D01*
X7122972Y6161786D01*
X7135977Y6165850D01*
X7148372Y6171590D01*
X7159853Y6178905D01*
X7170267Y6187694D01*
X7179411Y6197854D01*
X7187133Y6209080D01*
X7193280Y6221222D01*
X7197750Y6234125D01*
X7200493Y6247485D01*
X7201408Y6261100D01*
X7200493Y6274714D01*
X7197750Y6288074D01*
X7193280Y6300978D01*
X7187133Y6313119D01*
X7179411Y6324346D01*
X7170267Y6334506D01*
X7159853Y6343294D01*
X7148372Y6350609D01*
X7135977Y6356350D01*
X7122972Y6360414D01*
X7109510Y6362649D01*
X7095896Y6363106D01*
X7082332Y6361785D01*
X7069074Y6358585D01*
X7056323Y6353708D01*
X7044385Y6347155D01*
X7033412Y6339078D01*
X7023608Y6329578D01*
X7015124Y6318859D01*
X7008164Y6307124D01*
X7002881Y6294577D01*
X6999274Y6281420D01*
X6997446Y6267907D01*
X6997446Y6254292D01*
X6999274Y6240780D01*
X7002881Y6227622D01*
X7008164Y6215075D01*
X7015124Y6203340D01*
X7023608Y6192621D01*
X7033412Y6183122D01*
X7044385Y6175044D01*
X7056323Y6168491D01*
X7069074Y6163614D01*
X7082332Y6160414D01*
G37*
G36*
X4851400Y6340703D02*
G01*
X4865573Y6341618D01*
X4879543Y6344361D01*
X4893005Y6348831D01*
X4905806Y6354978D01*
X4917744Y6362750D01*
X4928565Y6371945D01*
X4938115Y6382461D01*
X4946243Y6394094D01*
X4952796Y6406692D01*
X4957724Y6420053D01*
X4960874Y6433921D01*
X4962245Y6448044D01*
X4961788Y6462268D01*
X4959502Y6476288D01*
X4955489Y6489903D01*
X4949698Y6502907D01*
X4942332Y6515049D01*
X4933492Y6526174D01*
X4923282Y6536029D01*
X4911902Y6544513D01*
X4899507Y6551523D01*
X4886350Y6556857D01*
X4872583Y6560464D01*
X4858512Y6562242D01*
X4844288Y6562242D01*
X4830216Y6560464D01*
X4816449Y6556857D01*
X4803292Y6551523D01*
X4790897Y6544513D01*
X4779518Y6536029D01*
X4769307Y6526174D01*
X4760468Y6515049D01*
X4753102Y6502907D01*
X4747361Y6489903D01*
X4743297Y6476288D01*
X4741011Y6462268D01*
X4740554Y6448044D01*
X4741926Y6433921D01*
X4745075Y6420053D01*
X4750003Y6406692D01*
X4756556Y6394094D01*
X4764684Y6382461D01*
X4774234Y6371945D01*
X4785055Y6362750D01*
X4796993Y6354978D01*
X4809794Y6348831D01*
X4823256Y6344361D01*
X4837226Y6341618D01*
G37*
G36*
X4597400Y6340703D02*
G01*
X4611573Y6341618D01*
X4625543Y6344361D01*
X4639005Y6348831D01*
X4651806Y6354978D01*
X4663744Y6362750D01*
X4674565Y6371945D01*
X4684115Y6382461D01*
X4692243Y6394094D01*
X4698796Y6406692D01*
X4703724Y6420053D01*
X4706874Y6433921D01*
X4708245Y6448044D01*
X4707788Y6462268D01*
X4705502Y6476288D01*
X4701489Y6489903D01*
X4695698Y6502907D01*
X4688332Y6515049D01*
X4679492Y6526174D01*
X4669282Y6536029D01*
X4657902Y6544513D01*
X4645507Y6551523D01*
X4632350Y6556857D01*
X4618583Y6560464D01*
X4604512Y6562242D01*
X4590288Y6562242D01*
X4576216Y6560464D01*
X4562449Y6556857D01*
X4549292Y6551523D01*
X4536897Y6544513D01*
X4525518Y6536029D01*
X4515307Y6526174D01*
X4506468Y6515049D01*
X4499102Y6502907D01*
X4493361Y6489903D01*
X4489297Y6476288D01*
X4487011Y6462268D01*
X4486554Y6448044D01*
X4487926Y6433921D01*
X4491075Y6420053D01*
X4496003Y6406692D01*
X4502556Y6394094D01*
X4510684Y6382461D01*
X4520234Y6371945D01*
X4531055Y6362750D01*
X4542993Y6354978D01*
X4555794Y6348831D01*
X4569256Y6344361D01*
X4583226Y6341618D01*
G37*
G36*
X1253896Y6413093D02*
G01*
X1267510Y6413550D01*
X1280972Y6415786D01*
X1293977Y6419850D01*
X1306372Y6425590D01*
X1317853Y6432905D01*
X1328267Y6441694D01*
X1337411Y6451854D01*
X1345133Y6463080D01*
X1351280Y6475222D01*
X1355750Y6488125D01*
X1358493Y6501485D01*
X1359408Y6515100D01*
X1358493Y6528714D01*
X1355750Y6542074D01*
X1351280Y6554978D01*
X1345133Y6567119D01*
X1337411Y6578346D01*
X1328267Y6588506D01*
X1317853Y6597294D01*
X1306372Y6604609D01*
X1293977Y6610350D01*
X1280972Y6614414D01*
X1267510Y6616649D01*
X1253896Y6617106D01*
X1240332Y6615785D01*
X1227074Y6612585D01*
X1214323Y6607708D01*
X1202385Y6601155D01*
X1191412Y6593078D01*
X1181608Y6583578D01*
X1173124Y6572859D01*
X1166164Y6561124D01*
X1160881Y6548577D01*
X1157274Y6535420D01*
X1155446Y6521907D01*
X1155446Y6508292D01*
X1157274Y6494780D01*
X1160881Y6481622D01*
X1166164Y6469075D01*
X1173124Y6457340D01*
X1181608Y6446621D01*
X1191412Y6437122D01*
X1202385Y6429044D01*
X1214323Y6422491D01*
X1227074Y6417614D01*
X1240332Y6414414D01*
G37*
G36*
X999896Y6413093D02*
G01*
X1013510Y6413550D01*
X1026972Y6415786D01*
X1039977Y6419850D01*
X1052372Y6425590D01*
X1063853Y6432905D01*
X1074267Y6441694D01*
X1083411Y6451854D01*
X1091133Y6463080D01*
X1097280Y6475222D01*
X1101750Y6488125D01*
X1104493Y6501485D01*
X1105408Y6515100D01*
X1104493Y6528714D01*
X1101750Y6542074D01*
X1097280Y6554978D01*
X1091133Y6567119D01*
X1083411Y6578346D01*
X1074267Y6588506D01*
X1063853Y6597294D01*
X1052372Y6604609D01*
X1039977Y6610350D01*
X1026972Y6614414D01*
X1013510Y6616649D01*
X999896Y6617106D01*
X986332Y6615785D01*
X973074Y6612585D01*
X960323Y6607708D01*
X948385Y6601155D01*
X937412Y6593078D01*
X927608Y6583578D01*
X919124Y6572859D01*
X912164Y6561124D01*
X906881Y6548577D01*
X903274Y6535420D01*
X901446Y6521907D01*
X901446Y6508292D01*
X903274Y6494780D01*
X906881Y6481622D01*
X912164Y6469075D01*
X919124Y6457340D01*
X927608Y6446621D01*
X937412Y6437122D01*
X948385Y6429044D01*
X960323Y6422491D01*
X973074Y6417614D01*
X986332Y6414414D01*
G37*
G36*
X7349896Y6413093D02*
G01*
X7363510Y6413550D01*
X7376972Y6415786D01*
X7389977Y6419850D01*
X7402372Y6425590D01*
X7413853Y6432905D01*
X7424267Y6441694D01*
X7433411Y6451854D01*
X7441133Y6463080D01*
X7447280Y6475222D01*
X7451750Y6488125D01*
X7454493Y6501485D01*
X7455408Y6515100D01*
X7454493Y6528714D01*
X7451750Y6542074D01*
X7447280Y6554978D01*
X7441133Y6567119D01*
X7433411Y6578346D01*
X7424267Y6588506D01*
X7413853Y6597294D01*
X7402372Y6604609D01*
X7389977Y6610350D01*
X7376972Y6614414D01*
X7363510Y6616649D01*
X7349896Y6617106D01*
X7336332Y6615785D01*
X7323074Y6612585D01*
X7310323Y6607708D01*
X7298385Y6601155D01*
X7287412Y6593078D01*
X7277608Y6583578D01*
X7269124Y6572859D01*
X7262164Y6561124D01*
X7256881Y6548577D01*
X7253274Y6535420D01*
X7251446Y6521907D01*
X7251446Y6508292D01*
X7253274Y6494780D01*
X7256881Y6481622D01*
X7262164Y6469075D01*
X7269124Y6457340D01*
X7277608Y6446621D01*
X7287412Y6437122D01*
X7298385Y6429044D01*
X7310323Y6422491D01*
X7323074Y6417614D01*
X7336332Y6414414D01*
G37*
G36*
X7095896Y6413093D02*
G01*
X7109510Y6413550D01*
X7122972Y6415786D01*
X7135977Y6419850D01*
X7148372Y6425590D01*
X7159853Y6432905D01*
X7170267Y6441694D01*
X7179411Y6451854D01*
X7187133Y6463080D01*
X7193280Y6475222D01*
X7197750Y6488125D01*
X7200493Y6501485D01*
X7201408Y6515100D01*
X7200493Y6528714D01*
X7197750Y6542074D01*
X7193280Y6554978D01*
X7187133Y6567119D01*
X7179411Y6578346D01*
X7170267Y6588506D01*
X7159853Y6597294D01*
X7148372Y6604609D01*
X7135977Y6610350D01*
X7122972Y6614414D01*
X7109510Y6616649D01*
X7095896Y6617106D01*
X7082332Y6615785D01*
X7069074Y6612585D01*
X7056323Y6607708D01*
X7044385Y6601155D01*
X7033412Y6593078D01*
X7023608Y6583578D01*
X7015124Y6572859D01*
X7008114Y6560972D01*
X7005828Y6558330D01*
X7002780Y6556603D01*
X6999376Y6555994D01*
X6908139Y6555994D01*
X6904939Y6556502D01*
X6902094Y6557975D01*
X6894626Y6563512D01*
X6885990Y6567881D01*
X6876796Y6570675D01*
X6867194Y6571945D01*
X6857593Y6571488D01*
X6848144Y6569456D01*
X6839203Y6565900D01*
X6830974Y6560820D01*
X6823760Y6554470D01*
X6817664Y6546951D01*
X6812991Y6538518D01*
X6809740Y6529425D01*
X6808114Y6519926D01*
X6808114Y6510274D01*
X6809740Y6500774D01*
X6812991Y6491681D01*
X6817664Y6483248D01*
X6823760Y6475730D01*
X6830974Y6469380D01*
X6839203Y6464300D01*
X6848144Y6460744D01*
X6857593Y6458712D01*
X6867194Y6458254D01*
X6876796Y6459524D01*
X6885990Y6462318D01*
X6894626Y6466687D01*
X6902094Y6472224D01*
X6904939Y6473698D01*
X6908139Y6474206D01*
X6999376Y6474206D01*
X7002780Y6473596D01*
X7005828Y6471869D01*
X7008114Y6469227D01*
X7015124Y6457340D01*
X7023608Y6446621D01*
X7033412Y6437122D01*
X7044385Y6429044D01*
X7056323Y6422491D01*
X7069074Y6417614D01*
X7082332Y6414414D01*
G37*
G36*
X1955800Y6495542D02*
G01*
X1969973Y6496507D01*
X1983841Y6499250D01*
X1997303Y6503822D01*
X2010003Y6510070D01*
X2021789Y6517995D01*
X2032457Y6527342D01*
X2041804Y6538010D01*
X2049729Y6549796D01*
X2055977Y6562496D01*
X2060549Y6575958D01*
X2063292Y6589826D01*
X2064257Y6604000D01*
X2063292Y6618173D01*
X2060549Y6632041D01*
X2055977Y6645503D01*
X2049729Y6658203D01*
X2041804Y6669989D01*
X2032457Y6680657D01*
X2021789Y6690004D01*
X2010003Y6697929D01*
X1997303Y6704177D01*
X1983841Y6708749D01*
X1969973Y6711492D01*
X1955800Y6712458D01*
X1941626Y6711492D01*
X1927758Y6708749D01*
X1914296Y6704177D01*
X1901596Y6697929D01*
X1889810Y6690004D01*
X1879142Y6680657D01*
X1869795Y6669989D01*
X1861870Y6658203D01*
X1855622Y6645503D01*
X1851050Y6632041D01*
X1848307Y6618173D01*
X1847342Y6604000D01*
X1848307Y6589826D01*
X1851050Y6575958D01*
X1855622Y6562496D01*
X1861870Y6549796D01*
X1869795Y6538010D01*
X1879142Y6527342D01*
X1889810Y6517995D01*
X1901596Y6510070D01*
X1914296Y6503822D01*
X1927758Y6499250D01*
X1941626Y6496507D01*
G37*
G36*
X2209800Y6495542D02*
G01*
X2223973Y6496507D01*
X2237841Y6499250D01*
X2251303Y6503822D01*
X2264003Y6510070D01*
X2275789Y6517995D01*
X2286457Y6527342D01*
X2295804Y6538010D01*
X2303729Y6549796D01*
X2309977Y6562496D01*
X2314549Y6575958D01*
X2317292Y6589826D01*
X2318258Y6604000D01*
X2317292Y6618173D01*
X2314549Y6632041D01*
X2309977Y6645503D01*
X2303729Y6658203D01*
X2295804Y6669989D01*
X2286457Y6680657D01*
X2275789Y6690004D01*
X2264003Y6697929D01*
X2251303Y6704177D01*
X2237841Y6708749D01*
X2223973Y6711492D01*
X2209800Y6712458D01*
X2195626Y6711492D01*
X2181758Y6708749D01*
X2168296Y6704177D01*
X2155596Y6697929D01*
X2143810Y6690004D01*
X2133142Y6680657D01*
X2123795Y6669989D01*
X2115870Y6658203D01*
X2109622Y6645503D01*
X2105050Y6632041D01*
X2102307Y6618173D01*
X2101342Y6604000D01*
X2102307Y6589826D01*
X2105050Y6575958D01*
X2109622Y6562496D01*
X2115870Y6549796D01*
X2123795Y6538010D01*
X2133142Y6527342D01*
X2143810Y6517995D01*
X2155596Y6510070D01*
X2168296Y6503822D01*
X2181758Y6499250D01*
X2195626Y6496507D01*
G37*
G36*
X2445410Y6501993D02*
G01*
X2459024Y6502450D01*
X2472486Y6504685D01*
X2485491Y6508750D01*
X2497836Y6514490D01*
X2509367Y6521805D01*
X2519781Y6530594D01*
X2528925Y6540754D01*
X2536647Y6551980D01*
X2542794Y6564122D01*
X2547264Y6577025D01*
X2549956Y6590385D01*
X2550871Y6604000D01*
X2549956Y6617614D01*
X2547264Y6630974D01*
X2542794Y6643878D01*
X2536647Y6656019D01*
X2528925Y6667246D01*
X2519781Y6677406D01*
X2509367Y6686194D01*
X2497836Y6693509D01*
X2485491Y6699250D01*
X2472486Y6703314D01*
X2459024Y6705549D01*
X2445410Y6706006D01*
X2431796Y6704685D01*
X2418537Y6701485D01*
X2405837Y6696608D01*
X2393848Y6690055D01*
X2382875Y6681978D01*
X2373071Y6672478D01*
X2364638Y6661759D01*
X2357678Y6650024D01*
X2352344Y6637477D01*
X2348738Y6624320D01*
X2346960Y6610807D01*
X2346960Y6597192D01*
X2348738Y6583680D01*
X2352344Y6570522D01*
X2357678Y6557975D01*
X2364638Y6546240D01*
X2373071Y6535521D01*
X2382875Y6526022D01*
X2393848Y6517944D01*
X2405837Y6511391D01*
X2418537Y6506514D01*
X2431796Y6503314D01*
G37*
G36*
X4851400Y6594703D02*
G01*
X4865573Y6595618D01*
X4879543Y6598361D01*
X4893005Y6602831D01*
X4905806Y6608978D01*
X4917744Y6616750D01*
X4928565Y6625945D01*
X4938115Y6636461D01*
X4946243Y6648094D01*
X4952796Y6660692D01*
X4957724Y6674053D01*
X4960874Y6687921D01*
X4962245Y6702044D01*
X4961788Y6716268D01*
X4959502Y6730288D01*
X4955489Y6743903D01*
X4949698Y6756908D01*
X4942332Y6769049D01*
X4933492Y6780174D01*
X4923282Y6790029D01*
X4911902Y6798513D01*
X4899507Y6805523D01*
X4886350Y6810857D01*
X4872583Y6814464D01*
X4858512Y6816242D01*
X4844288Y6816242D01*
X4830216Y6814464D01*
X4816449Y6810857D01*
X4803292Y6805523D01*
X4790897Y6798513D01*
X4779518Y6790029D01*
X4769307Y6780174D01*
X4760468Y6769049D01*
X4753102Y6756908D01*
X4747361Y6743903D01*
X4743297Y6730288D01*
X4741011Y6716268D01*
X4740554Y6702044D01*
X4741926Y6687921D01*
X4745075Y6674053D01*
X4750003Y6660692D01*
X4756556Y6648094D01*
X4764684Y6636461D01*
X4774234Y6625945D01*
X4785055Y6616750D01*
X4796993Y6608978D01*
X4809794Y6602831D01*
X4823256Y6598361D01*
X4837226Y6595618D01*
G37*
G36*
X4597400Y6594703D02*
G01*
X4611573Y6595618D01*
X4625543Y6598361D01*
X4639005Y6602831D01*
X4651806Y6608978D01*
X4663744Y6616750D01*
X4674565Y6625945D01*
X4684115Y6636461D01*
X4692243Y6648094D01*
X4698796Y6660692D01*
X4703724Y6674053D01*
X4706874Y6687921D01*
X4708245Y6702044D01*
X4707788Y6716268D01*
X4705502Y6730288D01*
X4701489Y6743903D01*
X4695698Y6756908D01*
X4688332Y6769049D01*
X4679492Y6780174D01*
X4669282Y6790029D01*
X4657902Y6798513D01*
X4645507Y6805523D01*
X4632350Y6810857D01*
X4618583Y6814464D01*
X4604512Y6816242D01*
X4590288Y6816242D01*
X4576216Y6814464D01*
X4562449Y6810857D01*
X4549292Y6805523D01*
X4536897Y6798513D01*
X4525518Y6790029D01*
X4515307Y6780174D01*
X4506468Y6769049D01*
X4499102Y6756908D01*
X4493361Y6743903D01*
X4489297Y6730288D01*
X4487011Y6716268D01*
X4486554Y6702044D01*
X4487926Y6687921D01*
X4491075Y6674053D01*
X4496003Y6660692D01*
X4502556Y6648094D01*
X4510684Y6636461D01*
X4520234Y6625945D01*
X4531055Y6616750D01*
X4542993Y6608978D01*
X4555794Y6602831D01*
X4569256Y6598361D01*
X4583226Y6595618D01*
G37*
G36*
X999896Y6667093D02*
G01*
X1013510Y6667550D01*
X1026972Y6669786D01*
X1039977Y6673850D01*
X1052372Y6679590D01*
X1063853Y6686905D01*
X1074267Y6695694D01*
X1083411Y6705853D01*
X1091133Y6717080D01*
X1097280Y6729222D01*
X1101750Y6742125D01*
X1104493Y6755485D01*
X1105408Y6769100D01*
X1104493Y6782714D01*
X1101750Y6796074D01*
X1097280Y6808978D01*
X1091133Y6821119D01*
X1083411Y6832346D01*
X1074267Y6842506D01*
X1063853Y6851294D01*
X1052372Y6858609D01*
X1039977Y6864350D01*
X1026972Y6868414D01*
X1013510Y6870649D01*
X999896Y6871106D01*
X986332Y6869785D01*
X973074Y6866585D01*
X960323Y6861708D01*
X948385Y6855155D01*
X937412Y6847078D01*
X927608Y6837578D01*
X919124Y6826859D01*
X912164Y6815124D01*
X906881Y6802577D01*
X903274Y6789420D01*
X901446Y6775907D01*
X901446Y6762292D01*
X903274Y6748780D01*
X906881Y6735622D01*
X912164Y6723075D01*
X919124Y6711340D01*
X927608Y6700621D01*
X937412Y6691122D01*
X948385Y6683044D01*
X960323Y6676491D01*
X973074Y6671614D01*
X986332Y6668414D01*
G37*
G36*
X1253896Y6667093D02*
G01*
X1267510Y6667550D01*
X1280972Y6669786D01*
X1293977Y6673850D01*
X1306372Y6679590D01*
X1317853Y6686905D01*
X1328267Y6695694D01*
X1337411Y6705853D01*
X1345133Y6717080D01*
X1351280Y6729222D01*
X1355750Y6742125D01*
X1358493Y6755485D01*
X1359408Y6769100D01*
X1358493Y6782714D01*
X1355750Y6796074D01*
X1351280Y6808978D01*
X1345133Y6821119D01*
X1337411Y6832346D01*
X1328267Y6842506D01*
X1317853Y6851294D01*
X1306372Y6858609D01*
X1293977Y6864350D01*
X1280972Y6868414D01*
X1267510Y6870649D01*
X1253896Y6871106D01*
X1240332Y6869785D01*
X1227074Y6866585D01*
X1214323Y6861708D01*
X1202385Y6855155D01*
X1191412Y6847078D01*
X1181608Y6837578D01*
X1173124Y6826859D01*
X1166164Y6815124D01*
X1160881Y6802577D01*
X1157274Y6789420D01*
X1155446Y6775907D01*
X1155446Y6762292D01*
X1157274Y6748780D01*
X1160881Y6735622D01*
X1166164Y6723075D01*
X1173124Y6711340D01*
X1181608Y6700621D01*
X1191412Y6691122D01*
X1202385Y6683044D01*
X1214323Y6676491D01*
X1227074Y6671614D01*
X1240332Y6668414D01*
G37*
G36*
X7349896Y6667093D02*
G01*
X7363510Y6667550D01*
X7376972Y6669786D01*
X7389977Y6673850D01*
X7402372Y6679590D01*
X7413853Y6686905D01*
X7424267Y6695694D01*
X7433411Y6705853D01*
X7441133Y6717080D01*
X7447280Y6729222D01*
X7451750Y6742125D01*
X7454493Y6755485D01*
X7455408Y6769100D01*
X7454493Y6782714D01*
X7451750Y6796074D01*
X7447280Y6808978D01*
X7441133Y6821119D01*
X7433411Y6832346D01*
X7424267Y6842506D01*
X7413853Y6851294D01*
X7402372Y6858609D01*
X7389977Y6864350D01*
X7376972Y6868414D01*
X7363510Y6870649D01*
X7349896Y6871106D01*
X7336332Y6869785D01*
X7323074Y6866585D01*
X7310323Y6861708D01*
X7298385Y6855155D01*
X7287412Y6847078D01*
X7277608Y6837578D01*
X7269124Y6826859D01*
X7262164Y6815124D01*
X7256881Y6802577D01*
X7253274Y6789420D01*
X7251446Y6775907D01*
X7251446Y6762292D01*
X7253274Y6748780D01*
X7256881Y6735622D01*
X7262164Y6723075D01*
X7269124Y6711340D01*
X7277608Y6700621D01*
X7287412Y6691122D01*
X7298385Y6683044D01*
X7310323Y6676491D01*
X7323074Y6671614D01*
X7336332Y6668414D01*
G37*
G36*
X7095896Y6667093D02*
G01*
X7109510Y6667550D01*
X7122972Y6669786D01*
X7135977Y6673850D01*
X7148372Y6679590D01*
X7159853Y6686905D01*
X7170267Y6695694D01*
X7179411Y6705853D01*
X7187133Y6717080D01*
X7193280Y6729222D01*
X7197750Y6742125D01*
X7200493Y6755485D01*
X7201408Y6769100D01*
X7200493Y6782714D01*
X7197750Y6796074D01*
X7193280Y6808978D01*
X7187133Y6821119D01*
X7179411Y6832346D01*
X7170267Y6842506D01*
X7159853Y6851294D01*
X7148372Y6858609D01*
X7135977Y6864350D01*
X7122972Y6868414D01*
X7109510Y6870649D01*
X7095896Y6871106D01*
X7082332Y6869785D01*
X7069074Y6866585D01*
X7056323Y6861708D01*
X7044385Y6855155D01*
X7033412Y6847078D01*
X7023608Y6837578D01*
X7015124Y6826859D01*
X7008114Y6814972D01*
X7005828Y6812330D01*
X7002780Y6810603D01*
X6999376Y6809994D01*
X6904736Y6809994D01*
X6901535Y6810502D01*
X6898690Y6811975D01*
X6891223Y6817512D01*
X6882587Y6821881D01*
X6873392Y6824675D01*
X6863791Y6825945D01*
X6854190Y6825488D01*
X6844741Y6823456D01*
X6835800Y6819900D01*
X6827570Y6814820D01*
X6820357Y6808470D01*
X6814261Y6800951D01*
X6809587Y6792518D01*
X6806387Y6783425D01*
X6804710Y6773925D01*
X6804710Y6764274D01*
X6806387Y6754774D01*
X6809587Y6745681D01*
X6814261Y6737248D01*
X6820357Y6729730D01*
X6827570Y6723380D01*
X6835800Y6718300D01*
X6844741Y6714744D01*
X6854190Y6712712D01*
X6863791Y6712254D01*
X6873392Y6713524D01*
X6882587Y6716318D01*
X6891223Y6720687D01*
X6898690Y6726224D01*
X6901535Y6727698D01*
X6904736Y6728206D01*
X6999376Y6728206D01*
X7002780Y6727596D01*
X7005828Y6725869D01*
X7008114Y6723227D01*
X7015124Y6711340D01*
X7023608Y6700621D01*
X7033412Y6691122D01*
X7044385Y6683044D01*
X7056323Y6676491D01*
X7069074Y6671614D01*
X7082332Y6668414D01*
G37*
G36*
X4851400Y6848703D02*
G01*
X4865573Y6849618D01*
X4879543Y6852361D01*
X4893005Y6856831D01*
X4905806Y6862978D01*
X4917744Y6870750D01*
X4928565Y6879945D01*
X4938115Y6890461D01*
X4946243Y6902094D01*
X4952796Y6914692D01*
X4957724Y6928053D01*
X4960874Y6941921D01*
X4962245Y6956044D01*
X4961788Y6970268D01*
X4959502Y6984288D01*
X4955489Y6997903D01*
X4949698Y7010908D01*
X4942332Y7023049D01*
X4933492Y7034174D01*
X4923282Y7044029D01*
X4911902Y7052513D01*
X4899507Y7059523D01*
X4886350Y7064857D01*
X4872583Y7068464D01*
X4858512Y7070242D01*
X4844288Y7070242D01*
X4830216Y7068464D01*
X4816449Y7064857D01*
X4803292Y7059523D01*
X4790897Y7052513D01*
X4779518Y7044029D01*
X4769307Y7034174D01*
X4760468Y7023049D01*
X4753102Y7010908D01*
X4747361Y6997903D01*
X4743297Y6984288D01*
X4741011Y6970268D01*
X4740554Y6956044D01*
X4741926Y6941921D01*
X4745075Y6928053D01*
X4750003Y6914692D01*
X4756556Y6902094D01*
X4764684Y6890461D01*
X4774234Y6879945D01*
X4785055Y6870750D01*
X4796993Y6862978D01*
X4809794Y6856831D01*
X4823256Y6852361D01*
X4837226Y6849618D01*
G37*
G36*
X4597400Y6848703D02*
G01*
X4611573Y6849618D01*
X4625543Y6852361D01*
X4639005Y6856831D01*
X4651806Y6862978D01*
X4663744Y6870750D01*
X4674565Y6879945D01*
X4684115Y6890461D01*
X4692243Y6902094D01*
X4698796Y6914692D01*
X4703724Y6928053D01*
X4706874Y6941921D01*
X4708245Y6956044D01*
X4707788Y6970268D01*
X4705502Y6984288D01*
X4701489Y6997903D01*
X4695698Y7010908D01*
X4688332Y7023049D01*
X4679492Y7034174D01*
X4669282Y7044029D01*
X4657902Y7052513D01*
X4645507Y7059523D01*
X4632350Y7064857D01*
X4618583Y7068464D01*
X4604512Y7070242D01*
X4590288Y7070242D01*
X4576216Y7068464D01*
X4562449Y7064857D01*
X4549292Y7059523D01*
X4536897Y7052513D01*
X4525518Y7044029D01*
X4515307Y7034174D01*
X4506468Y7023049D01*
X4499102Y7010908D01*
X4493361Y6997903D01*
X4489297Y6984288D01*
X4487011Y6970268D01*
X4486554Y6956044D01*
X4487926Y6941921D01*
X4491075Y6928053D01*
X4496003Y6914692D01*
X4502556Y6902094D01*
X4510684Y6890461D01*
X4520234Y6879945D01*
X4531055Y6870750D01*
X4542993Y6862978D01*
X4555794Y6856831D01*
X4569256Y6852361D01*
X4583226Y6849618D01*
G37*
G36*
X999896Y6921093D02*
G01*
X1013510Y6921550D01*
X1026972Y6923786D01*
X1039977Y6927850D01*
X1052372Y6933590D01*
X1063853Y6940905D01*
X1074267Y6949694D01*
X1083411Y6959853D01*
X1091133Y6971080D01*
X1097280Y6983222D01*
X1101750Y6996125D01*
X1104493Y7009485D01*
X1105408Y7023100D01*
X1104493Y7036714D01*
X1101750Y7050074D01*
X1097280Y7062978D01*
X1091133Y7075119D01*
X1083411Y7086346D01*
X1074267Y7096506D01*
X1063853Y7105294D01*
X1052372Y7112609D01*
X1039977Y7118350D01*
X1026972Y7122414D01*
X1013510Y7124649D01*
X999896Y7125106D01*
X986332Y7123785D01*
X973074Y7120585D01*
X960323Y7115708D01*
X948385Y7109155D01*
X937412Y7101078D01*
X927608Y7091578D01*
X919124Y7080859D01*
X912164Y7069124D01*
X906881Y7056577D01*
X903274Y7043420D01*
X901446Y7029907D01*
X901446Y7016292D01*
X903274Y7002780D01*
X906881Y6989622D01*
X912164Y6977075D01*
X919124Y6965340D01*
X927608Y6954621D01*
X937412Y6945122D01*
X948385Y6937044D01*
X960323Y6930491D01*
X973074Y6925614D01*
X986332Y6922414D01*
G37*
G36*
X1253896Y6921093D02*
G01*
X1267510Y6921550D01*
X1280972Y6923786D01*
X1293977Y6927850D01*
X1306372Y6933590D01*
X1317853Y6940905D01*
X1328267Y6949694D01*
X1337411Y6959853D01*
X1345133Y6971080D01*
X1351280Y6983222D01*
X1355750Y6996125D01*
X1358493Y7009485D01*
X1359408Y7023100D01*
X1358493Y7036714D01*
X1355750Y7050074D01*
X1351280Y7062978D01*
X1345133Y7075119D01*
X1337411Y7086346D01*
X1328267Y7096506D01*
X1317853Y7105294D01*
X1306372Y7112609D01*
X1293977Y7118350D01*
X1280972Y7122414D01*
X1267510Y7124649D01*
X1253896Y7125106D01*
X1240332Y7123785D01*
X1227074Y7120585D01*
X1214323Y7115708D01*
X1202385Y7109155D01*
X1191412Y7101078D01*
X1181608Y7091578D01*
X1173124Y7080859D01*
X1166164Y7069124D01*
X1160881Y7056577D01*
X1157274Y7043420D01*
X1155446Y7029907D01*
X1155446Y7016292D01*
X1157274Y7002780D01*
X1160881Y6989622D01*
X1166164Y6977075D01*
X1173124Y6965340D01*
X1181608Y6954621D01*
X1191412Y6945122D01*
X1202385Y6937044D01*
X1214323Y6930491D01*
X1227074Y6925614D01*
X1240332Y6922414D01*
G37*
G36*
X7349896Y6921093D02*
G01*
X7363510Y6921550D01*
X7376972Y6923786D01*
X7389977Y6927850D01*
X7402372Y6933590D01*
X7413853Y6940905D01*
X7424267Y6949694D01*
X7433411Y6959853D01*
X7441133Y6971080D01*
X7447280Y6983222D01*
X7451750Y6996125D01*
X7454493Y7009485D01*
X7455408Y7023100D01*
X7454493Y7036714D01*
X7451750Y7050074D01*
X7447280Y7062978D01*
X7441133Y7075119D01*
X7433411Y7086346D01*
X7424267Y7096506D01*
X7413853Y7105294D01*
X7402372Y7112609D01*
X7389977Y7118350D01*
X7376972Y7122414D01*
X7363510Y7124649D01*
X7349896Y7125106D01*
X7336332Y7123785D01*
X7323074Y7120585D01*
X7310323Y7115708D01*
X7298385Y7109155D01*
X7287412Y7101078D01*
X7277608Y7091578D01*
X7269124Y7080859D01*
X7262164Y7069124D01*
X7256881Y7056577D01*
X7253274Y7043420D01*
X7251446Y7029907D01*
X7251446Y7016292D01*
X7253274Y7002780D01*
X7256881Y6989622D01*
X7262164Y6977075D01*
X7269124Y6965340D01*
X7277608Y6954621D01*
X7287412Y6945122D01*
X7298385Y6937044D01*
X7310323Y6930491D01*
X7323074Y6925614D01*
X7336332Y6922414D01*
G37*
G36*
X7095896Y6921093D02*
G01*
X7109510Y6921550D01*
X7122972Y6923786D01*
X7135977Y6927850D01*
X7148372Y6933590D01*
X7159853Y6940905D01*
X7170267Y6949694D01*
X7179411Y6959853D01*
X7187133Y6971080D01*
X7193280Y6983222D01*
X7197750Y6996125D01*
X7200493Y7009485D01*
X7201408Y7023100D01*
X7200493Y7036714D01*
X7197750Y7050074D01*
X7193280Y7062978D01*
X7187133Y7075119D01*
X7179411Y7086346D01*
X7170267Y7096506D01*
X7159853Y7105294D01*
X7148372Y7112609D01*
X7135977Y7118350D01*
X7122972Y7122414D01*
X7109510Y7124649D01*
X7095896Y7125106D01*
X7082332Y7123785D01*
X7069074Y7120585D01*
X7056323Y7115708D01*
X7044385Y7109155D01*
X7033412Y7101078D01*
X7023608Y7091578D01*
X7015124Y7080859D01*
X7008114Y7068972D01*
X7005828Y7066330D01*
X7002780Y7064603D01*
X6999376Y7063994D01*
X6901332Y7063994D01*
X6898131Y7064502D01*
X6895287Y7065975D01*
X6887819Y7071512D01*
X6879183Y7075881D01*
X6869988Y7078675D01*
X6860438Y7079945D01*
X6850786Y7079488D01*
X6841337Y7077456D01*
X6832396Y7073900D01*
X6824167Y7068820D01*
X6816953Y7062470D01*
X6810857Y7054951D01*
X6806184Y7046518D01*
X6802983Y7037425D01*
X6801358Y7027925D01*
X6801358Y7018274D01*
X6802983Y7008774D01*
X6806184Y6999681D01*
X6810857Y6991248D01*
X6816953Y6983730D01*
X6824167Y6977380D01*
X6832396Y6972300D01*
X6841337Y6968744D01*
X6850786Y6966712D01*
X6860438Y6966254D01*
X6869988Y6967524D01*
X6879183Y6970318D01*
X6887819Y6974687D01*
X6895287Y6980224D01*
X6898131Y6981698D01*
X6901332Y6982206D01*
X6999376Y6982206D01*
X7002780Y6981596D01*
X7005828Y6979869D01*
X7008114Y6977227D01*
X7015124Y6965340D01*
X7023608Y6954621D01*
X7033412Y6945122D01*
X7044385Y6937044D01*
X7056323Y6930491D01*
X7069074Y6925614D01*
X7082332Y6922414D01*
G37*
G36*
X4517948Y7102703D02*
G01*
X4676851Y7102703D01*
X4683150Y7103414D01*
X4688636Y7105294D01*
X4693513Y7108393D01*
X4697628Y7112508D01*
X4700676Y7117384D01*
X4702606Y7122871D01*
X4703318Y7129170D01*
X4703318Y7298029D01*
X4702606Y7304328D01*
X4700676Y7309815D01*
X4697628Y7314692D01*
X4693513Y7318806D01*
X4688636Y7321905D01*
X4683150Y7323785D01*
X4676851Y7324496D01*
X4517948Y7324496D01*
X4511649Y7323785D01*
X4506163Y7321905D01*
X4501286Y7318806D01*
X4497171Y7314692D01*
X4494123Y7309815D01*
X4492193Y7304328D01*
X4491482Y7298029D01*
X4491482Y7129170D01*
X4492193Y7122871D01*
X4494123Y7117384D01*
X4497171Y7112508D01*
X4501286Y7108393D01*
X4506163Y7105294D01*
X4511649Y7103414D01*
G37*
G36*
X4851400Y7102703D02*
G01*
X4865573Y7103618D01*
X4879543Y7106361D01*
X4893005Y7110831D01*
X4905806Y7116978D01*
X4917744Y7124750D01*
X4928565Y7133945D01*
X4938115Y7144461D01*
X4946243Y7156094D01*
X4952796Y7168692D01*
X4957724Y7182053D01*
X4960874Y7195921D01*
X4962245Y7210044D01*
X4961788Y7224268D01*
X4959502Y7238288D01*
X4955489Y7251903D01*
X4949698Y7264908D01*
X4942332Y7277049D01*
X4933492Y7288174D01*
X4923282Y7298029D01*
X4911902Y7306513D01*
X4899507Y7313523D01*
X4886350Y7318857D01*
X4872583Y7322464D01*
X4858512Y7324242D01*
X4844288Y7324242D01*
X4830216Y7322464D01*
X4816449Y7318857D01*
X4803292Y7313523D01*
X4790897Y7306513D01*
X4779518Y7298029D01*
X4769307Y7288174D01*
X4760468Y7277049D01*
X4753102Y7264908D01*
X4747361Y7251903D01*
X4743297Y7238288D01*
X4741011Y7224268D01*
X4740554Y7210044D01*
X4741926Y7195921D01*
X4745075Y7182053D01*
X4750003Y7168692D01*
X4756556Y7156094D01*
X4764684Y7144461D01*
X4774234Y7133945D01*
X4785055Y7124750D01*
X4796993Y7116978D01*
X4809794Y7110831D01*
X4823256Y7106361D01*
X4837226Y7103618D01*
G37*
G36*
X999896Y7175093D02*
G01*
X1013510Y7175550D01*
X1026972Y7177786D01*
X1039977Y7181850D01*
X1052372Y7187590D01*
X1063853Y7194905D01*
X1074267Y7203694D01*
X1083411Y7213853D01*
X1091133Y7225080D01*
X1097280Y7237222D01*
X1101750Y7250125D01*
X1104493Y7263485D01*
X1105408Y7277100D01*
X1104493Y7290714D01*
X1101750Y7304074D01*
X1097280Y7316978D01*
X1091133Y7329119D01*
X1083411Y7340346D01*
X1074267Y7350506D01*
X1063853Y7359294D01*
X1052372Y7366609D01*
X1039977Y7372350D01*
X1026972Y7376414D01*
X1013510Y7378649D01*
X999896Y7379106D01*
X986332Y7377785D01*
X973074Y7374585D01*
X960323Y7369708D01*
X948385Y7363155D01*
X937412Y7355078D01*
X927608Y7345578D01*
X919124Y7334859D01*
X912164Y7323124D01*
X906881Y7310577D01*
X903274Y7297420D01*
X901446Y7283907D01*
X901446Y7270292D01*
X903274Y7256780D01*
X906881Y7243622D01*
X912164Y7231075D01*
X919124Y7219340D01*
X927608Y7208621D01*
X937412Y7199122D01*
X948385Y7191044D01*
X960323Y7184491D01*
X973074Y7179614D01*
X986332Y7176414D01*
G37*
G36*
X7349896Y7175093D02*
G01*
X7363510Y7175550D01*
X7376972Y7177786D01*
X7389977Y7181850D01*
X7402372Y7187590D01*
X7413853Y7194905D01*
X7424267Y7203694D01*
X7433411Y7213853D01*
X7441133Y7225080D01*
X7447280Y7237222D01*
X7451750Y7250125D01*
X7454493Y7263485D01*
X7455408Y7277100D01*
X7454493Y7290714D01*
X7451750Y7304074D01*
X7447280Y7316978D01*
X7441133Y7329119D01*
X7433411Y7340346D01*
X7424267Y7350506D01*
X7413853Y7359294D01*
X7402372Y7366609D01*
X7389977Y7372350D01*
X7376972Y7376414D01*
X7363510Y7378649D01*
X7349896Y7379106D01*
X7336332Y7377785D01*
X7323074Y7374585D01*
X7310323Y7369708D01*
X7298385Y7363155D01*
X7287412Y7355078D01*
X7277608Y7345578D01*
X7269124Y7334859D01*
X7262164Y7323124D01*
X7256881Y7310577D01*
X7253274Y7297420D01*
X7251446Y7283907D01*
X7251446Y7270292D01*
X7253274Y7256780D01*
X7256881Y7243622D01*
X7262164Y7231075D01*
X7269124Y7219340D01*
X7277608Y7208621D01*
X7287412Y7199122D01*
X7298385Y7191044D01*
X7310323Y7184491D01*
X7323074Y7179614D01*
X7336332Y7176414D01*
G37*
G36*
X7095896Y7175093D02*
G01*
X7109510Y7175550D01*
X7122972Y7177786D01*
X7135977Y7181850D01*
X7148372Y7187590D01*
X7159853Y7194905D01*
X7170267Y7203694D01*
X7179411Y7213853D01*
X7187133Y7225080D01*
X7193280Y7237222D01*
X7197750Y7250125D01*
X7200493Y7263485D01*
X7201408Y7277100D01*
X7200493Y7290714D01*
X7197750Y7304074D01*
X7193280Y7316978D01*
X7187133Y7329119D01*
X7179411Y7340346D01*
X7170267Y7350506D01*
X7159853Y7359294D01*
X7148372Y7366609D01*
X7135977Y7372350D01*
X7122972Y7376414D01*
X7109510Y7378649D01*
X7095896Y7379106D01*
X7082332Y7377785D01*
X7069074Y7374585D01*
X7056323Y7369708D01*
X7044385Y7363155D01*
X7033412Y7355078D01*
X7023608Y7345578D01*
X7015124Y7334859D01*
X7008114Y7322972D01*
X7005828Y7320330D01*
X7002780Y7318603D01*
X6999376Y7317994D01*
X6897928Y7317994D01*
X6894728Y7318502D01*
X6891883Y7319975D01*
X6884416Y7325512D01*
X6875780Y7329881D01*
X6866585Y7332675D01*
X6857034Y7333945D01*
X6847382Y7333488D01*
X6837934Y7331456D01*
X6828993Y7327900D01*
X6820763Y7322820D01*
X6813550Y7316470D01*
X6807504Y7308951D01*
X6802780Y7300518D01*
X6799580Y7291425D01*
X6797954Y7281925D01*
X6797954Y7272274D01*
X6799580Y7262774D01*
X6802780Y7253681D01*
X6807504Y7245248D01*
X6813550Y7237730D01*
X6820763Y7231380D01*
X6828993Y7226300D01*
X6837934Y7222744D01*
X6847382Y7220712D01*
X6857034Y7220254D01*
X6866585Y7221524D01*
X6875780Y7224318D01*
X6884416Y7228687D01*
X6891883Y7234224D01*
X6894728Y7235698D01*
X6897928Y7236206D01*
X6999376Y7236206D01*
X7002780Y7235596D01*
X7005828Y7233869D01*
X7008114Y7231227D01*
X7015124Y7219340D01*
X7023608Y7208621D01*
X7033412Y7199122D01*
X7044385Y7191044D01*
X7056323Y7184491D01*
X7069074Y7179614D01*
X7082332Y7176414D01*
G37*
G36*
X1212850Y7185304D02*
G01*
X1212850Y7232650D01*
X1165504Y7232650D01*
X1166164Y7231075D01*
X1173124Y7219340D01*
X1181608Y7208621D01*
X1191412Y7199122D01*
X1202385Y7191044D01*
G37*
G36*
X1301750Y7185456D02*
G01*
X1306372Y7187590D01*
X1317853Y7194905D01*
X1328267Y7203694D01*
X1337411Y7213853D01*
X1345133Y7225080D01*
X1348943Y7232650D01*
X1301750Y7232650D01*
G37*
G36*
X1301750Y7321550D02*
G01*
X1348943Y7321550D01*
X1345133Y7329119D01*
X1337411Y7340346D01*
X1328267Y7350506D01*
X1317853Y7359294D01*
X1306372Y7366609D01*
X1301750Y7368743D01*
G37*
G36*
X1165504Y7321550D02*
G01*
X1212850Y7321550D01*
X1212850Y7368895D01*
X1202385Y7363155D01*
X1191412Y7355078D01*
X1181608Y7345578D01*
X1173124Y7334859D01*
X1166164Y7323124D01*
G37*
G36*
X999896Y7429093D02*
G01*
X1013510Y7429550D01*
X1026972Y7431786D01*
X1039977Y7435850D01*
X1052372Y7441590D01*
X1063853Y7448905D01*
X1074267Y7457694D01*
X1083411Y7467853D01*
X1091133Y7479080D01*
X1097280Y7491222D01*
X1101750Y7504125D01*
X1104493Y7517485D01*
X1105408Y7531100D01*
X1104493Y7544714D01*
X1101750Y7558074D01*
X1097280Y7570978D01*
X1091133Y7583119D01*
X1083411Y7594346D01*
X1074267Y7604506D01*
X1063853Y7613294D01*
X1052372Y7620609D01*
X1039977Y7626350D01*
X1026972Y7630414D01*
X1013510Y7632649D01*
X999896Y7633106D01*
X986332Y7631785D01*
X973074Y7628585D01*
X960323Y7623708D01*
X948385Y7617155D01*
X937412Y7609078D01*
X927608Y7599578D01*
X919124Y7588859D01*
X912164Y7577124D01*
X906881Y7564577D01*
X903274Y7551420D01*
X901446Y7537907D01*
X901446Y7524292D01*
X903274Y7510780D01*
X906881Y7497622D01*
X912164Y7485075D01*
X919124Y7473340D01*
X927608Y7462621D01*
X937412Y7453122D01*
X948385Y7445044D01*
X960323Y7438491D01*
X973074Y7433614D01*
X986332Y7430414D01*
G37*
G36*
X1253896Y7429093D02*
G01*
X1267510Y7429550D01*
X1280972Y7431786D01*
X1293977Y7435850D01*
X1306372Y7441590D01*
X1317853Y7448905D01*
X1328267Y7457694D01*
X1337411Y7467853D01*
X1345133Y7479080D01*
X1351280Y7491222D01*
X1355750Y7504125D01*
X1358493Y7517485D01*
X1359408Y7531100D01*
X1358493Y7544714D01*
X1355750Y7558074D01*
X1351280Y7570978D01*
X1345133Y7583119D01*
X1337411Y7594346D01*
X1328267Y7604506D01*
X1317853Y7613294D01*
X1306372Y7620609D01*
X1293977Y7626350D01*
X1280972Y7630414D01*
X1267510Y7632649D01*
X1253896Y7633106D01*
X1240332Y7631785D01*
X1227074Y7628585D01*
X1214323Y7623708D01*
X1202385Y7617155D01*
X1191412Y7609078D01*
X1181608Y7599578D01*
X1173124Y7588859D01*
X1166164Y7577124D01*
X1160881Y7564577D01*
X1157274Y7551420D01*
X1155446Y7537907D01*
X1155446Y7524292D01*
X1157274Y7510780D01*
X1160881Y7497622D01*
X1166164Y7485075D01*
X1173124Y7473340D01*
X1181608Y7462621D01*
X1191412Y7453122D01*
X1202385Y7445044D01*
X1214323Y7438491D01*
X1227074Y7433614D01*
X1240332Y7430414D01*
G37*
G36*
X7349896Y7429093D02*
G01*
X7363510Y7429550D01*
X7376972Y7431786D01*
X7389977Y7435850D01*
X7402372Y7441590D01*
X7413853Y7448905D01*
X7424267Y7457694D01*
X7433411Y7467853D01*
X7441133Y7479080D01*
X7447280Y7491222D01*
X7451750Y7504125D01*
X7454493Y7517485D01*
X7455408Y7531100D01*
X7454493Y7544714D01*
X7451750Y7558074D01*
X7447280Y7570978D01*
X7441133Y7583119D01*
X7433411Y7594346D01*
X7424267Y7604506D01*
X7413853Y7613294D01*
X7402372Y7620609D01*
X7389977Y7626350D01*
X7376972Y7630414D01*
X7363510Y7632649D01*
X7349896Y7633106D01*
X7336332Y7631785D01*
X7323074Y7628585D01*
X7310323Y7623708D01*
X7298385Y7617155D01*
X7287412Y7609078D01*
X7277608Y7599578D01*
X7269124Y7588859D01*
X7262164Y7577124D01*
X7256881Y7564577D01*
X7253274Y7551420D01*
X7251446Y7537907D01*
X7251446Y7524292D01*
X7253274Y7510780D01*
X7256881Y7497622D01*
X7262164Y7485075D01*
X7269124Y7473340D01*
X7277608Y7462621D01*
X7287412Y7453122D01*
X7298385Y7445044D01*
X7310323Y7438491D01*
X7323074Y7433614D01*
X7336332Y7430414D01*
G37*
G36*
X7095896Y7429093D02*
G01*
X7109510Y7429550D01*
X7122972Y7431786D01*
X7135977Y7435850D01*
X7148372Y7441590D01*
X7159853Y7448905D01*
X7170267Y7457694D01*
X7179411Y7467853D01*
X7187133Y7479080D01*
X7193280Y7491222D01*
X7197750Y7504125D01*
X7200493Y7517485D01*
X7201408Y7531100D01*
X7200493Y7544714D01*
X7197750Y7558074D01*
X7193280Y7570978D01*
X7187133Y7583119D01*
X7179411Y7594346D01*
X7170267Y7604506D01*
X7159853Y7613294D01*
X7148372Y7620609D01*
X7135977Y7626350D01*
X7122972Y7630414D01*
X7109510Y7632649D01*
X7095896Y7633106D01*
X7082332Y7631785D01*
X7069074Y7628585D01*
X7056323Y7623708D01*
X7044385Y7617155D01*
X7033412Y7609078D01*
X7023608Y7599578D01*
X7015124Y7588859D01*
X7008114Y7576972D01*
X7005828Y7574330D01*
X7002780Y7572603D01*
X6999376Y7571994D01*
X6896455Y7571994D01*
X6893255Y7572502D01*
X6890410Y7573975D01*
X6882942Y7579512D01*
X6874306Y7583881D01*
X6865061Y7586675D01*
X6855510Y7587945D01*
X6845858Y7587488D01*
X6836460Y7585456D01*
X6827520Y7581900D01*
X6819290Y7576820D01*
X6812025Y7570470D01*
X6805980Y7562951D01*
X6801256Y7554518D01*
X6798056Y7545425D01*
X6796430Y7535925D01*
X6796430Y7526274D01*
X6798056Y7516774D01*
X6801256Y7507681D01*
X6805980Y7499248D01*
X6812025Y7491730D01*
X6819290Y7485380D01*
X6827520Y7480300D01*
X6836460Y7476744D01*
X6845858Y7474712D01*
X6855510Y7474254D01*
X6865061Y7475524D01*
X6874306Y7478318D01*
X6882942Y7482687D01*
X6890410Y7488224D01*
X6893255Y7489698D01*
X6896455Y7490206D01*
X6999376Y7490206D01*
X7002780Y7489596D01*
X7005828Y7487869D01*
X7008114Y7485227D01*
X7015124Y7473340D01*
X7023608Y7462621D01*
X7033412Y7453122D01*
X7044385Y7445044D01*
X7056323Y7438491D01*
X7069074Y7433614D01*
X7082332Y7430414D01*
G37*
G36*
X999896Y7683093D02*
G01*
X1013510Y7683550D01*
X1026972Y7685786D01*
X1039977Y7689850D01*
X1052372Y7695590D01*
X1063853Y7702905D01*
X1074267Y7711694D01*
X1083411Y7721853D01*
X1091133Y7733080D01*
X1097280Y7745222D01*
X1101750Y7758125D01*
X1104493Y7771485D01*
X1105408Y7785100D01*
X1104493Y7798714D01*
X1101750Y7812074D01*
X1097280Y7824978D01*
X1091133Y7837119D01*
X1083411Y7848346D01*
X1074267Y7858506D01*
X1063853Y7867294D01*
X1052372Y7874609D01*
X1039977Y7880350D01*
X1026972Y7884414D01*
X1013510Y7886649D01*
X999896Y7887106D01*
X986332Y7885785D01*
X973074Y7882585D01*
X960323Y7877708D01*
X948385Y7871155D01*
X937412Y7863078D01*
X927608Y7853578D01*
X919124Y7842859D01*
X912164Y7831124D01*
X906881Y7818577D01*
X903274Y7805420D01*
X901446Y7791907D01*
X901446Y7778292D01*
X903274Y7764780D01*
X906881Y7751622D01*
X912164Y7739075D01*
X919124Y7727340D01*
X927608Y7716621D01*
X937412Y7707122D01*
X948385Y7699044D01*
X960323Y7692491D01*
X973074Y7687614D01*
X986332Y7684414D01*
G37*
G36*
X7095896Y7683093D02*
G01*
X7109510Y7683550D01*
X7122972Y7685786D01*
X7135977Y7689850D01*
X7148372Y7695590D01*
X7159853Y7702905D01*
X7170267Y7711694D01*
X7179411Y7721853D01*
X7187133Y7733080D01*
X7193280Y7745222D01*
X7197750Y7758125D01*
X7200493Y7771485D01*
X7201408Y7785100D01*
X7200493Y7798714D01*
X7197750Y7812074D01*
X7193280Y7824978D01*
X7187133Y7837119D01*
X7179411Y7848346D01*
X7170267Y7858506D01*
X7161428Y7865973D01*
X7158888Y7869224D01*
X7157821Y7873187D01*
X7158431Y7877200D01*
X7160564Y7880705D01*
X7163968Y7883042D01*
X7167981Y7883906D01*
X7192467Y7883906D01*
X7196328Y7883093D01*
X7199630Y7880908D01*
X7253782Y7826756D01*
X7255814Y7823860D01*
X7256729Y7820406D01*
X7256424Y7816900D01*
X7253274Y7805420D01*
X7251446Y7791907D01*
X7251446Y7778292D01*
X7253274Y7764780D01*
X7256881Y7751622D01*
X7262164Y7739075D01*
X7269124Y7727340D01*
X7277608Y7716621D01*
X7287412Y7707122D01*
X7298385Y7699044D01*
X7310323Y7692491D01*
X7323074Y7687614D01*
X7336332Y7684414D01*
X7349896Y7683093D01*
X7363510Y7683550D01*
X7376972Y7685786D01*
X7389977Y7689850D01*
X7402372Y7695590D01*
X7413853Y7702905D01*
X7424267Y7711694D01*
X7433411Y7721853D01*
X7441133Y7733080D01*
X7447280Y7745222D01*
X7451750Y7758125D01*
X7454493Y7771485D01*
X7455408Y7785100D01*
X7454493Y7798714D01*
X7451750Y7812074D01*
X7447280Y7824978D01*
X7441133Y7837119D01*
X7433411Y7848346D01*
X7424267Y7858506D01*
X7413853Y7867294D01*
X7402372Y7874609D01*
X7389977Y7880350D01*
X7376972Y7884414D01*
X7363510Y7886649D01*
X7349896Y7887106D01*
X7336332Y7885785D01*
X7322413Y7882381D01*
X7318603Y7881670D01*
X7314793Y7882483D01*
X7311593Y7884668D01*
X7242860Y7953349D01*
X7236307Y7958785D01*
X7229246Y7962544D01*
X7221575Y7964881D01*
X7213092Y7965694D01*
X7191756Y7965694D01*
X7187488Y7966659D01*
X7183983Y7969300D01*
X7181951Y7973161D01*
X7181748Y7977581D01*
X7183374Y7981594D01*
X7187133Y7987080D01*
X7193280Y7999222D01*
X7197750Y8012125D01*
X7200493Y8025485D01*
X7201408Y8039100D01*
X7200493Y8052714D01*
X7197750Y8066074D01*
X7193280Y8078978D01*
X7187133Y8091119D01*
X7179411Y8102346D01*
X7170267Y8112506D01*
X7159853Y8121294D01*
X7148372Y8128609D01*
X7135977Y8134350D01*
X7122972Y8138414D01*
X7109510Y8140649D01*
X7095896Y8141106D01*
X7082332Y8139785D01*
X7069074Y8136585D01*
X7056323Y8131708D01*
X7044385Y8125155D01*
X7033412Y8117078D01*
X7023608Y8107578D01*
X7015124Y8096859D01*
X7008164Y8085124D01*
X7002881Y8072577D01*
X6999274Y8059420D01*
X6997446Y8045958D01*
X6997496Y8031124D01*
X6996684Y8027060D01*
X6994245Y8023656D01*
X6990689Y8021523D01*
X6986574Y8020964D01*
X6982561Y8022132D01*
X6975246Y8026044D01*
X6967575Y8028381D01*
X6959092Y8029194D01*
X6901332Y8029194D01*
X6898131Y8029702D01*
X6895287Y8031175D01*
X6887819Y8036712D01*
X6879183Y8041081D01*
X6869988Y8043875D01*
X6860438Y8045145D01*
X6850786Y8044688D01*
X6841337Y8042656D01*
X6832396Y8039100D01*
X6824167Y8034020D01*
X6816953Y8027670D01*
X6810857Y8020151D01*
X6806184Y8011718D01*
X6802983Y8002625D01*
X6801358Y7993125D01*
X6801358Y7983474D01*
X6802983Y7973974D01*
X6806184Y7964881D01*
X6810857Y7956448D01*
X6816953Y7948930D01*
X6824167Y7942580D01*
X6832396Y7937500D01*
X6841337Y7933944D01*
X6850786Y7931912D01*
X6860438Y7931454D01*
X6869988Y7932724D01*
X6879183Y7935518D01*
X6887819Y7939887D01*
X6895287Y7945424D01*
X6898131Y7946898D01*
X6901332Y7947406D01*
X6938467Y7947406D01*
X6942328Y7946593D01*
X6945630Y7944408D01*
X6993839Y7896250D01*
X7000392Y7890814D01*
X7007453Y7887055D01*
X7015124Y7884718D01*
X7023608Y7883906D01*
X7030770Y7883906D01*
X7034885Y7883042D01*
X7038289Y7880553D01*
X7040422Y7876895D01*
X7040880Y7872730D01*
X7039559Y7868716D01*
X7036765Y7865567D01*
X7033412Y7863078D01*
X7023608Y7853578D01*
X7015124Y7842859D01*
X7008114Y7830972D01*
X7005828Y7828330D01*
X7002780Y7826603D01*
X6999376Y7825994D01*
X6893052Y7825994D01*
X6889851Y7826502D01*
X6887006Y7827975D01*
X6879539Y7833512D01*
X6870903Y7837881D01*
X6861657Y7840675D01*
X6852107Y7841945D01*
X6842455Y7841488D01*
X6833057Y7839456D01*
X6824116Y7835900D01*
X6815886Y7830820D01*
X6808622Y7824470D01*
X6802577Y7816951D01*
X6797852Y7808518D01*
X6794652Y7799425D01*
X6793026Y7789925D01*
X6793026Y7780274D01*
X6794652Y7770774D01*
X6797852Y7761681D01*
X6802577Y7753248D01*
X6808622Y7745730D01*
X6815886Y7739380D01*
X6824116Y7734300D01*
X6833057Y7730744D01*
X6842455Y7728712D01*
X6852107Y7728254D01*
X6861657Y7729524D01*
X6870903Y7732318D01*
X6879539Y7736687D01*
X6887006Y7742224D01*
X6889851Y7743698D01*
X6893052Y7744206D01*
X6999376Y7744206D01*
X7002780Y7743596D01*
X7005828Y7741869D01*
X7008114Y7739227D01*
X7015124Y7727340D01*
X7023608Y7716621D01*
X7033412Y7707122D01*
X7044385Y7699044D01*
X7056323Y7692491D01*
X7069074Y7687614D01*
X7082332Y7684414D01*
G37*
G36*
X999896Y7937093D02*
G01*
X1013510Y7937550D01*
X1026972Y7939786D01*
X1039977Y7943850D01*
X1052372Y7949590D01*
X1063853Y7956905D01*
X1074267Y7965694D01*
X1083411Y7975853D01*
X1091133Y7987080D01*
X1097280Y7999222D01*
X1101750Y8012125D01*
X1104493Y8025485D01*
X1105408Y8039100D01*
X1104493Y8052714D01*
X1101750Y8066074D01*
X1097280Y8078978D01*
X1091133Y8091119D01*
X1083411Y8102346D01*
X1074267Y8112506D01*
X1063853Y8121294D01*
X1052372Y8128609D01*
X1039977Y8134350D01*
X1026972Y8138414D01*
X1013510Y8140649D01*
X999896Y8141106D01*
X986332Y8139785D01*
X973074Y8136585D01*
X960323Y8131708D01*
X948385Y8125155D01*
X937412Y8117078D01*
X927608Y8107578D01*
X919124Y8096859D01*
X912164Y8085124D01*
X906881Y8072577D01*
X903274Y8059420D01*
X901446Y8045907D01*
X901446Y8032292D01*
X903274Y8018780D01*
X906881Y8005622D01*
X912164Y7993075D01*
X919124Y7981340D01*
X927608Y7970621D01*
X937412Y7961122D01*
X948385Y7953044D01*
X960323Y7946491D01*
X973074Y7941614D01*
X986332Y7938414D01*
G37*
G36*
X1253896Y7937093D02*
G01*
X1267510Y7937550D01*
X1280972Y7939786D01*
X1293977Y7943850D01*
X1306372Y7949590D01*
X1317853Y7956905D01*
X1328267Y7965694D01*
X1337411Y7975853D01*
X1345133Y7987080D01*
X1351280Y7999222D01*
X1355750Y8012125D01*
X1358493Y8025485D01*
X1359408Y8039100D01*
X1358493Y8052714D01*
X1355750Y8066074D01*
X1351280Y8078978D01*
X1345133Y8091119D01*
X1337411Y8102346D01*
X1328267Y8112506D01*
X1317853Y8121294D01*
X1306372Y8128609D01*
X1293977Y8134350D01*
X1280972Y8138414D01*
X1267510Y8140649D01*
X1253896Y8141106D01*
X1240332Y8139785D01*
X1227074Y8136585D01*
X1214323Y8131708D01*
X1202385Y8125155D01*
X1191412Y8117078D01*
X1181608Y8107578D01*
X1173124Y8096859D01*
X1166164Y8085124D01*
X1160881Y8072577D01*
X1157274Y8059420D01*
X1155446Y8045907D01*
X1155446Y8032292D01*
X1157274Y8018780D01*
X1160881Y8005622D01*
X1166164Y7993075D01*
X1173124Y7981340D01*
X1181608Y7970621D01*
X1191412Y7961122D01*
X1202385Y7953044D01*
X1214323Y7946491D01*
X1227074Y7941614D01*
X1240332Y7938414D01*
G37*
G36*
X7349896Y7937093D02*
G01*
X7363510Y7937550D01*
X7376972Y7939786D01*
X7389977Y7943850D01*
X7402372Y7949590D01*
X7413853Y7956905D01*
X7424267Y7965694D01*
X7433411Y7975853D01*
X7441133Y7987080D01*
X7447280Y7999222D01*
X7451750Y8012125D01*
X7454493Y8025485D01*
X7455408Y8039100D01*
X7454493Y8052714D01*
X7451750Y8066074D01*
X7447280Y8078978D01*
X7441133Y8091119D01*
X7433411Y8102346D01*
X7424267Y8112506D01*
X7413853Y8121294D01*
X7402372Y8128609D01*
X7389977Y8134350D01*
X7376972Y8138414D01*
X7363510Y8140649D01*
X7349896Y8141106D01*
X7336332Y8139785D01*
X7323074Y8136585D01*
X7310323Y8131708D01*
X7298385Y8125155D01*
X7287412Y8117078D01*
X7277608Y8107578D01*
X7269124Y8096859D01*
X7262164Y8085124D01*
X7256881Y8072577D01*
X7253274Y8059420D01*
X7251446Y8045907D01*
X7251446Y8032292D01*
X7253274Y8018780D01*
X7256881Y8005622D01*
X7262164Y7993075D01*
X7269124Y7981340D01*
X7277608Y7970621D01*
X7287412Y7961122D01*
X7298385Y7953044D01*
X7310323Y7946491D01*
X7323074Y7941614D01*
X7336332Y7938414D01*
G37*
G36*
X999896Y8191093D02*
G01*
X1013510Y8191550D01*
X1026972Y8193786D01*
X1039977Y8197850D01*
X1052372Y8203590D01*
X1063853Y8210905D01*
X1074267Y8219694D01*
X1083411Y8229853D01*
X1091133Y8241080D01*
X1097280Y8253222D01*
X1101750Y8266125D01*
X1104493Y8279485D01*
X1105408Y8293100D01*
X1104493Y8306714D01*
X1101750Y8320074D01*
X1097280Y8332978D01*
X1091133Y8345119D01*
X1083411Y8356346D01*
X1074267Y8366506D01*
X1063853Y8375294D01*
X1052372Y8382609D01*
X1039977Y8388350D01*
X1026972Y8392414D01*
X1013510Y8394649D01*
X999896Y8395106D01*
X986332Y8393785D01*
X973074Y8390585D01*
X960323Y8385708D01*
X948385Y8379155D01*
X937412Y8371078D01*
X927608Y8361578D01*
X919124Y8350859D01*
X912164Y8339124D01*
X906881Y8326577D01*
X903274Y8313420D01*
X901446Y8299907D01*
X901446Y8286292D01*
X903274Y8272780D01*
X906881Y8259622D01*
X912164Y8247075D01*
X919124Y8235340D01*
X927608Y8224621D01*
X937412Y8215122D01*
X948385Y8207044D01*
X960323Y8200491D01*
X973074Y8195614D01*
X986332Y8192414D01*
G37*
G36*
X1253896Y8191093D02*
G01*
X1267510Y8191550D01*
X1280972Y8193786D01*
X1293977Y8197850D01*
X1306372Y8203590D01*
X1317853Y8210905D01*
X1328267Y8219694D01*
X1337411Y8229853D01*
X1345133Y8241080D01*
X1351280Y8253222D01*
X1355750Y8266125D01*
X1358493Y8279485D01*
X1359408Y8293100D01*
X1358493Y8306714D01*
X1355750Y8320074D01*
X1351280Y8332978D01*
X1345133Y8345119D01*
X1337411Y8356346D01*
X1328267Y8366506D01*
X1317853Y8375294D01*
X1306372Y8382609D01*
X1293977Y8388350D01*
X1280972Y8392414D01*
X1267510Y8394649D01*
X1253896Y8395106D01*
X1240332Y8393785D01*
X1227074Y8390585D01*
X1214323Y8385708D01*
X1202385Y8379155D01*
X1191412Y8371078D01*
X1181608Y8361578D01*
X1173124Y8350859D01*
X1166164Y8339124D01*
X1160881Y8326577D01*
X1157274Y8313420D01*
X1155446Y8299907D01*
X1155446Y8286292D01*
X1157274Y8272780D01*
X1160881Y8259622D01*
X1166164Y8247075D01*
X1173124Y8235340D01*
X1181608Y8224621D01*
X1191412Y8215122D01*
X1202385Y8207044D01*
X1214323Y8200491D01*
X1227074Y8195614D01*
X1240332Y8192414D01*
G37*
G36*
X7095896Y8191093D02*
G01*
X7109510Y8191550D01*
X7122972Y8193786D01*
X7135977Y8197850D01*
X7148372Y8203590D01*
X7159853Y8210905D01*
X7170267Y8219694D01*
X7179411Y8229853D01*
X7187133Y8241080D01*
X7193280Y8253222D01*
X7197750Y8266125D01*
X7200493Y8279485D01*
X7201408Y8293100D01*
X7200493Y8306714D01*
X7197750Y8320074D01*
X7193280Y8332978D01*
X7187133Y8345119D01*
X7179411Y8356346D01*
X7170267Y8366506D01*
X7159853Y8375294D01*
X7148372Y8382609D01*
X7135977Y8388350D01*
X7122972Y8392414D01*
X7109510Y8394649D01*
X7095896Y8395106D01*
X7082332Y8393785D01*
X7069074Y8390585D01*
X7056323Y8385708D01*
X7044385Y8379155D01*
X7033412Y8371078D01*
X7023608Y8361578D01*
X7015124Y8350859D01*
X7008164Y8339124D01*
X7002881Y8326577D01*
X6999274Y8313420D01*
X6997446Y8299907D01*
X6997446Y8286292D01*
X6999274Y8272780D01*
X7002881Y8259622D01*
X7008164Y8247075D01*
X7015124Y8235340D01*
X7023608Y8224621D01*
X7033412Y8215122D01*
X7044385Y8207044D01*
X7056323Y8200491D01*
X7069074Y8195614D01*
X7082332Y8192414D01*
G37*
G36*
X7349896Y8191093D02*
G01*
X7363510Y8191550D01*
X7376972Y8193786D01*
X7389977Y8197850D01*
X7402372Y8203590D01*
X7413853Y8210905D01*
X7424267Y8219694D01*
X7433411Y8229853D01*
X7441133Y8241080D01*
X7447280Y8253222D01*
X7451750Y8266125D01*
X7454493Y8279485D01*
X7455408Y8293100D01*
X7454493Y8306714D01*
X7451750Y8320074D01*
X7447280Y8332978D01*
X7441133Y8345119D01*
X7433411Y8356346D01*
X7424267Y8366506D01*
X7413853Y8375294D01*
X7402372Y8382609D01*
X7389977Y8388350D01*
X7376972Y8392414D01*
X7363510Y8394649D01*
X7349896Y8395106D01*
X7336332Y8393785D01*
X7323074Y8390585D01*
X7310323Y8385708D01*
X7298385Y8379155D01*
X7287412Y8371078D01*
X7277608Y8361578D01*
X7269124Y8350859D01*
X7262164Y8339124D01*
X7256881Y8326577D01*
X7253274Y8313420D01*
X7251446Y8299907D01*
X7251446Y8286292D01*
X7253274Y8272780D01*
X7256881Y8259622D01*
X7262164Y8247075D01*
X7269124Y8235340D01*
X7277608Y8224621D01*
X7287412Y8215122D01*
X7298385Y8207044D01*
X7310323Y8200491D01*
X7323074Y8195614D01*
X7336332Y8192414D01*
G37*
G36*
X999896Y8445093D02*
G01*
X1013510Y8445550D01*
X1026972Y8447786D01*
X1039977Y8451850D01*
X1052372Y8457590D01*
X1063853Y8464905D01*
X1074267Y8473694D01*
X1083411Y8483854D01*
X1091133Y8495080D01*
X1097280Y8507222D01*
X1101750Y8520125D01*
X1104493Y8533485D01*
X1105408Y8547100D01*
X1104493Y8560714D01*
X1101750Y8574074D01*
X1097280Y8586978D01*
X1091133Y8599119D01*
X1083411Y8610346D01*
X1074267Y8620506D01*
X1063853Y8629294D01*
X1052372Y8636609D01*
X1039977Y8642350D01*
X1026972Y8646414D01*
X1013510Y8648649D01*
X999896Y8649106D01*
X986332Y8647785D01*
X973074Y8644585D01*
X960323Y8639708D01*
X948385Y8633155D01*
X937412Y8625078D01*
X927608Y8615578D01*
X919124Y8604859D01*
X912164Y8593124D01*
X906881Y8580577D01*
X903274Y8567420D01*
X901446Y8553907D01*
X901446Y8540292D01*
X903274Y8526780D01*
X906881Y8513622D01*
X912164Y8501075D01*
X919124Y8489340D01*
X927608Y8478621D01*
X937412Y8469122D01*
X948385Y8461044D01*
X960323Y8454491D01*
X973074Y8449614D01*
X986332Y8446414D01*
G37*
G36*
X1253896Y8445093D02*
G01*
X1267510Y8445550D01*
X1280972Y8447786D01*
X1293977Y8451850D01*
X1306372Y8457590D01*
X1317853Y8464905D01*
X1328267Y8473694D01*
X1337411Y8483854D01*
X1345133Y8495080D01*
X1351280Y8507222D01*
X1355750Y8520125D01*
X1358493Y8533485D01*
X1359408Y8547100D01*
X1358493Y8560714D01*
X1355750Y8574074D01*
X1351280Y8586978D01*
X1345133Y8599119D01*
X1337411Y8610346D01*
X1328267Y8620506D01*
X1317853Y8629294D01*
X1306372Y8636609D01*
X1293977Y8642350D01*
X1280972Y8646414D01*
X1267510Y8648649D01*
X1253896Y8649106D01*
X1240332Y8647785D01*
X1227074Y8644585D01*
X1214323Y8639708D01*
X1202385Y8633155D01*
X1191412Y8625078D01*
X1181608Y8615578D01*
X1173124Y8604859D01*
X1166164Y8593124D01*
X1160881Y8580577D01*
X1157274Y8567420D01*
X1155446Y8553907D01*
X1155446Y8540292D01*
X1157274Y8526780D01*
X1160881Y8513622D01*
X1166164Y8501075D01*
X1173124Y8489340D01*
X1181608Y8478621D01*
X1191412Y8469122D01*
X1202385Y8461044D01*
X1214323Y8454491D01*
X1227074Y8449614D01*
X1240332Y8446414D01*
G37*
G36*
X7095896Y8445093D02*
G01*
X7109510Y8445550D01*
X7122972Y8447786D01*
X7135977Y8451850D01*
X7148372Y8457590D01*
X7159853Y8464905D01*
X7170267Y8473694D01*
X7179411Y8483854D01*
X7187133Y8495080D01*
X7193280Y8507222D01*
X7197750Y8520125D01*
X7200493Y8533485D01*
X7201408Y8547100D01*
X7200493Y8560714D01*
X7197750Y8574074D01*
X7193280Y8586978D01*
X7187133Y8599119D01*
X7179411Y8610346D01*
X7170267Y8620506D01*
X7159853Y8629294D01*
X7148372Y8636609D01*
X7135977Y8642350D01*
X7122972Y8646414D01*
X7109510Y8648649D01*
X7095896Y8649106D01*
X7082332Y8647785D01*
X7069074Y8644585D01*
X7056323Y8639708D01*
X7044385Y8633155D01*
X7033412Y8625078D01*
X7023608Y8615578D01*
X7015124Y8604859D01*
X7008164Y8593124D01*
X7002881Y8580577D01*
X6999274Y8567420D01*
X6997446Y8553907D01*
X6997446Y8540292D01*
X6999274Y8526780D01*
X7002881Y8513622D01*
X7008164Y8501075D01*
X7015124Y8489340D01*
X7023608Y8478621D01*
X7033412Y8469122D01*
X7044385Y8461044D01*
X7056323Y8454491D01*
X7069074Y8449614D01*
X7082332Y8446414D01*
G37*
G36*
X7349896Y8445093D02*
G01*
X7363510Y8445550D01*
X7376972Y8447786D01*
X7389977Y8451850D01*
X7402372Y8457590D01*
X7413853Y8464905D01*
X7424267Y8473694D01*
X7433411Y8483854D01*
X7441133Y8495080D01*
X7447280Y8507222D01*
X7451750Y8520125D01*
X7454493Y8533485D01*
X7455408Y8547100D01*
X7454493Y8560714D01*
X7451750Y8574074D01*
X7447280Y8586978D01*
X7441133Y8599119D01*
X7433411Y8610346D01*
X7424267Y8620506D01*
X7413853Y8629294D01*
X7402372Y8636609D01*
X7389977Y8642350D01*
X7376972Y8646414D01*
X7363510Y8648649D01*
X7349896Y8649106D01*
X7336332Y8647785D01*
X7323074Y8644585D01*
X7310323Y8639708D01*
X7298385Y8633155D01*
X7287412Y8625078D01*
X7277608Y8615578D01*
X7269124Y8604859D01*
X7262164Y8593124D01*
X7256881Y8580577D01*
X7253274Y8567420D01*
X7251446Y8553907D01*
X7251446Y8540292D01*
X7253274Y8526780D01*
X7256881Y8513622D01*
X7262164Y8501075D01*
X7269124Y8489340D01*
X7277608Y8478621D01*
X7287412Y8469122D01*
X7298385Y8461044D01*
X7310323Y8454491D01*
X7323074Y8449614D01*
X7336332Y8446414D01*
G37*
G36*
X5143500Y8496503D02*
G01*
X5143500Y8539175D01*
X5100828Y8539175D01*
X5106416Y8528964D01*
X5114036Y8518753D01*
X5123078Y8509762D01*
X5133289Y8502091D01*
G37*
G36*
X4254500Y8496503D02*
G01*
X4264710Y8502091D01*
X4274921Y8509762D01*
X4283964Y8518753D01*
X4291584Y8528964D01*
X4297172Y8539175D01*
X4254500Y8539175D01*
G37*
G36*
X5219700Y8496503D02*
G01*
X5229910Y8502091D01*
X5240121Y8509762D01*
X5249164Y8518753D01*
X5256784Y8528964D01*
X5262372Y8539175D01*
X5219700Y8539175D01*
G37*
G36*
X4178300Y8496503D02*
G01*
X4178300Y8539175D01*
X4135628Y8539175D01*
X4141215Y8528964D01*
X4148836Y8518753D01*
X4157878Y8509762D01*
X4168089Y8502091D01*
G37*
G36*
X6146800Y8496503D02*
G01*
X6146800Y8539175D01*
X6104128Y8539175D01*
X6109716Y8528964D01*
X6117336Y8518753D01*
X6126378Y8509762D01*
X6136589Y8502091D01*
G37*
G36*
X2590800Y8496503D02*
G01*
X2601010Y8502091D01*
X2611221Y8509762D01*
X2620264Y8518753D01*
X2627884Y8528964D01*
X2633472Y8539175D01*
X2590800Y8539175D01*
G37*
G36*
X6223000Y8496503D02*
G01*
X6233210Y8502091D01*
X6243421Y8509762D01*
X6252464Y8518753D01*
X6260084Y8528964D01*
X6265672Y8539175D01*
X6223000Y8539175D01*
G37*
G36*
X2514600Y8496503D02*
G01*
X2514600Y8539175D01*
X2471928Y8539175D01*
X2477516Y8528964D01*
X2485136Y8518753D01*
X2494178Y8509762D01*
X2504389Y8502091D01*
G37*
G36*
X4254500Y8615375D02*
G01*
X4297172Y8615375D01*
X4291584Y8625636D01*
X4283964Y8635847D01*
X4274921Y8644839D01*
X4264710Y8652510D01*
X4254500Y8658098D01*
G37*
G36*
X5100828Y8615375D02*
G01*
X5143500Y8615375D01*
X5143500Y8658098D01*
X5133289Y8652510D01*
X5123078Y8644839D01*
X5114036Y8635847D01*
X5106416Y8625636D01*
G37*
G36*
X4135628Y8615375D02*
G01*
X4178300Y8615375D01*
X4178300Y8658098D01*
X4168089Y8652510D01*
X4157878Y8644839D01*
X4148836Y8635847D01*
X4141215Y8625636D01*
G37*
G36*
X5219700Y8615375D02*
G01*
X5262372Y8615375D01*
X5256784Y8625636D01*
X5249164Y8635847D01*
X5240121Y8644839D01*
X5229910Y8652510D01*
X5219700Y8658098D01*
G37*
G36*
X2590800Y8615375D02*
G01*
X2633472Y8615375D01*
X2627884Y8625636D01*
X2620264Y8635847D01*
X2611221Y8644839D01*
X2601010Y8652510D01*
X2590800Y8658098D01*
G37*
G36*
X6223000Y8615375D02*
G01*
X6265672Y8615375D01*
X6260084Y8625636D01*
X6252464Y8635847D01*
X6243421Y8644839D01*
X6233210Y8652510D01*
X6223000Y8658098D01*
G37*
G36*
X6104128Y8615375D02*
G01*
X6146800Y8615375D01*
X6146800Y8658098D01*
X6136589Y8652510D01*
X6126378Y8644839D01*
X6117336Y8635847D01*
X6109716Y8625636D01*
G37*
G36*
X2471928Y8615375D02*
G01*
X2514600Y8615375D01*
X2514600Y8658098D01*
X2504389Y8652510D01*
X2494178Y8644839D01*
X2485136Y8635847D01*
X2477516Y8625636D01*
G37*
G36*
X4216400Y8687917D02*
G01*
X4229100Y8688832D01*
X4241596Y8691524D01*
X4253534Y8695994D01*
X4264710Y8702090D01*
X4274921Y8709761D01*
X4283964Y8718753D01*
X4291584Y8728964D01*
X4297680Y8740190D01*
X4302150Y8752128D01*
X4304893Y8764574D01*
X4305757Y8777274D01*
X4304893Y8790025D01*
X4302150Y8802471D01*
X4297680Y8814409D01*
X4291584Y8825636D01*
X4283964Y8835847D01*
X4274921Y8844838D01*
X4264710Y8852509D01*
X4253534Y8858605D01*
X4241596Y8863076D01*
X4229100Y8865768D01*
X4216400Y8866682D01*
X4203700Y8865768D01*
X4191203Y8863076D01*
X4179265Y8858605D01*
X4168089Y8852509D01*
X4157878Y8844838D01*
X4148836Y8835847D01*
X4141215Y8825636D01*
X4135120Y8814409D01*
X4130649Y8802471D01*
X4127906Y8790025D01*
X4127042Y8777274D01*
X4127906Y8764574D01*
X4130649Y8752128D01*
X4135120Y8740190D01*
X4141215Y8728964D01*
X4148836Y8718753D01*
X4157878Y8709761D01*
X4168089Y8702090D01*
X4179265Y8695994D01*
X4191203Y8691524D01*
X4203700Y8688832D01*
G37*
G36*
X6184900Y8687917D02*
G01*
X6197600Y8688832D01*
X6210096Y8691524D01*
X6222034Y8695994D01*
X6233210Y8702090D01*
X6243421Y8709761D01*
X6252464Y8718753D01*
X6260084Y8728964D01*
X6266180Y8740190D01*
X6270650Y8752128D01*
X6273393Y8764574D01*
X6274257Y8777274D01*
X6273393Y8790025D01*
X6270650Y8802471D01*
X6266180Y8814409D01*
X6260084Y8825636D01*
X6252464Y8835847D01*
X6243421Y8844838D01*
X6233210Y8852509D01*
X6222034Y8858605D01*
X6210096Y8863076D01*
X6197600Y8865768D01*
X6184900Y8866682D01*
X6172200Y8865768D01*
X6159703Y8863076D01*
X6147765Y8858605D01*
X6136589Y8852509D01*
X6126378Y8844838D01*
X6117336Y8835847D01*
X6109716Y8825636D01*
X6103620Y8814409D01*
X6099149Y8802471D01*
X6096406Y8790025D01*
X6095542Y8777274D01*
X6096406Y8764574D01*
X6099149Y8752128D01*
X6103620Y8740190D01*
X6109716Y8728964D01*
X6117336Y8718753D01*
X6126378Y8709761D01*
X6136589Y8702090D01*
X6147765Y8695994D01*
X6159703Y8691524D01*
X6172200Y8688832D01*
G37*
G36*
X2552700Y8687917D02*
G01*
X2565400Y8688832D01*
X2577896Y8691524D01*
X2589834Y8695994D01*
X2601010Y8702090D01*
X2611221Y8709761D01*
X2620264Y8718753D01*
X2627884Y8728964D01*
X2633980Y8740190D01*
X2638450Y8752128D01*
X2641193Y8764574D01*
X2642057Y8777274D01*
X2641193Y8790025D01*
X2638450Y8802471D01*
X2633980Y8814409D01*
X2627884Y8825636D01*
X2620264Y8835847D01*
X2611221Y8844838D01*
X2601010Y8852509D01*
X2589834Y8858605D01*
X2577896Y8863076D01*
X2565400Y8865768D01*
X2552700Y8866682D01*
X2540000Y8865768D01*
X2527503Y8863076D01*
X2515565Y8858605D01*
X2504389Y8852509D01*
X2494178Y8844838D01*
X2485136Y8835847D01*
X2477516Y8825636D01*
X2471420Y8814409D01*
X2466949Y8802471D01*
X2464206Y8790025D01*
X2463342Y8777274D01*
X2464206Y8764574D01*
X2466949Y8752128D01*
X2471420Y8740190D01*
X2477516Y8728964D01*
X2485136Y8718753D01*
X2494178Y8709761D01*
X2504389Y8702090D01*
X2515565Y8695994D01*
X2527503Y8691524D01*
X2540000Y8688832D01*
G37*
G36*
X5181600Y8687917D02*
G01*
X5194300Y8688832D01*
X5206796Y8691524D01*
X5218734Y8695994D01*
X5229910Y8702090D01*
X5240121Y8709761D01*
X5249164Y8718753D01*
X5256784Y8728964D01*
X5262880Y8740190D01*
X5267350Y8752128D01*
X5270093Y8764574D01*
X5270957Y8777274D01*
X5270093Y8790025D01*
X5267350Y8802471D01*
X5262880Y8814409D01*
X5256784Y8825636D01*
X5249164Y8835847D01*
X5240121Y8844838D01*
X5229910Y8852509D01*
X5218734Y8858605D01*
X5206796Y8863076D01*
X5194300Y8865768D01*
X5181600Y8866682D01*
X5168900Y8865768D01*
X5156403Y8863076D01*
X5144465Y8858605D01*
X5133289Y8852509D01*
X5123078Y8844838D01*
X5114036Y8835847D01*
X5106416Y8825636D01*
X5100320Y8814409D01*
X5095849Y8802471D01*
X5093106Y8790025D01*
X5092242Y8777274D01*
X5093106Y8764574D01*
X5095849Y8752128D01*
X5100320Y8740190D01*
X5106416Y8728964D01*
X5114036Y8718753D01*
X5123078Y8709761D01*
X5133289Y8702090D01*
X5144465Y8695994D01*
X5156403Y8691524D01*
X5168900Y8688832D01*
G37*
G36*
X1253896Y8699093D02*
G01*
X1267510Y8699550D01*
X1280972Y8701786D01*
X1293977Y8705850D01*
X1306372Y8711590D01*
X1317853Y8718905D01*
X1328267Y8727694D01*
X1337411Y8737854D01*
X1345133Y8749080D01*
X1351280Y8761222D01*
X1355750Y8774125D01*
X1358493Y8787485D01*
X1359408Y8801100D01*
X1358493Y8814714D01*
X1355750Y8828074D01*
X1351280Y8840978D01*
X1345133Y8853119D01*
X1337411Y8864346D01*
X1328267Y8874506D01*
X1317853Y8883294D01*
X1306372Y8890609D01*
X1293977Y8896350D01*
X1280972Y8900414D01*
X1267510Y8902649D01*
X1253896Y8903106D01*
X1240332Y8901785D01*
X1227074Y8898585D01*
X1214323Y8893708D01*
X1202385Y8887155D01*
X1191412Y8879078D01*
X1181608Y8869578D01*
X1173124Y8858859D01*
X1166164Y8847124D01*
X1160881Y8834577D01*
X1157274Y8821420D01*
X1155446Y8807907D01*
X1155446Y8794292D01*
X1157274Y8780780D01*
X1160881Y8767622D01*
X1166164Y8755075D01*
X1173124Y8743340D01*
X1181608Y8732621D01*
X1191412Y8723122D01*
X1202385Y8715044D01*
X1214323Y8708491D01*
X1227074Y8703614D01*
X1240332Y8700414D01*
G37*
G36*
X999896Y8699093D02*
G01*
X1013510Y8699550D01*
X1026972Y8701786D01*
X1039977Y8705850D01*
X1052372Y8711590D01*
X1063853Y8718905D01*
X1074267Y8727694D01*
X1083411Y8737854D01*
X1091133Y8749080D01*
X1097280Y8761222D01*
X1101750Y8774125D01*
X1104493Y8787485D01*
X1105408Y8801100D01*
X1104493Y8814714D01*
X1101750Y8828074D01*
X1097280Y8840978D01*
X1091133Y8853119D01*
X1083411Y8864346D01*
X1074267Y8874506D01*
X1063853Y8883294D01*
X1052372Y8890609D01*
X1039977Y8896350D01*
X1026972Y8900414D01*
X1013510Y8902649D01*
X999896Y8903106D01*
X986332Y8901785D01*
X973074Y8898585D01*
X960323Y8893708D01*
X948385Y8887155D01*
X937412Y8879078D01*
X927608Y8869578D01*
X919124Y8858859D01*
X912164Y8847124D01*
X906881Y8834577D01*
X903274Y8821420D01*
X901446Y8807907D01*
X901446Y8794292D01*
X903274Y8780780D01*
X906881Y8767622D01*
X912164Y8755075D01*
X919124Y8743340D01*
X927608Y8732621D01*
X937412Y8723122D01*
X948385Y8715044D01*
X960323Y8708491D01*
X973074Y8703614D01*
X986332Y8700414D01*
G37*
G36*
X7349896Y8699093D02*
G01*
X7363510Y8699550D01*
X7376972Y8701786D01*
X7389977Y8705850D01*
X7402372Y8711590D01*
X7413853Y8718905D01*
X7424267Y8727694D01*
X7433411Y8737854D01*
X7441133Y8749080D01*
X7447280Y8761222D01*
X7451750Y8774125D01*
X7454493Y8787485D01*
X7455408Y8801100D01*
X7454493Y8814714D01*
X7451750Y8828074D01*
X7447280Y8840978D01*
X7441133Y8853119D01*
X7433411Y8864346D01*
X7424267Y8874506D01*
X7413853Y8883294D01*
X7402372Y8890609D01*
X7389977Y8896350D01*
X7376972Y8900414D01*
X7363510Y8902649D01*
X7349896Y8903106D01*
X7336332Y8901785D01*
X7323074Y8898585D01*
X7310323Y8893708D01*
X7298385Y8887155D01*
X7287412Y8879078D01*
X7277608Y8869578D01*
X7269124Y8858859D01*
X7262164Y8847124D01*
X7256881Y8834577D01*
X7253274Y8821420D01*
X7251446Y8807907D01*
X7251446Y8794292D01*
X7253274Y8780780D01*
X7256881Y8767622D01*
X7262164Y8755075D01*
X7269124Y8743340D01*
X7277608Y8732621D01*
X7287412Y8723122D01*
X7298385Y8715044D01*
X7310323Y8708491D01*
X7323074Y8703614D01*
X7336332Y8700414D01*
G37*
G36*
X7095896Y8699093D02*
G01*
X7109510Y8699550D01*
X7122972Y8701786D01*
X7135977Y8705850D01*
X7148372Y8711590D01*
X7159853Y8718905D01*
X7170267Y8727694D01*
X7179411Y8737854D01*
X7187133Y8749080D01*
X7193280Y8761222D01*
X7197750Y8774125D01*
X7200493Y8787485D01*
X7201408Y8801100D01*
X7200493Y8814714D01*
X7197750Y8828074D01*
X7193280Y8840978D01*
X7187133Y8853119D01*
X7179411Y8864346D01*
X7170267Y8874506D01*
X7159853Y8883294D01*
X7148372Y8890609D01*
X7135977Y8896350D01*
X7122972Y8900414D01*
X7109510Y8902649D01*
X7095896Y8903106D01*
X7082332Y8901785D01*
X7069074Y8898585D01*
X7056323Y8893708D01*
X7044385Y8887155D01*
X7033412Y8879078D01*
X7023608Y8869578D01*
X7015124Y8858859D01*
X7008164Y8847124D01*
X7002881Y8834577D01*
X6999274Y8821420D01*
X6997446Y8807907D01*
X6997446Y8794292D01*
X6999274Y8780780D01*
X7002881Y8767622D01*
X7008164Y8755075D01*
X7015124Y8743340D01*
X7023608Y8732621D01*
X7033412Y8723122D01*
X7044385Y8715044D01*
X7056323Y8708491D01*
X7069074Y8703614D01*
X7082332Y8700414D01*
G37*
G36*
X5595518Y8720480D02*
G01*
X5605119Y8721699D01*
X5614314Y8724544D01*
X5622950Y8728862D01*
X5630672Y8734602D01*
X5637377Y8741562D01*
X5642762Y8749588D01*
X5646724Y8758377D01*
X5649163Y8767673D01*
X5649976Y8777274D01*
X5649163Y8786926D01*
X5646724Y8796223D01*
X5642762Y8805011D01*
X5634736Y8816797D01*
X5634024Y8820607D01*
X5634024Y9476384D01*
X5634685Y9480042D01*
X5636666Y9483191D01*
X5651246Y9493402D01*
X5661406Y9502546D01*
X5670194Y9512960D01*
X5677509Y9524441D01*
X5683250Y9536836D01*
X5687314Y9549841D01*
X5689549Y9563303D01*
X5690006Y9576917D01*
X5688685Y9590481D01*
X5685485Y9603740D01*
X5680608Y9616490D01*
X5674055Y9628428D01*
X5665978Y9639401D01*
X5656478Y9649206D01*
X5645759Y9657689D01*
X5634024Y9664598D01*
X5621477Y9669932D01*
X5608320Y9673539D01*
X5594807Y9675368D01*
X5581192Y9675368D01*
X5567680Y9673539D01*
X5554522Y9669932D01*
X5541975Y9664598D01*
X5530240Y9657689D01*
X5519521Y9649206D01*
X5510022Y9639401D01*
X5501944Y9628428D01*
X5495391Y9616490D01*
X5490514Y9603740D01*
X5487314Y9590481D01*
X5485993Y9576917D01*
X5486450Y9563303D01*
X5488686Y9549841D01*
X5492750Y9536836D01*
X5498490Y9524441D01*
X5505805Y9512960D01*
X5514594Y9502546D01*
X5524754Y9493402D01*
X5535980Y9485680D01*
X5546648Y9480296D01*
X5549595Y9478010D01*
X5551525Y9474860D01*
X5552236Y9471202D01*
X5552236Y8820404D01*
X5551627Y8817051D01*
X5549950Y8814054D01*
X5545988Y8809126D01*
X5541314Y8800744D01*
X5538063Y8791651D01*
X5536438Y8782100D01*
X5536438Y8772499D01*
X5538063Y8762949D01*
X5541314Y8753856D01*
X5545988Y8745474D01*
X5552084Y8737955D01*
X5559298Y8731554D01*
X5567527Y8726525D01*
X5576468Y8722918D01*
X5585917Y8720886D01*
G37*
G36*
X4216400Y8887917D02*
G01*
X4229100Y8888831D01*
X4241596Y8891524D01*
X4253534Y8895994D01*
X4264710Y8902090D01*
X4274921Y8909761D01*
X4283964Y8918752D01*
X4291584Y8928963D01*
X4297680Y8940190D01*
X4302150Y8952128D01*
X4304893Y8964574D01*
X4305757Y8977274D01*
X4304893Y8990025D01*
X4302150Y9002471D01*
X4297680Y9014409D01*
X4291584Y9025636D01*
X4283964Y9035846D01*
X4274921Y9044838D01*
X4264710Y9052509D01*
X4253534Y9058605D01*
X4241596Y9063075D01*
X4229100Y9065768D01*
X4216400Y9066682D01*
X4203700Y9065768D01*
X4191203Y9063075D01*
X4179265Y9058605D01*
X4168089Y9052509D01*
X4157878Y9044838D01*
X4148836Y9035846D01*
X4141215Y9025636D01*
X4135120Y9014409D01*
X4130649Y9002471D01*
X4127906Y8990025D01*
X4127042Y8977274D01*
X4127906Y8964574D01*
X4130649Y8952128D01*
X4135120Y8940190D01*
X4141215Y8928963D01*
X4148836Y8918752D01*
X4157878Y8909761D01*
X4168089Y8902090D01*
X4179265Y8895994D01*
X4191203Y8891524D01*
X4203700Y8888831D01*
G37*
G36*
X6184900Y8887917D02*
G01*
X6197600Y8888831D01*
X6210096Y8891524D01*
X6222034Y8895994D01*
X6233210Y8902090D01*
X6243421Y8909761D01*
X6252464Y8918752D01*
X6260084Y8928963D01*
X6266180Y8940190D01*
X6270650Y8952128D01*
X6273393Y8964574D01*
X6274257Y8977274D01*
X6273393Y8990025D01*
X6270650Y9002471D01*
X6266180Y9014409D01*
X6260084Y9025636D01*
X6252464Y9035846D01*
X6243421Y9044838D01*
X6233210Y9052509D01*
X6222034Y9058605D01*
X6210096Y9063075D01*
X6197600Y9065768D01*
X6184900Y9066682D01*
X6172200Y9065768D01*
X6159703Y9063075D01*
X6147765Y9058605D01*
X6136589Y9052509D01*
X6126378Y9044838D01*
X6117336Y9035846D01*
X6109716Y9025636D01*
X6103620Y9014409D01*
X6099149Y9002471D01*
X6096406Y8990025D01*
X6095542Y8977274D01*
X6096406Y8964574D01*
X6099149Y8952128D01*
X6103620Y8940190D01*
X6109716Y8928963D01*
X6117336Y8918752D01*
X6126378Y8909761D01*
X6136589Y8902090D01*
X6147765Y8895994D01*
X6159703Y8891524D01*
X6172200Y8888831D01*
G37*
G36*
X5181600Y8887917D02*
G01*
X5194300Y8888831D01*
X5206796Y8891524D01*
X5218734Y8895994D01*
X5229910Y8902090D01*
X5240121Y8909761D01*
X5249164Y8918752D01*
X5256784Y8928963D01*
X5262880Y8940190D01*
X5267350Y8952128D01*
X5270093Y8964574D01*
X5270957Y8977274D01*
X5270093Y8990025D01*
X5267350Y9002471D01*
X5262880Y9014409D01*
X5256784Y9025636D01*
X5249164Y9035846D01*
X5240121Y9044838D01*
X5229910Y9052509D01*
X5218734Y9058605D01*
X5206796Y9063075D01*
X5194300Y9065768D01*
X5181600Y9066682D01*
X5168900Y9065768D01*
X5156403Y9063075D01*
X5144465Y9058605D01*
X5133289Y9052509D01*
X5123078Y9044838D01*
X5114036Y9035846D01*
X5106416Y9025636D01*
X5100320Y9014409D01*
X5095849Y9002471D01*
X5093106Y8990025D01*
X5092242Y8977274D01*
X5093106Y8964574D01*
X5095849Y8952128D01*
X5100320Y8940190D01*
X5106416Y8928963D01*
X5114036Y8918752D01*
X5123078Y8909761D01*
X5133289Y8902090D01*
X5144465Y8895994D01*
X5156403Y8891524D01*
X5168900Y8888831D01*
G37*
G36*
X2552700Y8887917D02*
G01*
X2565400Y8888831D01*
X2577896Y8891524D01*
X2589834Y8895994D01*
X2601010Y8902090D01*
X2611221Y8909761D01*
X2620264Y8918752D01*
X2627884Y8928963D01*
X2633980Y8940190D01*
X2638450Y8952128D01*
X2641193Y8964574D01*
X2642057Y8977274D01*
X2641193Y8990025D01*
X2638450Y9002471D01*
X2633980Y9014409D01*
X2627884Y9025636D01*
X2620264Y9035846D01*
X2611221Y9044838D01*
X2601010Y9052509D01*
X2589834Y9058605D01*
X2577896Y9063075D01*
X2565400Y9065768D01*
X2552700Y9066682D01*
X2540000Y9065768D01*
X2527503Y9063075D01*
X2515565Y9058605D01*
X2504389Y9052509D01*
X2494178Y9044838D01*
X2485136Y9035846D01*
X2477516Y9025636D01*
X2471420Y9014409D01*
X2466949Y9002471D01*
X2464206Y8990025D01*
X2463342Y8977274D01*
X2464206Y8964574D01*
X2466949Y8952128D01*
X2471420Y8940190D01*
X2477516Y8928963D01*
X2485136Y8918752D01*
X2494178Y8909761D01*
X2504389Y8902090D01*
X2515565Y8895994D01*
X2527503Y8891524D01*
X2540000Y8888831D01*
G37*
G36*
X2987598Y8921699D02*
G01*
X2997200Y8922918D01*
X3006394Y8925712D01*
X3015030Y8930081D01*
X3023412Y8936278D01*
X3025800Y8937599D01*
X3030118Y8938361D01*
X3037789Y8940698D01*
X3044850Y8944508D01*
X3051454Y8949893D01*
X3140049Y9038539D01*
X3145485Y9045092D01*
X3149244Y9052153D01*
X3151581Y9059824D01*
X3152394Y9068308D01*
X3152394Y9262567D01*
X3153156Y9266428D01*
X3155391Y9269730D01*
X3508349Y9622739D01*
X3513785Y9629292D01*
X3517544Y9636353D01*
X3519881Y9644024D01*
X3520694Y9652508D01*
X3520694Y10659567D01*
X3521456Y10663428D01*
X3523691Y10666730D01*
X3595370Y10738408D01*
X3598672Y10740593D01*
X3602532Y10741406D01*
X3987292Y10741406D01*
X3995775Y10742218D01*
X4003446Y10744555D01*
X4010507Y10748314D01*
X4017060Y10753750D01*
X4292041Y11028730D01*
X4297476Y11035284D01*
X4301236Y11042345D01*
X4303572Y11050016D01*
X4304385Y11058499D01*
X4304385Y11119154D01*
X4304995Y11122507D01*
X4306620Y11125504D01*
X4309160Y11127740D01*
X4314596Y11131194D01*
X4316323Y11132870D01*
X4319574Y11135106D01*
X4323486Y11135868D01*
X4327398Y11135106D01*
X4330649Y11132870D01*
X4332376Y11131194D01*
X4337253Y11128095D01*
X4342739Y11126216D01*
X4349038Y11125504D01*
X4417923Y11125504D01*
X4424222Y11126216D01*
X4429709Y11128095D01*
X4434586Y11131194D01*
X4436313Y11132921D01*
X4439615Y11135106D01*
X4443476Y11135868D01*
X4447387Y11135106D01*
X4450689Y11132921D01*
X4452366Y11131194D01*
X4457852Y11127740D01*
X4460392Y11125504D01*
X4462018Y11122507D01*
X4462576Y11119154D01*
X4462576Y10403027D01*
X4461764Y10399064D01*
X4459478Y10395712D01*
X4456074Y10393527D01*
X4452823Y10392308D01*
X4440885Y10385755D01*
X4429912Y10377678D01*
X4420108Y10368178D01*
X4411624Y10357459D01*
X4404664Y10345724D01*
X4399381Y10333177D01*
X4395774Y10320020D01*
X4393946Y10306507D01*
X4393946Y10292892D01*
X4395774Y10279380D01*
X4399381Y10266222D01*
X4404664Y10253675D01*
X4411624Y10241940D01*
X4420108Y10231221D01*
X4429912Y10221722D01*
X4440885Y10213644D01*
X4452823Y10207091D01*
X4465574Y10202214D01*
X4478832Y10199014D01*
X4492396Y10197693D01*
X4506010Y10198150D01*
X4519472Y10200386D01*
X4532477Y10204450D01*
X4544872Y10210190D01*
X4556353Y10217505D01*
X4566767Y10226294D01*
X4575911Y10236454D01*
X4583633Y10247680D01*
X4586376Y10253065D01*
X4588611Y10256062D01*
X4591812Y10257993D01*
X4595469Y10258653D01*
X6212078Y10256621D01*
X6215634Y10256012D01*
X6218732Y10254132D01*
X6220968Y10251338D01*
X6225844Y10242448D01*
X6233922Y10231475D01*
X6243421Y10221671D01*
X6254140Y10213238D01*
X6265875Y10206278D01*
X6278422Y10200944D01*
X6291580Y10197338D01*
X6305092Y10195560D01*
X6318707Y10195560D01*
X6332220Y10197338D01*
X6345377Y10200944D01*
X6357924Y10206278D01*
X6369659Y10213238D01*
X6380378Y10221671D01*
X6389878Y10231475D01*
X6397955Y10242448D01*
X6404508Y10254437D01*
X6409385Y10267137D01*
X6412585Y10280396D01*
X6413906Y10294010D01*
X6413449Y10307624D01*
X6411214Y10321086D01*
X6407150Y10334091D01*
X6401409Y10346436D01*
X6394094Y10357967D01*
X6385306Y10368381D01*
X6375146Y10377525D01*
X6363919Y10385247D01*
X6351778Y10391394D01*
X6338874Y10395864D01*
X6325514Y10398556D01*
X6311900Y10399471D01*
X6298285Y10398556D01*
X6284925Y10395864D01*
X6272022Y10391394D01*
X6259880Y10385247D01*
X6248654Y10377525D01*
X6238494Y10368381D01*
X6229705Y10357967D01*
X6222390Y10346436D01*
X6221374Y10344353D01*
X6219139Y10341203D01*
X6215938Y10339171D01*
X6212179Y10338460D01*
X4595571Y10340492D01*
X4591913Y10341152D01*
X4588764Y10343134D01*
X4586478Y10346080D01*
X4583633Y10351719D01*
X4575911Y10362946D01*
X4566767Y10373106D01*
X4556353Y10381894D01*
X4549089Y10386517D01*
X4546600Y10388803D01*
X4544974Y10391749D01*
X4544415Y10395102D01*
X4544415Y11119154D01*
X4544974Y11122507D01*
X4546600Y11125504D01*
X4549140Y11127740D01*
X4554626Y11131194D01*
X4556302Y11132870D01*
X4559604Y11135106D01*
X4563516Y11135868D01*
X4567377Y11135106D01*
X4570679Y11132870D01*
X4572355Y11131194D01*
X4577283Y11128095D01*
X4582718Y11126216D01*
X4589068Y11125504D01*
X4657902Y11125504D01*
X4664252Y11126216D01*
X4669688Y11128095D01*
X4674616Y11131194D01*
X4678680Y11135258D01*
X4681778Y11140186D01*
X4683658Y11145621D01*
X4684420Y11151971D01*
X4684420Y11295329D01*
X4685182Y11299240D01*
X4687366Y11302492D01*
X4690668Y11304727D01*
X4694580Y11305489D01*
X4822952Y11305489D01*
X4829251Y11306200D01*
X4834737Y11308130D01*
X4839614Y11311178D01*
X4843729Y11315293D01*
X4847183Y11320830D01*
X4849469Y11323370D01*
X4852466Y11324996D01*
X4855819Y11325606D01*
X5481218Y11325606D01*
X5484876Y11324894D01*
X5488076Y11322913D01*
X5490311Y11319916D01*
X5494070Y11312296D01*
X5501995Y11300510D01*
X5511342Y11289842D01*
X5522010Y11280495D01*
X5533796Y11272570D01*
X5546496Y11266322D01*
X5559958Y11261750D01*
X5573826Y11259007D01*
X5588000Y11258042D01*
X5602173Y11259007D01*
X5616041Y11261750D01*
X5629503Y11266322D01*
X5642203Y11272570D01*
X5653989Y11280495D01*
X5664657Y11289842D01*
X5674004Y11300510D01*
X5681929Y11312296D01*
X5688177Y11324996D01*
X5692749Y11338458D01*
X5695492Y11352326D01*
X5696458Y11366500D01*
X5695492Y11380673D01*
X5692749Y11394541D01*
X5688177Y11408003D01*
X5681929Y11420703D01*
X5674004Y11432489D01*
X5664657Y11443157D01*
X5653989Y11452504D01*
X5642203Y11460429D01*
X5629503Y11466677D01*
X5616041Y11471249D01*
X5602173Y11473992D01*
X5588000Y11474958D01*
X5573826Y11473992D01*
X5559958Y11471249D01*
X5546496Y11466677D01*
X5533796Y11460429D01*
X5522010Y11452504D01*
X5511342Y11443157D01*
X5501995Y11432489D01*
X5494070Y11420703D01*
X5490311Y11413083D01*
X5488076Y11410086D01*
X5484876Y11408105D01*
X5481218Y11407394D01*
X4855667Y11407394D01*
X4852314Y11407952D01*
X4849317Y11409629D01*
X4847082Y11412169D01*
X4843729Y11417503D01*
X4842002Y11419230D01*
X4839817Y11422532D01*
X4839004Y11426393D01*
X4839817Y11430304D01*
X4842002Y11433606D01*
X4843729Y11435283D01*
X4846777Y11440210D01*
X4848707Y11445646D01*
X4849418Y11451996D01*
X4849418Y11462562D01*
X4792370Y11462562D01*
X4792370Y11437467D01*
X4791557Y11433556D01*
X4789373Y11430304D01*
X4786071Y11428069D01*
X4782210Y11427307D01*
X4714798Y11427307D01*
X4710938Y11428069D01*
X4707636Y11430304D01*
X4705451Y11433556D01*
X4704638Y11437467D01*
X4704638Y11462562D01*
X4647590Y11462562D01*
X4647590Y11451996D01*
X4648301Y11445646D01*
X4650232Y11440210D01*
X4653280Y11435283D01*
X4655007Y11433606D01*
X4657191Y11430304D01*
X4658004Y11426393D01*
X4657191Y11422532D01*
X4655007Y11419230D01*
X4653280Y11417503D01*
X4650232Y11412626D01*
X4648301Y11407140D01*
X4647590Y11400840D01*
X4647590Y11337442D01*
X4646828Y11333581D01*
X4644644Y11330279D01*
X4641342Y11328095D01*
X4637430Y11327282D01*
X4589068Y11327282D01*
X4582718Y11326571D01*
X4577283Y11324691D01*
X4572355Y11321592D01*
X4570679Y11319916D01*
X4567377Y11317681D01*
X4563516Y11316919D01*
X4559604Y11317681D01*
X4556302Y11319916D01*
X4554626Y11321592D01*
X4549698Y11324691D01*
X4544263Y11326571D01*
X4537913Y11327282D01*
X4469079Y11327282D01*
X4462729Y11326571D01*
X4457293Y11324691D01*
X4452366Y11321592D01*
X4450689Y11319865D01*
X4447387Y11317681D01*
X4443476Y11316919D01*
X4439615Y11317681D01*
X4436313Y11319865D01*
X4434586Y11321592D01*
X4429709Y11324691D01*
X4424222Y11326571D01*
X4417923Y11327282D01*
X4349038Y11327282D01*
X4342739Y11326571D01*
X4337253Y11324691D01*
X4332376Y11321592D01*
X4330649Y11319916D01*
X4327398Y11317681D01*
X4323486Y11316919D01*
X4319574Y11317681D01*
X4316323Y11319916D01*
X4314596Y11321592D01*
X4309719Y11324691D01*
X4304233Y11326571D01*
X4297934Y11327282D01*
X4229049Y11327282D01*
X4222750Y11326571D01*
X4217263Y11324691D01*
X4212386Y11321592D01*
X4210659Y11319916D01*
X4207408Y11317681D01*
X4203496Y11316919D01*
X4199585Y11317681D01*
X4196334Y11319916D01*
X4194606Y11321592D01*
X4189729Y11324691D01*
X4184243Y11326571D01*
X4177944Y11327282D01*
X4109059Y11327282D01*
X4102760Y11326571D01*
X4097274Y11324691D01*
X4092397Y11321592D01*
X4090670Y11319865D01*
X4087368Y11317681D01*
X4083507Y11316919D01*
X4079595Y11317681D01*
X4076293Y11319865D01*
X4074617Y11321592D01*
X4069689Y11324691D01*
X4064254Y11326571D01*
X4057904Y11327282D01*
X4009542Y11327282D01*
X4005681Y11328095D01*
X4002379Y11330279D01*
X4000195Y11333581D01*
X3999382Y11337442D01*
X3999382Y11400840D01*
X3998671Y11407140D01*
X3996791Y11412626D01*
X3993692Y11417503D01*
X3991965Y11419230D01*
X3989781Y11422532D01*
X3989019Y11426393D01*
X3989781Y11430304D01*
X3991965Y11433606D01*
X3993692Y11435283D01*
X3996791Y11440210D01*
X3998671Y11445646D01*
X3999382Y11451996D01*
X3999382Y11520830D01*
X3998671Y11527180D01*
X3996791Y11532616D01*
X3993692Y11537543D01*
X3992016Y11539220D01*
X3989781Y11542522D01*
X3989019Y11546382D01*
X3989781Y11550294D01*
X3992016Y11553596D01*
X3993692Y11555272D01*
X3996791Y11560200D01*
X3998671Y11565636D01*
X3999382Y11571986D01*
X3999382Y11640820D01*
X3998671Y11647170D01*
X3996791Y11652605D01*
X3993692Y11657533D01*
X3991965Y11659209D01*
X3989781Y11662511D01*
X3989019Y11666423D01*
X3989781Y11670284D01*
X3991965Y11673586D01*
X3993692Y11675313D01*
X3996791Y11680190D01*
X3998671Y11685676D01*
X3999382Y11691975D01*
X3999382Y11702542D01*
X3942334Y11702542D01*
X3942334Y11677446D01*
X3941572Y11673586D01*
X3939387Y11670284D01*
X3936085Y11668099D01*
X3932174Y11667286D01*
X3864813Y11667286D01*
X3860901Y11668099D01*
X3857599Y11670284D01*
X3855415Y11673586D01*
X3854653Y11677446D01*
X3854653Y11702542D01*
X3797604Y11702542D01*
X3797604Y11691975D01*
X3798315Y11685676D01*
X3800195Y11680190D01*
X3803294Y11675313D01*
X3805021Y11673586D01*
X3807206Y11670284D01*
X3807968Y11666423D01*
X3807206Y11662511D01*
X3805021Y11659209D01*
X3803294Y11657533D01*
X3800195Y11652605D01*
X3798315Y11647170D01*
X3797604Y11640820D01*
X3797604Y11571986D01*
X3798315Y11565636D01*
X3800195Y11560200D01*
X3803294Y11555272D01*
X3804970Y11553596D01*
X3807206Y11550294D01*
X3807968Y11546382D01*
X3807206Y11542522D01*
X3804970Y11539220D01*
X3803294Y11537543D01*
X3800195Y11532616D01*
X3798315Y11527180D01*
X3797604Y11520830D01*
X3797604Y11451996D01*
X3798315Y11445646D01*
X3800195Y11440210D01*
X3803294Y11435283D01*
X3805021Y11433606D01*
X3807206Y11430304D01*
X3807968Y11426393D01*
X3807206Y11422532D01*
X3805021Y11419230D01*
X3803294Y11417503D01*
X3800195Y11412626D01*
X3798315Y11407140D01*
X3797604Y11400840D01*
X3797604Y11331956D01*
X3798315Y11325656D01*
X3800195Y11320170D01*
X3803294Y11315293D01*
X3807358Y11311178D01*
X3812286Y11308130D01*
X3817721Y11306200D01*
X3824071Y11305489D01*
X3952443Y11305489D01*
X3956304Y11304727D01*
X3959606Y11302492D01*
X3961790Y11299240D01*
X3962552Y11295329D01*
X3962552Y11151971D01*
X3963314Y11145621D01*
X3965194Y11140186D01*
X3968292Y11135258D01*
X3972356Y11131194D01*
X3977284Y11128095D01*
X3982720Y11126216D01*
X3989070Y11125504D01*
X4057904Y11125504D01*
X4064254Y11126216D01*
X4069689Y11128095D01*
X4074617Y11131194D01*
X4076293Y11132921D01*
X4079595Y11135106D01*
X4083507Y11135868D01*
X4087368Y11135106D01*
X4090670Y11132921D01*
X4092397Y11131194D01*
X4094530Y11129822D01*
X4097070Y11127587D01*
X4098747Y11124590D01*
X4099306Y11121237D01*
X4099306Y11095532D01*
X4098544Y11091672D01*
X4096308Y11088370D01*
X3986529Y10978591D01*
X3983228Y10976356D01*
X3979367Y10975594D01*
X3569208Y10975594D01*
X3560724Y10974781D01*
X3553053Y10972444D01*
X3545992Y10968685D01*
X3539439Y10963249D01*
X3286150Y10709960D01*
X3280714Y10703407D01*
X3276955Y10696346D01*
X3274618Y10688675D01*
X3273806Y10680192D01*
X3273806Y9673132D01*
X3273044Y9669272D01*
X3270808Y9665970D01*
X2955950Y9351060D01*
X2950514Y9344507D01*
X2946755Y9337446D01*
X2944418Y9329775D01*
X2943606Y9321292D01*
X2943606Y9225229D01*
X2942996Y9221825D01*
X2941320Y9218828D01*
X2937357Y9213951D01*
X2932684Y9205518D01*
X2929483Y9196425D01*
X2927858Y9186926D01*
X2927858Y9177274D01*
X2929483Y9167774D01*
X2932684Y9158681D01*
X2937357Y9150248D01*
X2943453Y9142730D01*
X2950667Y9136380D01*
X2958896Y9131300D01*
X2967837Y9127744D01*
X2977286Y9125712D01*
X2986938Y9125254D01*
X2996488Y9126524D01*
X3005683Y9129318D01*
X3014319Y9133687D01*
X3022092Y9139428D01*
X3028746Y9146387D01*
X3034131Y9154363D01*
X3038144Y9163151D01*
X3040532Y9172498D01*
X3041396Y9182100D01*
X3040532Y9191701D01*
X3038144Y9201048D01*
X3034131Y9209836D01*
X3026156Y9221622D01*
X3025394Y9225381D01*
X3025394Y9300667D01*
X3026156Y9304528D01*
X3028391Y9307830D01*
X3343249Y9622739D01*
X3348685Y9629292D01*
X3352444Y9636353D01*
X3354781Y9644024D01*
X3355594Y9652508D01*
X3355594Y10659567D01*
X3356356Y10663428D01*
X3358591Y10666730D01*
X3582670Y10890808D01*
X3585972Y10892993D01*
X3589832Y10893806D01*
X3999992Y10893806D01*
X4008475Y10894618D01*
X4020820Y10898530D01*
X4024884Y10898022D01*
X4028440Y10895939D01*
X4030878Y10892688D01*
X4031843Y10888675D01*
X4031081Y10884611D01*
X4028846Y10881207D01*
X3973829Y10826191D01*
X3970528Y10823956D01*
X3966667Y10823194D01*
X3581908Y10823194D01*
X3573424Y10822381D01*
X3565753Y10820044D01*
X3558692Y10816285D01*
X3552139Y10810849D01*
X3451250Y10709960D01*
X3445814Y10703407D01*
X3442055Y10696346D01*
X3439718Y10688675D01*
X3438906Y10680192D01*
X3438906Y9673132D01*
X3438144Y9669272D01*
X3435908Y9665970D01*
X3082950Y9312960D01*
X3077514Y9306407D01*
X3073755Y9299346D01*
X3071418Y9291675D01*
X3070606Y9283192D01*
X3070606Y9088932D01*
X3069844Y9085072D01*
X3067608Y9081770D01*
X3018739Y9032900D01*
X3015183Y9030563D01*
X3011017Y9029903D01*
X2997200Y9034119D01*
X2987598Y9035338D01*
X2977997Y9034932D01*
X2968548Y9032900D01*
X2959608Y9029293D01*
X2951378Y9024213D01*
X2944164Y9017863D01*
X2938068Y9010345D01*
X2933395Y9001912D01*
X2930144Y8992819D01*
X2928518Y8983319D01*
X2928518Y8973667D01*
X2930144Y8964168D01*
X2933395Y8955074D01*
X2938068Y8946642D01*
X2944164Y8939174D01*
X2951378Y8932773D01*
X2959608Y8927693D01*
X2968548Y8924137D01*
X2977997Y8922105D01*
G37*
G36*
X7349896Y8953093D02*
G01*
X7363510Y8953550D01*
X7376972Y8955786D01*
X7389977Y8959850D01*
X7402372Y8965590D01*
X7413853Y8972905D01*
X7424267Y8981694D01*
X7433411Y8991854D01*
X7441133Y9003080D01*
X7447280Y9015222D01*
X7451750Y9028125D01*
X7454493Y9041485D01*
X7455408Y9055100D01*
X7454493Y9068714D01*
X7451750Y9082074D01*
X7447280Y9094978D01*
X7441133Y9107119D01*
X7433411Y9118346D01*
X7424267Y9128506D01*
X7413853Y9137294D01*
X7402372Y9144609D01*
X7389977Y9150350D01*
X7376972Y9154414D01*
X7363510Y9156649D01*
X7349896Y9157106D01*
X7336332Y9155785D01*
X7323074Y9152585D01*
X7310323Y9147708D01*
X7298385Y9141155D01*
X7287412Y9133078D01*
X7277608Y9123578D01*
X7269124Y9112859D01*
X7262164Y9101124D01*
X7256881Y9088577D01*
X7253274Y9075420D01*
X7251446Y9061907D01*
X7251446Y9048292D01*
X7253274Y9034780D01*
X7256881Y9021622D01*
X7262164Y9009075D01*
X7269124Y8997340D01*
X7277608Y8986621D01*
X7287412Y8977122D01*
X7298385Y8969044D01*
X7310323Y8962491D01*
X7323074Y8957614D01*
X7336332Y8954414D01*
G37*
G36*
X7095896Y8953093D02*
G01*
X7109510Y8953550D01*
X7122972Y8955786D01*
X7135977Y8959850D01*
X7148372Y8965590D01*
X7159853Y8972905D01*
X7170267Y8981694D01*
X7179411Y8991854D01*
X7187133Y9003080D01*
X7193280Y9015222D01*
X7197750Y9028125D01*
X7200493Y9041485D01*
X7201408Y9055100D01*
X7200493Y9068714D01*
X7197750Y9082074D01*
X7193280Y9094978D01*
X7187133Y9107119D01*
X7179411Y9118346D01*
X7170267Y9128506D01*
X7159853Y9137294D01*
X7148372Y9144609D01*
X7135977Y9150350D01*
X7122972Y9154414D01*
X7109510Y9156649D01*
X7095896Y9157106D01*
X7082332Y9155785D01*
X7069074Y9152585D01*
X7056323Y9147708D01*
X7044385Y9141155D01*
X7033412Y9133078D01*
X7023608Y9123578D01*
X7015124Y9112859D01*
X7008114Y9100972D01*
X7005828Y9098330D01*
X7002780Y9096603D01*
X6999376Y9095994D01*
X6799732Y9095994D01*
X6796531Y9096502D01*
X6793687Y9097975D01*
X6786219Y9103512D01*
X6777583Y9107881D01*
X6768388Y9110675D01*
X6758838Y9111945D01*
X6749186Y9111488D01*
X6739737Y9109456D01*
X6730796Y9105900D01*
X6722567Y9100820D01*
X6715353Y9094470D01*
X6709257Y9086951D01*
X6704584Y9078518D01*
X6701383Y9069425D01*
X6699758Y9059926D01*
X6699758Y9050274D01*
X6701383Y9040774D01*
X6704584Y9031681D01*
X6709257Y9023248D01*
X6715353Y9015730D01*
X6722567Y9009380D01*
X6730796Y9004300D01*
X6739737Y9000744D01*
X6749186Y8998712D01*
X6758838Y8998254D01*
X6768388Y8999524D01*
X6777583Y9002318D01*
X6786219Y9006687D01*
X6793687Y9012224D01*
X6796531Y9013698D01*
X6799732Y9014206D01*
X6999376Y9014206D01*
X7002780Y9013596D01*
X7005828Y9011869D01*
X7008114Y9009227D01*
X7015124Y8997340D01*
X7023608Y8986621D01*
X7033412Y8977122D01*
X7044385Y8969044D01*
X7056323Y8962491D01*
X7069074Y8957614D01*
X7082332Y8954414D01*
G37*
G36*
X6121958Y9087866D02*
G01*
X6247841Y9087866D01*
X6254140Y9088628D01*
X6259626Y9090507D01*
X6264503Y9093606D01*
X6268618Y9097670D01*
X6271666Y9102598D01*
X6273596Y9108033D01*
X6274308Y9114383D01*
X6274308Y9240215D01*
X6273596Y9246565D01*
X6271666Y9252000D01*
X6268618Y9256928D01*
X6264503Y9260992D01*
X6259626Y9264091D01*
X6254140Y9265970D01*
X6247841Y9266682D01*
X6121958Y9266682D01*
X6115659Y9265970D01*
X6110173Y9264091D01*
X6105296Y9260992D01*
X6101181Y9256928D01*
X6098133Y9252000D01*
X6096203Y9246565D01*
X6095492Y9240215D01*
X6095492Y9114383D01*
X6096203Y9108033D01*
X6098133Y9102598D01*
X6101181Y9097670D01*
X6105296Y9093606D01*
X6110173Y9090507D01*
X6115659Y9088628D01*
G37*
G36*
X4153458Y9087866D02*
G01*
X4279341Y9087866D01*
X4285640Y9088628D01*
X4291126Y9090507D01*
X4296003Y9093606D01*
X4300118Y9097670D01*
X4303166Y9102598D01*
X4305096Y9108033D01*
X4305808Y9114383D01*
X4305808Y9240215D01*
X4305096Y9246565D01*
X4303166Y9252000D01*
X4300118Y9256928D01*
X4296003Y9260992D01*
X4291126Y9264091D01*
X4285640Y9265970D01*
X4279341Y9266682D01*
X4153458Y9266682D01*
X4147159Y9265970D01*
X4141673Y9264091D01*
X4136796Y9260992D01*
X4132681Y9256928D01*
X4129633Y9252000D01*
X4127703Y9246565D01*
X4126992Y9240215D01*
X4126992Y9114383D01*
X4127703Y9108033D01*
X4129633Y9102598D01*
X4132681Y9097670D01*
X4136796Y9093606D01*
X4141673Y9090507D01*
X4147159Y9088628D01*
G37*
G36*
X2489758Y9087866D02*
G01*
X2615641Y9087866D01*
X2621940Y9088628D01*
X2627426Y9090507D01*
X2632303Y9093606D01*
X2636418Y9097670D01*
X2639466Y9102598D01*
X2641396Y9108033D01*
X2642108Y9114383D01*
X2642108Y9240215D01*
X2641396Y9246565D01*
X2639466Y9252000D01*
X2636418Y9256928D01*
X2632303Y9260992D01*
X2627426Y9264091D01*
X2621940Y9265970D01*
X2615641Y9266682D01*
X2489758Y9266682D01*
X2483459Y9265970D01*
X2477973Y9264091D01*
X2473096Y9260992D01*
X2468981Y9256928D01*
X2465933Y9252000D01*
X2464003Y9246565D01*
X2463292Y9240215D01*
X2463292Y9114383D01*
X2464003Y9108033D01*
X2465933Y9102598D01*
X2468981Y9097670D01*
X2473096Y9093606D01*
X2477973Y9090507D01*
X2483459Y9088628D01*
G37*
G36*
X5118658Y9087866D02*
G01*
X5244541Y9087866D01*
X5250840Y9088628D01*
X5256326Y9090507D01*
X5261203Y9093606D01*
X5265318Y9097670D01*
X5268366Y9102598D01*
X5270296Y9108033D01*
X5271008Y9114383D01*
X5271008Y9240215D01*
X5270296Y9246565D01*
X5268366Y9252000D01*
X5265318Y9256928D01*
X5261203Y9260992D01*
X5256326Y9264091D01*
X5250840Y9265970D01*
X5244541Y9266682D01*
X5118658Y9266682D01*
X5112359Y9265970D01*
X5106873Y9264091D01*
X5101996Y9260992D01*
X5097881Y9256928D01*
X5094833Y9252000D01*
X5092903Y9246565D01*
X5092192Y9240215D01*
X5092192Y9114383D01*
X5092903Y9108033D01*
X5094833Y9102598D01*
X5097881Y9097670D01*
X5101996Y9093606D01*
X5106873Y9090507D01*
X5112359Y9088628D01*
G37*
G36*
X1253896Y9207093D02*
G01*
X1267510Y9207550D01*
X1280972Y9209786D01*
X1293977Y9213850D01*
X1306372Y9219590D01*
X1317853Y9226905D01*
X1328267Y9235694D01*
X1337411Y9245854D01*
X1345133Y9257080D01*
X1351280Y9269222D01*
X1355750Y9282125D01*
X1358493Y9295485D01*
X1359408Y9309100D01*
X1358493Y9322714D01*
X1355750Y9336074D01*
X1351280Y9348978D01*
X1345133Y9361119D01*
X1337411Y9372346D01*
X1328267Y9382506D01*
X1317853Y9391294D01*
X1306372Y9398609D01*
X1293977Y9404350D01*
X1280972Y9408414D01*
X1267510Y9410649D01*
X1253896Y9411106D01*
X1240332Y9409785D01*
X1227074Y9406585D01*
X1214323Y9401708D01*
X1202385Y9395155D01*
X1191412Y9387078D01*
X1181608Y9377578D01*
X1173124Y9366859D01*
X1166164Y9355124D01*
X1160881Y9342577D01*
X1157274Y9329420D01*
X1155446Y9315907D01*
X1155446Y9302292D01*
X1157274Y9288780D01*
X1160881Y9275622D01*
X1166164Y9263075D01*
X1173124Y9251340D01*
X1181608Y9240621D01*
X1191412Y9231122D01*
X1202385Y9223044D01*
X1214323Y9216491D01*
X1227074Y9211614D01*
X1240332Y9208414D01*
G37*
G36*
X7349896Y9207093D02*
G01*
X7363510Y9207550D01*
X7376972Y9209786D01*
X7389977Y9213850D01*
X7402372Y9219590D01*
X7413853Y9226905D01*
X7424267Y9235694D01*
X7433411Y9245854D01*
X7441133Y9257080D01*
X7447280Y9269222D01*
X7451750Y9282125D01*
X7454493Y9295485D01*
X7455408Y9309100D01*
X7454493Y9322714D01*
X7451750Y9336074D01*
X7447280Y9348978D01*
X7441133Y9361119D01*
X7433411Y9372346D01*
X7424267Y9382506D01*
X7413853Y9391294D01*
X7402372Y9398609D01*
X7389977Y9404350D01*
X7376972Y9408414D01*
X7363510Y9410649D01*
X7349896Y9411106D01*
X7336332Y9409785D01*
X7323074Y9406585D01*
X7310323Y9401708D01*
X7298385Y9395155D01*
X7287412Y9387078D01*
X7277608Y9377578D01*
X7269124Y9366859D01*
X7262164Y9355124D01*
X7256881Y9342577D01*
X7253274Y9329420D01*
X7251446Y9315907D01*
X7251446Y9302292D01*
X7253274Y9288780D01*
X7256881Y9275622D01*
X7262164Y9263075D01*
X7269124Y9251340D01*
X7277608Y9240621D01*
X7287412Y9231122D01*
X7298385Y9223044D01*
X7310323Y9216491D01*
X7323074Y9211614D01*
X7336332Y9208414D01*
G37*
G36*
X7095896Y9207093D02*
G01*
X7109510Y9207550D01*
X7122972Y9209786D01*
X7135977Y9213850D01*
X7148372Y9219590D01*
X7159853Y9226905D01*
X7170267Y9235694D01*
X7179411Y9245854D01*
X7187133Y9257080D01*
X7193280Y9269222D01*
X7197750Y9282125D01*
X7200493Y9295485D01*
X7201408Y9309100D01*
X7200493Y9322714D01*
X7197750Y9336074D01*
X7193280Y9348978D01*
X7187133Y9361119D01*
X7179411Y9372346D01*
X7170267Y9382506D01*
X7159853Y9391294D01*
X7148372Y9398609D01*
X7135977Y9404350D01*
X7122972Y9408414D01*
X7109510Y9410649D01*
X7095896Y9411106D01*
X7082332Y9409785D01*
X7069074Y9406585D01*
X7056323Y9401708D01*
X7044385Y9395155D01*
X7033412Y9387078D01*
X7023608Y9377578D01*
X7015124Y9366859D01*
X7008114Y9354972D01*
X7005828Y9352330D01*
X7002780Y9350603D01*
X6999376Y9349994D01*
X6799732Y9349994D01*
X6796531Y9350502D01*
X6793687Y9351975D01*
X6786219Y9357512D01*
X6777583Y9361881D01*
X6768388Y9364675D01*
X6758838Y9365945D01*
X6749186Y9365488D01*
X6739737Y9363456D01*
X6730796Y9359900D01*
X6722567Y9354820D01*
X6715353Y9348470D01*
X6709257Y9340951D01*
X6704584Y9332518D01*
X6701383Y9323425D01*
X6699758Y9313926D01*
X6699758Y9304274D01*
X6701383Y9294774D01*
X6704584Y9285681D01*
X6709257Y9277248D01*
X6715353Y9269730D01*
X6722567Y9263380D01*
X6730796Y9258300D01*
X6739737Y9254744D01*
X6749186Y9252712D01*
X6758838Y9252254D01*
X6768388Y9253524D01*
X6777583Y9256318D01*
X6786219Y9260687D01*
X6793687Y9266224D01*
X6796531Y9267698D01*
X6799732Y9268206D01*
X6999376Y9268206D01*
X7002780Y9267596D01*
X7005828Y9265869D01*
X7008114Y9263227D01*
X7015124Y9251340D01*
X7023608Y9240621D01*
X7033412Y9231122D01*
X7044385Y9223044D01*
X7056323Y9216491D01*
X7069074Y9211614D01*
X7082332Y9208414D01*
G37*
G36*
X7349896Y9461093D02*
G01*
X7363510Y9461550D01*
X7376972Y9463786D01*
X7389977Y9467850D01*
X7402372Y9473590D01*
X7413853Y9480905D01*
X7424267Y9489694D01*
X7433411Y9499854D01*
X7441133Y9511080D01*
X7447280Y9523222D01*
X7451750Y9536125D01*
X7454493Y9549485D01*
X7455408Y9563100D01*
X7454493Y9576714D01*
X7451750Y9590074D01*
X7447280Y9602978D01*
X7441133Y9615119D01*
X7433411Y9626346D01*
X7424267Y9636506D01*
X7413853Y9645294D01*
X7402372Y9652609D01*
X7389977Y9658350D01*
X7376972Y9662414D01*
X7363510Y9664649D01*
X7349896Y9665106D01*
X7336332Y9663785D01*
X7323074Y9660585D01*
X7310323Y9655708D01*
X7298385Y9649155D01*
X7287412Y9641078D01*
X7277608Y9631578D01*
X7269124Y9620859D01*
X7262164Y9609124D01*
X7256881Y9596577D01*
X7253274Y9583420D01*
X7251446Y9569907D01*
X7251446Y9556292D01*
X7253274Y9542780D01*
X7256881Y9529622D01*
X7262164Y9517075D01*
X7269124Y9505340D01*
X7277608Y9494621D01*
X7287412Y9485122D01*
X7298385Y9477044D01*
X7310323Y9470491D01*
X7323074Y9465614D01*
X7336332Y9462414D01*
G37*
G36*
X1253896Y9461093D02*
G01*
X1267510Y9461550D01*
X1280972Y9463786D01*
X1293977Y9467850D01*
X1306372Y9473590D01*
X1317853Y9480905D01*
X1328267Y9489694D01*
X1337411Y9499854D01*
X1345133Y9511080D01*
X1351280Y9523222D01*
X1355750Y9536125D01*
X1358493Y9549485D01*
X1359408Y9563100D01*
X1358493Y9576714D01*
X1355750Y9590074D01*
X1351280Y9602978D01*
X1345133Y9615119D01*
X1337411Y9626346D01*
X1328267Y9636506D01*
X1317853Y9645294D01*
X1306372Y9652609D01*
X1304086Y9653676D01*
X1300988Y9655911D01*
X1298905Y9659112D01*
X1298194Y9662871D01*
X1298194Y9811918D01*
X1298956Y9815677D01*
X1306931Y9827463D01*
X1310944Y9836251D01*
X1313332Y9845598D01*
X1314196Y9855200D01*
X1313332Y9864801D01*
X1310944Y9874148D01*
X1306931Y9882936D01*
X1301546Y9890912D01*
X1294892Y9897872D01*
X1287119Y9903612D01*
X1278483Y9907981D01*
X1269288Y9910775D01*
X1259738Y9912045D01*
X1250086Y9911588D01*
X1240637Y9909556D01*
X1231696Y9906000D01*
X1223467Y9900920D01*
X1216253Y9894570D01*
X1210157Y9887051D01*
X1205484Y9878618D01*
X1202283Y9869525D01*
X1200658Y9860026D01*
X1200658Y9850374D01*
X1202283Y9840874D01*
X1205484Y9831781D01*
X1210157Y9823348D01*
X1214120Y9818471D01*
X1215796Y9815474D01*
X1216406Y9812070D01*
X1216406Y9662871D01*
X1215745Y9659315D01*
X1213916Y9656216D01*
X1211122Y9653930D01*
X1202385Y9649155D01*
X1191412Y9641078D01*
X1181608Y9631578D01*
X1173124Y9620859D01*
X1166164Y9609124D01*
X1160881Y9596577D01*
X1157274Y9583420D01*
X1155446Y9569907D01*
X1155446Y9556292D01*
X1157274Y9542780D01*
X1160881Y9529622D01*
X1166164Y9517075D01*
X1173124Y9505340D01*
X1181608Y9494621D01*
X1191412Y9485122D01*
X1202385Y9477044D01*
X1214323Y9470491D01*
X1227074Y9465614D01*
X1240332Y9462414D01*
G37*
G36*
X999896Y9461093D02*
G01*
X1013510Y9461550D01*
X1026972Y9463786D01*
X1039977Y9467850D01*
X1052372Y9473590D01*
X1063853Y9480905D01*
X1074267Y9489694D01*
X1083411Y9499854D01*
X1091133Y9511080D01*
X1097280Y9523222D01*
X1101750Y9536125D01*
X1104493Y9549485D01*
X1105408Y9563100D01*
X1104493Y9576714D01*
X1101750Y9590074D01*
X1097280Y9602978D01*
X1091133Y9615119D01*
X1083411Y9626346D01*
X1074267Y9636506D01*
X1063853Y9645294D01*
X1052372Y9652609D01*
X1039977Y9658350D01*
X1034948Y9660890D01*
X1032408Y9664293D01*
X1031494Y9668459D01*
X1031494Y9816896D01*
X1032256Y9820706D01*
X1040231Y9832441D01*
X1044244Y9841230D01*
X1046632Y9850577D01*
X1047496Y9860178D01*
X1046632Y9869830D01*
X1044244Y9879126D01*
X1040231Y9887915D01*
X1034846Y9895941D01*
X1028192Y9902901D01*
X1020419Y9908641D01*
X1011783Y9912959D01*
X1002588Y9915804D01*
X993038Y9917023D01*
X983386Y9916617D01*
X973937Y9914585D01*
X964996Y9910978D01*
X956767Y9905949D01*
X949553Y9899548D01*
X943457Y9892030D01*
X938784Y9883648D01*
X935583Y9874554D01*
X933958Y9865004D01*
X933958Y9855403D01*
X935583Y9845852D01*
X938784Y9836759D01*
X943457Y9828377D01*
X947419Y9823450D01*
X949096Y9820452D01*
X949706Y9817049D01*
X949706Y9655251D01*
X949198Y9652152D01*
X947775Y9649307D01*
X945540Y9647072D01*
X937412Y9641078D01*
X927608Y9631578D01*
X919124Y9620859D01*
X912164Y9609124D01*
X906881Y9596577D01*
X903274Y9583420D01*
X901446Y9569907D01*
X901446Y9556292D01*
X903274Y9542780D01*
X906881Y9529622D01*
X912164Y9517075D01*
X919124Y9505340D01*
X927608Y9494621D01*
X937412Y9485122D01*
X948385Y9477044D01*
X960323Y9470491D01*
X973074Y9465614D01*
X986332Y9462414D01*
G37*
G36*
X3943350Y10207904D02*
G01*
X3943350Y10255250D01*
X3896004Y10255250D01*
X3896664Y10253675D01*
X3903624Y10241940D01*
X3912108Y10231221D01*
X3921912Y10221722D01*
X3932885Y10213644D01*
G37*
G36*
X4032250Y10208056D02*
G01*
X4036872Y10210190D01*
X4048353Y10217505D01*
X4058767Y10226294D01*
X4067911Y10236454D01*
X4075633Y10247680D01*
X4079443Y10255250D01*
X4032250Y10255250D01*
G37*
G36*
X4032250Y10344150D02*
G01*
X4079443Y10344150D01*
X4075633Y10351719D01*
X4067911Y10362946D01*
X4058767Y10373106D01*
X4048353Y10381894D01*
X4036872Y10389209D01*
X4032250Y10391343D01*
G37*
G36*
X3896004Y10344150D02*
G01*
X3943350Y10344150D01*
X3943350Y10391495D01*
X3932885Y10385755D01*
X3921912Y10377678D01*
X3912108Y10368178D01*
X3903624Y10357459D01*
X3896664Y10345724D01*
G37*
G36*
X1516938Y10355072D02*
G01*
X1708861Y10355072D01*
X1715160Y10355783D01*
X1720646Y10357713D01*
X1725523Y10360761D01*
X1729638Y10364876D01*
X1731314Y10367518D01*
X1734108Y10370464D01*
X1737868Y10372090D01*
X1741932Y10372090D01*
X1745691Y10370464D01*
X1748485Y10367518D01*
X1750161Y10364876D01*
X1754276Y10360761D01*
X1759153Y10357713D01*
X1764639Y10355783D01*
X1770938Y10355072D01*
X1962861Y10355072D01*
X1969160Y10355783D01*
X1974646Y10357713D01*
X1979523Y10360761D01*
X1983638Y10364876D01*
X1986686Y10369753D01*
X1988616Y10375239D01*
X1989328Y10381538D01*
X1989328Y10573461D01*
X1988616Y10579760D01*
X1986686Y10585246D01*
X1983638Y10590123D01*
X1979523Y10594238D01*
X1974646Y10597286D01*
X1969160Y10599216D01*
X1962861Y10599928D01*
X1770938Y10599928D01*
X1764639Y10599216D01*
X1759153Y10597286D01*
X1754276Y10594238D01*
X1750161Y10590123D01*
X1748485Y10587482D01*
X1745691Y10584535D01*
X1741932Y10582910D01*
X1737868Y10582910D01*
X1734108Y10584535D01*
X1731314Y10587482D01*
X1729638Y10590123D01*
X1725523Y10594238D01*
X1720646Y10597286D01*
X1715160Y10599216D01*
X1708861Y10599928D01*
X1516938Y10599928D01*
X1510639Y10599216D01*
X1505153Y10597286D01*
X1500276Y10594238D01*
X1496161Y10590123D01*
X1493113Y10585246D01*
X1491183Y10579760D01*
X1490472Y10573461D01*
X1490472Y10381538D01*
X1491183Y10375239D01*
X1493113Y10369753D01*
X1496161Y10364876D01*
X1500276Y10360761D01*
X1505153Y10357713D01*
X1510639Y10355783D01*
G37*
G36*
X3048000Y10591292D02*
G01*
X3061614Y10592206D01*
X3074974Y10594949D01*
X3087878Y10599420D01*
X3100019Y10605566D01*
X3111246Y10613288D01*
X3121406Y10622432D01*
X3130194Y10632846D01*
X3137509Y10644327D01*
X3143250Y10656722D01*
X3147314Y10669727D01*
X3149549Y10683189D01*
X3150006Y10696803D01*
X3148685Y10710367D01*
X3145485Y10723626D01*
X3140608Y10736376D01*
X3134055Y10748314D01*
X3125978Y10759287D01*
X3116478Y10769092D01*
X3105759Y10777575D01*
X3094024Y10784535D01*
X3081477Y10789818D01*
X3068320Y10793425D01*
X3054807Y10795254D01*
X3041192Y10795254D01*
X3027680Y10793425D01*
X3014522Y10789818D01*
X3001975Y10784535D01*
X2990240Y10777575D01*
X2979521Y10769092D01*
X2970022Y10759287D01*
X2961944Y10748314D01*
X2955391Y10736376D01*
X2950514Y10723626D01*
X2947314Y10710367D01*
X2945993Y10696803D01*
X2946450Y10683189D01*
X2948686Y10669727D01*
X2952750Y10656722D01*
X2958490Y10644327D01*
X2965805Y10632846D01*
X2974594Y10622432D01*
X2984754Y10613288D01*
X2995980Y10605566D01*
X3008122Y10599420D01*
X3021025Y10594949D01*
X3034385Y10592206D01*
G37*
G36*
X5588000Y10771428D02*
G01*
X5601614Y10772343D01*
X5614974Y10775035D01*
X5627878Y10779506D01*
X5640019Y10785652D01*
X5651246Y10793374D01*
X5661406Y10802518D01*
X5670194Y10812932D01*
X5677509Y10824464D01*
X5683250Y10836808D01*
X5687314Y10849813D01*
X5689549Y10863275D01*
X5690006Y10876889D01*
X5688685Y10890504D01*
X5685485Y10903762D01*
X5680608Y10916462D01*
X5674055Y10928451D01*
X5665978Y10939424D01*
X5656478Y10949228D01*
X5645759Y10957661D01*
X5633872Y10964722D01*
X5631230Y10966958D01*
X5629503Y10970006D01*
X5628894Y10973460D01*
X5628894Y11005718D01*
X5629605Y11009376D01*
X5631586Y11012576D01*
X5634583Y11014811D01*
X5642203Y11018570D01*
X5653989Y11026495D01*
X5664657Y11035842D01*
X5674004Y11046510D01*
X5681929Y11058296D01*
X5688177Y11070996D01*
X5692749Y11084458D01*
X5695492Y11098326D01*
X5696458Y11112500D01*
X5695492Y11126673D01*
X5692749Y11140541D01*
X5688177Y11154003D01*
X5681929Y11166703D01*
X5674004Y11178489D01*
X5664657Y11189157D01*
X5653989Y11198504D01*
X5642203Y11206429D01*
X5629503Y11212677D01*
X5616041Y11217249D01*
X5602173Y11219992D01*
X5588000Y11220958D01*
X5573826Y11219992D01*
X5559958Y11217249D01*
X5546496Y11212677D01*
X5533796Y11206429D01*
X5522010Y11198504D01*
X5511342Y11189157D01*
X5501995Y11178489D01*
X5494070Y11166703D01*
X5487822Y11154003D01*
X5483250Y11140541D01*
X5480507Y11126673D01*
X5479542Y11112500D01*
X5480507Y11098326D01*
X5483250Y11084458D01*
X5487822Y11070996D01*
X5494070Y11058296D01*
X5501995Y11046510D01*
X5511342Y11035842D01*
X5522010Y11026495D01*
X5533796Y11018570D01*
X5541416Y11014811D01*
X5544413Y11012576D01*
X5546394Y11009376D01*
X5547106Y11005718D01*
X5547106Y10973460D01*
X5546496Y10970006D01*
X5544769Y10966958D01*
X5542127Y10964722D01*
X5530240Y10957661D01*
X5519521Y10949228D01*
X5510022Y10939424D01*
X5501944Y10928451D01*
X5495391Y10916462D01*
X5490514Y10903762D01*
X5487314Y10890504D01*
X5485993Y10876889D01*
X5486450Y10863275D01*
X5488686Y10849813D01*
X5492750Y10836808D01*
X5498490Y10824464D01*
X5505805Y10812932D01*
X5514594Y10802518D01*
X5524754Y10793374D01*
X5535980Y10785652D01*
X5548122Y10779506D01*
X5561025Y10775035D01*
X5574385Y10772343D01*
G37*
G36*
X1921510Y11078972D02*
G01*
X1962861Y11078972D01*
X1969160Y11079683D01*
X1974646Y11081613D01*
X1979523Y11084661D01*
X1983638Y11088776D01*
X1986686Y11093653D01*
X1988616Y11099139D01*
X1989328Y11105438D01*
X1989328Y11146790D01*
X1921510Y11146790D01*
G37*
G36*
X1516938Y11078972D02*
G01*
X1708861Y11078972D01*
X1715160Y11079683D01*
X1720646Y11081613D01*
X1725523Y11084661D01*
X1729638Y11088776D01*
X1731314Y11091418D01*
X1734108Y11094364D01*
X1737868Y11095990D01*
X1741932Y11095990D01*
X1745691Y11094364D01*
X1748485Y11091418D01*
X1750161Y11088776D01*
X1754276Y11084661D01*
X1759153Y11081613D01*
X1764639Y11079683D01*
X1770938Y11078972D01*
X1812289Y11078972D01*
X1812289Y11146790D01*
X1745488Y11146790D01*
X1741576Y11147552D01*
X1738325Y11149787D01*
X1736089Y11153038D01*
X1735328Y11156950D01*
X1735328Y11245850D01*
X1736089Y11249761D01*
X1738325Y11253012D01*
X1741576Y11255248D01*
X1745488Y11256010D01*
X1812289Y11256010D01*
X1812289Y11323828D01*
X1770938Y11323828D01*
X1764639Y11323116D01*
X1759153Y11321186D01*
X1754276Y11318138D01*
X1750161Y11314023D01*
X1748485Y11311382D01*
X1745691Y11308435D01*
X1741932Y11306810D01*
X1737868Y11306810D01*
X1734108Y11308435D01*
X1731314Y11311382D01*
X1729638Y11314023D01*
X1725523Y11318138D01*
X1720646Y11321186D01*
X1715160Y11323116D01*
X1708861Y11323828D01*
X1516938Y11323828D01*
X1510639Y11323116D01*
X1505153Y11321186D01*
X1500276Y11318138D01*
X1496161Y11314023D01*
X1493113Y11309146D01*
X1491183Y11303660D01*
X1490472Y11297361D01*
X1490472Y11105438D01*
X1491183Y11099139D01*
X1493113Y11093653D01*
X1496161Y11088776D01*
X1500276Y11084661D01*
X1505153Y11081613D01*
X1510639Y11079683D01*
G37*
G36*
X3003550Y11109756D02*
G01*
X3003550Y11156950D01*
X2956356Y11156950D01*
X2958490Y11152327D01*
X2965805Y11140846D01*
X2974594Y11130432D01*
X2984754Y11121288D01*
X2995980Y11113566D01*
G37*
G36*
X3092450Y11109756D02*
G01*
X3100019Y11113566D01*
X3111246Y11121288D01*
X3121406Y11130432D01*
X3130194Y11140846D01*
X3137509Y11152327D01*
X3139643Y11156950D01*
X3092450Y11156950D01*
G37*
G36*
X3092450Y11245850D02*
G01*
X3139795Y11245850D01*
X3134055Y11256314D01*
X3125978Y11267287D01*
X3116478Y11277092D01*
X3105759Y11285575D01*
X3094024Y11292535D01*
X3092450Y11293195D01*
G37*
G36*
X2956204Y11245850D02*
G01*
X3003550Y11245850D01*
X3003550Y11293195D01*
X3001975Y11292535D01*
X2990240Y11285575D01*
X2979521Y11277092D01*
X2970022Y11267287D01*
X2961944Y11256314D01*
G37*
G36*
X1921510Y11256010D02*
G01*
X1989328Y11256010D01*
X1989328Y11297361D01*
X1988616Y11303660D01*
X1986686Y11309146D01*
X1983638Y11314023D01*
X1979523Y11318138D01*
X1974646Y11321186D01*
X1969160Y11323116D01*
X1962861Y11323828D01*
X1921510Y11323828D01*
G37*

%LPD*%
D11*
X6858000Y7988300D02*
G01*
X6959600Y7988300D01*
X7023100Y7924800D01*
X7213600Y7924800D01*
X7353300Y7785100D01*
X6311900Y11597386D02*
G01*
X6680200Y11229086D01*
X6680200Y10147300D01*
X6438900Y9906000D01*
X3822700Y9906000D01*
X3644900Y9728200D01*
X3644900Y9613900D01*
X3307735Y9276735D01*
X3307735Y8777300D01*
X1527058Y7785100D02*
G01*
X3530600Y7785100D01*
X3748811Y7566888D01*
X3748811Y6604000D01*
X4216400Y6197600D02*
G01*
X4216400Y6197600D01*
X3810000Y6604000D01*
X3748811Y6604000D01*
X5588000Y9573488D02*
G01*
X5593120Y9568367D01*
X5593120Y8777300D01*
X4263491Y11226393D02*
G01*
X4263491Y11057991D01*
X3987800Y10782300D01*
X3581400Y10782300D01*
X3479800Y10680700D01*
X3479800Y9652000D01*
X3111500Y9283700D01*
X3111500Y9067800D01*
X3022158Y8978458D01*
X2985203Y8978458D01*
X4143502Y11226393D02*
G01*
X4140200Y11223091D01*
X4140200Y11074400D01*
X4000500Y10934700D01*
X3568700Y10934700D01*
X3314700Y10680700D01*
X3314700Y9652000D01*
X2984500Y9321800D01*
X2984500Y9182100D01*
X1257300Y7785100D02*
G01*
X1527058Y7785100D01*
X1257300Y9563100D02*
G01*
X1257300Y9855200D01*
X1003300Y9563100D02*
G01*
X990600Y9575800D01*
X990600Y9860216D01*
X1257300Y9055100D02*
G01*
X1193800Y9055100D01*
X1066800Y9182100D01*
X800100Y9182100D01*
X6756400Y9296400D02*
G01*
X6769100Y9309100D01*
X7099300Y9309100D01*
X6771871Y9055100D02*
G01*
X7099300Y9055100D01*
X6858703Y5245100D02*
G01*
X7099300Y5245100D01*
X6862089Y4991100D02*
G01*
X7099300Y4991100D01*
X1003300Y4991100D02*
G01*
X812800Y4991100D01*
X812800Y5245100D02*
G01*
X1003300Y5245100D01*
X1257300Y5499100D02*
G01*
X1524000Y5499100D01*
X1257300Y4991100D02*
G01*
X1524000Y4991100D01*
X1257300Y5245100D02*
G01*
X1524000Y5245100D01*
X6864774Y6515100D02*
G01*
X7099300Y6515100D01*
X6861388Y6769100D02*
G01*
X7099300Y6769100D01*
X6858000Y7023100D02*
G01*
X7099300Y7023100D01*
X6854614Y7277100D02*
G01*
X7099300Y7277100D01*
X6853054Y7531100D02*
G01*
X7099300Y7531100D01*
X6849668Y7785100D02*
G01*
X7099300Y7785100D01*
X4495800Y10299700D02*
G01*
X6311900Y10297413D01*
X4503496Y11226393D02*
G01*
X4503496Y10307396D01*
X4495800Y10299700D01*
X4748529Y11366500D02*
G01*
X5588000Y11366500D01*
X5588000Y11112500D02*
G01*
X5588000Y10873498D01*
X4748504Y11606403D02*
G01*
X6302895Y11606403D01*
X6311900Y11597398D01*
X4748504Y11846407D02*
G01*
X6543192Y11846407D01*
X7099300Y11290300D01*
X7099300Y9563100D01*
G36*
X3823487Y11881408D02*
G01*
X3973499Y11881408D01*
X3973499Y11811406D01*
X3823487Y11811406D01*
G37*
G36*
X3823487Y11761419D02*
G01*
X3973499Y11761419D01*
X3973499Y11691416D01*
X3823487Y11691416D01*
G37*
G36*
X3823487Y11641404D02*
G01*
X3973499Y11641404D01*
X3973499Y11571401D01*
X3823487Y11571401D01*
G37*
G36*
X3823487Y11521414D02*
G01*
X3973499Y11521414D01*
X3973499Y11451412D01*
X3823487Y11451412D01*
G37*
G36*
X3823487Y11401399D02*
G01*
X3973499Y11401399D01*
X3973499Y11331397D01*
X3823487Y11331397D01*
G37*
D14*
G01*
X4023486Y11226393D03*
G01*
X4143502Y11226393D03*
G01*
X4263491Y11226393D03*
G01*
X4383481Y11226393D03*
G01*
X4503496Y11226393D03*
G01*
X4623485Y11226393D03*
D13*
G01*
X4748504Y11366398D03*
G01*
X4748504Y11486413D03*
G01*
X4748504Y11606403D03*
G01*
X4748504Y11726418D03*
G01*
X4748504Y11846407D03*
D15*
G01*
X2209800Y6604000D03*
G01*
X1955800Y6604000D03*
G01*
X5588000Y11112500D03*
G01*
X5588000Y11366500D03*
D16*
G01*
X4597400Y7213600D03*
D17*
G01*
X4851400Y7213600D03*
G01*
X4597400Y6959600D03*
G01*
X4851400Y6959600D03*
G01*
X4597400Y6705600D03*
G01*
X4851400Y6705600D03*
G01*
X4597400Y6451600D03*
G01*
X4851400Y6451600D03*
G01*
X4597400Y6197600D03*
G01*
X4851400Y6197600D03*
G01*
X4597400Y5943600D03*
G01*
X4851400Y5943600D03*
D18*
G01*
X5181600Y9177299D03*
D19*
G01*
X5181600Y8977299D03*
G01*
X5181600Y8777300D03*
G01*
X5181600Y8577300D03*
D18*
G01*
X6184900Y9177299D03*
D19*
G01*
X6184900Y8977299D03*
G01*
X6184900Y8777300D03*
G01*
X6184900Y8577300D03*
D20*
G01*
X3736111Y5118100D03*
G01*
X2436088Y5118100D03*
G01*
X3736111Y5842000D03*
G01*
X2436088Y5842000D03*
G01*
X6311900Y11597386D03*
G01*
X6311900Y10297388D03*
D18*
G01*
X6134100Y5313400D03*
D19*
G01*
X6134100Y5513400D03*
G01*
X6134100Y5713399D03*
G01*
X6134100Y5913399D03*
D20*
G01*
X5588000Y9573488D03*
G01*
X5588000Y10873486D03*
D18*
G01*
X2552700Y9177299D03*
D19*
G01*
X2552700Y8977299D03*
G01*
X2552700Y8777300D03*
G01*
X2552700Y8577300D03*
D20*
G01*
X3748811Y6604000D03*
G01*
X2448788Y6604000D03*
D15*
G01*
X2197074Y5120309D03*
G01*
X1943125Y5115890D03*
G01*
X2209800Y5842000D03*
G01*
X1955800Y5842000D03*
D21*
G01*
X1866900Y11201400D03*
G01*
X1612900Y11201400D03*
G01*
X1612900Y10477500D03*
G01*
X1866900Y10477500D03*
D20*
G01*
X7099300Y9563100D03*
G01*
X7353300Y9563100D03*
G01*
X7099300Y9309100D03*
G01*
X7353300Y9309100D03*
G01*
X7099300Y9055100D03*
G01*
X7353300Y9055100D03*
G01*
X7099300Y8801100D03*
G01*
X7353300Y8801100D03*
G01*
X7099300Y8547100D03*
G01*
X7353300Y8547100D03*
G01*
X7099300Y8293100D03*
G01*
X7353300Y8293100D03*
G01*
X7099300Y8039100D03*
G01*
X7353300Y8039100D03*
G01*
X7099300Y7785100D03*
G01*
X7353300Y7785100D03*
G01*
X7099300Y7531100D03*
G01*
X7353300Y7531100D03*
G01*
X7099300Y7277100D03*
G01*
X7353300Y7277100D03*
G01*
X7099300Y7023100D03*
G01*
X7353300Y7023100D03*
G01*
X7099300Y6769100D03*
G01*
X7353300Y6769100D03*
G01*
X7099300Y6515100D03*
G01*
X7353300Y6515100D03*
G01*
X7099300Y6261100D03*
G01*
X7353300Y6261100D03*
G01*
X7099300Y6007100D03*
G01*
X7353300Y6007100D03*
G01*
X7099300Y5753100D03*
G01*
X7353300Y5753100D03*
G01*
X7099300Y5499100D03*
G01*
X7353300Y5499100D03*
G01*
X7099300Y5245100D03*
G01*
X7353300Y5245100D03*
G01*
X7099300Y4991100D03*
G01*
X7353300Y4991100D03*
G01*
X1003300Y9563100D03*
G01*
X1257300Y9563100D03*
G01*
X1003300Y9309100D03*
G01*
X1257300Y9309100D03*
G01*
X1003300Y9055100D03*
G01*
X1257300Y9055100D03*
G01*
X1003300Y8801100D03*
G01*
X1257300Y8801100D03*
G01*
X1003300Y8547100D03*
G01*
X1257300Y8547100D03*
G01*
X1003300Y8293100D03*
G01*
X1257300Y8293100D03*
G01*
X1003300Y8039100D03*
G01*
X1257300Y8039100D03*
G01*
X1003300Y7785100D03*
G01*
X1257300Y7785100D03*
G01*
X1003300Y7531100D03*
G01*
X1257300Y7531100D03*
G01*
X1003300Y7277100D03*
G01*
X1257300Y7277100D03*
G01*
X1003300Y7023100D03*
G01*
X1257300Y7023100D03*
G01*
X1003300Y6769100D03*
G01*
X1257300Y6769100D03*
G01*
X1003300Y6515100D03*
G01*
X1257300Y6515100D03*
G01*
X1003300Y6261100D03*
G01*
X1257300Y6261100D03*
G01*
X1003300Y6007100D03*
G01*
X1257300Y6007100D03*
G01*
X1003300Y5753100D03*
G01*
X1257300Y5753100D03*
G01*
X1003300Y5499100D03*
G01*
X1257300Y5499100D03*
G01*
X1003300Y5245100D03*
G01*
X1257300Y5245100D03*
G01*
X1003300Y4991100D03*
G01*
X1257300Y4991100D03*
G01*
X3048000Y11201400D03*
G01*
X3048000Y10693400D03*
G01*
X3987800Y10299700D03*
G01*
X4495800Y10299700D03*
D18*
G01*
X4216400Y9177299D03*
D19*
G01*
X4216400Y8977299D03*
G01*
X4216400Y8777300D03*
G01*
X4216400Y8577300D03*
D12*
G01*
X6858000Y7988300D03*
G01*
X6849699Y7785100D03*
G01*
X6853100Y7531100D03*
G01*
X6864799Y6515100D03*
G01*
X6861401Y6769100D03*
G01*
X6858000Y7023100D03*
G01*
X6854598Y7277100D03*
G01*
X1524000Y5499100D03*
G01*
X1524000Y5245100D03*
G01*
X1524000Y4991100D03*
G01*
X812800Y5245100D03*
G01*
X812800Y4991100D03*
G01*
X6858703Y5245100D03*
G01*
X6862089Y4991100D03*
G01*
X6756400Y9309100D03*
G01*
X6756400Y9055100D03*
G01*
X812800Y9182100D03*
G01*
X990600Y9860201D03*
G01*
X1257300Y9855200D03*
G01*
X1527098Y7785100D03*
G01*
X2984500Y9182100D03*
G01*
X2985201Y8978501D03*
G01*
X5593120Y8777300D03*
G01*
X4216400Y6197600D03*
G01*
X3307699Y8777300D03*
M02*
