G04 Layer: BottomSolderMaskLayer*
G04 EasyEDA v6.4.31, 2022-02-12 21:58:38*
G04 11df6e3db19843adbe4402e5d5cbdb9a,955daf9958a1483280a48a3f8fd5623a,10*
G04 Gerber Generator version 0.2*
G04 Scale: 100 percent, Rotated: No, Reflected: No *
G04 Dimensions in millimeters *
G04 leading zeros omitted , absolute positions ,4 integer and 5 decimal *
%FSLAX45Y45*%
%MOMM*%

%ADD26C,1.7526*%
%ADD28C,1.8016*%
%ADD30C,1.4732*%
%ADD31C,1.6256*%
%ADD32C,1.8542*%
%ADD35R,2.1336X2.1336*%
%ADD36C,1.7272*%

%LPD*%
D26*
G01*
X2209800Y6604000D03*
G01*
X1955800Y6604000D03*
G01*
X5588000Y11112500D03*
G01*
X5588000Y11366500D03*
G36*
X4512309Y7123429D02*
G01*
X4512309Y7303770D01*
X4682490Y7303770D01*
X4682490Y7123429D01*
G37*
D28*
G01*
X4851400Y7213600D03*
G01*
X4597400Y6959600D03*
G01*
X4851400Y6959600D03*
G01*
X4597400Y6705600D03*
G01*
X4851400Y6705600D03*
G01*
X4597400Y6451600D03*
G01*
X4851400Y6451600D03*
G01*
X4597400Y6197600D03*
G01*
X4851400Y6197600D03*
G01*
X4597400Y5943600D03*
G01*
X4851400Y5943600D03*
G36*
X5107940Y9103613D02*
G01*
X5107940Y9250934D01*
X5255259Y9250934D01*
X5255259Y9103613D01*
G37*
D30*
G01*
X5181600Y8977299D03*
G01*
X5181600Y8777300D03*
G01*
X5181600Y8577300D03*
G36*
X6111240Y9103613D02*
G01*
X6111240Y9250934D01*
X6258559Y9250934D01*
X6258559Y9103613D01*
G37*
G01*
X6184900Y8977299D03*
G01*
X6184900Y8777300D03*
G01*
X6184900Y8577300D03*
D31*
G01*
X3736111Y5118100D03*
G01*
X2436088Y5118100D03*
G01*
X3736111Y5842000D03*
G01*
X2436088Y5842000D03*
G01*
X6311900Y11597386D03*
G01*
X6311900Y10297388D03*
G36*
X6060440Y5239765D02*
G01*
X6060440Y5387086D01*
X6207759Y5387086D01*
X6207759Y5239765D01*
G37*
D30*
G01*
X6134100Y5513400D03*
G01*
X6134100Y5713399D03*
G01*
X6134100Y5913399D03*
D31*
G01*
X5588000Y9573488D03*
G01*
X5588000Y10873486D03*
G36*
X2479040Y9103613D02*
G01*
X2479040Y9250934D01*
X2626359Y9250934D01*
X2626359Y9103613D01*
G37*
D30*
G01*
X2552700Y8977299D03*
G01*
X2552700Y8777300D03*
G01*
X2552700Y8577300D03*
D31*
G01*
X3748811Y6604000D03*
G01*
X2448788Y6604000D03*
D32*
G01*
X2197074Y5120309D03*
G01*
X1943125Y5115890D03*
G01*
X2209800Y5842000D03*
G01*
X1955800Y5842000D03*
D35*
G01*
X1866900Y11201400D03*
G01*
X1612900Y11201400D03*
G36*
X1506220Y10370820D02*
G01*
X1506220Y10584179D01*
X1719579Y10584179D01*
X1719579Y10370820D01*
G37*
G36*
X1760220Y10370820D02*
G01*
X1760220Y10584179D01*
X1973579Y10584179D01*
X1973579Y10370820D01*
G37*
D36*
G01*
X7099300Y9563100D03*
G01*
X7353300Y9563100D03*
G01*
X7099300Y9309100D03*
G01*
X7353300Y9309100D03*
G01*
X7099300Y9055100D03*
G01*
X7353300Y9055100D03*
G01*
X7099300Y8801100D03*
G01*
X7353300Y8801100D03*
G01*
X7099300Y8547100D03*
G01*
X7353300Y8547100D03*
G01*
X7099300Y8293100D03*
G01*
X7353300Y8293100D03*
G01*
X7099300Y8039100D03*
G01*
X7353300Y8039100D03*
G01*
X7099300Y7785100D03*
G01*
X7353300Y7785100D03*
G01*
X7099300Y7531100D03*
G01*
X7353300Y7531100D03*
G01*
X7099300Y7277100D03*
G01*
X7353300Y7277100D03*
G01*
X7099300Y7023100D03*
G01*
X7353300Y7023100D03*
G01*
X7099300Y6769100D03*
G01*
X7353300Y6769100D03*
G01*
X7099300Y6515100D03*
G01*
X7353300Y6515100D03*
G01*
X7099300Y6261100D03*
G01*
X7353300Y6261100D03*
G01*
X7099300Y6007100D03*
G01*
X7353300Y6007100D03*
G01*
X7099300Y5753100D03*
G01*
X7353300Y5753100D03*
G01*
X7099300Y5499100D03*
G01*
X7353300Y5499100D03*
G01*
X7099300Y5245100D03*
G01*
X7353300Y5245100D03*
G01*
X7099300Y4991100D03*
G01*
X7353300Y4991100D03*
G01*
X1003300Y9563100D03*
G01*
X1257300Y9563100D03*
G01*
X1003300Y9309100D03*
G01*
X1257300Y9309100D03*
G01*
X1003300Y9055100D03*
G01*
X1257300Y9055100D03*
G01*
X1003300Y8801100D03*
G01*
X1257300Y8801100D03*
G01*
X1003300Y8547100D03*
G01*
X1257300Y8547100D03*
G01*
X1003300Y8293100D03*
G01*
X1257300Y8293100D03*
G01*
X1003300Y8039100D03*
G01*
X1257300Y8039100D03*
G01*
X1003300Y7785100D03*
G01*
X1257300Y7785100D03*
G01*
X1003300Y7531100D03*
G01*
X1257300Y7531100D03*
G01*
X1003300Y7277100D03*
G01*
X1257300Y7277100D03*
G01*
X1003300Y7023100D03*
G01*
X1257300Y7023100D03*
G01*
X1003300Y6769100D03*
G01*
X1257300Y6769100D03*
G01*
X1003300Y6515100D03*
G01*
X1257300Y6515100D03*
G01*
X1003300Y6261100D03*
G01*
X1257300Y6261100D03*
G01*
X1003300Y6007100D03*
G01*
X1257300Y6007100D03*
G01*
X1003300Y5753100D03*
G01*
X1257300Y5753100D03*
G01*
X1003300Y5499100D03*
G01*
X1257300Y5499100D03*
G01*
X1003300Y5245100D03*
G01*
X1257300Y5245100D03*
G01*
X1003300Y4991100D03*
G01*
X1257300Y4991100D03*
G01*
X3048000Y11201400D03*
G01*
X3048000Y10693400D03*
G01*
X3987800Y10299700D03*
G01*
X4495800Y10299700D03*
G36*
X4142740Y9103613D02*
G01*
X4142740Y9250934D01*
X4290059Y9250934D01*
X4290059Y9103613D01*
G37*
D30*
G01*
X4216400Y8977299D03*
G01*
X4216400Y8777300D03*
G01*
X4216400Y8577300D03*
M02*
